<svg width="594" height="738" viewBox="0 0 594 738" fill="none" xmlns="http://www.w3.org/2000/svg">
<path d="M556.763 151.389L583.773 299.32C590.411 335.679 591.371 372.847 586.617 409.5V409.5M38.9167 268.575L4.3558 393.125C3.27246 397.029 3.40043 401.171 4.72278 405L49.0431 533.362C49.9974 536.126 50.3341 539.065 50.0295 541.973L40.2572 635.268C39.4407 643.062 43.2525 650.616 50.0079 654.59L50.4919 654.874M401.475 21.5L217.953 2.76347C213.132 2.2713 208.296 3.54611 204.345 6.35101L82.1339 93.099C71.5865 102.409 56.9746 134 52.9746 142.5M50.4919 318.364V318.364C38.9903 268.892 36.6366 217.186 47.1941 167.504C50.1719 153.49 52.4843 143.542 52.9746 142.5M52.9746 142.5L78.0945 209.071M50.4919 654.874L88.2762 677.101C90.4453 678.377 92.8358 679.232 95.3221 679.621L385.089 725.003M50.4919 654.874C123.201 753.108 299.337 738.187 385.089 725.003M385.089 725.003V725.003C413.594 729.468 442.784 725.207 468.825 712.782L472.292 711.127C517.687 689.467 549.796 647.181 558.47 597.636L572.921 515.092L586.617 409.5M586.617 409.5C553.039 327.1 487.865 271.5 459.475 254" stroke="#DAFFF5" stroke-width="5"/>
<path d="M56.6923 158.408C54.4936 155.174 51.0587 155.55 49.9746 163.5L51.9746 141L64.9746 122.5C57.0301 140.659 55.8278 152.176 56.6923 158.408C57.5358 159.649 58.1974 161.421 58.4746 163.5C57.7479 162.628 57.0466 160.962 56.6923 158.408Z" fill="#DAFFF5"/>
<path d="M553.997 373.5C553.968 373.032 553.966 372.53 553.997 372.012L553.997 330.5C553.997 338.604 563.845 359.487 565.975 366.916C556.842 362.209 554.255 367.665 553.997 372.012V373.5Z" fill="#DAFFF5"/>
<path d="M14.8111 403.7C14.8111 419.611 14.5449 433.122 10.4549 433.122C6.36493 433.122 0 419.611 0 403.7C0 387.789 4.62245 368.761 8.71243 368.761C12.8024 368.761 14.8111 387.789 14.8111 403.7Z" fill="#DAFFF5"/>
<ellipse cx="41.0589" cy="7.28803" rx="41.0589" ry="7.28803" transform="matrix(0.999114 -0.042088 0.0517191 0.998662 337.631 722.664)" fill="#DAFFF5"/>
<path d="M238.325 45.1316L98.966 100.993L53.8594 372.404L65.9776 487.162L62.5242 492.872C57.1219 501.804 56.6186 512.867 61.1876 522.253C64.2858 528.618 65.094 535.856 63.476 542.748L61.5432 550.979C56.8323 571.042 63.8362 592.048 79.6454 605.269L90.8872 614.67L106.372 666.281L153.498 677.818L278.719 688.14L388.456 677.818L463.185 671.139L513.827 657.995L539.26 614.67L533.477 559.192C532.435 549.194 535.236 539.173 541.311 531.165L543.462 528.329C547.288 523.286 549.359 517.131 549.359 510.801V510.599C549.359 504.827 547.597 499.192 544.31 494.448C541.022 489.704 539.26 484.069 539.26 478.297V354.188L561.975 196.5L552.698 170.026C550.479 163.693 548.975 157.132 548.214 150.464L541.747 93.77C541.236 89.2881 539.979 84.9231 538.03 80.8551C532.632 69.5884 522.337 61.4427 510.131 58.7795L474.475 51H454.475L445.475 47L424.975 42.5L398.475 33.5L238.325 45.1316Z" fill="#DAFFF5" stroke="#DAFFF5" stroke-width="32"/>
<path d="M237.651 40.2739L100.985 95.5277L88.1934 119.208L60.5908 374.832L78.7681 614.67L100.985 671.138L148.111 691.783L257.175 679.639L386.436 686.318L486.747 671.138L512.33 658.387L525.795 614.67L549.358 352.367L532.527 113.743L512.33 79.1337L434.908 54.2392L237.651 40.2739Z" fill="#DB9F42"/>
<path d="M121.9 595.793L121.726 597.326L122.446 598.691C124.734 603.031 128.896 609.571 134.102 615.353C139.146 620.955 145.95 626.729 153.623 628.018C164.673 629.874 176.672 633.002 181.932 634.515C185.078 636.588 189.595 639.54 193.666 642.151C195.839 643.546 197.903 644.854 199.568 645.881C201.102 646.828 202.613 647.735 203.485 648.138C204.948 648.814 206.323 648.66 206.816 648.597C207.452 648.514 208.073 648.354 208.548 648.221C209.098 648.067 209.845 647.833 210.673 647.574C211.201 647.409 211.762 647.233 212.327 647.061C215.458 646.107 220.356 644.731 227.892 643.315C243.001 640.476 268.841 637.456 312.381 637.456H312.844L313.299 637.371L368.135 627.132H411.402C412.597 627.132 413.591 626.715 413.894 626.588L413.912 626.58C414.399 626.376 414.891 626.124 415.344 625.874C416.263 625.368 417.366 624.682 418.57 623.888C420.997 622.288 424.112 620.067 427.523 617.506C434.342 612.388 442.555 605.751 449.107 599.698C455.649 593.654 457.719 590.974 459.318 586.648C459.545 586.032 459.76 585.397 459.994 584.707C461.032 581.64 462.435 577.497 466.93 569.191C476.647 551.236 480.755 526.125 481.658 497.732L481.675 497.218L481.586 496.712L465.59 405.252L476.167 352.191L476.238 351.837L476.257 351.477L482.993 224.111L482.995 224.075L482.996 224.04L486.376 136.673L486.431 135.243L485.721 134C483.54 130.182 479.527 128.784 476.316 128.145C472.993 127.484 469.025 127.361 465.303 127.255L465.28 127.254C457.301 127.027 449.674 126.81 443.869 123.922C440.629 122.311 435.828 119.372 429.838 115.65C429.215 115.263 428.582 114.869 427.938 114.469C422.488 111.079 416.307 107.235 409.917 103.518C402.776 99.3646 395.267 95.3078 388.074 92.1589C380.95 89.0405 373.792 86.6563 367.428 86.1218L367.361 86.1161L367.294 86.1123C353.836 85.3448 340.536 82.9284 328.071 80.6637C324.045 79.9323 320.107 79.2168 316.279 78.5777C308.571 77.2911 301.247 76.3108 294.836 76.3009C289.224 76.2922 283.768 77.0167 279.229 79.371C271.619 78.3886 260.135 77.5091 248.228 77.7845C235.581 78.077 221.771 79.6797 211.661 84.3151C202.124 88.189 193.299 94.1965 185.975 99.5976C184.073 101 181.996 102.573 180.077 104.025C178.563 105.171 177.148 106.243 175.995 107.097C173.011 109.309 170.691 110.903 168.93 111.819C160.269 116.32 151.347 121.191 147.956 123.071L147.738 123.192L147.532 123.334C144.519 125.422 140.159 129.105 136.632 133.578C133.239 137.879 129.832 143.906 130.615 150.418C130.614 150.408 130.613 150.421 130.612 150.461C130.604 150.645 130.572 151.402 130.339 153.037C130.087 154.801 129.671 157.149 129.102 160.035C127.966 165.798 126.266 173.486 124.184 182.5C120.959 196.457 116.848 213.465 112.558 231.21C111.309 236.379 110.044 241.611 108.782 246.848C103.194 270.032 97.654 293.318 93.7206 311.594C91.7556 320.725 90.1767 328.674 89.1934 334.764C88.7029 337.802 88.3476 340.457 88.1727 342.602C88.0182 344.497 87.926 346.728 88.3936 348.456C90.0224 354.476 97.7183 390.778 105.141 427.168C108.839 445.301 112.451 463.365 115.18 477.549C116.544 484.643 117.684 490.749 118.503 495.401C119.347 500.195 119.789 503.125 119.851 504.106C119.936 505.437 120.13 507.638 120.384 510.535C121.837 527.039 125.278 566.15 121.9 595.793Z" fill="#EFC588" stroke="#EFC588" stroke-width="10"/>
<path d="M247.475 696C256.275 696 267.475 705 271.975 709.5L174.975 703L122.975 690L93.4746 676.5L66.9746 647.5L70.9746 617.5C73.6413 619.5 79.3746 623.6 80.9746 624C82.5746 624.4 86.9746 639.833 88.9746 647.5C91.9746 652.833 98.8746 663.8 102.475 665C106.075 666.2 125.975 679.5 135.475 686L162.975 686C169.975 686 188.475 696 197.975 696L220.475 696C229.975 696 226.975 700 230.975 700C234.975 700 236.475 696 247.475 696Z" fill="#D5FDF4"/>
<path d="M34.4746 281.5C35.7744 270.669 38.5758 239.94 37.9994 224.772L37.4746 219C37.7416 220.468 37.9106 222.436 37.9994 224.772L41.4746 263L41.9746 283.5C40.9746 280.167 42.4746 273.5 34.4746 281.5Z" fill="#DAFFF5"/>
<ellipse cx="18.8249" cy="42.5738" rx="18.8249" ry="42.5738" transform="matrix(0.994049 0.108931 -0.133514 0.991047 532.29 432.596)" fill="#DAFFF5"/>
</svg>
