<svg width="623" height="745" viewBox="0 0 623 745" fill="none" xmlns="http://www.w3.org/2000/svg">
<path d="M77.7733 536.518L65.334 510.494C39.431 456.301 25.3917 397.204 24.1544 337.152V337.152M581.57 448.632L606.793 341.353C607.69 337.535 607.446 333.539 606.09 329.86L559.062 202.242C558.051 199.498 557.654 196.567 557.899 193.653L565.747 100.177C566.403 92.3667 562.436 84.8933 555.6 81.0595L555.11 80.7848M581.57 448.632L545.274 410.371M581.57 448.632V448.632C604.529 472.834 614.875 506.518 599.069 535.895C583.469 564.89 563.932 591.423 563.184 593.102M250.312 706.511L365.942 728.648C393.137 733.854 421.269 727.434 443.512 710.946L535.048 643.093C545.401 633.567 559.36 601.682 563.184 593.102M563.184 593.102L536.698 527.062M555.11 80.7848L516.876 59.3417C514.681 58.1107 512.274 57.305 509.78 56.9669L219.14 17.5638M555.11 80.7848C480.393 -15.9303 304.602 2.61657 219.14 17.5638M219.14 17.5638V17.5638C190.548 13.6875 161.453 18.5483 135.674 31.5077L133.447 32.6271C87.989 55.4793 57.0849 99.6755 51.2233 150.215L38.9814 255.769L24.1544 337.152M24.1544 337.152C59.4221 418.843 66.9282 441.732 95.6728 458.644" stroke="#DAFFF5" stroke-width="5"/>
<path d="M78.6589 161.908C76.4601 158.674 73.0253 159.05 71.9412 167L73.9412 144.5L86.9412 126C78.9966 144.159 77.7944 155.676 78.6589 161.908C79.5023 163.149 80.1639 164.921 80.4412 167C79.7145 166.128 79.0132 164.462 78.6589 161.908Z" fill="#DAFFF5"/>
<path d="M555.963 445C555.935 444.532 555.933 444.03 555.963 443.512L555.963 402C555.963 410.104 565.812 430.987 567.941 438.416C558.809 433.709 556.221 439.165 555.963 443.512V445Z" fill="#DAFFF5"/>
<path d="M94.0214 622.712C103.088 635.787 110.568 647.042 107.207 649.373C103.846 651.703 90.9164 644.227 81.85 631.152C72.7837 618.076 65.7398 599.806 69.1008 597.475C72.4618 595.145 84.9551 609.637 94.0214 622.712Z" fill="#DAFFF5"/>
<path d="M53.4412 481.5C59.9414 524.5 89.2023 636.175 95.6302 647C97.0982 635.782 147.941 693 160.119 669.37L95.6301 551.822L53.4412 481.5Z" fill="#DAFFF5"/>
<path d="M144.441 662.14L108.941 612.5L77.9441 423V237.978L74.4907 232.268C69.0884 223.335 68.5852 212.272 73.1542 202.886C76.2523 196.522 77.0606 189.283 75.4425 182.392L73.5098 174.161C68.7989 154.097 75.8027 133.092 91.6119 119.871L102.854 110.469L118.338 58.8586L165.464 47.3221L290.686 36.9999L400.423 47.3221L475.441 42.5L525.793 67.1448L568.441 110.469L561.325 178V204.583V214.113C561.325 220.164 559.479 226.07 556.033 231.043C552.891 235.577 551.073 240.895 550.781 246.403L541.441 423L552.941 531L557.39 548.85C559.992 559.294 560.701 570.12 559.481 580.814L553.713 631.37C553.202 635.852 551.946 640.217 549.997 644.285C544.598 655.551 534.303 663.697 522.097 666.36L486.441 674.14H466.441L457.441 678.14L436.941 682.64L410.441 691.64L283.441 706.5L144.441 662.14Z" fill="#DAFFF5" stroke="#DAFFF5" stroke-width="32"/>
<path d="M475.441 38.5H331.941L242.441 46H176.941L122.951 71L100.735 132.5L81.4407 255V436L100.735 598.17L122.951 654.638L170.078 675.283L279.141 703.139L408.402 689.818L508.714 654.638L547.761 598.17L540.441 414.5L569.441 145.5L540.441 90L475.441 38.5Z" fill="#DB9F42"/>
<path d="M208.96 635.487L209.382 635.973L209.914 636.337C213.063 638.489 217.922 641.784 222.271 644.674C224.443 646.117 226.505 647.471 228.169 648.534C229.255 649.228 230.331 649.903 231.178 650.387C231.228 650.453 231.288 650.532 231.359 650.625C231.93 651.373 232.794 652.47 234.089 653.744C236.693 656.305 240.758 659.309 247.46 662.167C260.736 667.83 284.554 673 328.574 673H329.54L330.437 672.64L387.198 649.845H429.93C430.599 649.845 431.641 649.716 432.591 649.581C433.696 649.424 435.135 649.19 436.823 648.874C440.196 648.243 444.626 647.271 449.412 645.9C458.75 643.227 470.342 638.795 477.667 631.785C480.892 628.698 483.071 626.416 484.609 624.377C486.259 622.19 487.107 620.367 487.827 618.351C488.053 617.716 488.267 617.061 488.5 616.348C489.539 613.171 490.946 608.865 495.448 600.246C504.745 582.451 519.009 546.24 519.939 515.985L519.955 515.463L519.862 514.948L494.227 372.159L509.673 316.345L509.843 315.729L509.853 315.09L511.472 211.933L511.477 211.657L511.451 211.382L504.835 141.647L504.054 133.411L497.125 137.931C493.645 140.202 491.177 141.36 489.491 141.852C488.323 142.193 487.781 142.146 487.618 142.114C487.542 142.03 487.374 141.802 487.164 141.272C486.77 140.281 486.46 138.8 486.227 136.715C486.042 135.061 485.93 133.296 485.807 131.354C485.776 130.867 485.745 130.369 485.711 129.859C485.549 127.403 485.343 124.725 484.916 122.161C484.116 117.344 482.278 111.171 476.5 108.193C468.834 104.243 454.09 100.243 439.004 97.0245C423.73 93.7656 407.351 91.155 395.994 90.1669L395.925 90.1609L395.856 90.1568C382.42 89.363 369.144 86.8645 356.69 84.5206C352.665 83.7632 348.727 83.0219 344.896 82.3595C337.193 81.0275 329.861 80.0104 323.439 80.0001C317.826 79.9911 312.36 80.7412 307.814 83.1727C300.201 82.1575 288.742 81.2513 276.86 81.5359C264.214 81.8389 250.388 83.4992 240.263 88.3076C230.984 92.2078 214.87 100.821 200.217 108.903C191.879 113.502 184.026 117.922 177.964 121.334C173.163 124.036 169.484 126.106 167.578 127.132C158.922 131.792 150.007 136.835 146.617 138.781L146.397 138.907L146.192 139.055C143.179 141.217 138.829 145.026 135.314 149.643C131.918 154.103 128.584 160.259 129.35 166.857C129.645 169.393 129.82 180.681 129.884 196.999C129.947 213.092 129.905 233.614 129.821 254.203C129.72 278.993 129.557 303.907 129.444 321.251C129.37 332.684 129.317 340.828 129.317 343.478C129.317 384.895 126.08 423.112 122.919 452.383C121.703 463.633 120.502 473.538 119.498 481.818C119.195 484.316 118.91 486.667 118.648 488.862C118.085 493.579 117.624 497.606 117.326 500.81C117.037 503.906 116.865 506.568 116.976 508.375C117.144 511.107 118.645 513.3 119.9 514.796C121.237 516.39 122.98 517.978 124.747 519.503C125.715 520.339 126.719 521.181 127.749 522.045C130.672 524.499 133.809 527.131 136.945 530.289C145.211 538.615 152.409 549.599 150.621 565.862L150.382 568.036L151.816 569.687L208.96 635.487ZM230.871 649.991C230.881 650.003 230.892 650.016 230.903 650.029C230.824 649.946 230.811 649.92 230.871 649.991ZM487.563 142.099C487.562 142.099 487.568 142.1 487.578 142.104C487.568 142.101 487.563 142.099 487.563 142.099ZM487.641 142.137C487.656 142.147 487.663 142.153 487.663 142.154C487.662 142.155 487.655 142.15 487.641 142.137Z" fill="#EFC588" stroke="#EFC588" stroke-width="10"/>
<path d="M292.441 700.5C301.241 700.5 312.441 709.5 316.941 714L219.941 707.5L167.941 694.5L138.441 681L111.941 652L115.941 622C118.608 624 124.341 628.1 125.941 628.5C127.541 628.9 131.941 644.333 133.941 652C136.941 657.333 143.841 668.3 147.441 669.5C151.041 670.7 170.941 684 180.441 690.5L207.941 690.5C214.941 690.5 233.441 700.5 242.941 700.5L265.441 700.5C274.941 700.5 271.941 704.5 275.941 704.5C279.941 704.5 281.441 700.5 292.441 700.5Z" fill="#D5FDF4"/>
<path d="M45.9412 204C47.9412 215 38.4412 267.5 36.9412 280C44.9412 272 63.9412 358.167 64.9412 361.5L85.4412 229L45.9412 204Z" fill="#DAFFF5"/>
</svg>
