<svg width="581" height="791" viewBox="0 0 581 791" fill="none" xmlns="http://www.w3.org/2000/svg">
<path d="M38.3169 158.5L8.85868 341.621C2.98384 378.141 2.41657 415.318 7.17444 452V452M561.772 329L560.84 489.413C560.825 492.11 560.264 494.776 559.191 497.25L524.317 577.709C523.641 579.268 523.167 580.908 522.906 582.588L508.569 674.738C507.483 681.719 502.794 687.609 496.235 690.233L474.317 699M98.3169 104L146.568 81.5978C256.675 30.4764 384.829 36.4658 489.689 97.6338V97.6338C490.106 97.8774 490.462 98.1241 490.816 98.4536C502.513 109.35 556.876 176.626 560.816 185M535.697 388.5L539.632 379.521C566.526 318.153 589.346 245.625 560.816 185V185M560.816 185L535.697 251.571M474.317 699L375.935 755.354C372.909 757.088 369.482 758 365.994 758H191.317M474.317 699C401.608 797.234 298.817 809.5 191.317 758M191.317 758L97.8258 747.822C78.1157 745.676 59.7865 736.671 46.0417 722.382V722.382C27.6388 703.251 19.2896 676.587 23.4946 650.376L31.7186 599.113C31.7837 598.707 31.7821 598.293 31.7139 597.888L7.17444 452M7.17444 452C40.7518 369.6 85.9264 314 114.316 296.5" stroke="#DAFFF5" stroke-width="5"/>
<path d="M517.099 200.908C519.297 197.674 522.732 198.05 523.816 206L521.816 183.5L508.816 165C516.761 183.159 517.963 194.676 517.099 200.908C516.255 202.149 515.594 203.921 515.316 206C516.043 205.128 516.744 203.462 517.099 200.908Z" fill="#DAFFF5"/>
<path d="M436.293 718.14L498.904 639L535.932 404.736L523.813 289.978L527.267 284.268C532.669 275.335 533.172 264.273 528.603 254.886C525.505 248.522 524.697 241.283 526.315 234.392L528.248 226.161C532.959 206.097 525.955 185.092 510.146 171.871L498.904 162.469L483.419 110.859L436.293 99.3221L311.072 72.0001L201.335 82.3222L126.606 89.0012L75.9641 119.145L50.5307 162.469L56.314 217.948C57.3563 227.946 54.5554 237.966 48.4798 245.975L46.3287 248.81C42.5031 253.853 40.4322 260.009 40.4322 266.339V267.121C40.4322 272.515 42.0785 277.781 45.1512 282.215C48.6303 287.236 50.2683 293.304 49.788 299.393L40.4322 418L47.8164 562.64V607.682C47.8164 621.059 50.7984 634.268 56.5455 646.348L68.8164 672.14C76.073 687.284 89.9107 698.233 106.318 701.813L135.316 708.14L155.316 718.14L164.316 722.14L164.816 734.64L191.316 743.64L322.316 718.14H436.293Z" fill="#DAFFF5" stroke="#DAFFF5" stroke-width="32"/>
<path d="M151.317 85L263.817 77.5L353.317 85L446.317 121.634L501.817 156.243L526.817 287V439.5L495.023 637.17L473.317 682.5L425.68 714.283L293.317 728.818L184.817 740L87.0438 693.638L47.9963 637.17L33.8169 475L47.9963 200.5L55.3164 129L151.317 85Z" fill="#DB9F42"/>
<path d="M386.148 685.111L386 685.23L385.844 685.337C381.505 688.303 375.428 689.121 371.15 689.491C369.552 689.629 367.96 689.718 366.64 689.791C366.115 689.82 365.633 689.847 365.211 689.874C364.414 689.924 363.841 689.972 363.44 690.024C363.381 690.032 363.331 690.039 363.29 690.046C362.081 690.561 360.752 690.83 358.637 691.032C356.33 691.252 352.647 691.427 346.45 691.567C334.032 691.848 311.008 691.999 267.48 692L210.116 698.811L209.822 698.845H209.526C201.796 698.845 190.638 696.14 181.732 693.662C177.256 692.417 173.161 691.174 170.096 690.243L169.93 690.192C168.372 689.719 167.126 689.341 166.219 689.081C165.793 688.959 165.488 688.876 165.284 688.824C164.66 688.782 163.887 688.683 163.167 688.581C162.062 688.424 160.622 688.19 158.934 687.874C155.561 687.243 151.132 686.271 146.345 684.9C137.008 682.227 125.415 677.795 118.091 670.785C114.866 667.698 112.687 665.416 111.148 663.377C109.499 661.19 108.65 659.367 107.931 657.352C107.704 656.717 107.49 656.061 107.257 655.348C106.219 652.171 104.811 647.865 100.309 639.246C91.0124 621.451 76.7485 585.24 75.8188 554.985L75.8164 554.909V554.832V449.5V449.354L75.8249 449.208L84.2863 304.325L85.3164 215V214.971V185.28V183.47L86.476 182.079C97.7433 168.564 102.714 161.737 105.586 157.792C106.387 156.692 107.025 155.816 107.59 155.081C109.056 153.178 110.263 151.943 112.306 150.74C113.168 150.232 114.368 149.638 115.85 148.906C116.861 148.405 118.003 147.84 119.258 147.193C126.924 143.243 141.668 139.243 156.753 136.024C172.028 132.766 188.406 130.155 199.763 129.167L199.832 129.161L199.902 129.157C213.338 128.363 226.613 125.865 239.068 123.521C243.092 122.763 247.031 122.022 250.862 121.359C258.565 120.027 265.896 119.01 272.319 119C277.931 118.991 283.397 119.741 287.943 122.173C295.557 121.158 307.016 120.251 318.897 120.536C331.544 120.839 345.369 122.499 355.495 127.308C364.773 131.208 380.887 139.821 395.541 147.903C403.879 152.502 411.731 156.922 417.794 160.334C422.595 163.036 426.273 165.106 428.18 166.132C436.835 170.792 445.751 175.835 449.14 177.781L449.36 177.907L449.566 178.055C452.579 180.217 456.929 184.026 460.444 188.643C463.839 193.103 467.173 199.259 466.407 205.857C466.113 208.393 465.937 219.681 465.874 235.999C465.811 252.092 465.853 272.614 465.937 293.203C466.038 317.993 466.2 342.907 466.313 360.251C466.388 371.684 466.441 379.828 466.441 382.478C466.44 423.913 469.68 467.148 472.847 501.46C474.02 514.171 475.18 525.628 476.162 535.324C476.506 538.717 476.828 541.894 477.12 544.834C477.684 550.489 478.142 555.284 478.438 559.019C478.724 562.624 478.891 565.593 478.782 567.375C478.675 569.109 478.033 571.688 477.226 574.425C476.368 577.337 475.167 580.938 473.692 584.96C470.744 593.003 466.648 602.879 461.897 612.496C457.167 622.07 451.686 631.596 445.93 638.803C443.054 642.405 439.98 645.593 436.755 647.916C434.067 649.852 431.021 651.368 427.724 651.804L386.148 685.111ZM165.055 688.772C165.055 688.773 165.083 688.78 165.132 688.788C165.078 688.776 165.054 688.772 165.055 688.772Z" fill="#EFC588" stroke="#EFC588" stroke-width="10"/>
<ellipse cx="18.8249" cy="42.5738" rx="18.8249" ry="42.5738" transform="matrix(-0.994049 0.108931 0.133514 0.991047 66.2422 610)" fill="#DAFFF5"/>
</svg>
