<svg width="1909" height="2315" viewBox="0 0 1909 2315" fill="none" xmlns="http://www.w3.org/2000/svg">
<g clip-path="url(#clip0_458_333)">
<rect y="529" width="1920" height="370" fill="url(#paint0_radial_458_333)"/>
<rect y="529" width="1920" height="370" fill="url(#paint1_linear_458_333)"/>
<path d="M538.395 481.794C538.395 481.794 606.049 502.584 448.597 501.351C326.597 501.351 12.5004 475 96.5004 473.5C176.507 472.071 171.692 428.459 23.3015 424.315C28.5244 421.257 30.32 417.445 29.4349 412.799C27.9119 404.805 15.6995 400.832 0.873379 400.832C-17.2819 404.291 -30.765 413.575 -29.2421 421.569C-27.9009 428.608 -15.3704 432.299 0.000358582 430.718V529H1919.5L1920 430C1853 488 1808 492 1721 492C1708.01 476.296 1662.56 464.241 1623.2 458.698C1633.71 456.819 1640.35 454.062 1640.52 450.503C1640.84 444.189 1627.69 440.246 1594.17 438.58C1584.43 438.097 1575.2 438.072 1567 438.434C1562.76 409.842 1528.83 375.476 1509 386C1497.64 369.432 1483.14 366.633 1470.6 368.092C1470.6 368.092 1436.16 372.379 1423.54 396.008C1423.54 396.008 1400.76 373.932 1347.96 410.583C1347.96 410.583 1353.44 373.343 1289.72 388.614C1289.72 388.614 1248.47 390.436 1242.99 386.149C1242.99 386.149 1354.61 337.925 1297.6 302.507C1297.6 302.507 1280.62 291.523 1284.24 286.647C1284.24 286.647 1355.2 249.996 1310.32 180.393L1286.05 156.602C1286.05 156.602 1261.19 170.051 1234.47 139.509C1234.47 139.509 1173.79 127.293 1177.46 165.175C1177.46 165.175 1165.91 147.44 1136.8 174.927C1136.8 174.927 1139.83 148.083 1127.11 140.742C1127.11 140.742 1125.3 125.471 1113.16 126.06C1113.16 126.06 1094.96 78.4255 1039.76 109.557C1039.76 109.557 1013.68 88.7669 966.358 113.843C966.358 113.843 963.909 123.006 968.167 127.293C968.167 127.293 940.861 126.06 955.446 145.618C955.446 145.618 919.037 142.564 897.798 177.982C897.798 177.982 829.825 159.656 800.708 226.849C800.708 226.849 710.325 257.391 764.3 292.219C764.3 292.219 720.598 338.032 780.694 357.59C780.694 357.59 768.345 363.752 764.193 369.164C764.193 369.164 720.865 334.228 646.131 383.684C646.131 383.684 627.98 390.329 691.961 419.424C691.961 419.424 462.81 435.606 463.235 452.27C463.661 468.934 538.395 481.794 538.395 481.794Z" fill="#DBFFFA"/>
<path d="M624.417 330.346C622.156 330.912 619.907 331.474 617.6 331.764L617.653 331.71C615.07 332.027 612.556 331.859 610.036 331.691C608.713 331.603 607.387 331.515 606.049 331.496C606.83 334.85 616.112 337.537 619.458 338.506L619.676 338.569C629.417 341.409 639.797 340.016 649.857 338.569C652.146 338.247 654.914 337.604 655.712 335.354C656.191 333.961 655.712 332.353 654.754 331.228C652.465 328.495 648.473 328.228 644.906 328.228C639.584 328.228 634.208 328.281 628.938 329.299C627.413 329.598 625.913 329.973 624.418 330.346L624.417 330.346Z" fill="#DBFFFA"/>
<path d="M490.707 375.975C487.438 376.067 484.062 376.128 480.602 376.158C440.505 374.166 408.218 368.175 408.486 362.776C408.675 358.973 424.967 356.478 448.597 356.031V355.928H535.361C719.321 377.2 535.361 378.54 535.361 378.54L490.707 375.975Z" fill="#DBFFFA"/>
<path d="M1962.18 376.594C1962.44 371.194 1946.67 367.598 1906.57 365.606C1866.48 363.614 1833.75 366.377 1833.49 371.776C1833.22 377.175 1865.51 383.166 1905.6 385.158C1937.29 384.886 1961.91 381.993 1962.18 376.594Z" fill="#DBFFFA"/>
<path d="M71.8234 359.39C101.924 360.885 135.865 367.311 135.865 367.311C135.865 367.311 128.267 374.965 104.417 376.396C74.3171 374.901 38.8269 372.392 39.2069 364.741C39.559 357.653 57.5188 358.622 69.1747 359.251L69.1849 359.251C70.108 359.301 70.9914 359.349 71.8234 359.39Z" fill="#DBFFFA"/>
<path d="M1761.35 453.951C1739.79 452.109 1714.91 454.733 1714.91 454.733C1714.91 454.733 1719.38 463.167 1736.15 467.222C1757.71 469.064 1783.23 470.497 1783.88 462.864C1784.48 455.793 1771.61 454.77 1763.25 454.106C1762.59 454.053 1761.95 454.002 1761.35 453.951Z" fill="#DBFFFA"/>
<path fill-rule="evenodd" clip-rule="evenodd" d="M550.748 493.761C559.424 488.256 538.395 481.794 538.395 481.794C538.395 481.794 497.969 474.838 476.412 464.528C477.349 464.189 478.294 463.88 479.246 463.617C480.663 463.253 482.105 463.117 483.548 462.982L483.549 462.982L483.558 462.98L483.56 462.98L483.561 462.98L483.562 462.98L483.569 462.978L483.57 462.978C485.101 462.834 486.632 462.69 488.135 462.277C489.968 461.752 491.781 461.179 493.591 460.607C497.507 459.368 501.41 458.134 505.487 457.401C511.449 456.329 517.517 456.061 523.585 456.008C523.877 456.003 524.169 455.997 524.462 455.991L525.112 455.978H525.146C527.727 455.926 530.332 455.874 532.901 456.008C534.398 456.068 535.895 456.281 537.392 456.494C538.556 456.659 539.72 456.825 540.885 456.919C544.837 457.212 548.562 458.487 552.259 459.753C558.023 461.726 563.72 463.676 570.108 461.848L570.676 461.683C574.858 460.463 578.558 459.384 582.989 459.384H626.69C628.206 459.384 629.687 459.592 631.173 459.801L631.174 459.802C632.297 459.96 633.423 460.118 634.568 460.187C639.519 460.455 644.309 461.366 649.366 462.598C651.582 463.139 653.697 463.864 655.812 464.59C658.522 465.52 661.234 466.45 664.164 466.992C665.428 467.226 666.69 467.46 667.95 467.694C669.257 467.936 670.563 468.179 671.868 468.422L671.962 468.439C674.557 468.921 677.152 469.403 679.76 469.886C681.815 470.299 683.792 470.344 685.819 470.389C686.679 470.408 687.548 470.427 688.436 470.475C689.496 470.523 690.494 470.727 691.489 470.932C692.742 471.189 693.991 471.446 695.356 471.386C699.905 471.145 704.238 472.205 708.628 473.278L709.083 473.389C709.422 473.472 709.761 473.555 710.1 473.636C715.53 474.922 721.491 475.405 727.08 475.565C731.542 475.712 736.02 475.671 740.498 475.629C747.506 475.565 754.516 475.501 761.466 476.155C769.543 476.915 777.78 476.759 785.969 476.603H785.982L785.99 476.603C788.596 476.554 791.197 476.504 793.786 476.485C794.551 476.241 795.327 476.021 796.119 475.834C799.266 475.079 800.725 479.563 798.121 480.782C797.698 481.344 797.03 481.727 796.119 481.727C795.711 481.727 795.303 481.728 794.894 481.728C792.416 482.547 790.047 483.643 787.676 484.74L787.66 484.746L787.659 484.747C785.709 485.649 783.758 486.551 781.747 487.3C780.998 487.583 780.24 487.843 779.482 488.102C777.655 488.728 775.828 489.354 774.135 490.301C773.241 490.815 772.398 491.398 771.555 491.981C770.29 492.856 769.025 493.73 767.588 494.373C763.98 495.978 760.108 496.817 756.257 497.651C755.222 497.876 754.189 498.1 753.163 498.338C751.202 498.794 749.294 499.384 747.383 499.975L747.381 499.975L747.362 499.982C746.583 500.223 745.803 500.464 745.019 500.696C743.927 501.017 742.796 501.218 741.665 501.419C740.534 501.62 739.403 501.821 738.312 502.142C733.361 503.589 729.05 504.5 723.727 504.447C721.283 504.422 718.816 504.341 716.368 504.26L716.366 504.26L716.363 504.26H716.355C713.477 504.165 710.624 504.071 707.865 504.071C706.42 504.071 704.936 504.02 703.441 503.968L703.438 503.968H703.431C699.642 503.836 695.778 503.702 692.269 504.393C688.828 505.071 685.334 505.061 681.825 505.05C680.34 505.046 678.852 505.042 677.364 505.09C675.757 505.15 674.182 505.344 672.584 505.541H672.583L672.575 505.542L672.571 505.542L672.562 505.543C671.977 505.615 671.39 505.688 670.796 505.754C673.029 506.062 675.254 506.458 677.471 506.964C678.821 507.297 680.116 507.817 681.411 508.338C682.617 508.822 683.825 509.308 685.083 509.643C685.852 509.852 686.625 510.056 687.399 510.261L687.409 510.263L687.411 510.264C689.422 510.795 691.444 511.33 693.44 511.948C693.832 512.073 694.226 512.202 694.621 512.331C696.586 512.973 698.587 513.627 700.626 513.984C703.15 514.441 705.339 514.079 707.783 513.675L708.184 513.609C713.415 512.736 718.286 510.885 723.236 509.005L723.239 509.004L723.241 509.003C726.802 507.65 730.405 506.281 734.213 505.25C742.789 502.927 751.413 502.936 760.218 502.945L761.839 502.946C766.204 502.946 770.835 502.946 775.093 504.232C775.941 504.493 776.874 504.89 777.851 505.305C780.676 506.505 783.874 507.863 786.484 506.589C788.725 505.48 790.129 502.941 791.467 500.524C792.067 499.438 792.654 498.377 793.297 497.48C795.373 494.587 797.928 491.693 801.016 489.925C804.103 488.157 807.669 487.675 811.076 488.854C814.495 490.017 816.563 492.934 818.581 495.78L818.738 496.001L818.909 496.241C819.012 496.387 819.116 496.532 819.22 496.677C821.935 500.427 824.543 503.857 828.695 506.375C832.847 508.893 837.265 508.893 841.949 508.893C846.633 508.893 850.412 508.679 854.458 506.053C855.304 505.529 856.142 504.978 856.981 504.426C858.201 503.623 859.425 502.818 860.686 502.088C861.196 501.802 861.71 501.536 862.222 501.271C863.528 500.596 864.823 499.928 866.009 498.927C867.131 497.98 867.982 496.834 868.83 495.693L868.831 495.691C869.23 495.154 869.629 494.618 870.054 494.105C870.504 493.553 870.99 493.066 871.473 492.584L871.476 492.581C872.305 491.752 873.122 490.935 873.727 489.818C874.536 488.328 875.375 486.851 876.213 485.377L876.215 485.374L876.216 485.372L876.217 485.37C877.516 483.085 878.813 480.802 879.998 478.471C880.264 477.412 881.084 476.477 882.456 476.369C884.686 476.174 886.542 476.927 888.431 477.692C889.357 478.067 890.292 478.446 891.282 478.717C896.956 477.57 903.231 477.679 909.145 477.782H909.147C912.208 477.836 915.172 477.887 917.907 477.762C938.24 476.851 953.198 473.261 971.296 463.027C972.977 462.082 974.674 461.157 976.385 460.261C976.464 460.167 976.542 460.071 976.619 459.973C980.505 455.044 982.261 448.078 980.079 442.077C977.366 434.567 970.244 434.646 963.528 434.721L963.516 434.721L963.139 434.725C962.971 434.727 962.803 434.729 962.636 434.73C962.444 434.732 962.253 434.734 962.063 434.735C961.893 434.735 961.724 434.736 961.555 434.736C957.616 434.736 953.996 435.432 950.217 436.451C948.761 436.835 947.336 437.349 945.915 437.862C944.168 438.492 942.426 439.121 940.636 439.505C938.72 439.918 936.694 439.933 934.671 439.948C933.547 439.956 932.423 439.964 931.321 440.041C928.659 440.255 925.838 440.416 923.39 439.076C920.902 437.679 919.091 435.579 917.286 433.486C915.075 430.921 912.872 428.366 909.443 427.127C908.527 426.794 907.605 426.423 906.679 426.049L906.675 426.048L906.674 426.047C904.321 425.099 901.933 424.136 899.49 423.751C896.406 423.225 892.912 423.577 889.763 423.895L889.589 423.912C885.863 424.287 881.977 425.198 878.837 427.288C877 428.468 875.535 430.516 874.149 432.454C873.648 433.155 873.157 433.842 872.662 434.468C869.043 439.076 863.347 441.702 857.811 438.54C855.822 437.428 854.273 435.798 853.043 433.927C852.115 433.082 851.353 432.098 850.838 430.984C849.651 428.414 848.91 426.044 848.367 423.576C847.738 422.511 847.05 421.481 846.361 420.449C845.33 418.903 844.293 417.351 843.439 415.661L843.347 415.478L843.236 415.257L843.008 414.8L843.007 414.799L843.006 414.798C841.916 412.62 840.842 410.475 839.329 408.609C838.239 407.61 836.716 406.193 838.223 407.516C837.424 406.792 836.559 406.136 835.694 405.479L835.688 405.474C834.888 404.867 834.088 404.26 833.341 403.599L833.327 403.591C835.002 405.133 833.59 404.048 832.247 403.017L831.807 402.68C827.275 400.108 822.088 398.411 817.41 398.086C810.49 397.603 803.145 397.175 796.651 399.8C784.728 404.623 771.048 402.586 760.668 394.871C755.779 391.229 753.809 385.237 751.953 379.593L751.949 379.582C751.786 379.084 751.623 378.59 751.459 378.099C749.781 373.141 749.753 367.781 749.902 362.466C758.889 365.784 763.596 369.579 763.596 369.579C763.733 369.4 763.879 369.22 764.034 369.04C764.14 369.121 764.193 369.164 764.193 369.164C765.554 367.389 767.797 365.534 770.196 363.842C774.958 360.57 780.097 358.005 780.097 358.005C780.053 357.991 780.01 357.977 779.967 357.963C780.43 357.721 780.694 357.59 780.694 357.59C769.832 354.055 762.361 349.662 757.41 344.837C758.228 344.628 759.045 344.379 759.839 344.137L759.841 344.136L759.842 344.136C760.625 343.897 761.386 343.666 762.105 343.485C764.66 342.842 766.789 341.556 768.759 339.787C771.599 337.254 773.93 334.183 776.242 331.135L776.243 331.134L776.249 331.127L776.249 331.126L776.251 331.124C777.359 329.663 778.463 328.208 779.618 326.821C785.896 319.271 793.176 312.656 800.43 306.063L800.434 306.06C802.034 304.606 803.634 303.153 805.221 301.69C807.781 299.312 810.428 297.197 813.099 295.064L813.108 295.056L813.11 295.055C814.045 294.308 814.983 293.559 815.92 292.796C819.327 290.063 823.478 287.009 827.737 285.776C835.029 283.633 846.952 281.918 852.648 288.456C857.545 294.082 854.671 302.441 852.488 308.603C852.23 309.343 851.86 310.099 851.487 310.86C850.861 312.139 850.226 313.435 850.093 314.711C849.827 316.908 851.317 319.051 852.914 320.444C854.069 321.461 855.319 322.285 856.56 323.103C858.523 324.397 860.463 325.675 861.963 327.678C864.625 331.107 865.317 334.911 865.583 339.145C865.742 341.609 866.647 343.913 868.776 345.36C869.48 345.833 870.248 346.135 871.026 346.441C871.482 346.622 871.943 346.803 872.396 347.021C872.783 347.194 873.161 347.428 873.541 347.664L873.542 347.664C874.103 348.012 874.668 348.362 875.27 348.521C875.857 348.684 876.443 348.723 877.023 348.762C877.971 348.825 878.903 348.888 879.795 349.486C881.179 350.397 881.711 351.736 881.924 353.29C882.455 357.564 881.017 361.003 879.396 364.881L879.393 364.888L879.385 364.906C879.311 365.084 879.236 365.264 879.161 365.444C879.071 365.66 878.98 365.877 878.89 366.096L878.788 366.342L878.709 366.532L878.496 367.044C876.683 371.391 874.198 377.348 876.229 381.635C877.932 385.172 882.084 389.726 885.863 390.798C890.121 392.03 894.965 392.405 899.33 392.405C901.05 392.442 902.747 392.707 904.452 392.974L904.455 392.974C905.228 393.095 906.002 393.216 906.782 393.316C908.82 393.558 910.887 393.527 912.94 393.497L912.945 393.497L912.95 393.497C913.146 393.494 913.341 393.491 913.537 393.489C913.67 393.487 913.802 393.485 913.935 393.484C914.284 393.48 914.632 393.477 914.979 393.477C915.785 393.477 916.4 393.777 916.824 394.234C917.528 394.318 918.212 394.693 918.705 395.46C922.249 400.985 928.285 401.953 934.162 402.897C935.523 403.115 936.876 403.332 938.187 403.604C942.179 404.462 946.97 404.569 951.069 404.194L951.337 404.168L951.342 404.167C955.139 403.801 958.985 403.43 962.779 402.854C965.31 402.474 967.708 401.391 970.047 400.336L970.048 400.335L970.054 400.332C971.008 399.902 971.953 399.476 972.893 399.103C976.14 397.817 979.44 395.62 982.155 393.477C985.615 390.798 988.223 387.797 990.884 384.315C991.407 383.626 991.934 382.91 992.467 382.185C993.889 380.251 995.36 378.252 996.944 376.529C997.417 375.417 998.536 374.542 1000.04 374.83C1002.29 375.259 1004.45 377.672 1006.2 379.636C1006.64 380.129 1007.05 380.594 1007.44 380.992C1010.58 384.207 1013.72 387.422 1016.33 391.173C1018.56 394.388 1019.89 398.996 1020.8 402.8C1021.86 407.087 1022.4 411.534 1022.5 415.928L1022.51 416.186C1022.61 419.782 1022.74 424.154 1023.83 427.555C1024.74 430.288 1027.4 436.397 1031.02 434.575C1033.02 433.589 1034.59 431.02 1035.97 428.748L1035.97 428.747C1036.55 427.808 1037.09 426.921 1037.62 426.216C1038.75 424.713 1039.96 423.311 1041.17 421.896C1042.12 420.79 1043.07 419.676 1044.01 418.5C1045.92 416.035 1048.11 413.785 1051.19 412.981C1052.29 412.679 1053.46 412.524 1054.61 412.371L1054.61 412.371L1054.61 412.37C1055.29 412.28 1055.97 412.19 1056.62 412.07C1056.78 412.047 1056.94 412.023 1057.1 411.999L1057.11 411.998C1058.42 411.803 1059.67 411.617 1061.04 411.856C1063 412.218 1064.48 413.331 1065.93 414.43C1066.82 415.098 1067.7 415.761 1068.67 416.246C1070.49 415.488 1072.37 414.808 1074.03 414.481C1074.77 414.335 1075.49 414.231 1076.2 414.166C1076.25 414.055 1076.29 413.952 1076.32 413.857C1076.36 413.748 1076.4 413.651 1076.42 413.57C1077.43 410.296 1075.94 407.788 1074.4 405.203L1074.39 405.195L1074.39 405.193C1074.07 404.651 1073.75 404.107 1073.44 403.551C1073.1 402.916 1072.75 402.305 1072.42 401.707L1072.41 401.696C1071.18 399.52 1070.04 397.495 1069.29 394.977C1067.06 387.529 1065.46 381.582 1070.41 374.83C1072.48 371.937 1075.04 369.097 1077.97 367.168C1078.67 366.708 1079.36 366.22 1080.05 365.731C1082.25 364.171 1084.48 362.598 1087.07 361.863C1089.68 361.107 1092.37 360.738 1095.07 360.366L1095.08 360.366C1096.4 360.184 1097.72 360.002 1099.05 359.774C1100.3 359.558 1101.54 359.301 1102.77 359.044L1102.78 359.043L1102.78 359.043L1102.78 359.042L1102.78 359.042L1102.8 359.04C1104.91 358.6 1107.02 358.162 1109.18 357.934C1109.4 357.876 1109.64 357.845 1109.9 357.845L1110.17 357.845C1110.49 357.822 1110.81 357.804 1111.13 357.791C1111.41 357.778 1111.66 357.801 1111.89 357.855C1112.2 357.858 1112.5 357.862 1112.81 357.865C1113.21 357.87 1113.6 357.875 1114 357.88C1116.74 357.916 1119.47 357.952 1122.2 357.845L1122.48 357.832L1122.75 357.819L1123.01 357.807L1123.47 357.784C1126.66 357.626 1129.8 357.469 1132.95 358.273C1136.75 359.229 1140.38 360.783 1144 362.334C1147.88 364 1151.76 365.663 1155.84 366.579C1159.74 367.441 1162.47 365.979 1165.52 364.342L1165.52 364.34C1166.26 363.943 1167.02 363.536 1167.82 363.149C1171.01 361.596 1174.26 360.577 1177.83 360.631C1181.13 360.685 1184.48 361.381 1187.3 363.203C1188.06 363.681 1188.82 364.438 1189.6 365.22L1189.6 365.22C1190.61 366.224 1191.65 367.266 1192.79 367.809C1192.97 367.271 1193.11 366.706 1193.24 366.148L1193.24 366.146C1193.41 365.475 1193.57 364.814 1193.79 364.221L1193.91 363.925L1193.91 363.924C1194.62 362.153 1195.31 360.419 1195.71 358.541C1196.46 355.058 1196.88 350.611 1196.46 347.021C1196.33 346.009 1195.97 345.025 1195.61 344.051C1194.86 342.035 1194.13 340.061 1195.6 337.966C1197.15 335.769 1200.34 334.965 1202.79 334.376C1205.88 333.625 1209.23 333.358 1212.37 333.893L1212.5 333.916L1212.58 333.931L1212.64 333.943L1212.73 333.96L1212.82 333.977C1220.17 332.205 1223.71 331.153 1231.05 324.41C1233.58 322.106 1235.79 319.505 1237.92 316.831C1238.26 316.214 1238.62 315.606 1239.04 315.032C1239.11 314.941 1239.17 314.85 1239.24 314.758C1239.33 314.645 1239.41 314.532 1239.49 314.419C1239.69 314.16 1239.89 313.901 1240.08 313.643L1240.12 313.597C1240.84 312.645 1241.56 311.692 1242.23 310.692C1244.2 307.692 1246.06 304.262 1247.4 300.94C1247.59 300.477 1247.76 299.996 1247.93 299.515C1248.61 297.604 1249.29 295.688 1251.33 294.832C1252.67 294.253 1254.24 294.177 1255.81 294.1C1257 294.042 1258.19 293.984 1259.27 293.707C1261.45 293.139 1263.48 292.281 1265.51 291.417L1265.52 291.415L1265.52 291.415C1266.75 290.892 1267.99 290.367 1269.27 289.902C1272.68 288.67 1275.61 287.545 1278.96 285.776C1279.93 285.265 1280.89 284.736 1281.86 284.206C1284.24 282.902 1286.63 281.592 1289.13 280.525C1290.31 280.013 1291.43 279.501 1292.51 278.942C1292.61 278.81 1292.71 278.679 1292.81 278.548C1292.91 278.427 1293 278.307 1293.09 278.186L1293.19 278.062L1293.28 277.953C1292.45 278.993 1292.57 278.815 1292.84 278.444C1292.99 278.222 1293.2 277.932 1293.28 277.792C1293.65 277.149 1294.08 276.56 1294.5 275.97C1294.77 275.622 1295.04 275.287 1295.3 274.952L1295.52 274.681L1295.62 274.524C1295.67 274.44 1295.71 274.357 1295.76 274.275C1295.81 274.18 1295.86 274.086 1295.92 273.992C1295.98 273.883 1296.04 273.775 1296.1 273.667L1296.1 273.666L1296.11 273.653C1296.26 273.376 1296.42 273.099 1296.58 272.809L1296.68 272.623L1296.82 272.374C1297.55 271.025 1298.49 269.315 1299.58 268.367C1299.7 268.115 1299.82 267.863 1299.93 267.611C1300.16 267.249 1300.43 266.925 1300.71 266.607C1300.76 266.376 1300.84 266.153 1300.94 265.95C1301.26 264.932 1301.69 264.021 1302.27 263.111L1302.4 262.935L1302.53 262.753L1302.54 262.738L1302.54 262.735L1302.54 262.731C1302.84 262.302 1303.16 261.849 1303.45 261.396C1303.49 261.31 1303.53 261.237 1303.56 261.175C1303.59 261.108 1303.61 261.04 1303.64 260.971C1303.65 260.936 1303.66 260.9 1303.67 260.865L1303.69 260.811L1303.71 260.753C1304.41 258.789 1304.89 256.796 1305.36 254.795L1305.37 254.773C1305.54 254.052 1305.71 253.33 1305.89 252.608C1307.38 246.607 1314.04 243.339 1319.52 246.5C1319.83 246.672 1320.13 246.865 1320.42 247.075C1313.52 264.519 1299.67 276.379 1291.07 282.411C1286.99 285.225 1284.24 286.647 1284.24 286.647C1284.21 286.696 1284.17 286.746 1284.14 286.796C1283.82 286.973 1283.64 287.062 1283.64 287.062C1280.03 291.938 1297.01 302.923 1297.01 302.923C1328.82 322.686 1308.12 346.436 1283.61 363.57C1264.35 376.92 1242.99 386.149 1242.99 386.149C1243.03 386.181 1243.07 386.213 1243.12 386.245C1242.64 386.456 1242.39 386.565 1242.39 386.565C1245.62 389.086 1261.21 389.494 1273.51 389.403C1272.06 391 1270.88 392.743 1269.69 394.492L1269.68 394.496C1268.77 395.836 1267.86 397.179 1266.82 398.46C1264.53 401.301 1262.74 404.348 1260.86 407.55L1260.76 407.73C1259.53 409.823 1258.96 412.136 1258.38 414.457C1258.06 415.761 1257.74 417.067 1257.3 418.339C1257.16 418.726 1257.03 419.1 1256.92 419.464L1256.79 419.841L1256.79 419.842C1256 422.267 1255.38 424.168 1252.98 425.734C1247.49 429.27 1247.67 436.564 1247.83 442.718C1247.86 443.838 1247.88 444.92 1247.87 445.934C1247.84 450.365 1243.09 451.584 1238.85 452.675C1237.09 453.127 1235.41 453.557 1234.19 454.186C1230.55 456.098 1226.99 457.934 1223.25 459.368C1222.17 459.877 1221.04 460.269 1219.88 460.527C1218.39 460.976 1216.87 461.351 1215.3 461.634C1209.71 462.652 1203.53 464.099 1199.81 468.814C1198.64 470.314 1194.75 476.476 1196.83 478.084C1197.74 478.834 1199.91 478.611 1201.47 478.45C1201.92 478.404 1202.32 478.363 1202.63 478.352C1205.47 478.261 1207.88 477.595 1210.62 476.841L1210.62 476.841C1211.12 476.703 1211.63 476.563 1212.16 476.423C1214.23 475.868 1216.35 475.472 1218.45 475.078L1218.45 475.078C1219.8 474.825 1221.15 474.572 1222.48 474.279C1229.78 472.672 1237.34 471.279 1244.52 470.261C1249.51 469.554 1254.58 469.725 1259.63 469.896L1259.63 469.896L1259.63 469.896C1261.86 469.971 1264.08 470.046 1266.29 470.046C1268.98 470.046 1271.67 470.076 1274.36 470.106H1274.39C1279.78 470.165 1285.16 470.225 1290.51 470.046C1294.24 469.885 1297.11 470.261 1300.62 471.493C1302.11 472.016 1303.56 472.63 1305.01 473.247L1305.01 473.247C1306.47 473.866 1307.93 474.485 1309.43 475.014C1321.6 477.029 1333.84 477.775 1341.19 471.279C1343.17 469.512 1345.28 468.353 1347.42 467.703C1348.18 466.87 1348.93 466.067 1349.65 465.331C1350.36 464.617 1351.04 463.872 1351.73 463.128C1353.1 461.64 1354.47 460.151 1356.04 458.901C1358.11 457.218 1360.29 456.506 1362.74 455.702L1363.12 455.579C1365.02 454.972 1367.02 454.137 1368.82 453.039C1370.32 452.09 1371.7 450.948 1372.86 449.56C1374.63 447.302 1375.88 444.132 1374.67 441.54C1373.01 437.948 1369.81 436.487 1366.59 435.019C1364.43 434.035 1362.27 433.048 1360.56 431.413C1356.84 427.859 1361.76 423.122 1364.92 420.086L1364.92 420.079L1364.95 420.053C1365.27 419.749 1365.56 419.462 1365.83 419.195L1365.92 419.103L1366.04 418.982L1366.15 418.875C1373.21 411.69 1378.68 402.917 1381.38 393.282C1383.42 392.622 1385.38 392.071 1387.26 391.618C1387.23 391.745 1387.2 391.872 1387.18 391.998C1387.24 391.915 1387.3 391.831 1387.36 391.748L1387.5 391.561C1411.94 385.76 1422.95 396.424 1422.95 396.424C1423.06 396.21 1423.18 395.997 1423.29 395.786C1423.46 395.929 1423.54 396.008 1423.54 396.008C1425.11 393.063 1427.03 390.418 1429.17 388.045C1429.61 388.037 1430.06 388.03 1430.51 388.024C1430.26 387.893 1430.03 387.724 1429.81 387.529C1429.78 387.503 1429.76 387.477 1429.73 387.45C1429.73 387.448 1429.72 387.445 1429.72 387.442C1430.82 386.269 1431.98 385.164 1433.17 384.124L1433.33 384.314L1433.3 384.271L1433.28 384.24L1433.21 384.15L1433.18 384.119C1434.53 382.948 1435.93 381.859 1437.36 380.846C1438.15 380.306 1438.95 379.788 1439.75 379.292L1439.77 379.331C1440 379.811 1440.23 380.303 1440.45 380.798L1440.45 380.802L1440.45 380.803C1441.02 382.074 1441.6 383.357 1442.48 384.475C1443.6 385.814 1445.2 386.672 1446.74 387.475C1448.71 388.547 1450.73 389.565 1452.86 390.208C1456.68 391.334 1460.75 391.31 1464.74 391.286H1464.75L1465.49 391.282L1465.92 391.281L1466 391.28V391C1496.74 390.008 1501.91 387.051 1506.87 383.101C1507.11 383.401 1507.34 383.706 1507.58 384.016C1520.64 406.603 1538.74 406.874 1551.02 405.264C1559.14 415.183 1565.34 427.25 1567 438.434C1575.2 438.072 1584.43 438.097 1594.17 438.58C1627.69 440.246 1640.84 444.189 1640.52 450.503C1640.35 454.062 1633.71 456.819 1623.2 458.698C1633.15 460.099 1643.49 461.916 1653.6 464.104C1650.18 477.37 1660.84 491.325 1720.57 491.5C1720.72 491.667 1720.86 491.833 1721 492C1742.36 492 1761.18 491.759 1778.42 490.537C1879.86 487.101 1911.32 475.251 1919.82 465.869L1919.5 529H0V474.017C10.607 506.854 77.74 505.74 240.89 503.033H240.895C291.588 502.192 351.552 501.197 421.969 501.019C431.575 501.236 440.508 501.351 448.597 501.351C451.258 501.372 453.854 501.387 456.387 501.395L456.268 501.812C521.804 502.012 545.07 498.125 550.748 493.761ZM1301.74 265.254C1301.53 265.631 1301.26 265.967 1300.97 266.298C1301.19 265.914 1301.45 265.553 1301.74 265.254ZM609.231 512.644C609.299 512.637 609.366 512.632 609.433 512.626C609.309 512.691 609.231 512.705 609.231 512.644ZM552.011 465.404L552.053 465.458C553.466 465.936 554.9 466.416 556.33 466.769C555.246 466.451 554.169 466.102 553.095 465.754L553.093 465.753L552.65 465.61C552.492 465.559 552.334 465.508 552.176 465.457L552.011 465.404ZM667.625 510.934C667.098 510.823 666.572 510.706 666.046 510.586C667.339 510.705 668.631 510.85 669.921 511.026C669.159 510.975 668.393 510.945 667.625 510.934ZM865.399 505.683L865.359 505.705L865.38 505.704L865.399 505.683ZM822.613 508.637C822.425 509.512 822.16 509.281 821.781 507.923C821.828 507.965 821.875 508.007 821.922 508.048L821.991 508.108C822.039 508.15 822.086 508.191 822.134 508.232C822.171 508.264 822.209 508.296 822.246 508.328C822.368 508.432 822.49 508.535 822.613 508.637ZM807.989 379.974C807.197 379.927 806.794 379.877 806.665 379.835C807.099 379.899 807.54 379.945 807.989 379.974ZM870.065 373.17C870.994 372.764 871.318 372.949 870.178 373.29C870.141 373.25 870.103 373.21 870.065 373.17ZM867.414 355.074L867.509 355.221L867.632 355.413C867.739 355.58 867.822 355.708 867.881 355.8C867.822 355.71 867.74 355.584 867.634 355.424L867.526 355.261L867.393 355.058C867.354 354.992 867.318 354.93 867.283 354.87L867.414 355.074ZM844.398 345.628C845.165 347.471 845.638 348.572 845.798 348.931L846.341 321.013C845.087 325.34 842.754 329.525 840.478 333.608C839.406 335.53 838.348 337.429 837.42 339.309C837.997 339.546 838.566 339.812 839.128 340.109C840.06 340.602 840.952 341.32 841.762 342.148C842.223 342.248 842.349 342.382 842.139 342.547C843.022 343.515 843.794 344.597 844.398 345.628ZM846.626 350.122C846.613 350.143 846.501 350.053 846.333 349.793C846.556 349.973 846.64 350.102 846.626 350.122ZM855.405 387.138C855.389 387.124 855.375 387.112 855.363 387.101L855.388 387.122L855.403 387.135L855.405 387.138ZM855.408 387.14L855.405 387.138C855.408 387.14 855.41 387.141 855.408 387.14ZM1025.22 439.044L1025.18 438.964L1025.15 438.897L1025.11 438.804L1025.14 438.827L1025.19 438.862C1025.22 438.88 1025.24 438.897 1025.27 438.915L1025.31 438.944L1025.38 438.989L1025.44 439.022L1025.49 439.059L1025.57 439.109L1025.47 439.114L1025.38 439.119L1025.3 439.123L1025.26 439.126L1025.22 439.044ZM1039.1 443.844C1040.27 444.534 1041.28 445.151 1041.94 445.555L1041.95 445.555L1041.95 445.56L1041.96 445.563L1041.97 445.572L1042.28 445.758L1042.36 445.807L1042.47 445.877L1042.51 445.897L1042.6 445.95C1042.65 445.984 1042.7 446.01 1042.73 446.026C1042.75 446.041 1042.77 446.047 1042.77 446.045C1042.78 446.032 1042.17 445.613 1040.68 444.59L1040.67 444.589L1039.59 443.844H1039.1ZM1002.03 482.752C999.571 483.917 997.177 485.231 994.885 486.546C996.13 486.059 997.335 485.527 998.496 484.942C999.722 484.325 1000.89 483.584 1002.03 482.752ZM1200.98 340.497C1200.71 340.883 1200.46 341.281 1200.22 341.69C1200.13 341.445 1200.09 341.244 1200.13 341.127C1200.21 340.878 1200.56 340.669 1200.98 340.497ZM1397.66 415.759C1396.54 417.571 1396.63 419.576 1396.71 421.644L1396.71 421.648L1396.72 421.892L1396.73 422.095C1396.73 422.24 1396.74 422.385 1396.74 422.53C1396.75 422.794 1396.76 423.058 1396.76 423.323C1396.76 426.538 1397.08 428.895 1399.31 431.307C1401.39 433.557 1403.52 434.522 1406.5 434.522C1407.27 434.522 1408.06 434.54 1408.87 434.558L1408.87 434.558L1408.88 434.558C1411.19 434.61 1413.6 434.665 1415.81 434.307C1418.37 433.87 1420.97 432.992 1423.46 432.154L1424.22 431.896C1427.42 430.878 1430.5 429.431 1433.27 427.556C1434.56 426.665 1435.9 425.852 1437.24 425.041L1437.24 425.041L1437.24 425.039L1437.25 425.039C1438.41 424.338 1439.56 423.639 1440.67 422.894C1445.46 419.679 1448.87 413.946 1449.4 408.159C1449.72 404.676 1449.45 402.104 1446.85 399.639C1444.77 397.603 1442.11 395.514 1439.55 394.12C1437.41 392.922 1434.38 393.123 1431.67 393.304C1430.75 393.365 1429.87 393.424 1429.07 393.424C1428.5 393.435 1427.91 393.464 1427.32 393.493L1427.32 393.493C1426.61 393.528 1425.89 393.563 1425.17 393.57C1425.16 393.937 1425.14 394.3 1425.13 394.656C1424.97 397.389 1423.21 399.157 1421.24 400.925C1418.79 403.176 1415.97 405.105 1413.15 406.659C1412.22 407.173 1411.29 407.727 1410.36 408.284L1410.36 408.285L1410.36 408.287C1408.47 409.414 1406.58 410.55 1404.58 411.374L1404.48 411.415L1404.35 411.473C1404.29 411.494 1404.24 411.515 1404.19 411.537L1404.03 411.602L1403.91 411.65L1403.83 411.685L1403.67 411.748L1403.49 411.816L1403.3 411.891C1401.83 412.475 1400.35 413.058 1399.15 414.047L1399.1 414.107C1398.63 414.667 1398.16 415.227 1397.66 415.759Z" fill="url(#paint2_linear_458_333)"/>
<path fill-rule="evenodd" clip-rule="evenodd" d="M1177.35 160.384C1177.26 161.884 1177.3 163.48 1177.46 165.175C1177.46 165.175 1165.91 147.44 1136.8 174.927C1136.8 174.927 1139.12 154.374 1131.18 144.318C1130.04 142.882 1128.7 141.659 1127.11 140.742C1127.11 140.742 1125.3 125.471 1113.16 126.06C1113.16 126.06 1097.16 84.1938 1049.68 104.612C1047.93 105.364 1046.14 106.201 1044.3 107.128C1046.1 107.406 1047.82 108.044 1049.53 108.682C1050.4 109.007 1051.28 109.333 1052.16 109.611C1053.05 109.889 1053.99 110.103 1054.94 110.318C1057.47 110.892 1060.04 111.477 1061.74 113.308C1065.95 117.809 1063.34 125.578 1058.87 129.007C1057.17 130.347 1057.11 133.24 1059.51 133.883C1060.75 134.222 1061.98 134.543 1063.2 134.863L1063.2 134.863C1068.16 136.162 1072.98 137.423 1077.77 139.617C1078.11 139.768 1078.51 139.912 1078.94 140.064C1080.19 140.506 1081.64 141.018 1082.24 141.974C1082.69 142.717 1082.63 143.682 1082.58 144.551L1082.58 144.558C1082.57 144.815 1082.56 145.064 1082.56 145.296C1082.56 146.075 1082.52 146.817 1082.44 147.537C1081.06 150.166 1080.32 152.947 1079.76 155.774L1079.69 155.882L1079.6 156.024L1079.57 156.064C1079.19 156.641 1078.81 157.21 1078.56 157.835C1078.16 158.877 1078.17 159.996 1078.19 161.127L1078.19 161.154C1078.19 161.305 1078.19 161.457 1078.19 161.608L1078.19 161.746C1078.19 162.253 1078.21 162.776 1078.24 163.305V163.324C1078.26 163.723 1078.27 164.125 1078.28 164.526C1077.92 165.786 1077.29 166.672 1076.63 167.603L1076.63 167.604L1076.63 167.606C1076.26 168.132 1075.88 168.672 1075.53 169.301L1075.36 169.612L1075.2 169.895C1074.33 170.511 1073.42 170.879 1072.39 171.284C1071.93 171.478 1071.47 171.663 1071.02 171.839C1067.42 172.694 1063.55 172.142 1059.84 171.613L1059.84 171.612L1059.84 171.612C1059.17 171.517 1058.51 171.423 1057.86 171.338C1054.98 170.962 1054.61 174.981 1056.53 176.321C1059.45 178.357 1061.64 183.072 1062.12 186.448C1062.65 190.52 1061.32 194.056 1059.72 197.754C1058.12 201.451 1056.63 204.827 1054.77 208.202L1054.67 208.379C1053 211.376 1051.3 214.43 1050.57 217.794C1050.42 218.466 1050.5 219.058 1050.73 219.55C1051 220.598 1051.82 221.524 1053.17 221.651L1053.23 221.598C1058.47 222.038 1063.18 225.335 1067.56 228.399L1067.56 228.4C1068.51 229.066 1069.45 229.72 1070.37 230.332C1075.26 233.547 1080.32 236.279 1085.54 238.905C1090.75 241.531 1095.97 241.959 1101.72 241.959C1106.25 241.959 1110.37 240.793 1114.58 239.599C1115.61 239.308 1116.65 239.015 1117.69 238.737C1118.08 239.493 1118.54 240.212 1119.02 240.887C1119.47 241.535 1120.01 241.967 1120.59 242.432C1120.82 242.62 1121.06 242.814 1121.31 243.03C1121.62 243.307 1121.89 243.592 1122.16 243.871L1122.16 243.872C1122.61 244.346 1123.05 244.802 1123.65 245.173C1124.1 245.444 1124.6 245.631 1125.1 245.818L1125.1 245.819L1125.1 245.819C1125.49 245.965 1125.89 246.111 1126.26 246.298C1127.32 246.834 1128.39 247.263 1129.5 247.584C1130.62 247.906 1131.74 248.12 1132.91 248.335C1133.12 248.367 1133.35 248.38 1133.6 248.388C1133.59 248.576 1133.58 248.757 1133.55 248.924C1133.55 249.728 1133.55 250.478 1133.66 251.228C1133.87 252.514 1134.51 253.639 1135.47 254.55C1136.55 255.646 1137.76 256.499 1139.04 257.258C1138.52 257.724 1137.99 258.173 1137.46 258.622C1136.54 259.399 1135.63 260.176 1134.77 261.034C1134.35 261.48 1133.97 261.957 1133.6 262.434C1133.11 263.044 1132.63 263.653 1132.06 264.195C1131.44 264.814 1130.88 265.465 1130.31 266.122L1130.31 266.123L1130.3 266.125C1129.84 266.661 1129.37 267.202 1128.87 267.731C1127.62 269.016 1128.05 270.665 1129.08 271.6C1129.27 272.44 1129.85 273.193 1130.89 273.519V273.465C1131.88 273.771 1132.57 274.677 1133.21 275.521C1133.47 275.86 1133.72 276.19 1133.98 276.466C1134.41 276.938 1134.85 277.391 1135.3 277.842L1135.3 277.847L1135.31 277.854L1135.31 277.859C1136.12 278.682 1136.93 279.501 1137.65 280.431L1138.32 281.327L1138.32 281.329L1138.32 281.33C1140.2 283.838 1142.14 286.432 1143.61 289.111C1145.42 292.38 1146.96 296.238 1147.82 299.882C1148.38 302.271 1148.05 304.408 1147.71 306.582V306.583L1147.71 306.585C1147.51 307.871 1147.3 309.171 1147.28 310.544C1147.28 313.384 1150.8 313.92 1152.23 311.884C1152.73 311.195 1153.19 310.5 1153.65 309.815C1155.86 306.505 1157.91 303.439 1162.19 302.507C1166.66 301.543 1167.14 297.953 1167.46 293.827C1167.61 292.068 1167.18 290.675 1166.73 289.192L1166.73 289.188L1166.73 289.187L1166.73 289.186L1166.73 289.184C1166.54 288.546 1166.34 287.891 1166.18 287.182C1165.65 284.825 1165.59 281.931 1166.02 279.627C1166.89 274.652 1171.42 271.736 1175.44 269.144C1176.1 268.721 1176.75 268.306 1177.36 267.893C1181.08 265.374 1181.99 262.856 1182.57 258.462C1182.84 256.319 1182.84 253.908 1181.56 252.086C1180.75 250.921 1179.54 250.042 1178.36 249.18L1178.35 249.179C1177.69 248.694 1177.03 248.214 1176.45 247.692C1174.38 245.763 1172.09 243.62 1170.28 241.316C1168.47 239.012 1168.47 236.655 1168.47 233.976C1168.47 231.297 1168.79 229.046 1170.33 226.581C1170.8 225.822 1171.49 225.157 1172.19 224.487C1173.17 223.549 1174.16 222.603 1174.54 221.383C1175.07 219.64 1174.16 217.933 1173.31 216.358C1173.15 216.045 1172.98 215.737 1172.83 215.436C1171.66 213.078 1171.02 210.72 1170.97 208.041C1170.92 206.138 1171.21 204.229 1171.72 202.35C1171.92 202.026 1172.13 201.709 1172.35 201.398L1172.35 201.395L1172.35 201.392L1172.36 201.386L1172.36 201.383C1172.6 201.024 1172.84 200.673 1173.05 200.325C1173.41 199.707 1173.62 199.064 1173.84 198.413C1173.94 198.105 1174.04 197.795 1174.16 197.485C1174.54 196.557 1174.96 195.654 1175.38 194.752L1175.38 194.749L1175.38 194.747L1175.38 194.746C1176.19 192.995 1176.99 191.249 1177.52 189.341C1179.01 184.197 1179.97 178.678 1179.97 173.32L1179.97 173.01L1179.97 172.474C1179.98 170.096 1179.99 167.791 1179.27 165.443C1178.79 163.955 1178.2 162.497 1177.61 161.037C1177.52 160.819 1177.43 160.602 1177.35 160.384ZM1069.25 120.327C1069.18 120.345 1069.11 120.364 1069.04 120.384L1069.04 120.394C1069.07 120.384 1069.1 120.374 1069.13 120.364C1069.17 120.352 1069.21 120.339 1069.25 120.327ZM1125.25 189.723L1125.29 189.701L1125.29 189.689L1125.29 189.681L1125.29 189.661C1125.25 189.699 1125.21 189.737 1125.18 189.776L1125.19 189.763L1125.22 189.746C1125.23 189.739 1125.24 189.731 1125.25 189.723ZM1154 218.007L1153.94 218.095C1153.9 218.158 1153.86 218.222 1153.82 218.286C1153.77 217.818 1153.72 217.351 1153.66 216.884C1153.78 217.238 1153.91 217.59 1154.04 217.939L1154 218.007ZM1153.53 301.414C1153.48 300.811 1153.4 300.213 1153.28 299.608C1153.76 299.874 1154.25 300.094 1154.76 300.268C1154.33 300.629 1153.92 301.012 1153.53 301.414ZM1148.49 261.825C1148.73 261.909 1149.08 262.337 1148.83 262.855C1148.14 262 1148.26 261.741 1148.49 261.825Z" fill="url(#paint3_linear_458_333)"/>
<path d="M676.629 367.127C667.148 371.114 656.969 376.512 646.13 383.684C646.13 383.684 646.113 383.691 646.08 383.704C645.627 383.893 642.299 385.448 644.495 389.692C644.632 389.959 644.792 390.236 644.975 390.524C645.373 390.733 645.776 390.935 646.184 391.133C646.278 391.178 646.372 391.225 646.467 391.272L646.574 391.325L646.625 391.35C646.713 391.394 646.802 391.439 646.891 391.484L647.171 391.625C648.3 392.197 649.462 392.784 650.655 393.115C653.583 393.865 657.255 393.49 660.076 392.419C662.37 391.548 664.874 390.535 666.817 388.92C667.838 388.33 668.786 387.616 669.605 386.793C671.208 385.137 672.113 383.194 672.932 381.161C673.064 380.983 673.197 380.806 673.331 380.631C675.087 378.326 675.832 375.326 676.098 372.432C676.115 372.221 676.125 372.011 676.131 371.803C676.422 370.266 676.55 368.693 676.629 367.127Z" fill="url(#paint4_linear_458_333)"/>
<path d="M0 794L960 898.257L1920 794V1734H0V794Z" fill="#EFC588"/>
<path d="M0 660.792V818.454C144.852 822.217 377.454 856.273 448.981 866.746L448.982 866.746L448.985 866.746L449.037 866.754C458.158 868.089 464.653 869.04 468.004 869.494L468.003 869.566C468.002 869.637 468.001 869.708 468.001 869.778C468 869.852 468 869.926 468 870C434 946.5 553.478 968.5 728 968.5C848.588 968.5 1009.4 947.342 1062.67 914.026L1066.3 913.962C1089.29 924.914 1171.16 943.901 1200 948.5C1259.88 958.049 1276.56 941.736 1300.78 918.046L1300.78 918.044L1300.79 918.035C1305.37 913.555 1310.22 908.81 1315.69 903.927C1326.85 903.205 1332.92 902.758 1332.92 902.758C1334.43 902.925 1335.94 903.09 1337.44 903.254C1353.28 911.626 1363.83 918.404 1372.78 924.151C1396.74 939.548 1409.2 947.55 1481 959C1667.08 988.676 1925.34 983.954 1934.56 926.142C1936.57 913.55 1931.34 900.336 1920 887.061V660.792C1918.66 661.635 1917.29 662.477 1915.91 663.316C1875.62 706.324 1772.37 734.531 1724 743.5L1698.41 742.47C1667.99 749.776 1635.55 756.632 1601.28 762.989L1523 799.5C1500.5 798.958 1478.56 791.647 1463.07 784.604C1433.64 788.439 1403.29 791.948 1372.13 795.11L1308.5 812L1214.5 836.5L1102.5 852L1037.5 844.5L885.5 876.5L815.794 812.679C691.613 808.646 574.605 799.481 468.959 786.148C460.601 786.554 453.271 786.634 447.5 786.5C296.3 793.7 224.833 759.5 208 741.5L178.066 731.327C102.035 710.576 41.34 686.756 0 660.792Z" fill="#DB9F42"/>
<path d="M777.005 1589.76C750.012 1565.96 664.023 1584.85 624.402 1597.26H591.947L516.753 1696.41L504.863 1710.88H415.53L377.29 1684.53L330.374 1695.13L264 1632L180 1622L-33 1615.16L-16 7034H1928.5L1922.5 1465.48L1564.65 1558.56L1451.86 1471.48H1384.7L1281.23 1501.96C1250.95 1500.61 1225.11 1539.13 1215.97 1558.56L1114.92 1543.81L1003.25 1558.56L917.96 1615.16H811.773L777.005 1589.76Z" fill="url(#paint5_linear_458_333)"/>
<path d="M445.008 729.938C453.594 733.87 461.146 739.664 469.092 744.763C473.054 746.985 477.721 749.206 481.807 753.197C487.094 758.408 495.429 761.447 501.848 765.345C514.546 772.884 529.185 775.171 543.377 778.916C550.072 780.917 556.205 779.727 563.45 780.578C575.457 781.791 586.966 780.979 598.467 784.654C600.191 785.109 600.853 785.4 602.369 785.472C614.114 785.462 626.047 789.192 634.875 796.898C640.067 803.168 645.157 806.72 649.436 813.409L647.942 815.598L640.713 814.036L637.312 813.4C634.008 813.312 628.716 810.744 626.292 810.053C620.825 808.891 614.921 808.713 609.503 809.428C604.442 810.308 598.619 811.388 593.702 810.681L586.478 809.683C582.474 809.358 577.136 808.925 573.265 808.289C569.16 807.654 561.819 806.256 558.433 804.909C553.879 803.326 549.582 803.202 544.285 801.674C539.544 800.365 534.498 798.126 530.109 796.415C516.136 791.776 502.184 785.386 490.888 775.675C485.04 771.284 478.328 766.785 473.984 760.534C470.571 755.558 463.362 751.442 458.902 746.394C454.34 741.036 449.048 736.865 443.547 732.31L445.04 730.12L445.008 729.938Z" fill="#DAFFF5"/>
<path d="M1707.63 708.678C1698.96 712.417 1689.6 714.141 1680.49 716.623C1676.19 718.076 1671.41 720.053 1665.71 720.412C1658.3 720.846 1650.46 724.997 1643.26 727.151C1629.16 731.526 1617.65 740.862 1605.36 748.888C1599.39 752.518 1596.17 757.868 1590.68 762.676C1581.74 770.777 1574.63 779.865 1564.2 785.94C1562.7 786.916 1562.04 787.212 1560.97 788.29C1553.11 797.015 1542.35 803.375 1530.71 804.765C1522.58 804.419 1516.53 805.817 1508.7 804.513L1508.07 801.937L1514.08 797.617L1516.83 795.518C1519.11 793.125 1524.56 790.916 1526.7 789.58C1531.22 786.3 1535.31 782.036 1538.41 777.535C1541.15 773.189 1544.25 768.142 1548.07 764.965L1553.65 760.271C1556.57 757.517 1560.47 753.844 1563.53 751.396C1566.76 748.774 1572.71 744.261 1575.98 742.65C1580.21 740.33 1583.18 737.223 1587.86 734.314C1592.01 731.672 1597.05 729.426 1601.26 727.314C1614.07 720.05 1628.16 713.973 1642.94 712.094C1650.12 710.694 1657.95 708.725 1665.5 709.689C1671.48 710.489 1679.37 707.895 1686.11 707.966C1693.14 708.169 1699.78 707.035 1706.85 706.003L1707.47 708.579L1707.63 708.678Z" fill="#DAFFF5"/>
<path d="M637.505 758.16C642.128 758.262 647.228 761.79 651.186 763.714C658.266 767.246 668.828 773.392 675.603 777.834C683.268 782.648 692.586 785.5 700.626 789.964C721.162 800.861 742.094 806.053 765.079 807.75C785.085 811.218 801.301 804.582 822 809.272C826.652 810.445 830.391 810.401 835.361 813.144C846.096 819.623 848.782 831.618 858.326 838.805C859.674 839.841 863.397 843.293 864.794 844.102C879.326 852.678 897.148 848.537 913.314 848.273C926.418 848.712 937.425 846.839 950.476 843.22C969.283 838.883 988.72 835.431 1008.21 836.15C1021.16 836.819 1034.89 838.143 1047.61 840.791C1048.94 841.037 1050.88 841.493 1052.08 843.322L1049.61 845.587C1042.08 847.705 1031.47 850.244 1023.72 852.594C1001.64 857.696 980.561 865.646 959.495 873.99C949.207 878.043 937.446 882.587 925.688 883.127C919.26 883.412 907.163 883.622 900.564 883.686C882.591 884.28 863.334 880.002 848.393 868.504C847.216 867.69 845.972 866.426 845.011 865.437C840.987 861.034 837.669 858.303 833.345 852.95C828.488 846.2 826.316 841.071 822.197 835.148C821.858 834.819 822.646 835.474 822.81 835.47C823.256 835.684 823.195 835.46 822.586 835.307C821.697 834.992 818.761 834.225 817.432 833.866C808.21 830.504 795.62 830.784 784.561 830.685C766.764 829.639 751.243 825.205 733.955 820.536C714.701 814.341 698.493 802.765 683.114 793.365C671.063 787.034 659.818 775.888 648.397 768.469C644.588 765.921 640.697 762.36 637.105 761.723L637.289 758.335L637.505 758.16Z" fill="#DAFFF5"/>
<path d="M1086.7 849.227C1110.05 847.022 1133.96 847.023 1157.21 843.998L1180.32 839.795C1191.42 837.693 1201.83 833.13 1211.78 827.953C1219.33 824.57 1224.23 821.443 1230.63 816.47C1236.53 812.472 1243.04 809.191 1250.04 807.551C1254.59 806.064 1259.99 803.808 1265.19 803.039C1284.45 799.964 1302.6 795.606 1322.45 793.556C1328.06 793.146 1334.61 793.043 1339.91 792.736C1346.16 792.428 1355.56 790.788 1361.81 790.019L1373.97 788.635C1375.32 788.481 1375.02 788.635 1375.57 788.583C1378.82 788.122 1383.12 786.738 1386.52 786.225C1387.42 786.379 1391.07 783.304 1392.27 782.483C1398.92 777.818 1405.42 777.357 1412.38 773.154C1416.23 771.257 1421.63 768.848 1427.38 769.053C1433.43 769.719 1437.68 770.642 1443.53 772.282C1446.48 773.615 1449.73 774.64 1452.24 777.152L1450.63 779.766C1443.68 778.895 1435.58 781.253 1428.83 782.996C1425.13 784.534 1421.63 789.301 1417.88 792.428C1415.28 794.991 1410.33 797.759 1408.02 799.964C1405.22 803.245 1403.62 805.808 1399.07 808.832C1393.02 812.472 1388.27 814.266 1382.12 816.521C1374.42 818.521 1363.21 821.238 1355.51 822.878C1343.16 825.8 1330.56 824.57 1318.25 824.621C1300.35 825.287 1279.74 825.082 1261.74 828.414C1259.19 829.081 1255.54 830.055 1252.49 830.516C1248.94 831.182 1245.14 832.977 1241.88 834.668C1231.63 841.896 1218.93 845.792 1207.43 849.893C1193.32 855.122 1173.32 855.635 1158.46 856.404C1134.61 856.609 1110.5 853.789 1086.75 852.354V849.278L1086.7 849.227Z" fill="#DAFFF5"/>
<path d="M334.084 793.443C318.023 788.999 301.274 786.686 285.395 781.44L269.783 775.04C262.292 771.884 255.628 766.358 249.364 760.266C244.536 756.184 241.53 752.612 237.726 747.067C234.138 742.535 230.032 738.656 225.351 736.354C222.366 734.441 218.89 731.684 215.352 730.419C202.283 725.509 190.16 719.436 176.53 715.483C172.662 714.535 168.086 713.8 164.414 712.982C160.077 712.073 153.714 709.538 149.439 708.171L141.114 705.624C140.189 705.341 140.379 705.523 140 705.418C137.786 704.647 134.962 702.86 132.649 702.023C131.998 702.088 129.861 698.688 129.132 697.759C125.11 692.495 120.618 691.409 116.323 686.572C113.885 684.321 110.43 681.411 106.373 681.058C102.042 681.132 98.9374 681.635 94.6135 682.694C92.3639 683.729 89.9461 684.43 87.8506 686.676L88.6141 689.421C93.6036 689.23 98.9572 692.35 103.449 694.73C105.831 696.611 107.632 701.673 109.832 705.133C111.303 707.924 114.393 711.145 115.703 713.551C117.217 717.072 117.987 719.766 120.762 723.202C124.504 727.393 127.587 729.63 131.588 732.46C136.71 735.186 144.187 738.961 149.359 741.331C157.613 745.421 166.611 745.421 175.224 746.663C187.676 749.055 202.14 750.846 214.298 755.889C215.993 756.796 218.418 758.114 220.492 758.866C222.889 759.87 225.306 762.015 227.352 764.005C233.546 772.157 241.913 777.246 249.411 782.421C258.576 788.965 272.521 791.409 282.822 793.608C299.507 796.119 316.782 795.659 333.621 796.535L334.042 793.489L334.084 793.443Z" fill="#DAFFF5"/>
<path d="M1065.8 789.476C1087.39 790.761 1108.45 793.674 1129.96 792.972C1139.04 793.851 1148.6 794.29 1157.45 792.584C1166.86 790.817 1175.92 788.471 1184.46 785.259C1191.4 783.446 1199.45 782.595 1208.51 781.133C1223.34 780.677 1237.83 783.49 1250.88 790.69L1250.55 792.713C1242.46 794.389 1234.82 795.566 1227.39 796.935L1216.38 799.165C1210.28 800.183 1206.58 802.324 1200.4 803.797C1194.44 804.889 1189.27 805.539 1183.63 806.84C1174.89 808.2 1167.23 808.181 1159.11 808.863C1148.66 809.524 1138.35 808.13 1128.47 805.663C1115.21 803.989 1100.8 801.294 1088.22 797.393C1080.62 795.512 1073.09 793.539 1065.53 791.456L1065.86 789.433L1065.8 789.476Z" fill="#DAFFF5"/>
<path d="M449.967 785.768C428.892 780.933 407.86 777.808 387.417 771.087C378.455 769.378 369.159 767.111 361.146 762.987C352.606 758.643 344.574 753.845 337.281 748.363C331.13 744.671 323.645 741.592 315.359 737.641C307.647 735.122 302.176 734.225 296.421 734.46C290.742 734.691 287.725 744.937 292.799 747.498L302.742 752.735C308.309 755.426 311.258 758.521 316.77 761.67C322.182 764.394 326.967 766.473 332.013 769.308C340.02 773.07 347.368 775.203 354.97 778.141C364.814 781.713 375.103 783.274 385.28 783.686C398.474 785.806 413.057 787.27 426.232 787.065C434.051 787.396 441.832 787.619 449.676 787.747L449.924 785.711L449.967 785.768Z" fill="#DAFFF5"/>
<path d="M926.36 797.042C917.658 798.682 906.605 801.502 898.003 801.707C894.552 801.399 892.452 800.374 889.401 800.066C884.15 799.4 878.499 797.759 874.448 794.222C870.947 791.454 867.446 788.84 865.346 784.175L866.046 782.791C869.296 782.022 871.897 781.509 874.698 781.356C882.2 780.843 888.251 783.15 894.202 787.558C897.303 788.994 899.354 790.993 902.754 791.198C910.456 792.274 918.808 793.761 926.36 795.453V797.042Z" fill="#DAFFF5"/>
<path d="M817.134 778.177C803.231 771.36 788.627 774.179 773.824 774.025C770.673 773.718 767.822 774.692 764.272 774.128C763.621 774.077 761.821 773.769 761.121 773.718C746.167 772.231 732.914 763.106 722.512 752.956C718.761 748.445 716.56 742.755 714.41 737.629C711.159 732.759 710.409 726.454 708.908 720.969L710.059 719.944C712.809 721.328 714.91 723.737 716.86 725.736C719.561 728.863 723.362 730.709 725.912 734.297C729.913 739.423 733.814 743.063 738.966 746.497C746.817 753.059 753.319 761.261 763.471 762.748C767.372 764.183 770.673 763.517 774.874 764.542C781.626 766.131 788.277 765.516 795.129 767.412C797.98 768.335 799.93 768.899 802.781 769.412C808.632 770.642 813.433 773.666 817.934 776.896L817.184 778.229L817.134 778.177Z" fill="#DAFFF5"/>
<path d="M1904.5 709.67C1904.5 721.268 1840.5 740.67 1810 757.17C1771.62 757.17 1733 764.67 1718 740.67C1718 729.072 1744.12 717.67 1782.5 717.67C1820.88 717.67 1904.5 698.072 1904.5 709.67Z" fill="#DAFFF5"/>
<path fill-rule="evenodd" clip-rule="evenodd" d="M1615.53 688.868C1592.35 692.904 1574.94 693.382 1558.01 698.886C1549.79 701.559 1552.31 703.498 1545.61 706.194C1531.91 711.706 1508.73 722.597 1501.62 726.86C1495.78 730.358 1497.45 733.487 1490.07 733.37C1468.01 733.02 1453.67 742.457 1430.96 740.056C1408.71 745.834 1385.51 754.407 1383.83 757.365C1384.26 748.191 1425.29 722.004 1482.2 726.914C1487.28 726.995 1507.86 714.606 1512.18 712.016C1520.83 706.831 1543.25 697.639 1557.08 693.557C1573.43 688.73 1582.76 689.084 1614.6 683.539C1616.77 683.16 1618.74 684.047 1618.99 685.518C1619.25 686.99 1617.7 688.49 1615.53 688.868Z" fill="#DAFFF5"/>
<path d="M699.876 1714.4C665.275 1697.89 635.572 1707.52 625.045 1714.4V1728.28C662.254 1704.41 690.436 1718.34 699.876 1728.28C727.885 1726.48 755.483 1712.96 765.781 1706.42C818.505 1673.39 848.964 1681.21 857.602 1689.25C917.467 1669.12 939.298 1643.38 942.73 1633.03C964.562 1601.8 1014.53 1609.33 1036.78 1616.99C1048.11 1631.84 1106.12 1622.79 1111.78 1622.79H1149.2C1154.69 1659.58 1239.93 1644.94 1281.87 1633.03V1602.15C1243.7 1626.02 1193.42 1621.99 1173.06 1616.99C1160.42 1598.61 1115.5 1604.76 1094.62 1610.13C1082.81 1599.99 1059.5 1600.58 1049.31 1602.15C985.741 1580.21 920.762 1606.77 896.219 1622.79C887.157 1671.51 837.98 1671.32 814.524 1665.13C777.314 1697.19 722.588 1711.34 699.876 1714.4Z" fill="#DAFFF5"/>
<path d="M709.397 1560.15C665.94 1547.34 634.627 1565.48 624.403 1576.15V1611.82C640.716 1586.9 702.943 1586.13 732.017 1588.85C750.113 1611.82 759.892 1598.42 762.519 1588.85L782.911 1611.82C808.272 1611.82 815.412 1625.62 815.812 1632.52C837.609 1618.74 902.692 1621.44 932.508 1624.52L969.865 1588.85L1004.99 1568.15C1027.65 1579.14 1039.34 1567.39 1042.35 1560.15L1080.91 1554.41C1102.7 1567.35 1139 1563.63 1154.42 1560.15C1186.09 1577.68 1211.37 1572.79 1220.05 1568.15C1226.36 1533.22 1263.46 1522.16 1281.23 1521V1478.55C1256.69 1471.32 1245.41 1496.18 1242.84 1509.52C1232.01 1504.93 1217.88 1532.89 1212.17 1547.45C1192.15 1511.54 1144.2 1519.5 1122.72 1527.96C1072.82 1489.41 1035.44 1524.89 1022.99 1547.45C979.393 1537.29 926.339 1586.13 905.262 1611.82C883.465 1589.69 822.952 1594.94 795.42 1600.33C793.638 1566.24 765.204 1570 751.209 1576.15C741.202 1561.4 719.165 1559.33 709.397 1560.15Z" fill="#DAFFF5"/>
<path fill-rule="evenodd" clip-rule="evenodd" d="M384.029 1843.91C345.988 1828.74 319.741 1813.56 289.613 1806.26C274.981 1802.72 276.949 1807.9 264.555 1805.78C239.219 1801.45 194.904 1796.44 180.471 1796.26C168.624 1796.12 168.246 1802.29 157.407 1795.38C125.022 1774.72 95.1405 1775.62 63.6706 1751.34C25.403 1739.59 -16.8207 1731.13 -21.9995 1733.99C-12.9908 1720.77 71.7319 1719.39 151.638 1778.63C159.085 1783.38 200.91 1783.8 209.681 1783.9C227.24 1784.11 268.873 1790.95 293.101 1797.52C321.748 1805.28 335.249 1814.32 387.517 1835.16C391.082 1836.58 393.192 1839.69 392.229 1842.11C391.266 1844.52 387.594 1845.33 384.029 1843.91Z" fill="#DAFFF5"/>
<path d="M1384.38 1462.8C1335.85 1414.6 1277.37 1467.62 1273.84 1483.04L1280.58 1520.96C1303.98 1504.25 1344.53 1487.22 1361.88 1480.79C1430.01 1462.54 1460.96 1483.47 1467.93 1496.22C1493.38 1496.22 1499.74 1517.64 1499.74 1528.35L1464.39 1556.31C1447.94 1547.06 1429.69 1558.45 1422.62 1565.31C1395.11 1557.6 1375.38 1568.52 1368.95 1574.95C1356.61 1589.09 1313.68 1597.98 1293.76 1600.65C1292.99 1593.46 1300.51 1586.3 1304.36 1583.62C1314.39 1583.88 1319.89 1571.52 1321.39 1565.31C1331.16 1565.63 1335.75 1553.66 1336.82 1547.63C1338.36 1543.01 1355.46 1541.85 1363.81 1541.85C1362.78 1531.57 1395.3 1518.45 1408.16 1520.96C1398.84 1508.11 1361.99 1518.93 1358.35 1533.17C1337.53 1529.57 1313.68 1557.38 1304.36 1571.73C1289.45 1571.48 1282.3 1593.48 1280.58 1604.51V1633.43C1301.92 1628.55 1368.31 1602.9 1398.84 1590.69C1407.06 1577.84 1427.12 1576.98 1436.11 1578.16C1442.03 1559.14 1459.79 1558.88 1467.93 1561.13C1495.43 1543.13 1504.88 1536.28 1506.17 1535.1C1516.19 1544.87 1534.77 1556.52 1542.8 1561.13C1559.25 1563.19 1581.79 1554.7 1591 1550.2C1547.04 1551.23 1520.41 1519.57 1512.59 1503.61C1510.79 1484.33 1490.42 1481.87 1480.46 1483.04C1456.04 1449.62 1408.48 1458.3 1384.38 1462.8Z" fill="#DAFFF5"/>
<path d="M578.772 1603.55C585.842 1582.34 610.585 1570.45 625.045 1575.91L624.403 1611.9C616.369 1595.19 578.772 1610.94 591.947 1626.04C526.907 1674.11 521.787 1721.48 527.357 1739.15C513.218 1712.16 480.12 1712.16 476.585 1712.16C473.05 1712.16 467.266 1739.15 436.417 1739.15C411.738 1739.15 401.07 1715.37 398.82 1703.48C380.054 1686.26 363.58 1696.31 357.689 1703.48C335.066 1685.23 315.271 1701.66 308.202 1712.16L260 1633.11C294.963 1621.8 339.693 1663.75 357.689 1686.13C388.794 1663.51 423.135 1688.27 436.417 1703.48C455.184 1690.89 490.724 1698.24 506.149 1703.48C502.807 1671.35 553.172 1623.47 578.772 1603.55Z" fill="#DAFFF5"/>
<path d="M560.777 1805.67C561.741 1772.57 586.484 1736.9 625.688 1714.09L648.503 1716.98C614.57 1728.55 570.739 1782.86 560.777 1805.67Z" fill="#DAFFF5"/>
<path d="M1543 1549.19C1566.36 1546.98 1590.26 1546.98 1613.52 1543.96L1636.62 1539.75C1647.73 1537.65 1658.13 1533.09 1668.08 1527.91C1675.63 1524.53 1680.53 1521.4 1686.93 1516.43C1692.84 1512.43 1699.34 1509.15 1706.34 1507.51C1710.89 1506.02 1716.29 1503.77 1721.49 1503C1740.75 1499.92 1758.9 1495.57 1778.76 1493.52C1784.36 1493.11 1790.91 1493 1796.21 1492.7C1802.46 1492.39 1811.86 1490.75 1818.12 1489.98L1830.27 1488.59C1831.62 1488.44 1831.32 1488.59 1831.87 1488.54C1835.12 1488.08 1839.42 1486.7 1842.82 1486.19C1843.72 1486.34 1847.37 1483.26 1848.57 1482.44C1855.23 1477.78 1861.73 1477.32 1868.68 1473.11C1872.53 1471.22 1877.93 1468.81 1883.68 1469.01C1889.73 1469.68 1893.98 1470.6 1899.84 1472.24C1902.79 1473.57 1906.04 1474.6 1908.54 1477.11L1906.94 1479.73C1899.99 1478.85 1891.88 1481.21 1885.13 1482.96C1881.43 1484.49 1877.93 1489.26 1874.18 1492.39C1871.58 1494.95 1866.63 1497.72 1864.33 1499.92C1861.53 1503.2 1859.93 1505.77 1855.38 1508.79C1849.32 1512.43 1844.57 1514.23 1838.42 1516.48C1830.72 1518.48 1819.52 1521.2 1811.81 1522.84C1799.46 1525.76 1786.86 1524.53 1774.56 1524.58C1756.65 1525.25 1736.05 1525.04 1718.04 1528.37C1715.49 1529.04 1711.84 1530.01 1708.79 1530.48C1705.24 1531.14 1701.44 1532.94 1698.19 1534.63C1687.94 1541.86 1675.23 1545.75 1663.73 1549.85C1649.63 1555.08 1629.62 1555.59 1614.77 1556.36C1590.91 1556.57 1566.81 1553.75 1543.05 1552.31V1549.24L1543 1549.19Z" fill="#DAFFF5"/>
<path d="M303.749 1646.69C299.246 1647.74 293.427 1645.6 289.115 1644.72C281.377 1643.07 269.617 1639.75 261.949 1637.14C253.326 1634.38 243.591 1633.95 234.691 1631.63C212.088 1626.19 190.522 1626.38 167.84 1630.47C147.601 1632.1 133.551 1642.57 112.336 1643.19C107.539 1643.21 103.928 1644.19 98.4322 1642.77C86.4207 1639.17 80.829 1628.22 69.7946 1623.64C68.2311 1622.98 63.7649 1620.56 62.2106 1620.13C45.9993 1615.44 29.7721 1623.9 14.1822 1628.18C1.38239 1631.02 -8.81001 1635.58 -20.5462 1642.34C-37.6786 1651.23 -55.6406 1659.42 -74.6972 1663.58C-87.4004 1666.16 -101.03 1668.3 -114.011 1668.91C-115.358 1669 -117.348 1669.04 -118.97 1667.57L-117.143 1664.76C-110.374 1660.83 -100.738 1655.73 -93.8195 1651.52C-73.7011 1641.08 -55.2723 1628.12 -36.952 1614.79C-27.9987 1608.3 -17.7421 1600.97 -6.49025 1597.51C-0.335644 1595.63 11.3265 1592.42 17.7017 1590.71C34.9587 1585.65 54.6749 1584.99 72.0098 1592.4C73.3526 1592.9 74.8723 1593.81 76.0502 1594.53C81.0444 1597.79 84.9389 1599.61 90.461 1603.72C96.8466 1609.04 100.229 1613.47 105.695 1618.18C106.105 1618.41 105.179 1617.97 105.02 1618.02C104.535 1617.92 104.65 1618.12 105.278 1618.12C106.217 1618.2 109.252 1618.21 110.629 1618.23C120.398 1619.19 132.52 1615.78 143.255 1613.12C160.751 1609.69 176.887 1610.12 194.793 1610.33C214.984 1611.53 233.566 1618.7 250.803 1623.97C264.052 1627.09 277.721 1635.08 290.63 1639.42C294.954 1640.94 299.61 1643.42 303.248 1643.14L303.914 1646.47L303.749 1646.69Z" fill="#DAFFF5"/>
</g>
<defs>
<radialGradient id="paint0_radial_458_333" cx="0" cy="0" r="1" gradientUnits="userSpaceOnUse" gradientTransform="translate(847 660) scale(1175 134.848)">
<stop offset="0.92" stop-color="#00BCD8"/>
<stop offset="0.925" stop-color="#00A0BE"/>
<stop offset="1" stop-color="#00A0BE"/>
</radialGradient>
<linearGradient id="paint1_linear_458_333" x1="960" y1="529" x2="960" y2="899" gradientUnits="userSpaceOnUse">
<stop stop-color="#00C1A9" stop-opacity="0"/>
<stop offset="0.65" stop-color="#00C1A9"/>
<stop offset="0.865" stop-color="#8DBD9E"/>
</linearGradient>
<linearGradient id="paint2_linear_458_333" x1="959.597" y1="99" x2="959.597" y2="528.839" gradientUnits="userSpaceOnUse">
<stop stop-color="#89F0FF"/>
<stop offset="0.305" stop-color="#7FEEFE"/>
<stop offset="0.655" stop-color="#89F0FF"/>
<stop offset="1" stop-color="#A0F4FF"/>
</linearGradient>
<linearGradient id="paint3_linear_458_333" x1="959.597" y1="99" x2="959.597" y2="528.839" gradientUnits="userSpaceOnUse">
<stop stop-color="#89F0FF"/>
<stop offset="0.305" stop-color="#7FEEFE"/>
<stop offset="0.655" stop-color="#89F0FF"/>
<stop offset="1" stop-color="#A0F4FF"/>
</linearGradient>
<linearGradient id="paint4_linear_458_333" x1="959.597" y1="99" x2="959.597" y2="528.839" gradientUnits="userSpaceOnUse">
<stop stop-color="#89F0FF"/>
<stop offset="0.305" stop-color="#7FEEFE"/>
<stop offset="0.655" stop-color="#89F0FF"/>
<stop offset="1" stop-color="#A0F4FF"/>
</linearGradient>
<linearGradient id="paint5_linear_458_333" x1="952.815" y1="1501.93" x2="952.815" y2="2620.17" gradientUnits="userSpaceOnUse">
<stop stop-color="#8DBD9E"/>
<stop offset="0.31" stop-color="#00C1A9"/>
<stop offset="0.665" stop-color="#00A6C4"/>
</linearGradient>
<clipPath id="clip0_458_333">
<rect width="1909" height="2315" fill="white"/>
</clipPath>
</defs>
</svg>
