<svg width="1615" height="1192" viewBox="0 0 1615 1192" fill="none" xmlns="http://www.w3.org/2000/svg">
<mask id="path-1-outside-1_3018_326" maskUnits="userSpaceOnUse" x="-0.50293" y="-0.523926" width="1616" height="1193" fill="black">
<rect fill="white" x="-0.50293" y="-0.523926" width="1616" height="1193"/>
<path fill-rule="evenodd" clip-rule="evenodd" d="M327.702 50.7197L269.551 56.1597L208.217 55.9977L183.255 48.5602L158.293 55.5858L129.235 52.0055L101.134 53.6212L93.1178 65.6418L90.5587 80.2338L98.3143 148.135L104.747 216.592L108.054 254.899L111.868 293.141L97.397 319.539L86.4759 348.107L76.9688 356.534L71.8496 367.731L47.8201 400.653L32 438.145L46.7932 492.601L62.2872 547.09L100.426 696.059L87.3274 711.92L79.1236 730.839L79.3019 775.091L73.3894 819.009L68.2998 862.332L64.0606 905.52L65.9218 950.545L75.0437 995.385L63.7641 1071.23L66.2079 1146.45L81.3567 1133.22L100.426 1118.97L131.414 1086.98L148.174 1085.59L166.03 1085.41L180.505 1089.19L195.911 1086.45L196.727 1060.73V1034.49L213.942 1043.64L231.788 1051.85L300.539 1099.69L370.209 1144.86L421.074 1148.18L472.282 1144.56L501.887 1147.92L531.493 1144.54L580.71 1143.44L625.995 1142.89L658.21 1133.22L689.674 1118.97L707.342 1115.79L723.462 1106.51L740.832 1104.33L757.41 1098.86L823.595 1091.85L888.2 1073.39L918.972 1081.4L949.499 1086.98L1030.54 1147.47L1052.71 1156.41L1075.6 1160.44L1121.67 1143.25L1164.09 1116.82L1185.52 1114.33L1203.31 1102.68L1203.49 1093.47L1210.73 1086.81L1260.81 1086.98H1310.86L1357.11 1034.49L1378.32 1045.7L1395.43 1062.54L1441.11 1103.32L1483.98 1147.39L1509.67 1167.19L1536.8 1178.48L1556.17 1134.48L1567.71 1086.83L1561.23 1049.54L1542.06 1015.53L1538.97 998.795L1540.96 981.981L1545.73 948.362L1552.62 915.115L1561.93 887.846L1568.69 858.214L1583.56 861.026H1595L1541.13 788.54V756.547L1572.12 696.059V668.065L1574.34 651.415L1564.27 636.714L1560.58 624.911L1560.39 612.112L1549.73 579.996L1539.44 547.316L1541.13 492.601V438.112L1538.49 392.056L1533.11 346.263L1528.49 311.898L1524.18 277.071L1533.5 236.903L1541.13 196.661L1572.12 148.171L1575.88 133.128L1570.15 121.351L1572.34 98.614L1571.36 76.2396L1548.99 63.6882L1525.87 51.6906L1491.48 50.3839L1458.12 55.2739L1397.46 47.5085L1336.8 55.1499L1311.59 55.7178L1286.38 55.0709L1265.11 54.0451L1243.84 54.2591L1227.17 52.0095L1210.79 52.0785L1179.45 61.4736L1147.43 66.2976L1120.8 66.9695L1095.78 76.4835L1063.2 63.6882L1030.54 51.6906L1011.31 41.9266L990.129 38.5763L939.245 26.0538L887.72 17.8985L847.392 15.48L806.812 21.1908L782.014 18.4554L758.106 18.3174L715.18 33.4443L672.989 51.6906L629.775 73.1092L590.422 48.7162L548.119 67.1784L510.106 94.2549L473.218 106.199L438.788 131.803L429.501 123.747L419.948 114.978L400.491 80.2248L369.798 56.1507L345.667 79.277L327.702 50.7197Z"/>
<path fill-rule="evenodd" clip-rule="evenodd" d="M173.5 82.213L146.25 82.9531H119L102.503 88.6681L89.4261 100.544L64.9361 111.979L46.7781 130.193L51.5001 160.703L58.5001 191.953L76.5001 266.453L76.2771 279.403L77.0771 292.834L66.7171 302.279L60.7081 314.391L52.7461 329.011L45.0381 344.031L27.6541 376.054L10.4971 408.095L12.9161 425.701L16.9471 443.324L13.6921 453.678L18.9301 463.076L15.0791 475.371L19.2491 486.793L18.9711 517.144L26.5801 546.136L39.8191 556.986L52.7061 569.377L62.7291 572.149L73.5361 574.627L97.4781 588.832L124.365 598.162L131.054 621.313L138.594 643.47L138.076 660.635L142.327 677.169L139.805 697.765L143.36 718.272L141.738 740.781L139.682 762.62L148.5 799.203L159.5 835.454L173.5 909.954L173.762 919.516L178.589 927.975L178.876 935.61L185.544 939.789L203.65 973.563L228.302 1002.74L241.291 1021.56L254.037 1040.45L267.786 1052.5L284.024 1061.1L292.309 1070.9L305.037 1071.35L310.815 1072.12L317.247 1072.37L335.61 1078.06L354.558 1077.61L386.584 1086.71L419.427 1090.74L458 1077.45L496.5 1063.45V1043.45L514.381 1041.19L532.164 1040.44L565.012 1039.92L596.912 1032.44L616.315 1029.24L635.249 1023.68L642.477 1022.99L649.42 1020.44L661.249 1021.98L672.304 1016.71L709.74 1018.44L746.314 1010.86L772.586 1011.59L798.434 1007.52L799.846 1007.65L800.892 1009.53L790.687 1006.5L779.841 1001.95L815 989.703L849.5 976.453L867.728 979.015L883.833 974.241L895.462 977.948L907.091 975.514L925.365 978.837L943.639 974.959L966.897 976.69L990.154 973.982L999.014 976.725L1007.87 976.036L1039.24 976.931L1070.41 974.737L1096.92 957.383L1121.07 936.099L1137.31 923.936L1150.83 908.541L1161.91 902.339L1171.33 893.462L1188.5 891.512L1202.87 881.677L1225.98 881.13L1248.55 876.747L1260.39 881.015L1271.27 886.697L1277.32 896.411L1284.85 905.549L1289.86 927.878L1299.64 948.111L1306.69 960.741L1316.97 970.951L1344.59 980.84L1373.2 988.489L1391.09 1003.66L1412.71 1010.91L1424.25 1012.95H1436.5L1450.21 1006.81L1465.39 1001.67L1482.09 999.965L1495.92 990.049L1518.72 985.439L1540.95 976.394L1558.25 953.453L1575.5 930.453L1602 901.953V861.953L1581.5 817.453L1555.5 746.953L1581.5 683.953L1575.5 673.953L1555.5 647.953L1519 589.453L1518.88 589.318L1518.75 589.182L1491 546.953L1494.14 532.095L1493.36 516.933L1491.18 497.883L1490.38 478.487L1491 461.203V443.953L1464.5 407.953L1436.5 363.454L1434.02 359.291L1432.01 354.661L1434.69 342.454L1433.42 330.45L1432.99 317.811L1435.03 305.341L1437.64 291.479L1437.55 277.318L1443.29 250.063L1445.62 222.226L1454.88 208.594L1457.55 193.452L1476.69 163.417L1488.57 128.251L1500.93 105.242L1513.32 80.1851L1526.84 55.1271L1539.09 32.8261L1523.67 32.6481L1506.17 32.5011L1479.4 31.5861L1452.64 34.2331L1432.93 30.9861L1412.02 33.2871L1395.65 34.2831L1379.35 36.3271L1361.12 34.2341L1343.45 38.1351L1302.09 40.0081L1261.04 45.6741L1239.75 44.9531H1218.5L1212.9 47.2401L1207.16 48.9171L1176.88 58.0111L1146.04 65.2541L1108.5 64.9531H1071L1055.92 59.1461L1039.27 58.9881L1024.83 49.3321L1008.48 44.9961L1000.25 40.2711L990.621 37.0371L978.596 22.9341L960.025 16.4781L932.444 12.0841L906.35 17.4371L892.575 12.4761L878.8 14.7071L863.6 17.1321L848.4 14.8271L838.9 12.9791L829.4 15.8141L821.325 11.4761L813.25 15.4771L790.965 16.6491L771.054 16.5081L758.5 23.4531L746.5 32.4531L686 82.9531L672.124 81.1561L659.735 83.6161L640.68 85.7661L621.625 83.8791L601.698 84.4371L583.524 85.0901L571.641 92.9331L558.186 99.4001L548.886 107.414L539.485 115.391L527.782 127.393L515.533 138.777L499.059 149.424L486.458 164.144L470.265 176.077L458.352 193.546L449.381 183.194L438.871 175.853L417.832 152.557L398.199 130.608L385.25 112.203L371 94.9531L335 82.9531H211.75L173.5 82.213Z"/>
</mask>
<path fill-rule="evenodd" clip-rule="evenodd" d="M327.702 50.7197L269.551 56.1597L208.217 55.9977L183.255 48.5602L158.293 55.5858L129.235 52.0055L101.134 53.6212L93.1178 65.6418L90.5587 80.2338L98.3143 148.135L104.747 216.592L108.054 254.899L111.868 293.141L97.397 319.539L86.4759 348.107L76.9688 356.534L71.8496 367.731L47.8201 400.653L32 438.145L46.7932 492.601L62.2872 547.09L100.426 696.059L87.3274 711.92L79.1236 730.839L79.3019 775.091L73.3894 819.009L68.2998 862.332L64.0606 905.52L65.9218 950.545L75.0437 995.385L63.7641 1071.23L66.2079 1146.45L81.3567 1133.22L100.426 1118.97L131.414 1086.98L148.174 1085.59L166.03 1085.41L180.505 1089.19L195.911 1086.45L196.727 1060.73V1034.49L213.942 1043.64L231.788 1051.85L300.539 1099.69L370.209 1144.86L421.074 1148.18L472.282 1144.56L501.887 1147.92L531.493 1144.54L580.71 1143.44L625.995 1142.89L658.21 1133.22L689.674 1118.97L707.342 1115.79L723.462 1106.51L740.832 1104.33L757.41 1098.86L823.595 1091.85L888.2 1073.39L918.972 1081.4L949.499 1086.98L1030.54 1147.47L1052.71 1156.41L1075.6 1160.44L1121.67 1143.25L1164.09 1116.82L1185.52 1114.33L1203.31 1102.68L1203.49 1093.47L1210.73 1086.81L1260.81 1086.98H1310.86L1357.11 1034.49L1378.32 1045.7L1395.43 1062.54L1441.11 1103.32L1483.98 1147.39L1509.67 1167.19L1536.8 1178.48L1556.17 1134.48L1567.71 1086.83L1561.23 1049.54L1542.06 1015.53L1538.97 998.795L1540.96 981.981L1545.73 948.362L1552.62 915.115L1561.93 887.846L1568.69 858.214L1583.56 861.026H1595L1541.13 788.54V756.547L1572.12 696.059V668.065L1574.34 651.415L1564.27 636.714L1560.58 624.911L1560.39 612.112L1549.73 579.996L1539.44 547.316L1541.13 492.601V438.112L1538.49 392.056L1533.11 346.263L1528.49 311.898L1524.18 277.071L1533.5 236.903L1541.13 196.661L1572.12 148.171L1575.88 133.128L1570.15 121.351L1572.34 98.614L1571.36 76.2396L1548.99 63.6882L1525.87 51.6906L1491.48 50.3839L1458.12 55.2739L1397.46 47.5085L1336.8 55.1499L1311.59 55.7178L1286.38 55.0709L1265.11 54.0451L1243.84 54.2591L1227.17 52.0095L1210.79 52.0785L1179.45 61.4736L1147.43 66.2976L1120.8 66.9695L1095.78 76.4835L1063.2 63.6882L1030.54 51.6906L1011.31 41.9266L990.129 38.5763L939.245 26.0538L887.72 17.8985L847.392 15.48L806.812 21.1908L782.014 18.4554L758.106 18.3174L715.18 33.4443L672.989 51.6906L629.775 73.1092L590.422 48.7162L548.119 67.1784L510.106 94.2549L473.218 106.199L438.788 131.803L429.501 123.747L419.948 114.978L400.491 80.2248L369.798 56.1507L345.667 79.277L327.702 50.7197Z" fill="#EFC588"/>
<path fill-rule="evenodd" clip-rule="evenodd" d="M173.5 82.213L146.25 82.9531H119L102.503 88.6681L89.4261 100.544L64.9361 111.979L46.7781 130.193L51.5001 160.703L58.5001 191.953L76.5001 266.453L76.2771 279.403L77.0771 292.834L66.7171 302.279L60.7081 314.391L52.7461 329.011L45.0381 344.031L27.6541 376.054L10.4971 408.095L12.9161 425.701L16.9471 443.324L13.6921 453.678L18.9301 463.076L15.0791 475.371L19.2491 486.793L18.9711 517.144L26.5801 546.136L39.8191 556.986L52.7061 569.377L62.7291 572.149L73.5361 574.627L97.4781 588.832L124.365 598.162L131.054 621.313L138.594 643.47L138.076 660.635L142.327 677.169L139.805 697.765L143.36 718.272L141.738 740.781L139.682 762.62L148.5 799.203L159.5 835.454L173.5 909.954L173.762 919.516L178.589 927.975L178.876 935.61L185.544 939.789L203.65 973.563L228.302 1002.74L241.291 1021.56L254.037 1040.45L267.786 1052.5L284.024 1061.1L292.309 1070.9L305.037 1071.35L310.815 1072.12L317.247 1072.37L335.61 1078.06L354.558 1077.61L386.584 1086.71L419.427 1090.74L458 1077.45L496.5 1063.45V1043.45L514.381 1041.19L532.164 1040.44L565.012 1039.92L596.912 1032.44L616.315 1029.24L635.249 1023.68L642.477 1022.99L649.42 1020.44L661.249 1021.98L672.304 1016.71L709.74 1018.44L746.314 1010.86L772.586 1011.59L798.434 1007.52L799.846 1007.65L800.892 1009.53L790.687 1006.5L779.841 1001.95L815 989.703L849.5 976.453L867.728 979.015L883.833 974.241L895.462 977.948L907.091 975.514L925.365 978.837L943.639 974.959L966.897 976.69L990.154 973.982L999.014 976.725L1007.87 976.036L1039.24 976.931L1070.41 974.737L1096.92 957.383L1121.07 936.099L1137.31 923.936L1150.83 908.541L1161.91 902.339L1171.33 893.462L1188.5 891.512L1202.87 881.677L1225.98 881.13L1248.55 876.747L1260.39 881.015L1271.27 886.697L1277.32 896.411L1284.85 905.549L1289.86 927.878L1299.64 948.111L1306.69 960.741L1316.97 970.951L1344.59 980.84L1373.2 988.489L1391.09 1003.66L1412.71 1010.91L1424.25 1012.95H1436.5L1450.21 1006.81L1465.39 1001.67L1482.09 999.965L1495.92 990.049L1518.72 985.439L1540.95 976.394L1558.25 953.453L1575.5 930.453L1602 901.953V861.953L1581.5 817.453L1555.5 746.953L1581.5 683.953L1575.5 673.953L1555.5 647.953L1519 589.453L1518.88 589.318L1518.75 589.182L1491 546.953L1494.14 532.095L1493.36 516.933L1491.18 497.883L1490.38 478.487L1491 461.203V443.953L1464.5 407.953L1436.5 363.454L1434.02 359.291L1432.01 354.661L1434.69 342.454L1433.42 330.45L1432.99 317.811L1435.03 305.341L1437.64 291.479L1437.55 277.318L1443.29 250.063L1445.62 222.226L1454.88 208.594L1457.55 193.452L1476.69 163.417L1488.57 128.251L1500.93 105.242L1513.32 80.1851L1526.84 55.1271L1539.09 32.8261L1523.67 32.6481L1506.17 32.5011L1479.4 31.5861L1452.64 34.2331L1432.93 30.9861L1412.02 33.2871L1395.65 34.2831L1379.35 36.3271L1361.12 34.2341L1343.45 38.1351L1302.09 40.0081L1261.04 45.6741L1239.75 44.9531H1218.5L1212.9 47.2401L1207.16 48.9171L1176.88 58.0111L1146.04 65.2541L1108.5 64.9531H1071L1055.92 59.1461L1039.27 58.9881L1024.83 49.3321L1008.48 44.9961L1000.25 40.2711L990.621 37.0371L978.596 22.9341L960.025 16.4781L932.444 12.0841L906.35 17.4371L892.575 12.4761L878.8 14.7071L863.6 17.1321L848.4 14.8271L838.9 12.9791L829.4 15.8141L821.325 11.4761L813.25 15.4771L790.965 16.6491L771.054 16.5081L758.5 23.4531L746.5 32.4531L686 82.9531L672.124 81.1561L659.735 83.6161L640.68 85.7661L621.625 83.8791L601.698 84.4371L583.524 85.0901L571.641 92.9331L558.186 99.4001L548.886 107.414L539.485 115.391L527.782 127.393L515.533 138.777L499.059 149.424L486.458 164.144L470.265 176.077L458.352 193.546L449.381 183.194L438.871 175.853L417.832 152.557L398.199 130.608L385.25 112.203L371 94.9531L335 82.9531H211.75L173.5 82.213Z" fill="#FDE5AB"/>
<path fill-rule="evenodd" clip-rule="evenodd" d="M327.702 50.7197L269.551 56.1597L208.217 55.9977L183.255 48.5602L158.293 55.5858L129.235 52.0055L101.134 53.6212L93.1178 65.6418L90.5587 80.2338L98.3143 148.135L104.747 216.592L108.054 254.899L111.868 293.141L97.397 319.539L86.4759 348.107L76.9688 356.534L71.8496 367.731L47.8201 400.653L32 438.145L46.7932 492.601L62.2872 547.09L100.426 696.059L87.3274 711.92L79.1236 730.839L79.3019 775.091L73.3894 819.009L68.2998 862.332L64.0606 905.52L65.9218 950.545L75.0437 995.385L63.7641 1071.23L66.2079 1146.45L81.3567 1133.22L100.426 1118.97L131.414 1086.98L148.174 1085.59L166.03 1085.41L180.505 1089.19L195.911 1086.45L196.727 1060.73V1034.49L213.942 1043.64L231.788 1051.85L300.539 1099.69L370.209 1144.86L421.074 1148.18L472.282 1144.56L501.887 1147.92L531.493 1144.54L580.71 1143.44L625.995 1142.89L658.21 1133.22L689.674 1118.97L707.342 1115.79L723.462 1106.51L740.832 1104.33L757.41 1098.86L823.595 1091.85L888.2 1073.39L918.972 1081.4L949.499 1086.98L1030.54 1147.47L1052.71 1156.41L1075.6 1160.44L1121.67 1143.25L1164.09 1116.82L1185.52 1114.33L1203.31 1102.68L1203.49 1093.47L1210.73 1086.81L1260.81 1086.98H1310.86L1357.11 1034.49L1378.32 1045.7L1395.43 1062.54L1441.11 1103.32L1483.98 1147.39L1509.67 1167.19L1536.8 1178.48L1556.17 1134.48L1567.71 1086.83L1561.23 1049.54L1542.06 1015.53L1538.97 998.795L1540.96 981.981L1545.73 948.362L1552.62 915.115L1561.93 887.846L1568.69 858.214L1583.56 861.026H1595L1541.13 788.54V756.547L1572.12 696.059V668.065L1574.34 651.415L1564.27 636.714L1560.58 624.911L1560.39 612.112L1549.73 579.996L1539.44 547.316L1541.13 492.601V438.112L1538.49 392.056L1533.11 346.263L1528.49 311.898L1524.18 277.071L1533.5 236.903L1541.13 196.661L1572.12 148.171L1575.88 133.128L1570.15 121.351L1572.34 98.614L1571.36 76.2396L1548.99 63.6882L1525.87 51.6906L1491.48 50.3839L1458.12 55.2739L1397.46 47.5085L1336.8 55.1499L1311.59 55.7178L1286.38 55.0709L1265.11 54.0451L1243.84 54.2591L1227.17 52.0095L1210.79 52.0785L1179.45 61.4736L1147.43 66.2976L1120.8 66.9695L1095.78 76.4835L1063.2 63.6882L1030.54 51.6906L1011.31 41.9266L990.129 38.5763L939.245 26.0538L887.72 17.8985L847.392 15.48L806.812 21.1908L782.014 18.4554L758.106 18.3174L715.18 33.4443L672.989 51.6906L629.775 73.1092L590.422 48.7162L548.119 67.1784L510.106 94.2549L473.218 106.199L438.788 131.803L429.501 123.747L419.948 114.978L400.491 80.2248L369.798 56.1507L345.667 79.277L327.702 50.7197Z" stroke="#DAFFF5" stroke-width="20" mask="url(#path-1-outside-1_3018_326)"/>
<path fill-rule="evenodd" clip-rule="evenodd" d="M173.5 82.213L146.25 82.9531H119L102.503 88.6681L89.4261 100.544L64.9361 111.979L46.7781 130.193L51.5001 160.703L58.5001 191.953L76.5001 266.453L76.2771 279.403L77.0771 292.834L66.7171 302.279L60.7081 314.391L52.7461 329.011L45.0381 344.031L27.6541 376.054L10.4971 408.095L12.9161 425.701L16.9471 443.324L13.6921 453.678L18.9301 463.076L15.0791 475.371L19.2491 486.793L18.9711 517.144L26.5801 546.136L39.8191 556.986L52.7061 569.377L62.7291 572.149L73.5361 574.627L97.4781 588.832L124.365 598.162L131.054 621.313L138.594 643.47L138.076 660.635L142.327 677.169L139.805 697.765L143.36 718.272L141.738 740.781L139.682 762.62L148.5 799.203L159.5 835.454L173.5 909.954L173.762 919.516L178.589 927.975L178.876 935.61L185.544 939.789L203.65 973.563L228.302 1002.74L241.291 1021.56L254.037 1040.45L267.786 1052.5L284.024 1061.1L292.309 1070.9L305.037 1071.35L310.815 1072.12L317.247 1072.37L335.61 1078.06L354.558 1077.61L386.584 1086.71L419.427 1090.74L458 1077.45L496.5 1063.45V1043.45L514.381 1041.19L532.164 1040.44L565.012 1039.92L596.912 1032.44L616.315 1029.24L635.249 1023.68L642.477 1022.99L649.42 1020.44L661.249 1021.98L672.304 1016.71L709.74 1018.44L746.314 1010.86L772.586 1011.59L798.434 1007.52L799.846 1007.65L800.892 1009.53L790.687 1006.5L779.841 1001.95L815 989.703L849.5 976.453L867.728 979.015L883.833 974.241L895.462 977.948L907.091 975.514L925.365 978.837L943.639 974.959L966.897 976.69L990.154 973.982L999.014 976.725L1007.87 976.036L1039.24 976.931L1070.41 974.737L1096.92 957.383L1121.07 936.099L1137.31 923.936L1150.83 908.541L1161.91 902.339L1171.33 893.462L1188.5 891.512L1202.87 881.677L1225.98 881.13L1248.55 876.747L1260.39 881.015L1271.27 886.697L1277.32 896.411L1284.85 905.549L1289.86 927.878L1299.64 948.111L1306.69 960.741L1316.97 970.951L1344.59 980.84L1373.2 988.489L1391.09 1003.66L1412.71 1010.91L1424.25 1012.95H1436.5L1450.21 1006.81L1465.39 1001.67L1482.09 999.965L1495.92 990.049L1518.72 985.439L1540.95 976.394L1558.25 953.453L1575.5 930.453L1602 901.953V861.953L1581.5 817.453L1555.5 746.953L1581.5 683.953L1575.5 673.953L1555.5 647.953L1519 589.453L1518.88 589.318L1518.75 589.182L1491 546.953L1494.14 532.095L1493.36 516.933L1491.18 497.883L1490.38 478.487L1491 461.203V443.953L1464.5 407.953L1436.5 363.454L1434.02 359.291L1432.01 354.661L1434.69 342.454L1433.42 330.45L1432.99 317.811L1435.03 305.341L1437.64 291.479L1437.55 277.318L1443.29 250.063L1445.62 222.226L1454.88 208.594L1457.55 193.452L1476.69 163.417L1488.57 128.251L1500.93 105.242L1513.32 80.1851L1526.84 55.1271L1539.09 32.8261L1523.67 32.6481L1506.17 32.5011L1479.4 31.5861L1452.64 34.2331L1432.93 30.9861L1412.02 33.2871L1395.65 34.2831L1379.35 36.3271L1361.12 34.2341L1343.45 38.1351L1302.09 40.0081L1261.04 45.6741L1239.75 44.9531H1218.5L1212.9 47.2401L1207.16 48.9171L1176.88 58.0111L1146.04 65.2541L1108.5 64.9531H1071L1055.92 59.1461L1039.27 58.9881L1024.83 49.3321L1008.48 44.9961L1000.25 40.2711L990.621 37.0371L978.596 22.9341L960.025 16.4781L932.444 12.0841L906.35 17.4371L892.575 12.4761L878.8 14.7071L863.6 17.1321L848.4 14.8271L838.9 12.9791L829.4 15.8141L821.325 11.4761L813.25 15.4771L790.965 16.6491L771.054 16.5081L758.5 23.4531L746.5 32.4531L686 82.9531L672.124 81.1561L659.735 83.6161L640.68 85.7661L621.625 83.8791L601.698 84.4371L583.524 85.0901L571.641 92.9331L558.186 99.4001L548.886 107.414L539.485 115.391L527.782 127.393L515.533 138.777L499.059 149.424L486.458 164.144L470.265 176.077L458.352 193.546L449.381 183.194L438.871 175.853L417.832 152.557L398.199 130.608L385.25 112.203L371 94.9531L335 82.9531H211.75L173.5 82.213Z" stroke="#DAFFF5" stroke-width="20" mask="url(#path-1-outside-1_3018_326)"/>
<mask id="path-2-outside-2_3018_326" maskUnits="userSpaceOnUse" x="3.49707" y="4.47607" width="1605" height="1182" fill="black">
<rect fill="white" x="3.49707" y="4.47607" width="1605" height="1182"/>
<path fill-rule="evenodd" clip-rule="evenodd" d="M327.702 50.7197L269.551 56.1597L208.217 55.9977L183.255 48.5602L158.293 55.5858L129.235 52.0055L101.134 53.6212L93.1178 65.6418L90.5587 80.2338L98.3143 148.135L104.747 216.592L108.054 254.899L111.868 293.141L97.397 319.539L86.4759 348.107L76.9688 356.534L71.8496 367.731L47.8201 400.653L32 438.145L46.7932 492.601L62.2872 547.09L100.426 696.059L87.3274 711.92L79.1236 730.839L79.3019 775.091L73.3894 819.009L68.2998 862.332L64.0606 905.52L65.9218 950.545L75.0437 995.385L63.7641 1071.23L66.2079 1146.45L81.3567 1133.22L100.426 1118.97L131.414 1086.98L148.174 1085.59L166.03 1085.41L180.505 1089.19L195.911 1086.45L196.727 1060.73V1034.49L213.942 1043.64L231.788 1051.85L300.539 1099.69L370.209 1144.86L421.074 1148.18L472.282 1144.56L501.887 1147.92L531.493 1144.54L580.71 1143.44L625.995 1142.89L658.21 1133.22L689.674 1118.97L707.342 1115.79L723.462 1106.51L740.832 1104.33L757.41 1098.86L823.595 1091.85L888.2 1073.39L918.972 1081.4L949.499 1086.98L1030.54 1147.47L1052.71 1156.41L1075.6 1160.44L1121.67 1143.25L1164.09 1116.82L1185.52 1114.33L1203.31 1102.68L1203.49 1093.47L1210.73 1086.81L1260.81 1086.98H1310.86L1357.11 1034.49L1378.32 1045.7L1395.43 1062.54L1441.11 1103.32L1483.98 1147.39L1509.67 1167.19L1536.8 1178.48L1556.17 1134.48L1567.71 1086.83L1561.23 1049.54L1542.06 1015.53L1538.97 998.795L1540.96 981.981L1545.73 948.362L1552.62 915.115L1561.93 887.846L1568.69 858.214L1583.56 861.026H1595L1541.13 788.54V756.547L1572.12 696.059V668.065L1574.34 651.415L1564.27 636.714L1560.58 624.911L1560.39 612.112L1549.73 579.996L1539.44 547.316L1541.13 492.601V438.112L1538.49 392.056L1533.11 346.263L1528.49 311.898L1524.18 277.071L1533.5 236.903L1541.13 196.661L1572.12 148.171L1575.88 133.128L1570.15 121.351L1572.34 98.614L1571.36 76.2396L1548.99 63.6882L1525.87 51.6906L1491.48 50.3839L1458.12 55.2739L1397.46 47.5085L1336.8 55.1499L1311.59 55.7178L1286.38 55.0709L1265.11 54.0451L1243.84 54.2591L1227.17 52.0095L1210.79 52.0785L1179.45 61.4736L1147.43 66.2976L1120.8 66.9695L1095.78 76.4835L1063.2 63.6882L1030.54 51.6906L1011.31 41.9266L990.129 38.5763L939.245 26.0538L887.72 17.8985L847.392 15.48L806.812 21.1908L782.014 18.4554L758.106 18.3174L715.18 33.4443L672.989 51.6906L629.775 73.1092L590.422 48.7162L548.119 67.1784L510.106 94.2549L473.218 106.199L438.788 131.803L429.501 123.747L419.948 114.978L400.491 80.2248L369.798 56.1507L345.667 79.277L327.702 50.7197Z"/>
<path fill-rule="evenodd" clip-rule="evenodd" d="M173.5 82.213L146.25 82.9531H119L102.503 88.6681L89.4261 100.544L64.9361 111.979L46.7781 130.193L51.5001 160.703L58.5001 191.953L76.5001 266.453L76.2771 279.403L77.0771 292.834L66.7171 302.279L60.7081 314.391L52.7461 329.011L45.0381 344.031L27.6541 376.054L10.4971 408.095L12.9161 425.701L16.9471 443.324L13.6921 453.678L18.9301 463.076L15.0791 475.371L19.2491 486.793L18.9711 517.144L26.5801 546.136L39.8191 556.986L52.7061 569.377L62.7291 572.149L73.5361 574.627L97.4781 588.832L124.365 598.162L131.054 621.313L138.594 643.47L138.076 660.635L142.327 677.169L139.805 697.765L143.36 718.272L141.738 740.781L139.682 762.62L148.5 799.203L159.5 835.454L173.5 909.954L173.762 919.516L178.589 927.975L178.876 935.61L185.544 939.789L203.65 973.563L228.302 1002.74L241.291 1021.56L254.037 1040.45L267.786 1052.5L284.024 1061.1L292.309 1070.9L305.037 1071.35L310.815 1072.12L317.247 1072.37L335.61 1078.06L354.558 1077.61L386.584 1086.71L419.427 1090.74L458 1077.45L496.5 1063.45V1043.45L514.381 1041.19L532.164 1040.44L565.012 1039.92L596.912 1032.44L616.315 1029.24L635.249 1023.68L642.477 1022.99L649.42 1020.44L661.249 1021.98L672.304 1016.71L709.74 1018.44L746.314 1010.86L772.586 1011.59L798.434 1007.52L799.846 1007.65L800.892 1009.53L790.687 1006.5L779.841 1001.95L815 989.703L849.5 976.453L867.728 979.015L883.833 974.241L895.462 977.948L907.091 975.514L925.365 978.837L943.639 974.959L966.897 976.69L990.154 973.982L999.014 976.725L1007.87 976.036L1039.24 976.931L1070.41 974.737L1096.92 957.383L1121.07 936.099L1137.31 923.936L1150.83 908.541L1161.91 902.339L1171.33 893.462L1188.5 891.512L1202.87 881.677L1225.98 881.13L1248.55 876.747L1260.39 881.015L1271.27 886.697L1277.32 896.411L1284.85 905.549L1289.86 927.878L1299.64 948.111L1306.69 960.741L1316.97 970.951L1344.59 980.84L1373.2 988.489L1391.09 1003.66L1412.71 1010.91L1424.25 1012.95H1436.5L1450.21 1006.81L1465.39 1001.67L1482.09 999.965L1495.92 990.049L1518.72 985.439L1540.95 976.394L1558.25 953.453L1575.5 930.453L1602 901.953V861.953L1581.5 817.453L1555.5 746.953L1581.5 683.953L1575.5 673.953L1555.5 647.953L1519 589.453L1518.88 589.318L1518.75 589.182L1491 546.953L1494.14 532.095L1493.36 516.933L1491.18 497.883L1490.38 478.487L1491 461.203V443.953L1464.5 407.953L1436.5 363.454L1434.02 359.291L1432.01 354.661L1434.69 342.454L1433.42 330.45L1432.99 317.811L1435.03 305.341L1437.64 291.479L1437.55 277.318L1443.29 250.063L1445.62 222.226L1454.88 208.594L1457.55 193.452L1476.69 163.417L1488.57 128.251L1500.93 105.242L1513.32 80.1851L1526.84 55.1271L1539.09 32.8261L1523.67 32.6481L1506.17 32.5011L1479.4 31.5861L1452.64 34.2331L1432.93 30.9861L1412.02 33.2871L1395.65 34.2831L1379.35 36.3271L1361.12 34.2341L1343.45 38.1351L1302.09 40.0081L1261.04 45.6741L1239.75 44.9531H1218.5L1212.9 47.2401L1207.16 48.9171L1176.88 58.0111L1146.04 65.2541L1108.5 64.9531H1071L1055.92 59.1461L1039.27 58.9881L1024.83 49.3321L1008.48 44.9961L1000.25 40.2711L990.621 37.0371L978.596 22.9341L960.025 16.4781L932.444 12.0841L906.35 17.4371L892.575 12.4761L878.8 14.7071L863.6 17.1321L848.4 14.8271L838.9 12.9791L829.4 15.8141L821.325 11.4761L813.25 15.4771L790.965 16.6491L771.054 16.5081L758.5 23.4531L746.5 32.4531L686 82.9531L672.124 81.1561L659.735 83.6161L640.68 85.7661L621.625 83.8791L601.698 84.4371L583.524 85.0901L571.641 92.9331L558.186 99.4001L548.886 107.414L539.485 115.391L527.782 127.393L515.533 138.777L499.059 149.424L486.458 164.144L470.265 176.077L458.352 193.546L449.381 183.194L438.871 175.853L417.832 152.557L398.199 130.608L385.25 112.203L371 94.9531L335 82.9531H211.75L173.5 82.213Z"/>
</mask>
<path fill-rule="evenodd" clip-rule="evenodd" d="M327.702 50.7197L269.551 56.1597L208.217 55.9977L183.255 48.5602L158.293 55.5858L129.235 52.0055L101.134 53.6212L93.1178 65.6418L90.5587 80.2338L98.3143 148.135L104.747 216.592L108.054 254.899L111.868 293.141L97.397 319.539L86.4759 348.107L76.9688 356.534L71.8496 367.731L47.8201 400.653L32 438.145L46.7932 492.601L62.2872 547.09L100.426 696.059L87.3274 711.92L79.1236 730.839L79.3019 775.091L73.3894 819.009L68.2998 862.332L64.0606 905.52L65.9218 950.545L75.0437 995.385L63.7641 1071.23L66.2079 1146.45L81.3567 1133.22L100.426 1118.97L131.414 1086.98L148.174 1085.59L166.03 1085.41L180.505 1089.19L195.911 1086.45L196.727 1060.73V1034.49L213.942 1043.64L231.788 1051.85L300.539 1099.69L370.209 1144.86L421.074 1148.18L472.282 1144.56L501.887 1147.92L531.493 1144.54L580.71 1143.44L625.995 1142.89L658.21 1133.22L689.674 1118.97L707.342 1115.79L723.462 1106.51L740.832 1104.33L757.41 1098.86L823.595 1091.85L888.2 1073.39L918.972 1081.4L949.499 1086.98L1030.54 1147.47L1052.71 1156.41L1075.6 1160.44L1121.67 1143.25L1164.09 1116.82L1185.52 1114.33L1203.31 1102.68L1203.49 1093.47L1210.73 1086.81L1260.81 1086.98H1310.86L1357.11 1034.49L1378.32 1045.7L1395.43 1062.54L1441.11 1103.32L1483.98 1147.39L1509.67 1167.19L1536.8 1178.48L1556.17 1134.48L1567.71 1086.83L1561.23 1049.54L1542.06 1015.53L1538.97 998.795L1540.96 981.981L1545.73 948.362L1552.62 915.115L1561.93 887.846L1568.69 858.214L1583.56 861.026H1595L1541.13 788.54V756.547L1572.12 696.059V668.065L1574.34 651.415L1564.27 636.714L1560.58 624.911L1560.39 612.112L1549.73 579.996L1539.44 547.316L1541.13 492.601V438.112L1538.49 392.056L1533.11 346.263L1528.49 311.898L1524.18 277.071L1533.5 236.903L1541.13 196.661L1572.12 148.171L1575.88 133.128L1570.15 121.351L1572.34 98.614L1571.36 76.2396L1548.99 63.6882L1525.87 51.6906L1491.48 50.3839L1458.12 55.2739L1397.46 47.5085L1336.8 55.1499L1311.59 55.7178L1286.38 55.0709L1265.11 54.0451L1243.84 54.2591L1227.17 52.0095L1210.79 52.0785L1179.45 61.4736L1147.43 66.2976L1120.8 66.9695L1095.78 76.4835L1063.2 63.6882L1030.54 51.6906L1011.31 41.9266L990.129 38.5763L939.245 26.0538L887.72 17.8985L847.392 15.48L806.812 21.1908L782.014 18.4554L758.106 18.3174L715.18 33.4443L672.989 51.6906L629.775 73.1092L590.422 48.7162L548.119 67.1784L510.106 94.2549L473.218 106.199L438.788 131.803L429.501 123.747L419.948 114.978L400.491 80.2248L369.798 56.1507L345.667 79.277L327.702 50.7197Z" fill="#EFC588"/>
<path fill-rule="evenodd" clip-rule="evenodd" d="M173.5 82.213L146.25 82.9531H119L102.503 88.6681L89.4261 100.544L64.9361 111.979L46.7781 130.193L51.5001 160.703L58.5001 191.953L76.5001 266.453L76.2771 279.403L77.0771 292.834L66.7171 302.279L60.7081 314.391L52.7461 329.011L45.0381 344.031L27.6541 376.054L10.4971 408.095L12.9161 425.701L16.9471 443.324L13.6921 453.678L18.9301 463.076L15.0791 475.371L19.2491 486.793L18.9711 517.144L26.5801 546.136L39.8191 556.986L52.7061 569.377L62.7291 572.149L73.5361 574.627L97.4781 588.832L124.365 598.162L131.054 621.313L138.594 643.47L138.076 660.635L142.327 677.169L139.805 697.765L143.36 718.272L141.738 740.781L139.682 762.62L148.5 799.203L159.5 835.454L173.5 909.954L173.762 919.516L178.589 927.975L178.876 935.61L185.544 939.789L203.65 973.563L228.302 1002.74L241.291 1021.56L254.037 1040.45L267.786 1052.5L284.024 1061.1L292.309 1070.9L305.037 1071.35L310.815 1072.12L317.247 1072.37L335.61 1078.06L354.558 1077.61L386.584 1086.71L419.427 1090.74L458 1077.45L496.5 1063.45V1043.45L514.381 1041.19L532.164 1040.44L565.012 1039.92L596.912 1032.44L616.315 1029.24L635.249 1023.68L642.477 1022.99L649.42 1020.44L661.249 1021.98L672.304 1016.71L709.74 1018.44L746.314 1010.86L772.586 1011.59L798.434 1007.52L799.846 1007.65L800.892 1009.53L790.687 1006.5L779.841 1001.95L815 989.703L849.5 976.453L867.728 979.015L883.833 974.241L895.462 977.948L907.091 975.514L925.365 978.837L943.639 974.959L966.897 976.69L990.154 973.982L999.014 976.725L1007.87 976.036L1039.24 976.931L1070.41 974.737L1096.92 957.383L1121.07 936.099L1137.31 923.936L1150.83 908.541L1161.91 902.339L1171.33 893.462L1188.5 891.512L1202.87 881.677L1225.98 881.13L1248.55 876.747L1260.39 881.015L1271.27 886.697L1277.32 896.411L1284.85 905.549L1289.86 927.878L1299.64 948.111L1306.69 960.741L1316.97 970.951L1344.59 980.84L1373.2 988.489L1391.09 1003.66L1412.71 1010.91L1424.25 1012.95H1436.5L1450.21 1006.81L1465.39 1001.67L1482.09 999.965L1495.92 990.049L1518.72 985.439L1540.95 976.394L1558.25 953.453L1575.5 930.453L1602 901.953V861.953L1581.5 817.453L1555.5 746.953L1581.5 683.953L1575.5 673.953L1555.5 647.953L1519 589.453L1518.88 589.318L1518.75 589.182L1491 546.953L1494.14 532.095L1493.36 516.933L1491.18 497.883L1490.38 478.487L1491 461.203V443.953L1464.5 407.953L1436.5 363.454L1434.02 359.291L1432.01 354.661L1434.69 342.454L1433.42 330.45L1432.99 317.811L1435.03 305.341L1437.64 291.479L1437.55 277.318L1443.29 250.063L1445.62 222.226L1454.88 208.594L1457.55 193.452L1476.69 163.417L1488.57 128.251L1500.93 105.242L1513.32 80.1851L1526.84 55.1271L1539.09 32.8261L1523.67 32.6481L1506.17 32.5011L1479.4 31.5861L1452.64 34.2331L1432.93 30.9861L1412.02 33.2871L1395.65 34.2831L1379.35 36.3271L1361.12 34.2341L1343.45 38.1351L1302.09 40.0081L1261.04 45.6741L1239.75 44.9531H1218.5L1212.9 47.2401L1207.16 48.9171L1176.88 58.0111L1146.04 65.2541L1108.5 64.9531H1071L1055.92 59.1461L1039.27 58.9881L1024.83 49.3321L1008.48 44.9961L1000.25 40.2711L990.621 37.0371L978.596 22.9341L960.025 16.4781L932.444 12.0841L906.35 17.4371L892.575 12.4761L878.8 14.7071L863.6 17.1321L848.4 14.8271L838.9 12.9791L829.4 15.8141L821.325 11.4761L813.25 15.4771L790.965 16.6491L771.054 16.5081L758.5 23.4531L746.5 32.4531L686 82.9531L672.124 81.1561L659.735 83.6161L640.68 85.7661L621.625 83.8791L601.698 84.4371L583.524 85.0901L571.641 92.9331L558.186 99.4001L548.886 107.414L539.485 115.391L527.782 127.393L515.533 138.777L499.059 149.424L486.458 164.144L470.265 176.077L458.352 193.546L449.381 183.194L438.871 175.853L417.832 152.557L398.199 130.608L385.25 112.203L371 94.9531L335 82.9531H211.75L173.5 82.213Z" fill="#FDE5AB"/>
<path fill-rule="evenodd" clip-rule="evenodd" d="M327.702 50.7197L269.551 56.1597L208.217 55.9977L183.255 48.5602L158.293 55.5858L129.235 52.0055L101.134 53.6212L93.1178 65.6418L90.5587 80.2338L98.3143 148.135L104.747 216.592L108.054 254.899L111.868 293.141L97.397 319.539L86.4759 348.107L76.9688 356.534L71.8496 367.731L47.8201 400.653L32 438.145L46.7932 492.601L62.2872 547.09L100.426 696.059L87.3274 711.92L79.1236 730.839L79.3019 775.091L73.3894 819.009L68.2998 862.332L64.0606 905.52L65.9218 950.545L75.0437 995.385L63.7641 1071.23L66.2079 1146.45L81.3567 1133.22L100.426 1118.97L131.414 1086.98L148.174 1085.59L166.03 1085.41L180.505 1089.19L195.911 1086.45L196.727 1060.73V1034.49L213.942 1043.64L231.788 1051.85L300.539 1099.69L370.209 1144.86L421.074 1148.18L472.282 1144.56L501.887 1147.92L531.493 1144.54L580.71 1143.44L625.995 1142.89L658.21 1133.22L689.674 1118.97L707.342 1115.79L723.462 1106.51L740.832 1104.33L757.41 1098.86L823.595 1091.85L888.2 1073.39L918.972 1081.4L949.499 1086.98L1030.54 1147.47L1052.71 1156.41L1075.6 1160.44L1121.67 1143.25L1164.09 1116.82L1185.52 1114.33L1203.31 1102.68L1203.49 1093.47L1210.73 1086.81L1260.81 1086.98H1310.86L1357.11 1034.49L1378.32 1045.7L1395.43 1062.54L1441.11 1103.32L1483.98 1147.39L1509.67 1167.19L1536.8 1178.48L1556.17 1134.48L1567.71 1086.83L1561.23 1049.54L1542.06 1015.53L1538.97 998.795L1540.96 981.981L1545.73 948.362L1552.62 915.115L1561.93 887.846L1568.69 858.214L1583.56 861.026H1595L1541.13 788.54V756.547L1572.12 696.059V668.065L1574.34 651.415L1564.27 636.714L1560.58 624.911L1560.39 612.112L1549.73 579.996L1539.44 547.316L1541.13 492.601V438.112L1538.49 392.056L1533.11 346.263L1528.49 311.898L1524.18 277.071L1533.5 236.903L1541.13 196.661L1572.12 148.171L1575.88 133.128L1570.15 121.351L1572.34 98.614L1571.36 76.2396L1548.99 63.6882L1525.87 51.6906L1491.48 50.3839L1458.12 55.2739L1397.46 47.5085L1336.8 55.1499L1311.59 55.7178L1286.38 55.0709L1265.11 54.0451L1243.84 54.2591L1227.17 52.0095L1210.79 52.0785L1179.45 61.4736L1147.43 66.2976L1120.8 66.9695L1095.78 76.4835L1063.2 63.6882L1030.54 51.6906L1011.31 41.9266L990.129 38.5763L939.245 26.0538L887.72 17.8985L847.392 15.48L806.812 21.1908L782.014 18.4554L758.106 18.3174L715.18 33.4443L672.989 51.6906L629.775 73.1092L590.422 48.7162L548.119 67.1784L510.106 94.2549L473.218 106.199L438.788 131.803L429.501 123.747L419.948 114.978L400.491 80.2248L369.798 56.1507L345.667 79.277L327.702 50.7197Z" stroke="#1A1840" stroke-width="12" mask="url(#path-2-outside-2_3018_326)"/>
<path fill-rule="evenodd" clip-rule="evenodd" d="M173.5 82.213L146.25 82.9531H119L102.503 88.6681L89.4261 100.544L64.9361 111.979L46.7781 130.193L51.5001 160.703L58.5001 191.953L76.5001 266.453L76.2771 279.403L77.0771 292.834L66.7171 302.279L60.7081 314.391L52.7461 329.011L45.0381 344.031L27.6541 376.054L10.4971 408.095L12.9161 425.701L16.9471 443.324L13.6921 453.678L18.9301 463.076L15.0791 475.371L19.2491 486.793L18.9711 517.144L26.5801 546.136L39.8191 556.986L52.7061 569.377L62.7291 572.149L73.5361 574.627L97.4781 588.832L124.365 598.162L131.054 621.313L138.594 643.47L138.076 660.635L142.327 677.169L139.805 697.765L143.36 718.272L141.738 740.781L139.682 762.62L148.5 799.203L159.5 835.454L173.5 909.954L173.762 919.516L178.589 927.975L178.876 935.61L185.544 939.789L203.65 973.563L228.302 1002.74L241.291 1021.56L254.037 1040.45L267.786 1052.5L284.024 1061.1L292.309 1070.9L305.037 1071.35L310.815 1072.12L317.247 1072.37L335.61 1078.06L354.558 1077.61L386.584 1086.71L419.427 1090.74L458 1077.45L496.5 1063.45V1043.45L514.381 1041.19L532.164 1040.44L565.012 1039.92L596.912 1032.44L616.315 1029.24L635.249 1023.68L642.477 1022.99L649.42 1020.44L661.249 1021.98L672.304 1016.71L709.74 1018.44L746.314 1010.86L772.586 1011.59L798.434 1007.52L799.846 1007.65L800.892 1009.53L790.687 1006.5L779.841 1001.95L815 989.703L849.5 976.453L867.728 979.015L883.833 974.241L895.462 977.948L907.091 975.514L925.365 978.837L943.639 974.959L966.897 976.69L990.154 973.982L999.014 976.725L1007.87 976.036L1039.24 976.931L1070.41 974.737L1096.92 957.383L1121.07 936.099L1137.31 923.936L1150.83 908.541L1161.91 902.339L1171.33 893.462L1188.5 891.512L1202.87 881.677L1225.98 881.13L1248.55 876.747L1260.39 881.015L1271.27 886.697L1277.32 896.411L1284.85 905.549L1289.86 927.878L1299.64 948.111L1306.69 960.741L1316.97 970.951L1344.59 980.84L1373.2 988.489L1391.09 1003.66L1412.71 1010.91L1424.25 1012.95H1436.5L1450.21 1006.81L1465.39 1001.67L1482.09 999.965L1495.92 990.049L1518.72 985.439L1540.95 976.394L1558.25 953.453L1575.5 930.453L1602 901.953V861.953L1581.5 817.453L1555.5 746.953L1581.5 683.953L1575.5 673.953L1555.5 647.953L1519 589.453L1518.88 589.318L1518.75 589.182L1491 546.953L1494.14 532.095L1493.36 516.933L1491.18 497.883L1490.38 478.487L1491 461.203V443.953L1464.5 407.953L1436.5 363.454L1434.02 359.291L1432.01 354.661L1434.69 342.454L1433.42 330.45L1432.99 317.811L1435.03 305.341L1437.64 291.479L1437.55 277.318L1443.29 250.063L1445.62 222.226L1454.88 208.594L1457.55 193.452L1476.69 163.417L1488.57 128.251L1500.93 105.242L1513.32 80.1851L1526.84 55.1271L1539.09 32.8261L1523.67 32.6481L1506.17 32.5011L1479.4 31.5861L1452.64 34.2331L1432.93 30.9861L1412.02 33.2871L1395.65 34.2831L1379.35 36.3271L1361.12 34.2341L1343.45 38.1351L1302.09 40.0081L1261.04 45.6741L1239.75 44.9531H1218.5L1212.9 47.2401L1207.16 48.9171L1176.88 58.0111L1146.04 65.2541L1108.5 64.9531H1071L1055.92 59.1461L1039.27 58.9881L1024.83 49.3321L1008.48 44.9961L1000.25 40.2711L990.621 37.0371L978.596 22.9341L960.025 16.4781L932.444 12.0841L906.35 17.4371L892.575 12.4761L878.8 14.7071L863.6 17.1321L848.4 14.8271L838.9 12.9791L829.4 15.8141L821.325 11.4761L813.25 15.4771L790.965 16.6491L771.054 16.5081L758.5 23.4531L746.5 32.4531L686 82.9531L672.124 81.1561L659.735 83.6161L640.68 85.7661L621.625 83.8791L601.698 84.4371L583.524 85.0901L571.641 92.9331L558.186 99.4001L548.886 107.414L539.485 115.391L527.782 127.393L515.533 138.777L499.059 149.424L486.458 164.144L470.265 176.077L458.352 193.546L449.381 183.194L438.871 175.853L417.832 152.557L398.199 130.608L385.25 112.203L371 94.9531L335 82.9531H211.75L173.5 82.213Z" stroke="#1A1840" stroke-width="12" mask="url(#path-2-outside-2_3018_326)"/>
<path fill-rule="evenodd" clip-rule="evenodd" d="M327.702 50.7197L269.551 56.1597L208.217 55.9977L183.255 48.5602L158.293 55.5858L129.235 52.0055L101.134 53.6212L93.1178 65.6418L90.5587 80.2338L98.3143 148.135L104.747 216.592L108.054 254.899L111.868 293.141L97.397 319.539L86.4759 348.107L76.9688 356.534L71.8496 367.731L47.8201 400.653L32 438.145L46.7932 492.601L62.2872 547.09L81.3567 621.574L100.426 696.059L87.3274 711.92L79.1236 730.839L79.3019 775.091L73.3894 819.009L68.2998 862.332L64.0606 905.52L65.9218 950.545L75.0437 995.385L63.7641 1071.23L66.2079 1146.45L81.3567 1133.22L100.426 1118.97L115.92 1102.98L131.414 1086.98L148.174 1085.59L166.03 1085.41L180.505 1089.19L195.911 1086.45L196.727 1060.73V1034.49L213.942 1043.64L231.788 1051.85L300.539 1099.69L370.209 1144.86L421.074 1148.18L472.282 1144.56L501.887 1147.92L531.493 1144.54L580.71 1143.44L625.995 1142.89L658.21 1133.22L689.674 1118.97L707.342 1115.79L723.462 1106.51L740.832 1104.33L757.41 1098.86L823.595 1091.85L888.2 1073.39L918.972 1081.4L949.499 1086.98L990.019 1117.22L1030.54 1147.47L1052.71 1156.41L1075.6 1160.44L1121.67 1143.25L1164.09 1116.82L1185.52 1114.33L1203.31 1102.68L1203.49 1093.47L1210.73 1086.81L1260.81 1086.98H1310.86L1333.99 1060.73L1357.11 1034.49L1378.32 1045.7L1395.43 1062.54L1441.11 1103.32L1483.98 1147.39L1509.67 1167.19L1536.8 1178.48L1556.17 1134.48L1567.71 1086.83L1561.23 1049.54L1542.06 1015.53L1538.97 998.795L1540.96 981.981L1545.73 948.362L1552.62 915.115L1561.93 887.846L1568.69 858.214L1583.56 861.026H1595L1568.06 824.783L1541.13 788.54V772.544V756.547L1556.62 726.303L1572.12 696.059V682.062V668.065L1574.34 651.415L1564.27 636.714L1560.58 624.911L1560.39 612.112L1549.73 579.996L1539.44 547.316L1541.13 492.601V438.112L1538.49 392.056L1533.11 346.263L1528.49 311.898L1524.18 277.071L1533.5 236.903L1541.13 196.661L1556.62 172.416L1572.12 148.171L1575.88 133.128L1570.15 121.351L1572.34 98.614L1571.36 76.2396L1548.99 63.6882L1525.87 51.6906L1491.48 50.3839L1458.12 55.2739L1397.46 47.5085L1336.8 55.1499L1311.59 55.7178L1286.38 55.0709L1265.11 54.0451L1243.84 54.2591L1227.17 52.0095L1210.79 52.0785L1179.45 61.4736L1147.43 66.2976L1120.8 66.9695L1095.78 76.4835L1063.2 63.6882L1030.54 51.6906L1011.31 41.9266L990.129 38.5763L939.245 26.0538L887.72 17.8985L847.392 15.48L806.812 21.1908L782.014 18.4554L758.106 18.3174L715.18 33.4443L672.989 51.6906L629.775 73.1092L590.422 48.7162L548.119 67.1784L510.106 94.2549L473.218 106.199L438.788 131.803L429.501 123.747L419.948 114.978L400.491 80.2248L369.798 56.1507L345.667 79.277L327.702 50.7197Z" fill="#EFC588"/>
<path fill-rule="evenodd" clip-rule="evenodd" d="M1554.63 1037.83C1541.31 1067.37 1525.82 1111.68 1517 1138.98L1418.35 1083L1441.11 1103.32L1483.98 1147.39L1509.67 1167.19L1536.8 1178.48L1556.17 1134.48L1567.71 1086.83L1561.23 1049.54L1554.63 1037.83ZM1347.63 1045.25L1152.5 1007.48C1070.33 1027.31 903.8 1068.48 895 1074.48C894.795 1074.62 894.623 1074.8 894.481 1075.02L918.972 1081.4L949.498 1086.98L990.019 1117.22L1030.54 1147.47L1052.71 1156.41L1075.6 1160.44L1121.67 1143.25L1164.09 1116.82L1185.52 1114.33L1203.31 1102.68L1203.49 1093.46L1210.72 1086.81L1260.81 1086.98H1310.86L1333.99 1060.73L1347.63 1045.25ZM196.727 1037.84L96.4997 944.48L115 833.48V775.98L97.2864 699.86L87.3269 711.92L79.1232 730.839L79.3015 775.091L73.389 819.009L68.2994 862.332L64.0602 905.519L65.9214 950.545L75.0433 995.385L63.7637 1071.23L66.2074 1146.45L81.3563 1133.22L100.426 1118.97L115.92 1102.98L131.414 1086.98L148.174 1085.59L166.03 1085.41L180.504 1089.19L195.911 1086.45L196.727 1060.73V1037.84Z" fill="url(#paint0_linear_3018_326)"/>
<path fill-rule="evenodd" clip-rule="evenodd" d="M173.5 82.213L146.25 82.9531H119L102.503 88.6681L89.4261 100.544L64.9361 111.979L46.7781 130.193L51.5001 160.703L58.5001 191.953L67.5001 229.203L76.5001 266.453L76.2771 279.403L77.0771 292.834L66.7171 302.279L60.7081 314.391L52.7461 329.011L45.0381 344.031L27.6541 376.054L10.4971 408.095L12.9161 425.701L16.9471 443.324L13.6921 453.678L18.9301 463.076L15.0791 475.371L19.2491 486.793L18.9711 517.144L26.5801 546.136L39.8191 556.986L52.7061 569.377L62.7291 572.149L73.5361 574.627L97.4781 588.832L124.365 598.162L131.054 621.313L138.594 643.47L138.076 660.635L142.327 677.169L139.805 697.765L143.36 718.272L141.738 740.781L139.682 762.62L148.5 799.203L159.5 835.454L166.5 872.703L173.5 909.954L173.762 919.516L178.589 927.975L178.876 935.61L185.544 939.789L203.65 973.563L228.302 1002.74L241.291 1021.56L254.037 1040.45L267.786 1052.5L284.024 1061.1L292.309 1070.9L305.037 1071.35L310.815 1072.12L317.247 1072.37L335.61 1078.06L354.558 1077.61L386.584 1086.71L419.427 1090.74L458 1077.45L496.5 1063.45V1053.45V1043.45L514.381 1041.19L532.164 1040.44L565.012 1039.92L596.912 1032.44L616.315 1029.24L635.249 1023.68L642.477 1022.99L649.42 1020.44L661.249 1021.98L672.304 1016.71L709.74 1018.44L746.314 1010.86L772.586 1011.59L798.434 1007.52L799.846 1007.65L800.892 1009.53L790.687 1006.5L779.841 1001.95L815 989.703L849.5 976.453L867.728 979.015L883.833 974.241L895.462 977.948L907.091 975.514L925.365 978.837L943.639 974.959L966.897 976.69L990.154 973.982L999.014 976.725L1007.87 976.036L1039.24 976.931L1070.41 974.737L1096.92 957.383L1121.07 936.099L1137.31 923.936L1150.83 908.541L1161.91 902.339L1171.33 893.462L1188.5 891.512L1202.87 881.677L1225.98 881.13L1248.55 876.747L1260.39 881.015L1271.27 886.697L1277.32 896.411L1284.85 905.549L1289.86 927.878L1299.64 948.111L1306.69 960.741L1316.97 970.951L1344.59 980.84L1373.2 988.489L1391.09 1003.66L1412.71 1010.91L1424.25 1012.95H1436.5L1450.21 1006.81L1465.39 1001.67L1482.09 999.965L1495.92 990.049L1518.72 985.439L1540.95 976.394L1558.25 953.453L1575.5 930.453L1588.75 916.203L1602 901.953V881.953V861.953L1591.75 839.703L1581.5 817.453L1568.5 782.203L1555.5 746.953L1568.5 715.453L1581.5 683.953L1578.5 678.953L1575.5 673.953L1565.5 660.953L1555.5 647.953L1537.25 618.703L1519 589.453L1518.88 589.318L1518.75 589.182L1504.88 568.068L1491 546.953L1494.14 532.095L1493.36 516.933L1491.18 497.883L1490.38 478.487L1491 461.203V443.953L1477.75 425.953L1464.5 407.953L1450.5 385.703L1436.5 363.454L1434.02 359.291L1432.01 354.661L1434.69 342.454L1433.42 330.45L1432.99 317.811L1435.03 305.341L1437.64 291.479L1437.55 277.318L1443.29 250.063L1445.62 222.226L1454.88 208.594L1457.55 193.452L1476.69 163.417L1488.57 128.251L1500.93 105.242L1513.32 80.1851L1526.84 55.1271L1539.09 32.8261L1523.67 32.6481L1506.17 32.5011L1479.4 31.5861L1452.64 34.2331L1432.93 30.9861L1412.02 33.2871L1395.65 34.2831L1379.35 36.3271L1361.12 34.2341L1343.45 38.1351L1302.09 40.0081L1261.04 45.6741L1239.75 44.9531H1218.5L1212.9 47.2401L1207.16 48.9171L1176.88 58.0111L1146.04 65.2541L1108.5 64.9531H1071L1055.92 59.1461L1039.27 58.9881L1024.83 49.3321L1008.48 44.9961L1000.25 40.2711L990.621 37.0371L978.596 22.9341L960.025 16.4781L932.444 12.0841L906.35 17.4371L892.575 12.4761L878.8 14.7071L863.6 17.1321L848.4 14.8271L838.9 12.9791L829.4 15.8141L821.325 11.4761L813.25 15.4771L790.965 16.6491L771.054 16.5081L758.5 23.4531L746.5 32.4531L716.25 57.7031L686 82.9531L672.124 81.1561L659.735 83.6161L640.68 85.7661L621.625 83.8791L601.698 84.4371L583.524 85.0901L571.641 92.9331L558.186 99.4001L548.886 107.414L539.485 115.391L527.782 127.393L515.533 138.777L499.059 149.424L486.458 164.144L470.265 176.077L458.352 193.546L449.381 183.194L438.871 175.853L417.832 152.557L398.199 130.608L385.25 112.203L371 94.9531L353 88.9531L335 82.9531H323.75H312.5H281.25H250H211.75L173.5 82.2131V82.213Z" fill="#FDE5AB"/>
<defs>
<linearGradient id="paint0_linear_3018_326" x1="570.5" y1="77.48" x2="847.728" y2="1232.95" gradientUnits="userSpaceOnUse">
<stop offset="0.407719" stop-color="#AC6985" stop-opacity="0"/>
<stop offset="0.866989" stop-color="#AC6985"/>
</linearGradient>
</defs>
</svg>
