<svg width="136" height="130" viewBox="0 0 136 130" fill="none" xmlns="http://www.w3.org/2000/svg">
<path d="M81.2185 7.07851C79.9199 5.67948 77.9382 5.14184 76.1106 5.69278C74.2831 6.24373 72.9286 7.78711 72.6197 9.67074C70.5332 22.3927 67.462 36.2895 61.6615 53.9376C47.8357 52.5341 31.2601 50.5677 10.6161 48.0046C8.58536 47.7524 6.60598 48.7631 5.61944 50.5559C4.63291 52.3487 4.83835 54.5617 6.13806 56.1422C10.076 60.931 12.427 64.3744 13.4476 66.8574C13.9374 68.0492 13.9728 68.6788 13.9542 68.9176L13.9536 68.9255C13.9457 69.0285 13.941 69.0897 13.7704 69.2693C12.2857 70.8338 11.9715 73.174 12.9909 75.0746C14.0104 76.9753 16.1337 78.0081 18.2583 77.6366C25.0106 76.456 37.9834 76.485 53.1541 77.3994C48.5465 89.1211 42.8796 102.321 35.8544 117.441C34.7824 119.748 35.6139 122.493 37.7863 123.817C39.9587 125.142 42.7791 124.623 44.3389 122.613C48.6984 116.996 51.6407 116.764 52.8467 116.933C54.4799 117.161 56.1319 118.526 57.1121 120.126C58.239 121.965 60.4181 122.874 62.5178 122.381C64.6176 121.888 66.1647 120.104 66.3558 117.956C66.7455 113.574 68.3006 106.647 70.7205 98.0293C72.3296 92.2987 74.2814 85.9557 76.4339 79.3291C94.8584 81.2428 112.815 83.9961 123.899 86.861C126.292 87.4795 128.778 86.2567 129.749 83.9836C130.719 81.7106 129.884 79.0694 127.782 77.7686C124.033 75.4483 123.463 74.4184 123.367 73.7905C123.24 72.9574 123.562 70.2541 128.84 63.8022C130.121 62.2373 130.333 60.0554 129.377 58.2735C128.422 56.4915 126.487 55.4604 124.475 55.6607C112.515 56.8515 100.583 56.968 84.4184 55.9005C90.006 40.1314 95.7446 24.9895 99.8274 14.6218C100.658 12.5139 99.9667 10.1113 98.1438 8.76633C96.3208 7.42132 93.8213 7.47002 92.0522 8.88502C89.946 10.5696 87.9989 10.6563 86.1581 10.1334C84.0754 9.54176 82.2014 8.13749 81.2185 7.07851Z" fill="#BD5A5A" stroke="#0B0A22" stroke-width="10" stroke-linejoin="round"/>
<path d="M79.7526 8.4391C78.9735 7.59968 77.7844 7.2771 76.6879 7.60766C75.5913 7.93823 74.7787 8.86426 74.5933 9.99443C72.4284 23.1942 69.2136 37.6248 63.0561 56.0886C48.8746 54.6721 31.8023 52.6504 10.3696 49.9893C9.15122 49.838 7.96359 50.4445 7.37167 51.5201C6.77974 52.5958 6.90301 53.9236 7.68283 54.8719C11.626 59.6671 14.1524 63.3114 15.2974 66.097C15.8576 67.4601 15.9994 68.4152 15.9482 69.0729C15.9031 69.652 15.7021 70.1393 15.2211 70.6461C14.3303 71.5848 14.1417 72.9889 14.7534 74.1293C15.3651 75.2697 16.6391 75.8894 17.9138 75.6665C25.3021 74.3746 39.6351 74.4937 56.0122 75.5758C51.2148 87.9701 45.2228 102.025 37.6682 118.284C37.025 119.668 37.5239 121.315 38.8273 122.11C40.1307 122.904 41.823 122.593 42.7589 121.387C47.3625 115.455 50.9411 114.647 53.1236 114.952C55.5626 115.293 57.6585 117.189 58.8175 119.081C59.4936 120.184 60.801 120.73 62.0609 120.434C63.3208 120.138 64.249 119.068 64.3637 117.779C64.7711 113.197 66.3724 106.116 68.7949 97.4886C70.5371 91.2841 72.6761 84.3751 75.0326 77.175C94.0584 79.0981 112.853 81.9403 124.4 84.9246C125.835 85.2957 127.327 84.562 127.909 83.1982C128.492 81.8344 127.99 80.2497 126.729 79.4692C123.062 77.1995 121.641 75.7397 121.39 74.0923C121.12 72.3217 122.004 69 127.292 62.5358C128.061 61.5968 128.188 60.2877 127.615 59.2185C127.041 58.1494 125.881 57.5307 124.673 57.6509C111.944 58.9182 99.2537 58.9777 81.6569 57.7148C87.5245 41.0362 93.6631 24.8167 97.9665 13.889C98.4646 12.6243 98.0501 11.1827 96.9563 10.3757C95.8626 9.56868 94.3629 9.5979 93.3014 10.4469C90.6164 12.5944 87.9772 12.7293 85.6116 12.0573C83.1008 11.344 80.9249 9.70212 79.7526 8.4391Z" fill="#BD5A5A" stroke="white" stroke-width="6" stroke-linejoin="round"/>
</svg>
