<svg width="1647" height="3663" viewBox="0 0 1647 3663" fill="none" xmlns="http://www.w3.org/2000/svg">
<mask id="path-1-outside-1_361_137" maskUnits="userSpaceOnUse" x="0.75" y="-0.598145" width="1646" height="3664" fill="black">
<rect fill="white" x="0.75" y="-0.598145" width="1646" height="3664"/>
<path fill-rule="evenodd" clip-rule="evenodd" d="M98.188 13.1479L97.809 37.9189L104.757 59.9049L110.587 113.327L128.819 163.495L138.25 178.73L152.25 192.23L153.616 236.441L156.698 281.783L149.833 315.256L153.742 350.915L143.141 360.201L143.815 375.314L120.066 396.241L102.354 421.518L84 456.48L67.75 492.73L84 514.73L100.25 536.73L111.25 593.73L122.25 650.73L125.914 682.227L122.977 716.76L121.307 746.055L123.088 775.35L120.963 805.507L125.587 837.77L104.5 862.98L86.75 889.23H60.5L39 894.48L44.75 901.48L55.25 913.73L54.99 942.985L53.753 971.875L46.774 1016.88L51.872 1061.85L51.968 1106.11L55.695 1150.21L53.102 1170.98L59.485 1188.22L59.512 1249.61L67.923 1310.44L65.625 1334.52L72.804 1357.96L75.757 1413.88L79.625 1467.96L66 1502.23L55.25 1536.73L44.498 1576.88L31.097 1616.03L25.254 1627.85L24.839 1640.73L30.529 1655.56L33.048 1671.28L42 1697.23L52.251 1722.73L64.5 1737.98L76.75 1753.23L72.825 1769.56L72.689 1785.38L65.61 1807.28L68.944 1832.39L66 1866.48L67.75 1900.73L61.583 1943.74L50.036 1985.05L44.889 2013.32L47.151 2042.13L44.079 2053.76L49.463 2062.6L55.698 2076.23L58.203 2090.75L55.824 2110.26L65.486 2130.01L67.397 2137.96L69.18 2148.09L67.858 2180.79L72.181 2213.03L55.5 2240.48L43.25 2268.73L47.5 2299.73L51.75 2330.73V2350.48V2370.23L68 2440.48L84.25 2510.73L76 2562.73L67.75 2614.73L61.98 2652.43L57.087 2691.16L49.051 2720.68L43.502 2750.23L47.105 2776.26L53.864 2801.22L63.177 2846.84L69.708 2890.62L68.807 2931.08L64.478 2974.41L58.369 3040.34L53.422 3104.83L47.78 3123.4L54.236 3138.79L50.429 3186.71L54.475 3235.86L47.5 3274.23L43.25 3312.73L27 3367.23L10.75 3421.73V3488.48V3555.23L51.25 3603.73L91.75 3652.23L131.491 3649.34L170.525 3642.18L220.524 3642.89L269.838 3635.4L300.84 3633.96L331.502 3628.47L356.507 3627.16L379.148 3626.77L410.459 3623.21L444.463 3621.2L476.94 3624.68L508.868 3618.95L551.76 3621.75L597.88 3611.96L623.75 3631.48L650.25 3647.73L696.75 3637.98L743.25 3628.23L769.5 3637.98L795.75 3647.73L822 3616.48L848.25 3585.23L874.739 3589.02L898.09 3580.53L932.355 3586.81L966.62 3580.63L998.145 3581.1L1026.48 3582.51L1066.04 3592.37L1105.37 3595.6L1146.31 3601.41L1187.18 3607.63L1252.62 3614.2L1313.25 3626.77L1347.53 3619.3L1380.26 3606.79L1404.68 3605.32L1427.16 3596.46L1449.31 3596.07L1468.42 3584.05L1509.69 3579.69L1550.92 3564.66L1566 3543.73L1580.75 3522.23L1582.59 3453.7L1582.99 3385.15L1586.22 3365.85L1578.42 3347.86L1575.05 3339.65L1566.44 3334.58L1548.86 3325.55L1531.3 3314.37L1538.98 3304.52L1535.38 3294.78L1544.1 3254.15L1555.53 3213.75L1570.5 3204.73L1582.25 3194.23L1576.27 3183.4L1566.22 3181.87L1549.15 3158.26L1517.81 3140.24L1541.47 3130.85L1560.4 3124.3L1581.51 3119.44L1593.97 3104.56L1581.25 3084.98L1565.75 3065.23L1559.28 3051.97L1560.52 3037.31L1563.47 3020.09L1560.82 3003.12L1558 2970.98L1551.25 2939.23L1555 2914.98L1558.75 2890.73L1570.5 2864.73L1582.25 2838.73L1585.29 2834.93L1578.01 2830.89L1582.82 2760.94L1581.11 2691.1L1571.8 2653.41L1564.99 2615.01L1549.5 2585.48L1533.25 2556.23L1549.5 2533.48L1565.75 2510.73L1564.77 2491.3L1569.17 2472.93L1580.59 2452.33L1579.62 2430.31L1562 2380.23L1541.75 2330.73L1543.69 2305.29L1538.87 2279.59L1542.3 2226.89L1550.7 2174.75L1544.25 2152.48L1537.25 2130.23L1521 2117.23L1504.75 2104.23L1513.75 2091.98L1522.75 2079.73L1532.25 2038.73L1541.75 1997.73L1537.5 1962.48L1533.25 1927.23L1512.89 1871.95L1486.21 1823.3L1473.46 1802.07L1465.68 1779.38L1495 1780.73H1522.75L1539.75 1783.73L1556.75 1786.73L1561.25 1783.73L1565.75 1780.73L1574 1766.98L1582.25 1753.23L1577.75 1712.48L1573.25 1671.73L1565.75 1660.48L1558.25 1649.23V1636.98V1624.73L1554.75 1590.23L1551.25 1555.73L1566.75 1526.48L1582.25 1497.23L1604.75 1472.23L1627.25 1447.23L1631.5 1426.73L1635.75 1406.23L1623.25 1372.98L1610.75 1339.73L1577 1319.73L1543.25 1299.73L1553.75 1273.73L1564.25 1247.73L1556.5 1233.73L1548.75 1219.73L1553.5 1214.73L1558.25 1209.73L1545.75 1179.98L1533.25 1150.23L1535.25 1120.48L1537.25 1090.73L1539.5 1079.23L1541.75 1067.73L1546.5 1062.73L1551.25 1057.73L1545.75 1051.98L1540.25 1046.23L1545.75 1040.48L1551.25 1034.73L1556 1025.48L1560.75 1016.23L1574.5 1006.98L1588.25 997.73L1582.25 987.23L1576.25 976.73L1553.25 968.23L1530.25 959.73V952.73V945.73L1535.75 939.98L1541.25 934.23L1538.75 898.48L1536.25 862.73L1540.36 810.349L1533.26 761.375L1538.44 738.075L1532.99 714.775L1538.39 699.048L1531.61 683.32L1534.67 655.872L1534.12 630.237L1524.33 604.988L1509.75 581.949L1504.73 558.538L1486.37 537.198L1496.49 521.866L1500.87 506.728L1517.58 462.311L1532.87 418.615L1556.25 385.48L1576.25 350.73L1576.48 294.625L1580.27 235.463L1584.35 212.884L1585.89 192.523L1581.09 170.319L1570.9 149.302L1572.02 133.234L1559.95 119.593L1551.5 92.2299L1538.75 66.7299L1509.19 57.6049L1477.91 57.5709L1439.17 46.5269L1399.1 45.6559L1355 43.7299L1310.75 44.2299L1255 43.7299L1199.25 43.2299L1145.5 43.7299L1091.75 44.2299L1073.25 55.9799L1054.75 67.7299L1027.5 94.9799L1000.25 122.23L990.25 83.2299L980.25 44.2299H964H947.75L913.726 51.4309L879.979 60.3829L828.151 48.1639L775.149 44.4309L728.75 43.2299H682.25L649.75 43.7299L617.25 44.2299V43.7299V43.2299L599.346 42.2639L580.126 38.0649L558.317 29.3699L534.999 28.9529L497.555 24.6589L463.885 19.5659L434.973 25.6339L403.624 33.5729L381.916 41.2409L362.192 47.8639L361.25 43.7299V43.2299L334.107 51.9409L305.641 53.7929L292.47 45.4749L276.567 43.7379L277.25 29.2299V15.2299L266.376 11.4139L258.665 17.1359L208.663 10.4019L158.66 20.1099L127.962 18.8349L98.188 13.1479Z"/>
</mask>
<path fill-rule="evenodd" clip-rule="evenodd" d="M98.188 13.1479L97.809 37.9189L104.757 59.9049L110.587 113.327L128.819 163.495L138.25 178.73L152.25 192.23L153.616 236.441L156.698 281.783L149.833 315.256L153.742 350.915L143.141 360.201L143.815 375.314L120.066 396.241L102.354 421.518L84 456.48L67.75 492.73L84 514.73L100.25 536.73L111.25 593.73L122.25 650.73L125.914 682.227L122.977 716.76L121.307 746.055L123.088 775.35L120.963 805.507L125.587 837.77L104.5 862.98L86.75 889.23H60.5L39 894.48L44.75 901.48L55.25 913.73L54.99 942.985L53.753 971.875L46.774 1016.88L51.872 1061.85L51.968 1106.11L55.695 1150.21L53.102 1170.98L59.485 1188.22L59.512 1249.61L67.923 1310.44L65.625 1334.52L72.804 1357.96L75.757 1413.88L79.625 1467.96L66 1502.23L55.25 1536.73L44.498 1576.88L31.097 1616.03L25.254 1627.85L24.839 1640.73L30.529 1655.56L33.048 1671.28L42 1697.23L52.251 1722.73L64.5 1737.98L76.75 1753.23L72.825 1769.56L72.689 1785.38L65.61 1807.28L68.944 1832.39L66 1866.48L67.75 1900.73L61.583 1943.74L50.036 1985.05L44.889 2013.32L47.151 2042.13L44.079 2053.76L49.463 2062.6L55.698 2076.23L58.203 2090.75L55.824 2110.26L65.486 2130.01L67.397 2137.96L69.18 2148.09L67.858 2180.79L72.181 2213.03L55.5 2240.48L43.25 2268.73L47.5 2299.73L51.75 2330.73V2350.48V2370.23L68 2440.48L84.25 2510.73L76 2562.73L67.75 2614.73L61.98 2652.43L57.087 2691.16L49.051 2720.68L43.502 2750.23L47.105 2776.26L53.864 2801.22L63.177 2846.84L69.708 2890.62L68.807 2931.08L64.478 2974.41L58.369 3040.34L53.422 3104.83L47.78 3123.4L54.236 3138.79L50.429 3186.71L54.475 3235.86L47.5 3274.23L43.25 3312.73L27 3367.23L10.75 3421.73V3488.48V3555.23L51.25 3603.73L91.75 3652.23L131.491 3649.34L170.525 3642.18L220.524 3642.89L269.838 3635.4L300.84 3633.96L331.502 3628.47L356.507 3627.16L379.148 3626.77L410.459 3623.21L444.463 3621.2L476.94 3624.68L508.868 3618.95L551.76 3621.75L597.88 3611.96L623.75 3631.48L650.25 3647.73L696.75 3637.98L743.25 3628.23L769.5 3637.98L795.75 3647.73L822 3616.48L848.25 3585.23L874.739 3589.02L898.09 3580.53L932.355 3586.81L966.62 3580.63L998.145 3581.1L1026.48 3582.51L1066.04 3592.37L1105.37 3595.6L1146.31 3601.41L1187.18 3607.63L1252.62 3614.2L1313.25 3626.77L1347.53 3619.3L1380.26 3606.79L1404.68 3605.32L1427.16 3596.46L1449.31 3596.07L1468.42 3584.05L1509.69 3579.69L1550.92 3564.66L1566 3543.73L1580.75 3522.23L1582.59 3453.7L1582.99 3385.15L1586.22 3365.85L1578.42 3347.86L1575.05 3339.65L1566.44 3334.58L1548.86 3325.55L1531.3 3314.37L1538.98 3304.52L1535.38 3294.78L1544.1 3254.15L1555.53 3213.75L1570.5 3204.73L1582.25 3194.23L1576.27 3183.4L1566.22 3181.87L1549.15 3158.26L1517.81 3140.24L1541.47 3130.85L1560.4 3124.3L1581.51 3119.44L1593.97 3104.56L1581.25 3084.98L1565.75 3065.23L1559.28 3051.97L1560.52 3037.31L1563.47 3020.09L1560.82 3003.12L1558 2970.98L1551.25 2939.23L1555 2914.98L1558.75 2890.73L1570.5 2864.73L1582.25 2838.73L1585.29 2834.93L1578.01 2830.89L1582.82 2760.94L1581.11 2691.1L1571.8 2653.41L1564.99 2615.01L1549.5 2585.48L1533.25 2556.23L1549.5 2533.48L1565.75 2510.73L1564.77 2491.3L1569.17 2472.93L1580.59 2452.33L1579.62 2430.31L1562 2380.23L1541.75 2330.73L1543.69 2305.29L1538.87 2279.59L1542.3 2226.89L1550.7 2174.75L1544.25 2152.48L1537.25 2130.23L1521 2117.23L1504.75 2104.23L1513.75 2091.98L1522.75 2079.73L1532.25 2038.73L1541.75 1997.73L1537.5 1962.48L1533.25 1927.23L1512.89 1871.95L1486.21 1823.3L1473.46 1802.07L1465.68 1779.38L1495 1780.73H1522.75L1539.75 1783.73L1556.75 1786.73L1561.25 1783.73L1565.75 1780.73L1574 1766.98L1582.25 1753.23L1577.75 1712.48L1573.25 1671.73L1565.75 1660.48L1558.25 1649.23V1636.98V1624.73L1554.75 1590.23L1551.25 1555.73L1566.75 1526.48L1582.25 1497.23L1604.75 1472.23L1627.25 1447.23L1631.5 1426.73L1635.75 1406.23L1623.25 1372.98L1610.75 1339.73L1577 1319.73L1543.25 1299.73L1553.75 1273.73L1564.25 1247.73L1556.5 1233.73L1548.75 1219.73L1553.5 1214.73L1558.25 1209.73L1545.75 1179.98L1533.25 1150.23L1535.25 1120.48L1537.25 1090.73L1539.5 1079.23L1541.75 1067.73L1546.5 1062.73L1551.25 1057.73L1545.75 1051.98L1540.25 1046.23L1545.75 1040.48L1551.25 1034.73L1556 1025.48L1560.75 1016.23L1574.5 1006.98L1588.25 997.73L1582.25 987.23L1576.25 976.73L1553.25 968.23L1530.25 959.73V952.73V945.73L1535.75 939.98L1541.25 934.23L1538.75 898.48L1536.25 862.73L1540.36 810.349L1533.26 761.375L1538.44 738.075L1532.99 714.775L1538.39 699.048L1531.61 683.32L1534.67 655.872L1534.12 630.237L1524.33 604.988L1509.75 581.949L1504.73 558.538L1486.37 537.198L1496.49 521.866L1500.87 506.728L1517.58 462.311L1532.87 418.615L1556.25 385.48L1576.25 350.73L1576.48 294.625L1580.27 235.463L1584.35 212.884L1585.89 192.523L1581.09 170.319L1570.9 149.302L1572.02 133.234L1559.95 119.593L1551.5 92.2299L1538.75 66.7299L1509.19 57.6049L1477.91 57.5709L1439.17 46.5269L1399.1 45.6559L1355 43.7299L1310.75 44.2299L1255 43.7299L1199.25 43.2299L1145.5 43.7299L1091.75 44.2299L1073.25 55.9799L1054.75 67.7299L1027.5 94.9799L1000.25 122.23L990.25 83.2299L980.25 44.2299H964H947.75L913.726 51.4309L879.979 60.3829L828.151 48.1639L775.149 44.4309L728.75 43.2299H682.25L649.75 43.7299L617.25 44.2299V43.7299V43.2299L599.346 42.2639L580.126 38.0649L558.317 29.3699L534.999 28.9529L497.555 24.6589L463.885 19.5659L434.973 25.6339L403.624 33.5729L381.916 41.2409L362.192 47.8639L361.25 43.7299V43.2299L334.107 51.9409L305.641 53.7929L292.47 45.4749L276.567 43.7379L277.25 29.2299V15.2299L266.376 11.4139L258.665 17.1359L208.663 10.4019L158.66 20.1099L127.962 18.8349L98.188 13.1479Z" fill="#EFC588"/>
<path fill-rule="evenodd" clip-rule="evenodd" d="M98.188 13.1479L97.809 37.9189L104.757 59.9049L110.587 113.327L128.819 163.495L138.25 178.73L152.25 192.23L153.616 236.441L156.698 281.783L149.833 315.256L153.742 350.915L143.141 360.201L143.815 375.314L120.066 396.241L102.354 421.518L84 456.48L67.75 492.73L84 514.73L100.25 536.73L111.25 593.73L122.25 650.73L125.914 682.227L122.977 716.76L121.307 746.055L123.088 775.35L120.963 805.507L125.587 837.77L104.5 862.98L86.75 889.23H60.5L39 894.48L44.75 901.48L55.25 913.73L54.99 942.985L53.753 971.875L46.774 1016.88L51.872 1061.85L51.968 1106.11L55.695 1150.21L53.102 1170.98L59.485 1188.22L59.512 1249.61L67.923 1310.44L65.625 1334.52L72.804 1357.96L75.757 1413.88L79.625 1467.96L66 1502.23L55.25 1536.73L44.498 1576.88L31.097 1616.03L25.254 1627.85L24.839 1640.73L30.529 1655.56L33.048 1671.28L42 1697.23L52.251 1722.73L64.5 1737.98L76.75 1753.23L72.825 1769.56L72.689 1785.38L65.61 1807.28L68.944 1832.39L66 1866.48L67.75 1900.73L61.583 1943.74L50.036 1985.05L44.889 2013.32L47.151 2042.13L44.079 2053.76L49.463 2062.6L55.698 2076.23L58.203 2090.75L55.824 2110.26L65.486 2130.01L67.397 2137.96L69.18 2148.09L67.858 2180.79L72.181 2213.03L55.5 2240.48L43.25 2268.73L47.5 2299.73L51.75 2330.73V2350.48V2370.23L68 2440.48L84.25 2510.73L76 2562.73L67.75 2614.73L61.98 2652.43L57.087 2691.16L49.051 2720.68L43.502 2750.23L47.105 2776.26L53.864 2801.22L63.177 2846.84L69.708 2890.62L68.807 2931.08L64.478 2974.41L58.369 3040.34L53.422 3104.83L47.78 3123.4L54.236 3138.79L50.429 3186.71L54.475 3235.86L47.5 3274.23L43.25 3312.73L27 3367.23L10.75 3421.73V3488.48V3555.23L51.25 3603.73L91.75 3652.23L131.491 3649.34L170.525 3642.18L220.524 3642.89L269.838 3635.4L300.84 3633.96L331.502 3628.47L356.507 3627.16L379.148 3626.77L410.459 3623.21L444.463 3621.2L476.94 3624.68L508.868 3618.95L551.76 3621.75L597.88 3611.96L623.75 3631.48L650.25 3647.73L696.75 3637.98L743.25 3628.23L769.5 3637.98L795.75 3647.73L822 3616.48L848.25 3585.23L874.739 3589.02L898.09 3580.53L932.355 3586.81L966.62 3580.63L998.145 3581.1L1026.48 3582.51L1066.04 3592.37L1105.37 3595.6L1146.31 3601.41L1187.18 3607.63L1252.62 3614.2L1313.25 3626.77L1347.53 3619.3L1380.26 3606.79L1404.68 3605.32L1427.16 3596.46L1449.31 3596.07L1468.42 3584.05L1509.69 3579.69L1550.92 3564.66L1566 3543.73L1580.75 3522.23L1582.59 3453.7L1582.99 3385.15L1586.22 3365.85L1578.42 3347.86L1575.05 3339.65L1566.44 3334.58L1548.86 3325.55L1531.3 3314.37L1538.98 3304.52L1535.38 3294.78L1544.1 3254.15L1555.53 3213.75L1570.5 3204.73L1582.25 3194.23L1576.27 3183.4L1566.22 3181.87L1549.15 3158.26L1517.81 3140.24L1541.47 3130.85L1560.4 3124.3L1581.51 3119.44L1593.97 3104.56L1581.25 3084.98L1565.75 3065.23L1559.28 3051.97L1560.52 3037.31L1563.47 3020.09L1560.82 3003.12L1558 2970.98L1551.25 2939.23L1555 2914.98L1558.75 2890.73L1570.5 2864.73L1582.25 2838.73L1585.29 2834.93L1578.01 2830.89L1582.82 2760.94L1581.11 2691.1L1571.8 2653.41L1564.99 2615.01L1549.5 2585.48L1533.25 2556.23L1549.5 2533.48L1565.75 2510.73L1564.77 2491.3L1569.17 2472.93L1580.59 2452.33L1579.62 2430.31L1562 2380.23L1541.75 2330.73L1543.69 2305.29L1538.87 2279.59L1542.3 2226.89L1550.7 2174.75L1544.25 2152.48L1537.25 2130.23L1521 2117.23L1504.75 2104.23L1513.75 2091.98L1522.75 2079.73L1532.25 2038.73L1541.75 1997.73L1537.5 1962.48L1533.25 1927.23L1512.89 1871.95L1486.21 1823.3L1473.46 1802.07L1465.68 1779.38L1495 1780.73H1522.75L1539.75 1783.73L1556.75 1786.73L1561.25 1783.73L1565.75 1780.73L1574 1766.98L1582.25 1753.23L1577.75 1712.48L1573.25 1671.73L1565.75 1660.48L1558.25 1649.23V1636.98V1624.73L1554.75 1590.23L1551.25 1555.73L1566.75 1526.48L1582.25 1497.23L1604.75 1472.23L1627.25 1447.23L1631.5 1426.73L1635.75 1406.23L1623.25 1372.98L1610.75 1339.73L1577 1319.73L1543.25 1299.73L1553.75 1273.73L1564.25 1247.73L1556.5 1233.73L1548.75 1219.73L1553.5 1214.73L1558.25 1209.73L1545.75 1179.98L1533.25 1150.23L1535.25 1120.48L1537.25 1090.73L1539.5 1079.23L1541.75 1067.73L1546.5 1062.73L1551.25 1057.73L1545.75 1051.98L1540.25 1046.23L1545.75 1040.48L1551.25 1034.73L1556 1025.48L1560.75 1016.23L1574.5 1006.98L1588.25 997.73L1582.25 987.23L1576.25 976.73L1553.25 968.23L1530.25 959.73V952.73V945.73L1535.75 939.98L1541.25 934.23L1538.75 898.48L1536.25 862.73L1540.36 810.349L1533.26 761.375L1538.44 738.075L1532.99 714.775L1538.39 699.048L1531.61 683.32L1534.67 655.872L1534.12 630.237L1524.33 604.988L1509.75 581.949L1504.73 558.538L1486.37 537.198L1496.49 521.866L1500.87 506.728L1517.58 462.311L1532.87 418.615L1556.25 385.48L1576.25 350.73L1576.48 294.625L1580.27 235.463L1584.35 212.884L1585.89 192.523L1581.09 170.319L1570.9 149.302L1572.02 133.234L1559.95 119.593L1551.5 92.2299L1538.75 66.7299L1509.19 57.6049L1477.91 57.5709L1439.17 46.5269L1399.1 45.6559L1355 43.7299L1310.75 44.2299L1255 43.7299L1199.25 43.2299L1145.5 43.7299L1091.75 44.2299L1073.25 55.9799L1054.75 67.7299L1027.5 94.9799L1000.25 122.23L990.25 83.2299L980.25 44.2299H964H947.75L913.726 51.4309L879.979 60.3829L828.151 48.1639L775.149 44.4309L728.75 43.2299H682.25L649.75 43.7299L617.25 44.2299V43.7299V43.2299L599.346 42.2639L580.126 38.0649L558.317 29.3699L534.999 28.9529L497.555 24.6589L463.885 19.5659L434.973 25.6339L403.624 33.5729L381.916 41.2409L362.192 47.8639L361.25 43.7299V43.2299L334.107 51.9409L305.641 53.7929L292.47 45.4749L276.567 43.7379L277.25 29.2299V15.2299L266.376 11.4139L258.665 17.1359L208.663 10.4019L158.66 20.1099L127.962 18.8349L98.188 13.1479Z" stroke="#DAFFF5" stroke-width="20" mask="url(#path-1-outside-1_361_137)"/>
<mask id="path-2-outside-2_361_137" maskUnits="userSpaceOnUse" x="4.75" y="3.40186" width="1638" height="3656" fill="black">
<rect fill="white" x="4.75" y="3.40186" width="1638" height="3656"/>
<path fill-rule="evenodd" clip-rule="evenodd" d="M98.188 13.1479L97.809 37.9189L104.757 59.9049L110.587 113.327L128.819 163.495L138.25 178.73L152.25 192.23L153.616 236.441L156.698 281.783L149.833 315.256L153.742 350.915L143.141 360.201L143.815 375.314L120.066 396.241L102.354 421.518L84 456.48L67.75 492.73L84 514.73L100.25 536.73L111.25 593.73L122.25 650.73L125.914 682.227L122.977 716.76L121.307 746.055L123.088 775.35L120.963 805.507L125.587 837.77L104.5 862.98L86.75 889.23H60.5L39 894.48L44.75 901.48L55.25 913.73L54.99 942.985L53.753 971.875L46.774 1016.88L51.872 1061.85L51.968 1106.11L55.695 1150.21L53.102 1170.98L59.485 1188.22L59.512 1249.61L67.923 1310.44L65.625 1334.52L72.804 1357.96L75.757 1413.88L79.625 1467.96L66 1502.23L55.25 1536.73L44.498 1576.88L31.097 1616.03L25.254 1627.85L24.839 1640.73L30.529 1655.56L33.048 1671.28L42 1697.23L52.251 1722.73L64.5 1737.98L76.75 1753.23L72.825 1769.56L72.689 1785.38L65.61 1807.28L68.944 1832.39L66 1866.48L67.75 1900.73L61.583 1943.74L50.036 1985.05L44.889 2013.32L47.151 2042.13L44.079 2053.76L49.463 2062.6L55.698 2076.23L58.203 2090.75L55.824 2110.26L65.486 2130.01L67.397 2137.96L69.18 2148.09L67.858 2180.79L72.181 2213.03L55.5 2240.48L43.25 2268.73L47.5 2299.73L51.75 2330.73V2350.48V2370.23L68 2440.48L84.25 2510.73L76 2562.73L67.75 2614.73L61.98 2652.43L57.087 2691.16L49.051 2720.68L43.502 2750.23L47.105 2776.26L53.864 2801.22L63.177 2846.84L69.708 2890.62L68.807 2931.08L64.478 2974.41L58.369 3040.34L53.422 3104.83L47.78 3123.4L54.236 3138.79L50.429 3186.71L54.475 3235.86L47.5 3274.23L43.25 3312.73L27 3367.23L10.75 3421.73V3488.48V3555.23L51.25 3603.73L91.75 3652.23L131.491 3649.34L170.525 3642.18L220.524 3642.89L269.838 3635.4L300.84 3633.96L331.502 3628.47L356.507 3627.16L379.148 3626.77L410.459 3623.21L444.463 3621.2L476.94 3624.68L508.868 3618.95L551.76 3621.75L597.88 3611.96L623.75 3631.48L650.25 3647.73L696.75 3637.98L743.25 3628.23L769.5 3637.98L795.75 3647.73L822 3616.48L848.25 3585.23L874.739 3589.02L898.09 3580.53L932.355 3586.81L966.62 3580.63L998.145 3581.1L1026.48 3582.51L1066.04 3592.37L1105.37 3595.6L1146.31 3601.41L1187.18 3607.63L1252.62 3614.2L1313.25 3626.77L1347.53 3619.3L1380.26 3606.79L1404.68 3605.32L1427.16 3596.46L1449.31 3596.07L1468.42 3584.05L1509.69 3579.69L1550.92 3564.66L1566 3543.73L1580.75 3522.23L1582.59 3453.7L1582.99 3385.15L1586.22 3365.85L1578.42 3347.86L1575.05 3339.65L1566.44 3334.58L1548.86 3325.55L1531.3 3314.37L1538.98 3304.52L1535.38 3294.78L1544.1 3254.15L1555.53 3213.75L1570.5 3204.73L1582.25 3194.23L1576.27 3183.4L1566.22 3181.87L1549.15 3158.26L1517.81 3140.24L1541.47 3130.85L1560.4 3124.3L1581.51 3119.44L1593.97 3104.56L1581.25 3084.98L1565.75 3065.23L1559.28 3051.97L1560.52 3037.31L1563.47 3020.09L1560.82 3003.12L1558 2970.98L1551.25 2939.23L1555 2914.98L1558.75 2890.73L1570.5 2864.73L1582.25 2838.73L1585.29 2834.93L1578.01 2830.89L1582.82 2760.94L1581.11 2691.1L1571.8 2653.41L1564.99 2615.01L1549.5 2585.48L1533.25 2556.23L1549.5 2533.48L1565.75 2510.73L1564.77 2491.3L1569.17 2472.93L1580.59 2452.33L1579.62 2430.31L1562 2380.23L1541.75 2330.73L1543.69 2305.29L1538.87 2279.59L1542.3 2226.89L1550.7 2174.75L1544.25 2152.48L1537.25 2130.23L1521 2117.23L1504.75 2104.23L1513.75 2091.98L1522.75 2079.73L1532.25 2038.73L1541.75 1997.73L1537.5 1962.48L1533.25 1927.23L1512.89 1871.95L1486.21 1823.3L1473.46 1802.07L1465.68 1779.38L1495 1780.73H1522.75L1539.75 1783.73L1556.75 1786.73L1561.25 1783.73L1565.75 1780.73L1574 1766.98L1582.25 1753.23L1577.75 1712.48L1573.25 1671.73L1565.75 1660.48L1558.25 1649.23V1636.98V1624.73L1554.75 1590.23L1551.25 1555.73L1566.75 1526.48L1582.25 1497.23L1604.75 1472.23L1627.25 1447.23L1631.5 1426.73L1635.75 1406.23L1623.25 1372.98L1610.75 1339.73L1577 1319.73L1543.25 1299.73L1553.75 1273.73L1564.25 1247.73L1556.5 1233.73L1548.75 1219.73L1553.5 1214.73L1558.25 1209.73L1545.75 1179.98L1533.25 1150.23L1535.25 1120.48L1537.25 1090.73L1539.5 1079.23L1541.75 1067.73L1546.5 1062.73L1551.25 1057.73L1545.75 1051.98L1540.25 1046.23L1545.75 1040.48L1551.25 1034.73L1556 1025.48L1560.75 1016.23L1574.5 1006.98L1588.25 997.73L1582.25 987.23L1576.25 976.73L1553.25 968.23L1530.25 959.73V952.73V945.73L1535.75 939.98L1541.25 934.23L1538.75 898.48L1536.25 862.73L1540.36 810.349L1533.26 761.375L1538.44 738.075L1532.99 714.775L1538.39 699.048L1531.61 683.32L1534.67 655.872L1534.12 630.237L1524.33 604.988L1509.75 581.949L1504.73 558.538L1486.37 537.198L1496.49 521.866L1500.87 506.728L1517.58 462.311L1532.87 418.615L1556.25 385.48L1576.25 350.73L1576.48 294.625L1580.27 235.463L1584.35 212.884L1585.89 192.523L1581.09 170.319L1570.9 149.302L1572.02 133.234L1559.95 119.593L1551.5 92.2299L1538.75 66.7299L1509.19 57.6049L1477.91 57.5709L1439.17 46.5269L1399.1 45.6559L1355 43.7299L1310.75 44.2299L1255 43.7299L1199.25 43.2299L1145.5 43.7299L1091.75 44.2299L1073.25 55.9799L1054.75 67.7299L1027.5 94.9799L1000.25 122.23L990.25 83.2299L980.25 44.2299H964H947.75L913.726 51.4309L879.979 60.3829L828.151 48.1639L775.149 44.4309L728.75 43.2299H682.25L649.75 43.7299L617.25 44.2299V43.7299V43.2299L599.346 42.2639L580.126 38.0649L558.317 29.3699L534.999 28.9529L497.555 24.6589L463.885 19.5659L434.973 25.6339L403.624 33.5729L381.916 41.2409L362.192 47.8639L361.25 43.7299V43.2299L334.107 51.9409L305.641 53.7929L292.47 45.4749L276.567 43.7379L277.25 29.2299V15.2299L266.376 11.4139L258.665 17.1359L208.663 10.4019L158.66 20.1099L127.962 18.8349L98.188 13.1479Z"/>
</mask>
<path fill-rule="evenodd" clip-rule="evenodd" d="M98.188 13.1479L97.809 37.9189L104.757 59.9049L110.587 113.327L128.819 163.495L138.25 178.73L152.25 192.23L153.616 236.441L156.698 281.783L149.833 315.256L153.742 350.915L143.141 360.201L143.815 375.314L120.066 396.241L102.354 421.518L84 456.48L67.75 492.73L84 514.73L100.25 536.73L111.25 593.73L122.25 650.73L125.914 682.227L122.977 716.76L121.307 746.055L123.088 775.35L120.963 805.507L125.587 837.77L104.5 862.98L86.75 889.23H60.5L39 894.48L44.75 901.48L55.25 913.73L54.99 942.985L53.753 971.875L46.774 1016.88L51.872 1061.85L51.968 1106.11L55.695 1150.21L53.102 1170.98L59.485 1188.22L59.512 1249.61L67.923 1310.44L65.625 1334.52L72.804 1357.96L75.757 1413.88L79.625 1467.96L66 1502.23L55.25 1536.73L44.498 1576.88L31.097 1616.03L25.254 1627.85L24.839 1640.73L30.529 1655.56L33.048 1671.28L42 1697.23L52.251 1722.73L64.5 1737.98L76.75 1753.23L72.825 1769.56L72.689 1785.38L65.61 1807.28L68.944 1832.39L66 1866.48L67.75 1900.73L61.583 1943.74L50.036 1985.05L44.889 2013.32L47.151 2042.13L44.079 2053.76L49.463 2062.6L55.698 2076.23L58.203 2090.75L55.824 2110.26L65.486 2130.01L67.397 2137.96L69.18 2148.09L67.858 2180.79L72.181 2213.03L55.5 2240.48L43.25 2268.73L47.5 2299.73L51.75 2330.73V2350.48V2370.23L68 2440.48L84.25 2510.73L76 2562.73L67.75 2614.73L61.98 2652.43L57.087 2691.16L49.051 2720.68L43.502 2750.23L47.105 2776.26L53.864 2801.22L63.177 2846.84L69.708 2890.62L68.807 2931.08L64.478 2974.41L58.369 3040.34L53.422 3104.83L47.78 3123.4L54.236 3138.79L50.429 3186.71L54.475 3235.86L47.5 3274.23L43.25 3312.73L27 3367.23L10.75 3421.73V3488.48V3555.23L51.25 3603.73L91.75 3652.23L131.491 3649.34L170.525 3642.18L220.524 3642.89L269.838 3635.4L300.84 3633.96L331.502 3628.47L356.507 3627.16L379.148 3626.77L410.459 3623.21L444.463 3621.2L476.94 3624.68L508.868 3618.95L551.76 3621.75L597.88 3611.96L623.75 3631.48L650.25 3647.73L696.75 3637.98L743.25 3628.23L769.5 3637.98L795.75 3647.73L822 3616.48L848.25 3585.23L874.739 3589.02L898.09 3580.53L932.355 3586.81L966.62 3580.63L998.145 3581.1L1026.48 3582.51L1066.04 3592.37L1105.37 3595.6L1146.31 3601.41L1187.18 3607.63L1252.62 3614.2L1313.25 3626.77L1347.53 3619.3L1380.26 3606.79L1404.68 3605.32L1427.16 3596.46L1449.31 3596.07L1468.42 3584.05L1509.69 3579.69L1550.92 3564.66L1566 3543.73L1580.75 3522.23L1582.59 3453.7L1582.99 3385.15L1586.22 3365.85L1578.42 3347.86L1575.05 3339.65L1566.44 3334.58L1548.86 3325.55L1531.3 3314.37L1538.98 3304.52L1535.38 3294.78L1544.1 3254.15L1555.53 3213.75L1570.5 3204.73L1582.25 3194.23L1576.27 3183.4L1566.22 3181.87L1549.15 3158.26L1517.81 3140.24L1541.47 3130.85L1560.4 3124.3L1581.51 3119.44L1593.97 3104.56L1581.25 3084.98L1565.75 3065.23L1559.28 3051.97L1560.52 3037.31L1563.47 3020.09L1560.82 3003.12L1558 2970.98L1551.25 2939.23L1555 2914.98L1558.75 2890.73L1570.5 2864.73L1582.25 2838.73L1585.29 2834.93L1578.01 2830.89L1582.82 2760.94L1581.11 2691.1L1571.8 2653.41L1564.99 2615.01L1549.5 2585.48L1533.25 2556.23L1549.5 2533.48L1565.75 2510.73L1564.77 2491.3L1569.17 2472.93L1580.59 2452.33L1579.62 2430.31L1562 2380.23L1541.75 2330.73L1543.69 2305.29L1538.87 2279.59L1542.3 2226.89L1550.7 2174.75L1544.25 2152.48L1537.25 2130.23L1521 2117.23L1504.75 2104.23L1513.75 2091.98L1522.75 2079.73L1532.25 2038.73L1541.75 1997.73L1537.5 1962.48L1533.25 1927.23L1512.89 1871.95L1486.21 1823.3L1473.46 1802.07L1465.68 1779.38L1495 1780.73H1522.75L1539.75 1783.73L1556.75 1786.73L1561.25 1783.73L1565.75 1780.73L1574 1766.98L1582.25 1753.23L1577.75 1712.48L1573.25 1671.73L1565.75 1660.48L1558.25 1649.23V1636.98V1624.73L1554.75 1590.23L1551.25 1555.73L1566.75 1526.48L1582.25 1497.23L1604.75 1472.23L1627.25 1447.23L1631.5 1426.73L1635.75 1406.23L1623.25 1372.98L1610.75 1339.73L1577 1319.73L1543.25 1299.73L1553.75 1273.73L1564.25 1247.73L1556.5 1233.73L1548.75 1219.73L1553.5 1214.73L1558.25 1209.73L1545.75 1179.98L1533.25 1150.23L1535.25 1120.48L1537.25 1090.73L1539.5 1079.23L1541.75 1067.73L1546.5 1062.73L1551.25 1057.73L1545.75 1051.98L1540.25 1046.23L1545.75 1040.48L1551.25 1034.73L1556 1025.48L1560.75 1016.23L1574.5 1006.98L1588.25 997.73L1582.25 987.23L1576.25 976.73L1553.25 968.23L1530.25 959.73V952.73V945.73L1535.75 939.98L1541.25 934.23L1538.75 898.48L1536.25 862.73L1540.36 810.349L1533.26 761.375L1538.44 738.075L1532.99 714.775L1538.39 699.048L1531.61 683.32L1534.67 655.872L1534.12 630.237L1524.33 604.988L1509.75 581.949L1504.73 558.538L1486.37 537.198L1496.49 521.866L1500.87 506.728L1517.58 462.311L1532.87 418.615L1556.25 385.48L1576.25 350.73L1576.48 294.625L1580.27 235.463L1584.35 212.884L1585.89 192.523L1581.09 170.319L1570.9 149.302L1572.02 133.234L1559.95 119.593L1551.5 92.2299L1538.75 66.7299L1509.19 57.6049L1477.91 57.5709L1439.17 46.5269L1399.1 45.6559L1355 43.7299L1310.75 44.2299L1255 43.7299L1199.25 43.2299L1145.5 43.7299L1091.75 44.2299L1073.25 55.9799L1054.75 67.7299L1027.5 94.9799L1000.25 122.23L990.25 83.2299L980.25 44.2299H964H947.75L913.726 51.4309L879.979 60.3829L828.151 48.1639L775.149 44.4309L728.75 43.2299H682.25L649.75 43.7299L617.25 44.2299V43.7299V43.2299L599.346 42.2639L580.126 38.0649L558.317 29.3699L534.999 28.9529L497.555 24.6589L463.885 19.5659L434.973 25.6339L403.624 33.5729L381.916 41.2409L362.192 47.8639L361.25 43.7299V43.2299L334.107 51.9409L305.641 53.7929L292.47 45.4749L276.567 43.7379L277.25 29.2299V15.2299L266.376 11.4139L258.665 17.1359L208.663 10.4019L158.66 20.1099L127.962 18.8349L98.188 13.1479Z" fill="#EFC588"/>
<path fill-rule="evenodd" clip-rule="evenodd" d="M98.188 13.1479L97.809 37.9189L104.757 59.9049L110.587 113.327L128.819 163.495L138.25 178.73L152.25 192.23L153.616 236.441L156.698 281.783L149.833 315.256L153.742 350.915L143.141 360.201L143.815 375.314L120.066 396.241L102.354 421.518L84 456.48L67.75 492.73L84 514.73L100.25 536.73L111.25 593.73L122.25 650.73L125.914 682.227L122.977 716.76L121.307 746.055L123.088 775.35L120.963 805.507L125.587 837.77L104.5 862.98L86.75 889.23H60.5L39 894.48L44.75 901.48L55.25 913.73L54.99 942.985L53.753 971.875L46.774 1016.88L51.872 1061.85L51.968 1106.11L55.695 1150.21L53.102 1170.98L59.485 1188.22L59.512 1249.61L67.923 1310.44L65.625 1334.52L72.804 1357.96L75.757 1413.88L79.625 1467.96L66 1502.23L55.25 1536.73L44.498 1576.88L31.097 1616.03L25.254 1627.85L24.839 1640.73L30.529 1655.56L33.048 1671.28L42 1697.23L52.251 1722.73L64.5 1737.98L76.75 1753.23L72.825 1769.56L72.689 1785.38L65.61 1807.28L68.944 1832.39L66 1866.48L67.75 1900.73L61.583 1943.74L50.036 1985.05L44.889 2013.32L47.151 2042.13L44.079 2053.76L49.463 2062.6L55.698 2076.23L58.203 2090.75L55.824 2110.26L65.486 2130.01L67.397 2137.96L69.18 2148.09L67.858 2180.79L72.181 2213.03L55.5 2240.48L43.25 2268.73L47.5 2299.73L51.75 2330.73V2350.48V2370.23L68 2440.48L84.25 2510.73L76 2562.73L67.75 2614.73L61.98 2652.43L57.087 2691.16L49.051 2720.68L43.502 2750.23L47.105 2776.26L53.864 2801.22L63.177 2846.84L69.708 2890.62L68.807 2931.08L64.478 2974.41L58.369 3040.34L53.422 3104.83L47.78 3123.4L54.236 3138.79L50.429 3186.71L54.475 3235.86L47.5 3274.23L43.25 3312.73L27 3367.23L10.75 3421.73V3488.48V3555.23L51.25 3603.73L91.75 3652.23L131.491 3649.34L170.525 3642.18L220.524 3642.89L269.838 3635.4L300.84 3633.96L331.502 3628.47L356.507 3627.16L379.148 3626.77L410.459 3623.21L444.463 3621.2L476.94 3624.68L508.868 3618.95L551.76 3621.75L597.88 3611.96L623.75 3631.48L650.25 3647.73L696.75 3637.98L743.25 3628.23L769.5 3637.98L795.75 3647.73L822 3616.48L848.25 3585.23L874.739 3589.02L898.09 3580.53L932.355 3586.81L966.62 3580.63L998.145 3581.1L1026.48 3582.51L1066.04 3592.37L1105.37 3595.6L1146.31 3601.41L1187.18 3607.63L1252.62 3614.2L1313.25 3626.77L1347.53 3619.3L1380.26 3606.79L1404.68 3605.32L1427.16 3596.46L1449.31 3596.07L1468.42 3584.05L1509.69 3579.69L1550.92 3564.66L1566 3543.73L1580.75 3522.23L1582.59 3453.7L1582.99 3385.15L1586.22 3365.85L1578.42 3347.86L1575.05 3339.65L1566.44 3334.58L1548.86 3325.55L1531.3 3314.37L1538.98 3304.52L1535.38 3294.78L1544.1 3254.15L1555.53 3213.75L1570.5 3204.73L1582.25 3194.23L1576.27 3183.4L1566.22 3181.87L1549.15 3158.26L1517.81 3140.24L1541.47 3130.85L1560.4 3124.3L1581.51 3119.44L1593.97 3104.56L1581.25 3084.98L1565.75 3065.23L1559.28 3051.97L1560.52 3037.31L1563.47 3020.09L1560.82 3003.12L1558 2970.98L1551.25 2939.23L1555 2914.98L1558.75 2890.73L1570.5 2864.73L1582.25 2838.73L1585.29 2834.93L1578.01 2830.89L1582.82 2760.94L1581.11 2691.1L1571.8 2653.41L1564.99 2615.01L1549.5 2585.48L1533.25 2556.23L1549.5 2533.48L1565.75 2510.73L1564.77 2491.3L1569.17 2472.93L1580.59 2452.33L1579.62 2430.31L1562 2380.23L1541.75 2330.73L1543.69 2305.29L1538.87 2279.59L1542.3 2226.89L1550.7 2174.75L1544.25 2152.48L1537.25 2130.23L1521 2117.23L1504.75 2104.23L1513.75 2091.98L1522.75 2079.73L1532.25 2038.73L1541.75 1997.73L1537.5 1962.48L1533.25 1927.23L1512.89 1871.95L1486.21 1823.3L1473.46 1802.07L1465.68 1779.38L1495 1780.73H1522.75L1539.75 1783.73L1556.75 1786.73L1561.25 1783.73L1565.75 1780.73L1574 1766.98L1582.25 1753.23L1577.75 1712.48L1573.25 1671.73L1565.75 1660.48L1558.25 1649.23V1636.98V1624.73L1554.75 1590.23L1551.25 1555.73L1566.75 1526.48L1582.25 1497.23L1604.75 1472.23L1627.25 1447.23L1631.5 1426.73L1635.75 1406.23L1623.25 1372.98L1610.75 1339.73L1577 1319.73L1543.25 1299.73L1553.75 1273.73L1564.25 1247.73L1556.5 1233.73L1548.75 1219.73L1553.5 1214.73L1558.25 1209.73L1545.75 1179.98L1533.25 1150.23L1535.25 1120.48L1537.25 1090.73L1539.5 1079.23L1541.75 1067.73L1546.5 1062.73L1551.25 1057.73L1545.75 1051.98L1540.25 1046.23L1545.75 1040.48L1551.25 1034.73L1556 1025.48L1560.75 1016.23L1574.5 1006.98L1588.25 997.73L1582.25 987.23L1576.25 976.73L1553.25 968.23L1530.25 959.73V952.73V945.73L1535.75 939.98L1541.25 934.23L1538.75 898.48L1536.25 862.73L1540.36 810.349L1533.26 761.375L1538.44 738.075L1532.99 714.775L1538.39 699.048L1531.61 683.32L1534.67 655.872L1534.12 630.237L1524.33 604.988L1509.75 581.949L1504.73 558.538L1486.37 537.198L1496.49 521.866L1500.87 506.728L1517.58 462.311L1532.87 418.615L1556.25 385.48L1576.25 350.73L1576.48 294.625L1580.27 235.463L1584.35 212.884L1585.89 192.523L1581.09 170.319L1570.9 149.302L1572.02 133.234L1559.95 119.593L1551.5 92.2299L1538.75 66.7299L1509.19 57.6049L1477.91 57.5709L1439.17 46.5269L1399.1 45.6559L1355 43.7299L1310.75 44.2299L1255 43.7299L1199.25 43.2299L1145.5 43.7299L1091.75 44.2299L1073.25 55.9799L1054.75 67.7299L1027.5 94.9799L1000.25 122.23L990.25 83.2299L980.25 44.2299H964H947.75L913.726 51.4309L879.979 60.3829L828.151 48.1639L775.149 44.4309L728.75 43.2299H682.25L649.75 43.7299L617.25 44.2299V43.7299V43.2299L599.346 42.2639L580.126 38.0649L558.317 29.3699L534.999 28.9529L497.555 24.6589L463.885 19.5659L434.973 25.6339L403.624 33.5729L381.916 41.2409L362.192 47.8639L361.25 43.7299V43.2299L334.107 51.9409L305.641 53.7929L292.47 45.4749L276.567 43.7379L277.25 29.2299V15.2299L266.376 11.4139L258.665 17.1359L208.663 10.4019L158.66 20.1099L127.962 18.8349L98.188 13.1479Z" stroke="#1A1840" stroke-width="12" mask="url(#path-2-outside-2_361_137)"/>
<path fill-rule="evenodd" clip-rule="evenodd" d="M1541.56 2238.26L1470.5 2287.48L1483 2349.98C1494.17 2375.15 1516.5 2428.08 1516.5 2438.48V2502.98C1516.5 2512.48 1507 2639.48 1492.5 2699.98C1492.5 2706.8 1499.1 2709.08 1506.96 2711.79C1514.09 2714.26 1522.27 2717.08 1527.5 2723.98C1536.3 2735.58 1531.17 2760.81 1527.5 2771.98L1557.34 2899.82L1558.75 2890.73L1570.5 2864.73L1582.25 2838.73L1585.29 2834.93L1578.01 2830.89L1582.82 2760.94L1581.11 2691.1L1571.8 2653.41L1564.99 2615.01L1549.5 2585.48L1533.25 2556.23L1549.5 2533.48L1565.75 2510.73L1564.77 2491.3L1569.17 2472.93L1580.59 2452.33L1579.62 2430.31L1562 2380.23L1541.75 2330.73L1543.69 2305.29L1538.87 2279.59L1541.56 2238.26ZM1535.82 3317.25C1527.81 3347.67 1518.52 3382.28 1516.5 3387.48C1513.7 3394.68 1557 3415.15 1579 3424.48C1569.83 3458.81 1550 3527.48 1544 3527.48C1540.65 3527.48 1529.31 3533.77 1516.77 3540.72C1501.24 3549.34 1483.86 3558.98 1477.5 3558.98H1317.5C1298.3 3558.98 1177.83 3537.98 1120 3527.48C1101 3521.31 1059.3 3508.98 1044.5 3508.98C1029.7 3508.98 1005.33 3494.31 995 3486.98L954.5 3435.48L818 3424.48C797.167 3424.98 753.3 3427.88 744.5 3435.48C733.5 3444.98 635.5 3466.48 622.5 3468.48C616.787 3469.36 598.714 3477 578.805 3485.41C553.41 3496.14 525.029 3508.14 515.5 3508.98C505.857 3509.83 484.631 3515.03 465.419 3519.73C450.761 3523.31 437.275 3526.61 431 3527.48C419.4 3529.08 352.5 3549.15 320.5 3558.98H224.5L86.5001 3540.48L58.5001 3435.48L70.0001 3337.48L58.5001 3239.98C56.2001 3223.96 53.512 3203.09 50.9647 3179.97L50.429 3186.71L54.475 3235.86L47.5 3274.23L43.25 3312.73L27 3367.23L10.75 3421.73V3488.48V3555.23L51.25 3603.73L91.75 3652.23L131.491 3649.34L170.525 3642.18L220.524 3642.89L269.838 3635.4L300.84 3633.96L331.502 3628.47L356.507 3627.16L379.148 3626.77L410.459 3623.21L444.463 3621.2L476.94 3624.68L508.868 3618.95L551.76 3621.75L597.88 3611.96L623.75 3631.48L650.25 3647.73L696.75 3637.98L743.25 3628.23L769.5 3637.98L795.75 3647.73L822 3616.48L848.25 3585.23L874.739 3589.02L898.09 3580.53L932.355 3586.81L966.62 3580.63L998.145 3581.1L1026.48 3582.51L1066.04 3592.37L1105.37 3595.6L1146.31 3601.41L1187.18 3607.63L1252.62 3614.2L1313.25 3626.77L1347.53 3619.3L1380.26 3606.79L1404.68 3605.32L1427.16 3596.46L1449.31 3596.07L1468.42 3584.05L1509.69 3579.69L1550.92 3564.66L1566 3543.73L1580.75 3522.23L1582.59 3453.7L1582.99 3385.15L1586.22 3365.85L1578.42 3347.86L1575.05 3339.65L1566.44 3334.58L1548.86 3325.55L1535.82 3317.25ZM69.0966 2918.08C86.0951 2881.2 107.243 2845.92 119.5 2827.48L151 2797.98L162 2733.48V2699.98L151 2639.48V2572.98L48.8375 2309.49L51.75 2330.73V2350.48V2370.23L68 2440.48L84.25 2510.73L76 2562.73L67.75 2614.73L61.98 2652.43L57.087 2691.16L49.051 2720.68L43.502 2750.23L47.105 2776.26L53.864 2801.22L63.177 2846.84L69.708 2890.62L69.0966 2918.08ZM123.886 825.9L200.5 602.98L117.5 488.48L142.993 376.038L120.066 396.241L102.354 421.518L84 456.48L67.75 492.73L84 514.73L100.25 536.73L111.25 593.73L122.25 650.73L125.914 682.227L122.977 716.76L121.307 746.055L123.088 775.35L120.963 805.507L123.886 825.9ZM143.707 372.889L145.5 364.98L143.298 363.72L143.707 372.889Z" fill="url(#paint0_angular_361_137)"/>
<path fill-rule="evenodd" clip-rule="evenodd" d="M171.355 83.4027L187.47 75.4287L201.305 66.8127L210.4 62.8477L219.015 58.0257L237.574 47.0967L256.531 34.9807L266.891 52.2297L277.641 66.7297H305.391H333.141L353.641 75.2297L374.142 83.7297L386.392 75.2297L398.642 66.7297L416.642 52.2297L434.642 37.7297H463.642H492.642L499.936 42.5847L508.195 46.7077L530.811 66.1817L555.361 83.0437L587.807 85.8587L618.708 81.9447L649.817 83.2017L680.924 82.8257L708.649 80.8677L736.375 83.1717L755.31 85.8317L774.245 81.1677L800.56 82.2427L825.273 81.6817L847.391 75.2297L869.141 66.7297L892.518 76.5127L917.807 79.0607L940.718 79.4347L963.82 83.4037L967.662 95.4027L968.76 109.079L974.713 139.535L982.744 169.582L982.609 178.269L986.065 186.249L985.62 207.224L992.383 228.297L1005.31 216.553L1010.91 201.27L1028.66 185.319L1039.97 164.26L1055.88 152.402L1064.98 132.744L1082.89 108.98L1098.64 83.7297L1101.1 112.967L1107.11 141.659L1110.03 157.761L1114.82 173.024L1115.64 136.98V100.73L1130.14 92.2297L1144.64 83.7297L1166.05 84.1587L1187.1 82.2537L1195.3 84.4557L1203.51 81.1627L1235.35 85.9217L1267.2 82.5747L1302.4 83.7817L1337.69 82.0357L1341.58 84.3247L1345.34 85.7327L1358.21 93.2437L1372.71 98.1907L1406.11 122.252L1439.2 146.052L1457.71 128.692L1472.03 109.131L1482.91 95.4807L1495.11 81.8897L1503.78 104.385L1516.55 120.317L1522.43 132.253L1531.65 142.202L1538.05 158.342L1548.21 173.097L1542.88 184.655L1543.78 195.915L1534.87 221.281L1529.22 247.462L1526.55 264.389L1522.67 280.177L1509.67 291.354L1497.08 304.068L1467.49 327.658L1441.2 353.559L1433.53 363.156L1432.09 374.737L1426.58 386.357L1424.19 399.075L1415.6 424.915L1406.05 448.271L1413.5 468.439L1418.86 489.624L1421.76 502.209L1427.46 513.982L1432.19 526.365L1435.58 539.242L1433.63 558.442L1441.96 575.881L1441.49 593.352L1443.12 610.365L1447.45 635.717L1453.85 660.681L1462.14 696.98L1470.64 733.23L1474.48 748.184L1478.88 763.029L1480.42 793.352L1487.13 822.724L1493.69 842.702L1494.81 863.698L1497.73 883.779L1503.49 902.669L1507.49 932.558L1513.96 961.972L1514.43 981.036L1523.77 1001.37L1513.53 1030.95L1508.26 1060.3L1502.56 1074.2L1503.48 1089.56L1500.25 1106.88L1495.54 1121.85L1493.95 1131.41L1494.64 1140.51L1494.04 1165.38L1495.88 1190.24L1495.15 1206.95L1496.43 1222.91L1501.91 1250.84L1511 1277.95L1518.53 1305.63L1522.38 1334.11L1521.14 1359.73V1385.23L1547.64 1397.23L1574.14 1409.23L1557.78 1433.65L1538.5 1455.69L1527.21 1469.27L1515.94 1482.87L1504.98 1494.56L1497.43 1508.84L1490.34 1517.02L1484.94 1526.33L1479.3 1537.36L1470.71 1546.74L1470.46 1574.4L1471.67 1601.93L1469.73 1619.95L1472.1 1638.07L1484.59 1645.58L1496.47 1655.06L1505.22 1665.16L1517.93 1668.07L1529.67 1673.65L1541.21 1680.21L1542.24 1689.55L1549.52 1697.94L1534.13 1696.01L1522 1702.62L1490.19 1709.71L1457.76 1712.96L1447.73 1716.16L1437.39 1717.39L1420.78 1717.18L1405.01 1722.45L1371.3 1726.19L1338.97 1732.4L1343.22 1742.94L1345.43 1756.58L1348.97 1770.87L1358.48 1782.23L1358.37 1781.74L1359.14 1780.73L1358.37 1781.74L1357.59 1782.75L1354.43 1790.09L1350.99 1797.28L1342.09 1818.07L1331.18 1837.87L1323.28 1855.67L1313.73 1872.67L1307.88 1889.06L1298.77 1903.86L1288.07 1928.7L1275.99 1953.63L1256.41 1957.87L1237.62 1963.91L1209.54 1972.24L1181.03 1978.94L1154.03 1984.71L1128.49 1993.22L1111.91 2000.13L1101.46 2013.2L1090.75 2015.91L1083.89 2023.85L1076.82 2030.69L1068.53 2035.87L1052.45 2046.89L1037.27 2059.15L1023.83 2069.67L1010.16 2079.87L990.237 2094.05L971.055 2107L953.641 2148.98L936.641 2191.23L946.458 2217.29L953.372 2244.04L966.614 2264.6L985.008 2281.41L982.683 2283.47L982.724 2283.71L1000.93 2297.97L1019.14 2312.23L1034.52 2317.75L1050.49 2321.54L1067.49 2331.78L1086.95 2335.35L1095.65 2336.03L1103.54 2339.49L1112.19 2346.49L1122.82 2346.15L1166.78 2354.72L1209.76 2367.3L1221.54 2375.42L1234.11 2376.55L1253.26 2386.31L1273.96 2392.46L1291.11 2399.73L1307.61 2408.52L1324.09 2418.78L1343.4 2422.45L1353.6 2428.74L1364.92 2432.43L1376.61 2436.68L1387.44 2442.92L1404.23 2448.2L1417.22 2456.69L1416.14 2482.69L1418.14 2507.82L1415.18 2525.74L1418.75 2543.66L1415.21 2575.64L1418.23 2609.43L1406.56 2639.91L1395.77 2670.64L1388.85 2679.81L1383.03 2689.44L1370.32 2701.76L1360.1 2715.61L1359.14 2729.73V2744.23L1380.89 2771.98L1402.64 2799.73L1417.14 2823.98L1431.64 2848.23L1436.88 2865.73L1445.94 2881.95L1443.44 2893.28L1449.92 2902.38L1448.23 2938.32L1454.29 2973.76L1451.06 2982.97L1446.6 2991.49L1431.01 3003.42L1420.49 3019.38L1407.54 3037.81L1392.47 3054.01L1385.19 3076.1L1383.06 3099.12L1388.4 3100.08L1395.16 3102.2L1423.5 3114.82L1452.29 3126.31L1464.62 3130.39L1476.4 3135.78L1501.87 3148.73L1529.86 3158.82L1521.48 3192.16L1522.71 3223.25L1518.35 3252.32L1513.92 3280.29L1504.65 3304.27L1499.92 3328.68L1490.77 3345.55L1487.16 3364.22L1479.5 3389.4L1471 3413.1L1490.15 3418.2L1510.11 3422.37L1528.56 3434.12L1548.24 3443.69L1540.22 3447L1533.61 3452.29L1504.6 3457.86L1475.89 3464.93L1443.51 3468.61L1411.1 3471.58L1400.84 3473.48L1390.69 3476.38L1364.21 3478.95L1337.41 3482.4L1317.58 3470.65L1296.73 3462.75L1282.17 3451.22L1264.48 3446.11L1255.3 3442.67L1246.66 3438.08L1222.75 3423.44L1196.46 3413.7L1181.01 3403.98L1163.46 3398.59L1154.25 3391.99L1143.8 3387.96L1132.47 3379.36L1119.25 3374.63L1093.21 3361.17L1066.25 3349.61L1049.38 3342.82L1032.97 3335.09L1007.05 3318.19L978.461 3306.78L969.42 3299.85L957.398 3299.05L936.349 3288.09L915.81 3276.08L891.445 3262.37L865.411 3252.09L848.721 3245.81L835.437 3239.55L804.984 3238.44L775.045 3245.56L761.221 3249.71L746.953 3250.73L718.964 3250.54L692.227 3258.42L665.039 3261.88L638.211 3267.42L610.198 3273.53L582.132 3279.35L567.954 3279.19L555.227 3285.01L539.06 3287.27L524.616 3294.79L518.105 3300.93L510.784 3305.45L504.921 3308.75L503.064 3315.25L483.797 3337.81L461.892 3357.82L449.654 3366.75L439.098 3377.71L424.613 3384.21L414.126 3396.34L403.328 3397.78L396.75 3406.74L383.001 3409.71L369.676 3413.77L343.191 3411.71L316.704 3410.34L280.596 3404.02L243.042 3403.03L235.949 3382.02L222.769 3366.11L212.587 3340.24L195.94 3317.92L187.032 3295.01L174.121 3274.25L164.7 3259.27L156.223 3243.78L149.787 3226.74L141.861 3210.44L140.125 3195.98L130.299 3184.47L129.267 3180.33L128.976 3176.63L129.619 3164.44L128.027 3152.55L123.751 3129.05L119.26 3105.56L118.962 3081.54L115.75 3057.9L115.677 3043.22L112.151 3028.94L109.444 3000.7L106.455 2972.48L108.54 2950.48L102.338 2928.87L102.062 2920.25L104.534 2911.7L108.209 2898.02L110.476 2883.92L124.5 2868.78L132.254 2849.61L142.612 2838.21L146.959 2823.34L168.881 2790.21L185.443 2754.25L198.979 2728.43L210.142 2701.51L219.215 2683.82L222.201 2664.45L220.203 2647.81L216.698 2630.82L211.16 2603.87L205.59 2576.85L200.772 2547L195.038 2517.34L193.179 2497.93L188.201 2479.04L189.305 2465.3L184.659 2452.55L180.99 2417.64L172.706 2383.54L168.718 2351.84L161.069 2320.8L156.016 2302.36L151.794 2283.73L151.319 2280.23L151.511 2276.73L154.654 2257.34L150.223 2238.53L148.107 2220.58L148.687 2202.45L149.732 2179.76L143.242 2157.47L146.896 2137.94L142.391 2118.81L142.082 2106.92L142.55 2095.01L145.888 2083.65L141.137 2072.52L142.311 2042.86L140.076 2013.13L146.258 2007.4L143.575 2000.43L151.283 1978.36L151.116 1955.05L157.166 1929.82L154.52 1904.22L156.215 1879.36L156 1854.35L160.342 1827.5L160.793 1800.44L160.61 1784.72L160.229 1768.41L167.882 1757.75L173.124 1745.49L190.525 1736.14L203.245 1721.33L214.616 1715.22L225.16 1708.08L236.857 1703.93L246.342 1696.34L274.182 1677.72L302.639 1661.64L306.777 1637.32L305.842 1611.67L308.727 1597.27L308.066 1582.69L307.327 1554.21L310.212 1525.83L310.71 1508.03L308.932 1490.27L306.801 1460.67L307.607 1430.97L302.9 1402.94L299.137 1374.9L296.637 1359.15L291.421 1344.07L277.51 1316.09L259.732 1290.45L241.391 1264.45L217.84 1242.94L207.423 1232.41L195.214 1223.81L186.394 1214.39L174.767 1209.01L149.884 1189.54L121.74 1173.69L130.791 1164.36L138.361 1155.91L150.29 1147.54L156.383 1133.76L170.95 1122.12L180.888 1106.15L194.147 1092.81L207.152 1079.22L224.599 1063.32L239.928 1045.32L260.202 1026.66L281.029 1008.62L286.904 1005.35L292.016 1001.04L299.059 995.488L306.089 990.212L313.587 987.125L317.503 980.012L346.083 953.651L369.079 922.608L385.001 893.885L397.464 863.393L396.905 841.324L398.505 819.061L401.066 788.801L401.789 758.442L403.602 747.097L404.54 735.7L405.758 709.821L406.879 683.944L408.578 666.775L409.128 649.56L410.673 634.056L407.297 618.609L406.434 586.746L405.336 554.897L404.41 538.539L398.422 523.314L386.642 505.387L378.195 485.817L356.859 453.26L336.126 420.436L318.701 393.713L299.676 368.016L290.432 357.473L276.766 352.476L267.221 333.57L253.501 317.157L247.598 298.636L240.676 280.7L240.954 263.006L233.376 247.685L225.188 225.9L220.372 203.151L213.755 188.75L207.561 174.29L204.581 154.016L192.445 137.686L182.499 110.979L171.355 83.4027Z" fill="#FDE5AB"/>
<path fill-rule="evenodd" clip-rule="evenodd" d="M645.691 3644.93L561 3567.98L154.5 3616.48L76.0003 3579.48L10.75 3445.53V3488.48V3555.23L51.25 3603.73L91.75 3652.23L131.491 3649.34L170.525 3642.18L220.524 3642.89L269.838 3635.4L300.84 3633.96L331.502 3628.47L356.507 3627.16L379.148 3626.77L410.459 3623.21L444.463 3621.2L476.94 3624.68L508.868 3618.95L551.76 3621.75L597.88 3611.96L623.75 3631.48L645.691 3644.93ZM69.2071 2913.11L118.5 2828.48L150 2799.48L109 2750.98L124.5 2609.48L82.2619 2523.26L76 2562.73L67.75 2614.73L61.98 2652.43L57.087 2691.16L49.051 2720.68L43.502 2750.23L47.105 2776.26L53.864 2801.22L63.177 2846.84L69.708 2890.62L69.2071 2913.11Z" fill="#AA68AF"/>
<defs>
<radialGradient id="paint0_angular_361_137" cx="0" cy="0" r="1" gradientUnits="userSpaceOnUse" gradientTransform="translate(713.564 2008.3) rotate(86.6415) scale(2021.65)">
<stop offset="0.133011" stop-color="#AC6985"/>
<stop offset="0.659996" stop-color="#AC6985" stop-opacity="0"/>
</radialGradient>
</defs>
</svg>
