<svg width="39" height="11" viewBox="0 0 39 11" fill="none" xmlns="http://www.w3.org/2000/svg">
<path d="M9.75 5.5C9.75 8.19239 7.56739 10.375 4.875 10.375C2.18261 10.375 0 8.19239 0 5.5C0 2.80761 2.18261 0.625 4.875 0.625C7.56739 0.625 9.75 2.80761 9.75 5.5Z" fill="#141C37"/>
<path d="M24.375 5.5C24.375 8.19239 22.1924 10.375 19.5 10.375C16.8076 10.375 14.625 8.19239 14.625 5.5C14.625 2.80761 16.8076 0.625 19.5 0.625C22.1924 0.625 24.375 2.80761 24.375 5.5Z" fill="#141C37"/>
<path d="M34.125 10.375C36.8175 10.375 39 8.19239 39 5.5C39 2.80761 36.8175 0.625 34.125 0.625C31.4325 0.625 29.25 2.80761 29.25 5.5C29.25 8.19239 31.4325 10.375 34.125 10.375Z" fill="#141C37"/>
</svg>
