<svg width="13" height="11" viewBox="0 0 13 11" fill="none" xmlns="http://www.w3.org/2000/svg">
<path d="M11.0599 10.3294H1.94005C1.58001 10.33 1.22718 10.2285 0.922402 10.0368C0.617625 9.84513 0.373363 9.57106 0.217889 9.24631C0.0358895 8.861 -0.0342093 8.43231 0.0155806 8.0091C0.0653706 7.58588 0.233047 7.18516 0.499501 6.85261L5.05945 1.32869C5.2384 1.12221 5.45964 0.956617 5.70819 0.843126C5.95673 0.729634 6.22677 0.670898 6.5 0.670898C6.77323 0.670898 7.04327 0.729634 7.29181 0.843126C7.54036 0.956617 7.7616 1.12221 7.94055 1.32869L12.5005 6.85261C12.767 7.18516 12.9346 7.58588 12.9844 8.0091C13.0342 8.43231 12.9641 8.861 12.7821 9.24631C12.6266 9.57106 12.3824 9.84513 12.0776 10.0368C11.7728 10.2285 11.42 10.33 11.0599 10.3294Z" fill="#99B1CB"/>
</svg>
