<svg width="34" height="31" viewBox="0 0 34 31" fill="none" xmlns="http://www.w3.org/2000/svg">
<path d="M31.1181 22.9764L30.721 6.52139C30.665 4.20085 28.6639 2.46299 26.363 2.73662L14.1241 4.1921C13.1705 4.3055 12.2168 4.07112 11.4372 3.53176L11.0726 3.27955C10.293 2.7402 9.33925 2.50581 8.38566 2.61922L4.11818 3.12671C1.9245 3.38759 0.311809 5.38227 0.51614 7.58193L2.24635 26.2081C2.45119 28.4132 4.40387 29.9861 6.60226 29.7169L27.514 27.1556C29.5959 26.9007 31.1688 25.0767 31.1181 22.9764Z" fill="#FECD62" stroke="#CD9C08"/>
<rect width="26.0999" height="20.745" rx="4" transform="matrix(0.995136 -0.0985095 0.0924934 0.995713 2.99957 8.25342)" fill="white" fill-opacity="0.8"/>
<g filter="url(#filter0_i_604_488)">
<path d="M2.86399 26.1174L3.80055 16.0351C4.00488 13.8354 5.95267 11.8758 8.15107 11.6582L12.7841 11.1996C13.6188 11.117 14.4567 10.7739 15.1794 10.2189L15.6376 9.86709C16.3673 9.30672 17.2143 8.96256 18.0566 8.88416L25.081 8.23034L29.3318 7.83468C31.5643 7.62688 33.178 9.29967 32.9064 11.5402L31.4983 23.1557C31.2386 25.298 29.3447 27.1768 27.2067 27.4133L6.52128 29.7013C4.30236 29.9467 2.65796 28.3353 2.86399 26.1174Z" fill="#FEDF77" fill-opacity="0.8"/>
</g>
<path d="M2.86399 26.1174L3.80055 16.0351C4.00488 13.8354 5.95267 11.8758 8.15107 11.6582L12.7841 11.1996C13.6188 11.117 14.4567 10.7739 15.1794 10.2189L15.6376 9.86709C16.3673 9.30672 17.2143 8.96256 18.0566 8.88416L25.081 8.23034L29.3318 7.83468C31.5643 7.62688 33.178 9.29967 32.9064 11.5402L31.4983 23.1557C31.2386 25.298 29.3447 27.1768 27.2067 27.4133L6.52128 29.7013C4.30236 29.9467 2.65796 28.3353 2.86399 26.1174Z" stroke="#CD9C08"/>
<defs>
<filter id="filter0_i_604_488" x="2.3468" y="7.31689" width="31.0892" height="24.9092" filterUnits="userSpaceOnUse" color-interpolation-filters="sRGB">
<feFlood flood-opacity="0" result="BackgroundImageFix"/>
<feBlend mode="normal" in="SourceGraphic" in2="BackgroundImageFix" result="shape"/>
<feColorMatrix in="SourceAlpha" type="matrix" values="0 0 0 0 0 0 0 0 0 0 0 0 0 0 0 0 0 0 127 0" result="hardAlpha"/>
<feOffset dy="2"/>
<feGaussianBlur stdDeviation="2"/>
<feComposite in2="hardAlpha" operator="arithmetic" k2="-1" k3="1"/>
<feColorMatrix type="matrix" values="0 0 0 0 1 0 0 0 0 1 0 0 0 0 1 0 0 0 1 0"/>
<feBlend mode="normal" in2="shape" result="effect1_innerShadow_604_488"/>
</filter>
</defs>
</svg>
