<svg width="48" height="48" viewBox="0 0 48 48" fill="none" xmlns="http://www.w3.org/2000/svg">
<path d="M19.9911 46.2402L19.9911 44.4804L19.5367 44.3633C17.9646 43.9581 17.3742 43.7768 16.5167 43.4361C15.3102 42.9569 14.1087 42.3576 13.1184 41.7414L12.3515 41.2641L11.0395 42.573L9.72745 43.8818L6.92569 41.1035C5.38473 39.5754 4.10042 38.3115 4.07168 38.2948C4.04293 38.2781 4.60636 37.676 5.32374 36.9569C6.04112 36.2378 6.62806 35.615 6.62806 35.5729C6.62806 35.5308 6.45347 35.2234 6.24008 34.8898C5.25985 33.3575 4.10963 30.5897 3.67287 28.7124L3.48432 27.902L1.74216 27.902L-7.03053e-08 27.902L-6.02039e-08 23.8931L-5.01026e-08 19.8842L1.71382 19.8842C2.9924 19.8842 3.43775 19.8503 3.46742 19.7506C3.48929 19.6771 3.58953 19.2561 3.69018 18.8151C4.11408 16.9578 5.24878 14.2322 6.24903 12.6685L6.64597 12.048L5.46153 10.8602L4.27709 9.67241L7.10906 6.84195L9.94103 4.01149L11.1064 5.17328L12.2718 6.33508L13.1649 5.79861C15.2681 4.53518 16.9472 3.85182 19.5367 3.2054L19.9911 3.09198L19.9911 1.54599L19.9911 5.0372e-08L23.9971 6.04659e-08L28.003 7.05598e-08L28.0327 1.5129L28.0624 3.0258L29.2383 3.31919C31.3882 3.85557 33.605 4.78859 35.3025 5.87149L35.9733 6.29944L37.0162 5.26246L38.0592 4.22548L40.8909 7.05573L43.7227 9.88598L42.6939 10.9187L41.6651 11.9513L42.2012 12.8443C43.4102 14.8576 44.252 16.933 44.7423 19.1091L44.9169 19.8842L46.4585 19.8842L48 19.8842L48 23.8902L48 27.8963L46.4271 27.9259L44.8541 27.9555L44.7625 28.3831C44.311 30.4922 43.1804 33.2311 42.0266 35.0111L41.6108 35.6526L42.7738 36.8297L43.9367 38.0069L41.1048 40.8373L38.2728 43.6678L37.1213 42.5199C36.488 41.8885 35.9354 41.3719 35.8934 41.3719C35.8514 41.3719 35.5435 41.5469 35.2092 41.7608C33.6174 42.7791 30.435 44.0621 28.715 44.379L28.0089 44.5091L28.0089 46.2546L28.0089 48L24 48L19.9911 48L19.9911 46.2402ZM26.0255 41.4746C29.0634 41.1865 31.8473 40.1923 34.4277 38.474C35.8065 37.5558 38.1102 35.2537 39.0118 33.8932C43.1041 27.7175 43.1032 20.1555 39.0094 13.9999C38.0992 12.6313 35.7963 10.3284 34.4277 9.41822C28.9863 5.79941 22.3023 5.35512 16.5708 8.23129C14.6996 9.17031 13.3383 10.1648 11.752 11.7516C8.90473 14.5997 7.30046 17.8036 6.78592 21.6694C5.66397 30.0989 10.7489 38.0183 18.9755 40.6539C21.4782 41.4557 23.6091 41.7037 26.0255 41.4746ZM19.51 38.7154C18.8633 38.4933 17.9252 38.0982 17.4254 37.8373L16.5167 37.363L16.4633 32.463C16.4254 28.9896 16.4438 27.5348 16.5266 27.4661C16.5908 27.4128 16.9757 27.2287 17.3818 27.0569C17.788 26.8851 18.7216 26.4824 19.4566 26.162C20.1915 25.8417 21.755 25.1603 22.931 24.648C24.1069 24.1357 25.2134 23.65 25.3898 23.5689C25.5661 23.4877 26.6726 23.0036 27.8486 22.4932C29.0245 21.9828 30.588 21.3031 31.3229 20.9828C32.0579 20.6624 32.984 20.2628 33.3808 20.0948L34.1024 19.7894L34.1024 28.0122L34.1024 36.235L33.3274 36.7806C32.5261 37.3447 30.4236 38.4315 29.9065 38.5489L29.6125 38.6156L29.6125 31.5542L29.6125 24.4927L28.0891 25.1855C27.2512 25.5666 25.6036 26.3115 24.4276 26.8409C23.2517 27.3704 21.9843 27.958 21.6113 28.1467L20.933 28.49L20.9164 33.7728C20.9057 37.1878 20.862 39.0669 20.7929 39.0874C20.7341 39.1049 20.1568 38.9375 19.51 38.7154ZM13.8975 19.5271L13.8975 12.5276L14.4475 12.0332C15.142 11.4088 16.5014 10.5074 17.5029 10.0072C17.9277 9.79498 18.3005 9.62138 18.3314 9.62138C18.3623 9.62138 18.3875 12.4116 18.3875 15.8218C18.3875 19.8216 18.4249 22.0223 18.4928 22.0223C18.5508 22.0223 19.1094 21.7817 19.7343 21.4877C20.3591 21.1938 20.8864 20.9532 20.906 20.9532C20.9256 20.9532 21.5335 20.6844 22.257 20.3557C22.9805 20.0271 24.0535 19.542 24.6414 19.2776C25.2294 19.0133 26.0352 18.6497 26.4321 18.4696L27.1537 18.1421L27.1537 13.3603L27.1537 8.57845L27.856 8.72566C28.8357 8.93104 30.4194 9.46971 31.0557 9.814L31.5902 10.1032L31.6181 14.4564L31.646 18.8096L31.1953 19.0395C30.9474 19.166 30.2614 19.4755 29.6708 19.7274C28.4066 20.2665 27.047 20.8556 23.6258 22.3468C22.2441 22.9491 20.5844 23.6682 19.9376 23.9448C19.2909 24.2214 18.4249 24.5967 18.0134 24.7787C15.8695 25.727 14.343 26.3853 14.1329 26.452L13.8975 26.5267L13.8975 19.5271Z" fill="white"/>
</svg>
