<svg width="47" height="41" viewBox="0 0 47 41" fill="none" xmlns="http://www.w3.org/2000/svg">
<g filter="url(#filter0_di_694_407)">
<path d="M5.07593 32.3532V6.20312H41.6491V32.3532H5.07593Z" fill="url(#paint0_linear_694_407)" stroke="black" stroke-width="0.0661174"/>
<path d="M7.49719 10.377H30.6956" stroke="#A5C4D9" stroke-width="1.65293" stroke-linecap="round"/>
<path d="M7.49731 13.2134H30.6957" stroke="#A5C4D9" stroke-width="1.65293" stroke-linecap="round"/>
<path d="M7.49731 16.0269H30.6957" stroke="#A5C4D9" stroke-width="1.65293" stroke-linecap="round"/>
<path d="M7.49731 18.8628H30.6957" stroke="#A5C4D9" stroke-width="1.65293" stroke-linecap="round"/>
<path d="M7.49731 22.207H30.6957" stroke="#A5C4D9" stroke-width="1.65293" stroke-linecap="round"/>
<path d="M7.49731 25.043H30.6957" stroke="#A5C4D9" stroke-width="1.65293" stroke-linecap="round"/>
<ellipse cx="36.6396" cy="25.0686" rx="2.0754" ry="2.0754" fill="url(#paint1_radial_694_407)"/>
<path d="M33.7112 14.0691C33.7112 11.5357 34.1528 8.26374 36.6859 8.30408C39.1987 8.34409 39.5454 11.556 39.5454 14.0691C39.5454 17.1591 38.1848 21.356 36.6859 21.356C35.579 21.356 33.7112 17.113 33.7112 14.0691Z" fill="url(#paint2_linear_694_407)"/>
<path d="M42.2257 6.6187H4.5918V2.67544L5.0294 1.22266H41.8802L42.2257 1.82222V6.6187Z" fill="url(#paint3_linear_694_407)"/>
<path d="M4.5918 30.8079V2.97522C4.5918 1.87975 5.47985 0.991699 6.57531 0.991699H40.3344C41.4299 0.991699 42.3179 1.87975 42.3179 2.97522V30.8079C42.3179 31.9034 41.4299 32.7914 40.3344 32.7914H6.57532C5.47985 32.7914 4.5918 31.9034 4.5918 30.8079Z" stroke="url(#paint4_linear_694_407)" stroke-width="1.98352"/>
</g>
<defs>
<filter id="filter0_di_694_407" x="-2.43187e-05" y="0" width="46.9097" height="40.9832" filterUnits="userSpaceOnUse" color-interpolation-filters="sRGB">
<feFlood flood-opacity="0" result="BackgroundImageFix"/>
<feColorMatrix in="SourceAlpha" type="matrix" values="0 0 0 0 0 0 0 0 0 0 0 0 0 0 0 0 0 0 127 0" result="hardAlpha"/>
<feOffset dy="3.6"/>
<feGaussianBlur stdDeviation="1.8"/>
<feComposite in2="hardAlpha" operator="out"/>
<feColorMatrix type="matrix" values="0 0 0 0 0 0 0 0 0 0 0 0 0 0 0 0 0 0 0.25 0"/>
<feBlend mode="normal" in2="BackgroundImageFix" result="effect1_dropShadow_694_407"/>
<feBlend mode="normal" in="SourceGraphic" in2="effect1_dropShadow_694_407" result="shape"/>
<feColorMatrix in="SourceAlpha" type="matrix" values="0 0 0 0 0 0 0 0 0 0 0 0 0 0 0 0 0 0 127 0" result="hardAlpha"/>
<feOffset dy="3.6"/>
<feGaussianBlur stdDeviation="4.5"/>
<feComposite in2="hardAlpha" operator="arithmetic" k2="-1" k3="1"/>
<feColorMatrix type="matrix" values="0 0 0 0 0 0 0 0 0 0 0 0 0 0 0 0 0 0 0.25 0"/>
<feBlend mode="normal" in2="shape" result="effect2_innerShadow_694_407"/>
</filter>
<linearGradient id="paint0_linear_694_407" x1="23.3625" y1="6.20312" x2="23.3625" y2="32.3532" gradientUnits="userSpaceOnUse">
<stop stop-color="#F7FFFF"/>
<stop offset="0.5" stop-color="#E2F5FD"/>
<stop offset="1" stop-color="#C3E3FF"/>
</linearGradient>
<radialGradient id="paint1_radial_694_407" cx="0" cy="0" r="1" gradientUnits="userSpaceOnUse" gradientTransform="translate(34.5642 22.9932) rotate(48.1891) scale(5.56893)">
<stop stop-color="#FFEAC9"/>
<stop offset="1" stop-color="#FF9B00"/>
</radialGradient>
<linearGradient id="paint2_linear_694_407" x1="36.6283" y1="8.30371" x2="36.6283" y2="21.356" gradientUnits="userSpaceOnUse">
<stop stop-color="#FF9B00"/>
<stop offset="1" stop-color="#FFC265"/>
</linearGradient>
<linearGradient id="paint3_linear_694_407" x1="23.4088" y1="1.22266" x2="23.4088" y2="6.6187" gradientUnits="userSpaceOnUse">
<stop stop-color="#5F91FF"/>
<stop offset="0.5" stop-color="#4877E4"/>
<stop offset="1" stop-color="#305CC9"/>
</linearGradient>
<linearGradient id="paint4_linear_694_407" x1="23.4549" y1="0.991699" x2="23.4549" y2="32.7914" gradientUnits="userSpaceOnUse">
<stop stop-color="#B9CFFF"/>
<stop offset="1" stop-color="#97B8FF"/>
</linearGradient>
</defs>
</svg>
