<svg width="48" height="42" viewBox="0 0 48 42" fill="none" xmlns="http://www.w3.org/2000/svg">
<g filter="url(#filter0_d_790_249)">
<path d="M41.2351 26.3481L40.6576 5.20342C40.6163 3.69198 39.2966 2.53589 37.7928 2.69393L19.5695 4.60928C19.0024 4.66889 18.4314 4.53999 17.9449 4.24252L16.0575 3.08853C15.571 2.79105 15 2.66215 14.4329 2.72176L6.05327 3.6025C4.6282 3.75228 3.59437 5.02894 3.74415 6.45401L6.21066 29.9213C6.36077 31.3495 7.64247 32.3841 9.07019 32.2296L38.9207 28.9983C40.2649 28.8528 41.272 27.6995 41.2351 26.3481Z" fill="#FECD62" stroke="#CD9C08" stroke-width="0.259453"/>
<rect width="33.0417" height="22.3547" rx="1.55672" transform="matrix(0.996195 -0.0871557 0.104528 0.994522 5.66193 8.99561)" fill="white" fill-opacity="0.8"/>
<g filter="url(#filter1_i_790_249)">
<path d="M6.60094 29.97L8.10268 15.6819C8.25246 14.2569 9.53107 13.0004 10.9585 12.8755L19.6729 12.1131C20.1653 12.07 20.6622 11.8874 21.1051 11.5868L23.0212 10.2864C23.4683 9.98301 23.9703 9.79988 24.467 9.75902L33.8389 8.98807L41.3175 8.37285C42.7716 8.25324 43.8068 9.35606 43.6071 10.8119L41.4276 26.7013C41.2376 28.0866 39.9947 29.2861 38.6088 29.4215L8.94127 32.3217C7.50181 32.4624 6.45006 31.4056 6.60094 29.97Z" fill="#FEDF77" fill-opacity="0.8"/>
</g>
<path d="M6.60094 29.97L8.10268 15.6819C8.25246 14.2569 9.53107 13.0004 10.9585 12.8755L19.6729 12.1131C20.1653 12.07 20.6622 11.8874 21.1051 11.5868L23.0212 10.2864C23.4683 9.98301 23.9703 9.79988 24.467 9.75902L33.8389 8.98807L41.3175 8.37285C42.7716 8.25324 43.8068 9.35606 43.6071 10.8119L41.4276 26.7013C41.2376 28.0866 39.9947 29.2861 38.6088 29.4215L8.94127 32.3217C7.50181 32.4624 6.45006 31.4056 6.60094 29.97Z" stroke="#CD9C08" stroke-width="0.259453"/>
<g filter="url(#filter2_d_790_249)">
<g filter="url(#filter3_d_790_249)">
<g filter="url(#filter4_dii_790_249)">
<path d="M30.8021 30.2515L32.053 20.8808C32.1155 20.4133 32.387 19.9995 32.7911 19.7561C33.0931 19.5743 33.448 19.5006 33.7975 19.5472L35.4972 19.7741C35.8545 19.8218 36.1782 20.0095 36.3971 20.2959C36.6213 20.589 36.7165 20.9607 36.6611 21.3256L35.1866 31.0231C35.1188 31.4693 34.8805 31.8718 34.522 32.1459C34.1547 32.4266 33.6909 32.55 33.2327 32.4888L32.4307 32.3818C31.991 32.3231 31.5858 32.1121 31.2856 31.7855C30.9048 31.3713 30.7277 30.8092 30.8021 30.2515Z" fill="url(#paint0_linear_790_249)"/>
</g>
<g filter="url(#filter5_di_790_249)">
<path d="M32.9258 11.2956L34.4313 10.683L33.9511 14.28L36.5489 14.6267L37.0291 11.0298L38.3212 12.0159L38.959 12.5761C39.2429 12.8255 39.3834 13.2002 39.3334 13.5747L39.1734 14.7737L39.004 16.0426C38.9575 16.3908 38.8305 16.7235 38.6332 17.0142C38.4966 17.2155 38.3268 17.3947 38.1335 17.5424C37.738 17.8448 37.2518 18.0132 36.7539 18.0178L36.0954 18.0238L35.8755 19.6714C35.8621 19.7716 35.8365 19.8698 35.7992 19.9638L35.7303 20.1376C35.6172 20.4224 35.3665 20.6298 35.0655 20.6874C34.9709 20.7055 34.874 20.7082 34.7785 20.6955L34.2636 20.6268C34.1704 20.6143 34.0791 20.5905 33.9918 20.5559C33.5972 20.3993 33.321 20.038 33.2734 19.6161C33.2629 19.5227 33.2638 19.4284 33.2763 19.3353L33.4976 17.6771L32.814 17.4845C32.3632 17.3575 31.9548 17.112 31.631 16.7737L31.5335 16.6718C31.3356 16.4649 31.1849 16.2176 31.0919 15.9468C30.9921 15.6564 30.9613 15.3466 31.0019 15.0422L31.1802 13.7067L31.2868 12.9078C31.3219 12.6447 31.4179 12.3933 31.5669 12.1737C31.7496 11.9046 32.0052 11.6932 32.3037 11.5643L32.9258 11.2956Z" fill="url(#paint1_linear_790_249)"/>
</g>
</g>
<g filter="url(#filter6_d_790_249)">
<g filter="url(#filter7_di_790_249)">
<path d="M25.2831 32.4963L24.8944 19.4706C24.8797 18.978 25.1319 18.5158 25.554 18.2616C25.7658 18.134 26.0082 18.0665 26.2554 18.066L27.7048 18.0636C27.9603 18.0632 28.2111 18.1322 28.4304 18.2633C28.8494 18.5137 29.109 18.963 29.1166 19.4511L29.3239 32.6052C29.3278 32.852 29.2798 33.0968 29.1829 33.3238C28.9065 33.9716 28.2707 34.3925 27.5663 34.3936L27.2418 34.3942C26.5398 34.3954 25.891 34.0203 25.5416 33.4114C25.3815 33.1322 25.2927 32.8179 25.2831 32.4963Z" fill="url(#paint2_linear_790_249)"/>
</g>
<g filter="url(#filter8_di_790_249)">
<path d="M25.6758 17.9571L25.674 16.8574L28.0932 16.8534L28.0954 18.1463C28.0959 18.445 27.9777 18.7317 27.7668 18.9433C27.556 19.1548 27.2697 19.274 26.9709 19.2745L26.95 19.2745C26.6954 19.2749 26.4475 19.1928 26.2436 19.0403L26.2054 19.0118C25.8728 18.7632 25.6765 18.3724 25.6758 17.9571Z" fill="url(#paint3_linear_790_249)"/>
</g>
<g filter="url(#filter9_i_790_249)">
<path d="M23.4722 12.4027L23.0465 12.8298L24.2621 16.4567C24.5147 16.8341 24.9391 17.0603 25.3932 17.0596L28.4215 17.0545C28.4685 17.0544 28.5124 17.0308 28.5384 16.9917L28.8897 16.4628C30.1306 14.5947 32.31 13.5747 34.5394 13.8186L34.2174 13.6583C33.8945 13.4975 33.5848 13.3117 33.2909 13.1026L32.9797 12.8811C32.5428 12.5701 32.0558 12.3363 31.5399 12.1898C31.1204 12.0707 30.6863 12.0107 30.2502 12.0114L25.0611 12.0201L24.3889 12.0212C24.0448 12.0218 23.7151 12.159 23.4722 12.4027Z" fill="url(#paint4_linear_790_249)"/>
</g>
<path d="M22.8509 16.459L23.4944 16.458C23.987 16.4571 24.4413 16.1925 24.6849 15.7644C24.8031 15.5568 24.865 15.322 24.8646 15.0832L24.8639 14.6562C24.8633 14.2609 24.6986 13.8836 24.4091 13.6143C24.1446 13.3683 23.7966 13.2318 23.4354 13.2324L22.8455 13.2334L22.8509 16.459Z" fill="url(#paint5_linear_790_249)"/>
<path d="M22.5345 17.8709L20.0309 17.8751L19.8208 12.8354L22.3605 12.6497C22.5454 12.6362 22.7305 12.6727 22.8964 12.7553C22.9958 12.8048 23.0866 12.87 23.1652 12.9484L23.3921 13.1745C23.5644 13.3462 23.7079 13.5446 23.8171 13.762C23.9747 14.076 24.0571 14.4225 24.0577 14.7738L24.0585 15.2475L24.0605 16.4408C24.0607 16.5851 24.0377 16.7286 23.9923 16.8656C23.9063 17.125 23.7433 17.3519 23.5251 17.5162L23.4707 17.5571C23.2008 17.7602 22.8723 17.8703 22.5345 17.8709Z" fill="url(#paint6_linear_790_249)"/>
<path d="M18.942 13.3129L19.0994 13.155C19.4097 12.8437 19.8843 12.7658 20.2777 12.9617C20.3759 13.0106 20.4656 13.0751 20.5433 13.1525L20.6768 13.2856C20.7786 13.387 20.8701 13.4983 20.95 13.6177L20.9647 13.6396C21.1426 13.9055 21.2666 14.2036 21.3299 14.5171L21.3696 14.7138C21.4147 14.9373 21.4376 15.1648 21.4379 15.3928L21.4381 15.4993C21.4387 15.8703 21.3939 16.24 21.3045 16.6001L21.2388 16.8647L21.138 17.1179C20.9564 17.5742 20.5153 17.8739 20.0242 17.8747C19.8951 17.8749 19.7668 17.8543 19.6443 17.8137L19.6224 17.8064C19.3631 17.7205 19.1361 17.5575 18.9718 17.3392L18.8911 17.2319C18.7119 16.9939 18.5956 16.7144 18.553 16.4195L18.4816 15.9256C18.4367 15.6152 18.4313 15.3004 18.4654 14.9886L18.5618 14.1073C18.5947 13.807 18.7288 13.5268 18.942 13.3129Z" fill="url(#paint7_linear_790_249)"/>
</g>
</g>
</g>
<defs>
<filter id="filter0_d_790_249" x="-2.43187e-05" y="2.5498" width="47.3618" height="39.0442" filterUnits="userSpaceOnUse" color-interpolation-filters="sRGB">
<feFlood flood-opacity="0" result="BackgroundImageFix"/>
<feColorMatrix in="SourceAlpha" type="matrix" values="0 0 0 0 0 0 0 0 0 0 0 0 0 0 0 0 0 0 127 0" result="hardAlpha"/>
<feOffset dy="3.6"/>
<feGaussianBlur stdDeviation="1.8"/>
<feComposite in2="hardAlpha" operator="out"/>
<feColorMatrix type="matrix" values="0 0 0 0 0 0 0 0 0 0 0 0 0 0 0 0 0 0 0.25 0"/>
<feBlend mode="normal" in2="BackgroundImageFix" result="effect1_dropShadow_790_249"/>
<feBlend mode="normal" in="SourceGraphic" in2="effect1_dropShadow_790_249" result="shape"/>
</filter>
<filter id="filter1_i_790_249" x="6.4566" y="8.23438" width="37.3052" height="24.7484" filterUnits="userSpaceOnUse" color-interpolation-filters="sRGB">
<feFlood flood-opacity="0" result="BackgroundImageFix"/>
<feBlend mode="normal" in="SourceGraphic" in2="BackgroundImageFix" result="shape"/>
<feColorMatrix in="SourceAlpha" type="matrix" values="0 0 0 0 0 0 0 0 0 0 0 0 0 0 0 0 0 0 127 0" result="hardAlpha"/>
<feOffset dy="0.518906"/>
<feGaussianBlur stdDeviation="0.259453"/>
<feComposite in2="hardAlpha" operator="arithmetic" k2="-1" k3="1"/>
<feColorMatrix type="matrix" values="0 0 0 0 1 0 0 0 0 1 0 0 0 0 1 0 0 0 1 0"/>
<feBlend mode="normal" in2="shape" result="effect1_innerShadow_790_249"/>
</filter>
<filter id="filter2_d_790_249" x="17.9244" y="10.6831" width="21.9379" height="24.7487" filterUnits="userSpaceOnUse" color-interpolation-filters="sRGB">
<feFlood flood-opacity="0" result="BackgroundImageFix"/>
<feColorMatrix in="SourceAlpha" type="matrix" values="0 0 0 0 0 0 0 0 0 0 0 0 0 0 0 0 0 0 127 0" result="hardAlpha"/>
<feOffset dy="0.518906"/>
<feGaussianBlur stdDeviation="0.259453"/>
<feComposite in2="hardAlpha" operator="out"/>
<feColorMatrix type="matrix" values="0 0 0 0 0 0 0 0 0 0 0 0 0 0 0 0 0 0 0.25 0"/>
<feBlend mode="normal" in2="BackgroundImageFix" result="effect1_dropShadow_790_249"/>
<feBlend mode="normal" in="SourceGraphic" in2="effect1_dropShadow_790_249" result="shape"/>
</filter>
<filter id="filter3_d_790_249" x="30.526" y="10.1642" width="9.59573" height="22.8591" filterUnits="userSpaceOnUse" color-interpolation-filters="sRGB">
<feFlood flood-opacity="0" result="BackgroundImageFix"/>
<feColorMatrix in="SourceAlpha" type="matrix" values="0 0 0 0 0 0 0 0 0 0 0 0 0 0 0 0 0 0 127 0" result="hardAlpha"/>
<feOffset dx="0.259453"/>
<feGaussianBlur stdDeviation="0.259453"/>
<feComposite in2="hardAlpha" operator="out"/>
<feColorMatrix type="matrix" values="0 0 0 0 0 0 0 0 0 0 0 0 0 0 0 0 0 0 0.25 0"/>
<feBlend mode="normal" in2="BackgroundImageFix" result="effect1_dropShadow_790_249"/>
<feBlend mode="normal" in="SourceGraphic" in2="effect1_dropShadow_790_249" result="shape"/>
</filter>
<filter id="filter4_dii_790_249" x="30.2666" y="19.0148" width="6.92886" height="14.5274" filterUnits="userSpaceOnUse" color-interpolation-filters="sRGB">
<feFlood flood-opacity="0" result="BackgroundImageFix"/>
<feColorMatrix in="SourceAlpha" type="matrix" values="0 0 0 0 0 0 0 0 0 0 0 0 0 0 0 0 0 0 127 0" result="hardAlpha"/>
<feOffset dy="0.518906"/>
<feGaussianBlur stdDeviation="0.259453"/>
<feComposite in2="hardAlpha" operator="out"/>
<feColorMatrix type="matrix" values="0 0 0 0 0 0 0 0 0 0 0 0 0 0 0 0 0 0 0.25 0"/>
<feBlend mode="normal" in2="BackgroundImageFix" result="effect1_dropShadow_790_249"/>
<feBlend mode="normal" in="SourceGraphic" in2="effect1_dropShadow_790_249" result="shape"/>
<feColorMatrix in="SourceAlpha" type="matrix" values="0 0 0 0 0 0 0 0 0 0 0 0 0 0 0 0 0 0 127 0" result="hardAlpha"/>
<feOffset dx="-0.259453" dy="-0.518906"/>
<feGaussianBlur stdDeviation="0.259453"/>
<feComposite in2="hardAlpha" operator="arithmetic" k2="-1" k3="1"/>
<feColorMatrix type="matrix" values="0 0 0 0 0.835294 0 0 0 0 0.305882 0 0 0 0 0.152941 0 0 0 0.75 0"/>
<feBlend mode="normal" in2="shape" result="effect2_innerShadow_790_249"/>
<feColorMatrix in="SourceAlpha" type="matrix" values="0 0 0 0 0 0 0 0 0 0 0 0 0 0 0 0 0 0 127 0" result="hardAlpha"/>
<feOffset dx="1.03781" dy="0.129726"/>
<feGaussianBlur stdDeviation="0.259453"/>
<feComposite in2="hardAlpha" operator="arithmetic" k2="-1" k3="1"/>
<feColorMatrix type="matrix" values="0 0 0 0 0.835294 0 0 0 0 0.305882 0 0 0 0 0.152941 0 0 0 0.75 0"/>
<feBlend mode="normal" in2="effect2_innerShadow_790_249" result="effect3_innerShadow_790_249"/>
</filter>
<filter id="filter5_di_790_249" x="30.4656" y="10.4237" width="9.3967" height="11.0583" filterUnits="userSpaceOnUse" color-interpolation-filters="sRGB">
<feFlood flood-opacity="0" result="BackgroundImageFix"/>
<feColorMatrix in="SourceAlpha" type="matrix" values="0 0 0 0 0 0 0 0 0 0 0 0 0 0 0 0 0 0 127 0" result="hardAlpha"/>
<feOffset dy="0.259453"/>
<feGaussianBlur stdDeviation="0.259453"/>
<feComposite in2="hardAlpha" operator="out"/>
<feColorMatrix type="matrix" values="0 0 0 0 0 0 0 0 0 0 0 0 0 0 0 0 0 0 0.25 0"/>
<feBlend mode="normal" in2="BackgroundImageFix" result="effect1_dropShadow_790_249"/>
<feBlend mode="normal" in="SourceGraphic" in2="effect1_dropShadow_790_249" result="shape"/>
<feColorMatrix in="SourceAlpha" type="matrix" values="0 0 0 0 0 0 0 0 0 0 0 0 0 0 0 0 0 0 127 0" result="hardAlpha"/>
<feOffset dx="-0.259453"/>
<feGaussianBlur stdDeviation="0.259453"/>
<feComposite in2="hardAlpha" operator="arithmetic" k2="-1" k3="1"/>
<feColorMatrix type="matrix" values="0 0 0 0 1 0 0 0 0 1 0 0 0 0 1 0 0 0 1 0"/>
<feBlend mode="normal" in2="shape" result="effect2_innerShadow_790_249"/>
</filter>
<filter id="filter6_d_790_249" x="18.4433" y="11.8815" width="17.2637" height="23.4206" filterUnits="userSpaceOnUse" color-interpolation-filters="sRGB">
<feFlood flood-opacity="0" result="BackgroundImageFix"/>
<feColorMatrix in="SourceAlpha" type="matrix" values="0 0 0 0 0 0 0 0 0 0 0 0 0 0 0 0 0 0 127 0" result="hardAlpha"/>
<feOffset dx="0.648632" dy="0.389179"/>
<feGaussianBlur stdDeviation="0.259453"/>
<feComposite in2="hardAlpha" operator="out"/>
<feColorMatrix type="matrix" values="0 0 0 0 0 0 0 0 0 0 0 0 0 0 0 0 0 0 0.25 0"/>
<feBlend mode="normal" in2="BackgroundImageFix" result="effect1_dropShadow_790_249"/>
<feBlend mode="normal" in="SourceGraphic" in2="effect1_dropShadow_790_249" result="shape"/>
</filter>
<filter id="filter7_di_790_249" x="24.3749" y="18.0635" width="5.46811" height="17.3684" filterUnits="userSpaceOnUse" color-interpolation-filters="sRGB">
<feFlood flood-opacity="0" result="BackgroundImageFix"/>
<feColorMatrix in="SourceAlpha" type="matrix" values="0 0 0 0 0 0 0 0 0 0 0 0 0 0 0 0 0 0 127 0" result="hardAlpha"/>
<feOffset dy="0.518906"/>
<feGaussianBlur stdDeviation="0.259453"/>
<feComposite in2="hardAlpha" operator="out"/>
<feColorMatrix type="matrix" values="0 0 0 0 0 0 0 0 0 0 0 0 0 0 0 0 0 0 0.25 0"/>
<feBlend mode="normal" in2="BackgroundImageFix" result="effect1_dropShadow_790_249"/>
<feBlend mode="normal" in="SourceGraphic" in2="effect1_dropShadow_790_249" result="shape"/>
<feColorMatrix in="SourceAlpha" type="matrix" values="0 0 0 0 0 0 0 0 0 0 0 0 0 0 0 0 0 0 127 0" result="hardAlpha"/>
<feOffset dx="0.129726" dy="0.259453"/>
<feGaussianBlur stdDeviation="0.259453"/>
<feComposite in2="hardAlpha" operator="arithmetic" k2="-1" k3="1"/>
<feColorMatrix type="matrix" values="0 0 0 0 1 0 0 0 0 1 0 0 0 0 1 0 0 0 0.5 0"/>
<feBlend mode="normal" in2="shape" result="effect2_innerShadow_790_249"/>
</filter>
<filter id="filter8_di_790_249" x="25.1551" y="16.5941" width="3.4592" height="3.45871" filterUnits="userSpaceOnUse" color-interpolation-filters="sRGB">
<feFlood flood-opacity="0" result="BackgroundImageFix"/>
<feColorMatrix in="SourceAlpha" type="matrix" values="0 0 0 0 0 0 0 0 0 0 0 0 0 0 0 0 0 0 127 0" result="hardAlpha"/>
<feOffset dy="0.259453"/>
<feGaussianBlur stdDeviation="0.259453"/>
<feComposite in2="hardAlpha" operator="out"/>
<feColorMatrix type="matrix" values="0 0 0 0 0 0 0 0 0 0 0 0 0 0 0 0 0 0 0.25 0"/>
<feBlend mode="normal" in2="BackgroundImageFix" result="effect1_dropShadow_790_249"/>
<feBlend mode="normal" in="SourceGraphic" in2="effect1_dropShadow_790_249" result="shape"/>
<feColorMatrix in="SourceAlpha" type="matrix" values="0 0 0 0 0 0 0 0 0 0 0 0 0 0 0 0 0 0 127 0" result="hardAlpha"/>
<feOffset dy="0.389179"/>
<feGaussianBlur stdDeviation="0.259453"/>
<feComposite in2="hardAlpha" operator="arithmetic" k2="-1" k3="1"/>
<feColorMatrix type="matrix" values="0 0 0 0 0 0 0 0 0 0 0 0 0 0 0 0 0 0 0.25 0"/>
<feBlend mode="normal" in2="shape" result="effect2_innerShadow_790_249"/>
</filter>
<filter id="filter9_i_790_249" x="23.0464" y="12.0112" width="11.493" height="5.56725" filterUnits="userSpaceOnUse" color-interpolation-filters="sRGB">
<feFlood flood-opacity="0" result="BackgroundImageFix"/>
<feBlend mode="normal" in="SourceGraphic" in2="BackgroundImageFix" result="shape"/>
<feColorMatrix in="SourceAlpha" type="matrix" values="0 0 0 0 0 0 0 0 0 0 0 0 0 0 0 0 0 0 127 0" result="hardAlpha"/>
<feOffset dy="0.518906"/>
<feGaussianBlur stdDeviation="0.259453"/>
<feComposite in2="hardAlpha" operator="arithmetic" k2="-1" k3="1"/>
<feColorMatrix type="matrix" values="0 0 0 0 1 0 0 0 0 1 0 0 0 0 1 0 0 0 0.75 0"/>
<feBlend mode="normal" in2="shape" result="effect1_innerShadow_790_249"/>
</filter>
<linearGradient id="paint0_linear_790_249" x1="35.2816" y1="25.6437" x2="31.6847" y2="25.1635" gradientUnits="userSpaceOnUse">
<stop stop-color="#FF9345"/>
<stop offset="1" stop-color="#C35200"/>
</linearGradient>
<linearGradient id="paint1_linear_790_249" x1="31.956" y1="12.6056" x2="40.221" y2="18.1425" gradientUnits="userSpaceOnUse">
<stop stop-color="#D9D9D9"/>
<stop offset="1" stop-color="#737373"/>
</linearGradient>
<linearGradient id="paint2_linear_790_249" x1="25.6875" y1="24.9215" x2="28.5103" y2="25.1184" gradientUnits="userSpaceOnUse">
<stop stop-color="#5F91FF"/>
<stop offset="0.5" stop-color="#4877E4"/>
<stop offset="1" stop-color="#305CC9"/>
</linearGradient>
<linearGradient id="paint3_linear_790_249" x1="26.7375" y1="17.3105" x2="28.7936" y2="19.0365" gradientUnits="userSpaceOnUse">
<stop stop-color="#D9D9D9"/>
<stop offset="1" stop-color="#737373"/>
</linearGradient>
<linearGradient id="paint4_linear_790_249" x1="31.7227" y1="17.2506" x2="30.7907" y2="10.6875" gradientUnits="userSpaceOnUse">
<stop stop-color="#D9D9D9"/>
<stop offset="1" stop-color="#737373"/>
</linearGradient>
<linearGradient id="paint5_linear_790_249" x1="24.4237" y1="12.4538" x2="25.7274" y2="13.9855" gradientUnits="userSpaceOnUse">
<stop stop-color="#D9D9D9"/>
<stop offset="1" stop-color="#737373"/>
</linearGradient>
<linearGradient id="paint6_linear_790_249" x1="22.0385" y1="12.8317" x2="25.478" y2="19.2378" gradientUnits="userSpaceOnUse">
<stop offset="0.0163364" stop-color="#D9D9D9"/>
<stop offset="1" stop-color="#737373"/>
</linearGradient>
<linearGradient id="paint7_linear_790_249" x1="20.0295" y1="17.0683" x2="14.7307" y2="13.766" gradientUnits="userSpaceOnUse">
<stop stop-color="#D9D9D9"/>
<stop offset="1" stop-color="#737373"/>
</linearGradient>
</defs>
</svg>
