<svg width="39" height="40" viewBox="0 0 39 40" fill="none" xmlns="http://www.w3.org/2000/svg">
<path d="M4.60898 39.9997L0 10.3705L31.4398 4.93848L38.6825 33.9092L4.60898 39.9997Z" fill="url(#paint0_linear_805_30)"/>
<path d="M1.31683 10.1241V8.80728L30.123 4.03369L34.2381 20.0005C34.6332 23.0293 36.5975 26.091 37.5303 27.2432L36.378 27.737V30.2061V32.1814L6.25503 37.6134L5.5966 35.4735L1.31683 10.1241Z" fill="white"/>
<path d="M32.4275 12.7578L2.63369 17.8606L1.31683 10.1241V8.80728L30.123 4.03369L32.4275 12.7578Z" fill="url(#paint1_linear_805_30)"/>
<g filter="url(#filter0_d_805_30)">
<path d="M37.5303 27.2437C37.1353 27.9021 16.0766 33.0049 5.59665 35.474L2.79834 17.8611L32.4275 12.7583L34.2382 20.1656C34.2382 22.0092 36.4329 25.6525 37.5303 27.2437Z" fill="url(#paint2_linear_805_30)"/>
</g>
<g filter="url(#filter1_d_805_30)">
<path d="M6.09052 36.6265L36.3781 30.8652" stroke="#C1C1C1" stroke-width="0.230449"/>
</g>
<path d="M8.06575 11.1124C6.88058 11.1124 6.58429 10.2345 6.58429 9.79554C7.76946 8.61038 8.61444 9.5212 8.88878 10.1248C8.88878 10.6515 8.34009 11.0027 8.06575 11.1124Z" stroke="#252620" stroke-width="0.658426"/>
<path d="M24.9731 7.98493C23.9573 7.98493 23.7033 7.22201 23.7033 6.84054C24.7192 5.81059 25.4434 6.60213 25.6786 7.12664C25.6786 7.5844 25.2083 7.88957 24.9731 7.98493Z" stroke="#252620" stroke-width="0.658426"/>
<path d="M7.90103 10.947C6.97923 10.947 6.74878 10.1788 6.74878 9.79476L6.9134 7.81946L6.58418 7.98407H6.41958C5.76115 7.7207 5.59654 7.43538 5.59654 7.32564V4.03353C5.33316 2.98005 6.14522 2.93615 6.58417 3.04589C7.2426 3.04589 8.28511 7.76461 8.72406 10.124C8.59237 10.7824 8.1205 10.947 7.90103 10.947Z" fill="#D9D9D9"/>
<path d="M6.09052 4.85693V7.98446H6.58433L6.91355 7.81985C6.91355 7.02974 6.36486 5.51536 6.09052 4.85693Z" fill="#5D656C"/>
<path d="M24.8555 7.81965C24.5922 7.81965 24.1971 7.3807 24.0325 7.16123V5.0213L23.2095 5.18591C22.8144 5.05422 22.7156 4.80183 22.7156 4.69209V1.72917C22.7156 0.544005 23.0449 0.138001 23.2095 0.0831451C23.4728 -0.311911 24.3068 0.79644 24.6909 1.4C25.3493 2.05842 25.4042 5.51516 25.3493 7.16123C25.3493 7.55628 25.0201 7.76478 24.8555 7.81965Z" fill="#D9D9D9"/>
<path d="M23.2095 5.18606L23.8679 5.02146C24.263 3.83629 23.5936 2.6621 23.2095 2.22314V5.18606Z" fill="#5D656C"/>
<path d="M10.5347 21.5239C12.2124 21.6526 13.3846 19.4326 13.761 18.3066H15.2128L17.1486 29.728L14.8902 30.3715L13.4384 22.3282C13.4384 22.7143 11.5026 23.0253 10.5347 23.1325V21.5239Z" fill="#323232"/>
<path d="M18.6004 19.7544L18.4391 17.6631L26.5049 16.2153L26.6662 18.3066L25.8596 19.5935L24.8917 21.8456C24.4078 24.0977 24.7304 28.2802 24.5691 28.602C24.44 28.8594 23.0097 28.9237 22.3107 28.9237V24.7412C22.3107 23.3256 23.6012 20.0761 24.2465 18.6283C23.6012 19.1431 20.2136 19.5935 18.6004 19.7544Z" fill="#323232"/>
<path d="M10.5347 21.5239C12.2124 21.6526 13.3846 19.4326 13.761 18.3066H15.2128L17.1486 29.728L14.8902 30.3715L13.4384 22.3282C13.4384 22.7143 11.5026 23.0253 10.5347 23.1325V21.5239Z" stroke="#272727" stroke-width="0.329213"/>
<path d="M18.6004 19.7544L18.4391 17.6631L26.5049 16.2153L26.6662 18.3066L25.8596 19.5935L24.8917 21.8456C24.4078 24.0977 24.7304 28.2802 24.5691 28.602C24.44 28.8594 23.0097 28.9237 22.3107 28.9237V24.7412C22.3107 23.3256 23.6012 20.0761 24.2465 18.6283C23.6012 19.1431 20.2136 19.5935 18.6004 19.7544Z" stroke="#272727" stroke-width="0.329213"/>
<path d="M6.521 12.6744L6.93885 14.86C6.89242 15.2243 6.60457 15.8436 5.82459 15.4064L5.26746 14.86M7.63526 12.6744C7.72811 13.494 8.08096 15.0786 8.74952 14.86C9.12094 14.769 9.75235 14.1497 9.30665 12.4012M10.5602 12.2646L10.978 14.5868L12.5101 14.177" stroke="#FFF7F5" stroke-width="0.658426"/>
<path d="M4.4444 38.5176L38.5179 32.5918" stroke="#B3B3B5" stroke-width="0.197528"/>
<path d="M4.609 40L4.4444 38.6832L38.3533 32.7573L38.6826 33.9096L4.609 40Z" fill="#1F2321"/>
<defs>
<filter id="filter0_d_805_30" x="1.48149" y="12.7583" width="37.3657" height="25.3495" filterUnits="userSpaceOnUse" color-interpolation-filters="sRGB">
<feFlood flood-opacity="0" result="BackgroundImageFix"/>
<feColorMatrix in="SourceAlpha" type="matrix" values="0 0 0 0 0 0 0 0 0 0 0 0 0 0 0 0 0 0 127 0" result="hardAlpha"/>
<feOffset dy="1.31685"/>
<feGaussianBlur stdDeviation="0.658426"/>
<feComposite in2="hardAlpha" operator="out"/>
<feColorMatrix type="matrix" values="0 0 0 0 0 0 0 0 0 0 0 0 0 0 0 0 0 0 0.26 0"/>
<feBlend mode="normal" in2="BackgroundImageFix" result="effect1_dropShadow_805_30"/>
<feBlend mode="normal" in="SourceGraphic" in2="effect1_dropShadow_805_30" result="shape"/>
</filter>
<filter id="filter1_d_805_30" x="5.50931" y="30.5215" width="31.45" height="7.10712" filterUnits="userSpaceOnUse" color-interpolation-filters="sRGB">
<feFlood flood-opacity="0" result="BackgroundImageFix"/>
<feColorMatrix in="SourceAlpha" type="matrix" values="0 0 0 0 0 0 0 0 0 0 0 0 0 0 0 0 0 0 127 0" result="hardAlpha"/>
<feOffset dy="0.329213"/>
<feGaussianBlur stdDeviation="0.279831"/>
<feComposite in2="hardAlpha" operator="out"/>
<feColorMatrix type="matrix" values="0 0 0 0 0 0 0 0 0 0 0 0 0 0 0 0 0 0 0.32 0"/>
<feBlend mode="normal" in2="BackgroundImageFix" result="effect1_dropShadow_805_30"/>
<feBlend mode="normal" in="SourceGraphic" in2="effect1_dropShadow_805_30" result="shape"/>
</filter>
<linearGradient id="paint0_linear_805_30" x1="19.3413" y1="4.93848" x2="19.3413" y2="39.9997" gradientUnits="userSpaceOnUse">
<stop stop-color="#353737"/>
<stop offset="1" stop-color="#535355"/>
</linearGradient>
<linearGradient id="paint1_linear_805_30" x1="17.2837" y1="14.8977" x2="30.2876" y2="4.85673" gradientUnits="userSpaceOnUse">
<stop stop-color="#AA3E3B"/>
<stop offset="1" stop-color="#ED7479"/>
</linearGradient>
<linearGradient id="paint2_linear_805_30" x1="26.1725" y1="21.3178" x2="35.2258" y2="27.5729" gradientUnits="userSpaceOnUse">
<stop stop-color="white"/>
<stop offset="1" stop-color="#D8D9DB"/>
</linearGradient>
</defs>
</svg>
