<svg width="28" height="32" viewBox="0 0 28 32" fill="none" xmlns="http://www.w3.org/2000/svg">
<path d="M22.1156 5.01333C20.9003 3.62599 20.2306 1.84432 20.2311 0H14.7378V22.0444C14.6954 23.2374 14.1918 24.3673 13.3329 25.1963C12.4741 26.0253 11.327 26.4887 10.1333 26.4889C7.60889 26.4889 5.51111 24.4267 5.51111 21.8667C5.51111 18.8089 8.46222 16.5156 11.5022 17.4578V11.84C5.36889 11.0222 0 15.7867 0 21.8667C0 27.7867 4.90667 32 10.1156 32C15.6978 32 20.2311 27.4667 20.2311 21.8667V10.6844C22.4587 12.2842 25.1331 13.1425 27.8756 13.1378V7.64444C27.8756 7.64444 24.5333 7.80444 22.1156 5.01333Z" fill="white"/>
</svg>
