<svg width="40" height="36" viewBox="0 0 40 36" fill="none" xmlns="http://www.w3.org/2000/svg">
<path d="M18.4152 2.64261C19.4289 0.830067 22.0371 0.830067 23.0507 2.64261L39.0722 31.2927C40.062 33.0629 38.7826 35.2443 36.7545 35.2443H4.71148C2.68341 35.2443 1.4039 33.0629 2.39375 31.2927L18.4152 2.64261Z" fill="black"/>
<path d="M16.3632 1.35941C17.3767 -0.453136 19.985 -0.453136 20.9987 1.35941L37.0201 30.0095C38.0101 31.7796 36.7305 33.9611 34.7024 33.9611H2.65936C0.631288 33.9611 -0.648226 31.7796 0.341625 30.0095L16.3632 1.35941Z" fill="url(#paint0_linear_790_291)"/>
<path d="M16.3632 1.35941C17.3767 -0.453136 19.985 -0.453136 20.9987 1.35941L37.0201 30.0095C38.0101 31.7796 36.7305 33.9611 34.7024 33.9611H2.65936C0.631288 33.9611 -0.648226 31.7796 0.341625 30.0095L16.3632 1.35941Z" fill="url(#paint1_radial_790_291)" fill-opacity="0.5"/>
<path d="M18.8757 29.7601C20.1066 29.7601 21.1044 28.7623 21.1044 27.5314C21.1044 26.3005 20.1066 25.3027 18.8757 25.3027C17.6448 25.3027 16.647 26.3005 16.647 27.5314C16.647 28.7623 17.6448 29.7601 18.8757 29.7601Z" fill="url(#paint2_radial_790_291)"/>
<path d="M15.7308 15.7194C15.7308 12.9989 16.2051 9.4854 18.9252 9.52872C21.6236 9.57168 21.9959 13.0208 21.9959 15.7194C21.9959 19.0377 20.5348 23.5446 18.9252 23.5446C17.7366 23.5446 15.7308 18.9881 15.7308 15.7194Z" fill="url(#paint3_linear_790_291)"/>
<defs>
<linearGradient id="paint0_linear_790_291" x1="18.6809" y1="-2.78521" x2="18.6809" y2="46.2099" gradientUnits="userSpaceOnUse">
<stop stop-color="#FFED7B"/>
<stop offset="0.5" stop-color="#FFDB00"/>
<stop offset="1" stop-color="#AB9403"/>
</linearGradient>
<radialGradient id="paint1_radial_790_291" cx="0" cy="0" r="1" gradientUnits="userSpaceOnUse" gradientTransform="translate(3.93105 20.1733) rotate(32.3578) scale(19.8905 53.8355)">
<stop offset="0.0242261" stop-color="white"/>
<stop offset="1" stop-color="#FFE10A"/>
</radialGradient>
<radialGradient id="paint2_radial_790_291" cx="0" cy="0" r="1" gradientTransform="matrix(3.98683 4.45733 -4.45733 3.98684 16.647 25.3027)" gradientUnits="userSpaceOnUse">
<stop stop-color="white"/>
<stop offset="0.644231"/>
</radialGradient>
<linearGradient id="paint3_linear_790_291" x1="18.8635" y1="9.52831" x2="18.8635" y2="23.5446" gradientUnits="userSpaceOnUse">
<stop/>
<stop offset="1" stop-color="#484848"/>
</linearGradient>
</defs>
</svg>
