<svg width="36" height="39" viewBox="0 0 36 39" fill="none" xmlns="http://www.w3.org/2000/svg">
<path d="M35.0442 32.2103C35.6146 32.8631 35.9241 33.7243 35.9078 34.6132C35.8915 35.5022 35.5506 36.3499 34.9565 36.9788C34.3625 37.6078 33.5615 37.969 32.7212 37.9869C31.881 38.0048 31.0669 37.6779 30.4494 37.0748L18.0452 23.9512L5.641 37.0748C5.34369 37.4151 4.98449 37.6883 4.58495 37.8781C4.1854 38.0679 3.75374 38.1704 3.31585 38.1794C2.87796 38.1884 2.44287 38.1037 2.03665 37.9305C1.63043 37.7573 1.26147 37.499 0.951884 37.1713C0.642297 36.8435 0.398465 36.453 0.23501 36.0231C0.0715555 35.5932 -0.00815503 35.1328 0.000658737 34.6695C0.00947251 34.2062 0.106629 33.7496 0.286302 33.327C0.465975 32.9044 0.724463 32.5246 1.04627 32.2103L13.4505 19.0867L1.04627 5.96976C0.724463 5.65544 0.465975 5.2756 0.286302 4.85301C0.106629 4.43043 0.00947251 3.9738 0.000658737 3.51052C-0.00815503 3.04724 0.0715555 2.58685 0.23501 2.15696C0.398465 1.72707 0.642297 1.33653 0.951884 1.00876C1.26147 0.680993 1.63043 0.422753 2.03665 0.249523C2.44287 0.076293 2.87796 -0.00835646 3.31585 0.000650171C3.75374 0.0096568 4.1854 0.112134 4.58495 0.301937C4.98449 0.49174 5.34369 0.764959 5.641 1.10521L18.0452 14.2255L30.4494 1.10187C31.0669 0.498751 31.881 0.171891 32.7212 0.189784C33.5615 0.207676 34.3625 0.568932 34.9565 1.19785C35.5506 1.82676 35.8915 2.67452 35.9078 3.56347C35.9241 4.45242 35.6146 5.31355 35.0442 5.96642L22.6399 19.0867L35.0442 32.2103Z" fill="#0A0D1C"/>
</svg>
