<svg width="111" height="116" viewBox="0 0 111 116" fill="none" xmlns="http://www.w3.org/2000/svg">
<mask id="mask0_378_1764" style="mask-type:alpha" maskUnits="userSpaceOnUse" x="53" y="59" width="58" height="53">
<path d="M88.1611 85.5023C91.9382 91.1401 87.6378 100.643 78.5558 106.727C69.4739 112.812 59.0496 113.174 55.2726 107.536C51.4955 101.899 55.7959 92.3958 64.8778 86.3113C73.9598 80.2268 84.384 79.8646 88.1611 85.5023Z" fill="#C679A5"/>
<path d="M105.067 63.0629C120.12 90.9339 97.4844 86.442 85.5425 96.5977C73.6007 106.753 60.4169 112.791 55.1376 106.584C49.8583 100.376 56.4607 86.4834 68.4026 76.3277C80.3444 66.172 92.6965 53.8222 105.067 63.0629Z" fill="#C679A5"/>
</mask>
<g mask="url(#mask0_378_1764)">
<path d="M88.1611 85.5023C91.9382 91.1401 87.6378 100.643 78.5558 106.727C69.4739 112.812 59.0496 113.174 55.2726 107.536C51.4955 101.899 55.7959 92.3958 64.8778 86.3113C73.9598 80.2268 84.384 79.8646 88.1611 85.5023Z" fill="#C679A5"/>
<path d="M105.067 63.0629C120.12 90.9339 97.4844 86.442 85.5425 96.5977C73.6007 106.753 60.4169 112.791 55.1376 106.584C49.8583 100.376 56.4607 86.4834 68.4026 76.3277C80.3444 66.172 92.6965 53.8222 105.067 63.0629Z" fill="#C679A5"/>
<ellipse cx="94.964" cy="55.2792" rx="34.7271" ry="23.996" transform="rotate(-26.3579 94.964 55.2792)" fill="#F1B274"/>
</g>
<mask id="mask1_378_1764" style="mask-type:alpha" maskUnits="userSpaceOnUse" x="11" y="75" width="34" height="18">
<path d="M44.4665 80.9546C43.5983 75.6646 42.0826 74.2353 32.9639 75.7319C23.8452 77.2285 10.2266 76.4281 11.0948 81.7181C12.8535 92.4339 22.4255 95.5699 34.1449 89.8982C44.8077 84.7379 44.9841 84.1083 44.4665 80.9546Z" fill="#C679A5"/>
</mask>
<g mask="url(#mask1_378_1764)">
<path d="M44.4665 80.9546C43.5983 75.6646 42.0826 74.2353 32.9639 75.7319C23.8452 77.2285 10.2266 76.4281 11.0948 81.7181C12.8535 92.4339 22.4255 95.5699 34.1449 89.8982C44.8077 84.7379 44.9841 84.1083 44.4665 80.9546Z" fill="#C679A5"/>
<path d="M50.5158 70.7548C51.9195 74.36 45.72 80.1394 36.6688 83.6635C27.6175 87.1877 16.0769 83.3573 14.6733 79.7521C13.2696 76.147 22.5344 74.1323 31.5856 70.6081C40.6368 67.084 49.1121 67.1497 50.5158 70.7548Z" fill="#F1B274"/>
</g>
<path d="M19.8989 12.3981C19.8989 19.1478 23.7979 24.6196 30.63 24.6196C37.4621 24.6196 43.0006 19.1478 43.0006 12.3981C43.0006 5.64829 38.6545 0.474609 31.8224 0.474609C24.9903 0.474609 19.8989 5.64829 19.8989 12.3981Z" fill="#F1B274"/>
<ellipse cx="12.3706" cy="12.2215" rx="12.3706" ry="12.2215" transform="matrix(-1 0 0 1 88.0118 7.33069)" fill="#C679A5"/>
<mask id="mask2_378_1764" style="mask-type:alpha" maskUnits="userSpaceOnUse" x="32" y="66" width="40" height="50">
<path d="M71.7867 89.3045C73.3644 106.899 65.3205 122.168 52.6515 112.555C41.5447 104.128 30.7852 105.92 33.2313 89.3045C35.9013 71.1667 43.5153 66.0538 52.6515 66.0538C65.2676 66.0538 70.0066 69.4535 71.7867 89.3045Z" fill="#F0BC89"/>
</mask>
<g mask="url(#mask2_378_1764)">
<path d="M71.7867 89.3046C73.3644 106.899 68.5545 112.555 52.6515 112.555C40.0354 112.555 30.7852 105.92 33.2313 89.3046C35.9013 71.1668 43.5153 66.0538 52.6515 66.0538C65.2676 66.0538 70.0066 69.4535 71.7867 89.3046Z" fill="#C679A5"/>
<path d="M72.4295 88.112C72.4295 101.612 63.2877 112.555 52.0106 112.555C40.7336 112.555 32.1879 108.766 32.1879 95.266C32.1879 81.7665 40.7336 63.6689 52.0106 63.6689C63.2877 63.6689 72.4295 74.6124 72.4295 88.112Z" fill="#F1B274"/>
</g>
<mask id="mask3_378_1764" style="mask-type:alpha" maskUnits="userSpaceOnUse" x="19" y="16" width="58" height="58">
<path d="M19.452 45.1876C19.452 60.9919 32.9626 73.8039 49.6287 73.8039C66.2949 73.8039 76.3865 60.9919 76.3865 45.1876C76.3865 29.3832 72.2242 19.4885 49.6287 16.5713C21.0872 17.9605 19.452 29.3832 19.452 45.1876Z" fill="#F0BC89"/>
</mask>
<g mask="url(#mask3_378_1764)">
<path d="M19.452 45.1876C19.452 60.9919 32.9626 73.8039 49.6287 73.8039C66.2949 73.8039 76.3865 60.9919 76.3865 45.1876C76.3865 29.3832 72.2242 19.4885 49.6287 16.5713C21.0872 17.9605 19.452 29.3832 19.452 45.1876Z" fill="#C679A5"/>
<path d="M66.7659 41.9082C66.7659 59.1942 77.6587 76.1881 60.208 76.1881C42.7574 76.1881 7.14868 60.9827 7.14868 43.6967C7.14868 26.4107 21.2952 12.3976 38.7458 12.3976C56.1965 12.3976 66.7659 24.6222 66.7659 41.9082Z" fill="#F1B274"/>
</g>
<path d="M44.7699 37.8896C42.8531 29.6143 32.0917 27.4331 27.104 34.3089L11.0864 56.39C6.45627 62.7728 10.7789 71.7436 18.6563 72.0997L40.012 73.0649C46.5627 73.361 51.5877 67.3242 50.108 60.9358L44.7699 37.8896Z" fill="#F1B274"/>
<path d="M63.4909 73.5083C59.1304 76.6267 58.5189 78.6182 63.8943 86.1346C69.2696 93.651 71.717 105.301 76.0774 102.183C84.9103 95.8662 86.3475 86.8121 76.0774 78.8099C66.7332 71.5291 66.0905 71.6493 63.4909 73.5083Z" fill="#F1B274"/>
<path d="M59.4784 50.9091C60.7058 52.1263 61.0254 54.1266 59.8082 55.354C58.5911 56.5814 56.2981 56.5712 55.0707 55.354C53.8433 54.1368 53.3745 52.1365 54.5917 50.9091C55.8089 49.6817 58.251 49.6919 59.4784 50.9091Z" fill="#78638A"/>
<path d="M39.1929 49.4039C40.4203 50.6211 40.7399 52.6214 39.5227 53.8488C38.3055 55.0762 36.0126 55.066 34.7852 53.8488C33.5577 52.6316 33.089 50.6313 34.3062 49.4039C35.5234 48.1765 37.9655 48.1867 39.1929 49.4039Z" fill="#78638A"/>
</svg>
