<svg width="312" height="360" viewBox="0 0 312 360" fill="none" xmlns="http://www.w3.org/2000/svg">
<path d="M96.8006 297.447C112.447 276.383 125.775 292.532 155.329 282L180.826 290.777H168.077L190.677 297.447C208.757 297.447 215.982 287.149 217.334 282C228.344 282 251.408 283.755 255.58 290.777C259.752 297.798 231.821 309.617 217.334 314.649C199.37 318.862 164.369 330.939 168.077 345.543C172.713 363.799 96.8006 368.362 20.8878 337.82C-39.8424 313.385 46.1921 300.724 96.8006 297.447Z" fill="#895C17"/>
<mask id="path-2-outside-1_409_325" maskUnits="userSpaceOnUse" x="20" y="0" width="292" height="306" fill="black">
<rect fill="white" x="20" width="292" height="306"/>
<path d="M30 172V181L31.5 186.5L34 192L37.5 196L42.5 200.5L52 206L65.5 211.5L80 217.5L89.5 222.5L91 227L95 234.5L102 244L112.5 253L121.5 260L133.5 265.5L145.5 269.5L151.5 270.5L153.5 277.5L157.5 283.5L161.5 288L168 292L179 295L184.5 294.5L187.5 292L189.5 286L190.5 274.5L190 256.5H203L210 255.5L210.5 264L212.5 273.5L215.5 279L219 285L224 289.5L229 292L234.5 293.5L242.5 294.5L250.5 293L253.5 289L254 281L250.5 262.5L245 241.5L242.5 230L244 222L245.5 214L245 207.5L244 202.5L250.5 205L259.5 207.5L266.5 208.5H277.5L286.5 205L292 201L296 196L299.5 188L301 182L300.5 178.5L298.5 175L292 172.5L278.5 170.5L265 169.5L251.5 168.5L245 167.5L234.5 166.5L232 162L233.5 158L233 155.5L232 152.5L246.5 151L255.5 148.5L267 141.5L273 134.5L277 127.5L278 123V115L275.5 104.5L270 95L263.5 86.5L253.5 75.5L238 63.5L239 55.5L240 42L238 27L234.5 18L228.5 12L223 10H216L209 13L203.5 18L199 25L196.5 30.5L193.5 42V46H183.5L183 30.5L181 21.5L178 16L173.5 12L168 10H161L155.5 12L151 15L148.5 19L146.5 26L144.5 36.5L143.5 69.5L142.5 77.5L140 85L139.5 97.5L141 111L144 123L150.5 137L156.5 143.5L165 148L158 148.5L152 152.5L150.5 160L152 164.5L144 171L118 148.5L98.5 135L83 128L72.5 126.5H64L54 129.5L44 135L32.5 160.5L30 172Z"/>
</mask>
<path d="M30 172V181L31.5 186.5L34 192L37.5 196L42.5 200.5L52 206L65.5 211.5L80 217.5L89.5 222.5L91 227L95 234.5L102 244L112.5 253L121.5 260L133.5 265.5L145.5 269.5L151.5 270.5L153.5 277.5L157.5 283.5L161.5 288L168 292L179 295L184.5 294.5L187.5 292L189.5 286L190.5 274.5L190 256.5H203L210 255.5L210.5 264L212.5 273.5L215.5 279L219 285L224 289.5L229 292L234.5 293.5L242.5 294.5L250.5 293L253.5 289L254 281L250.5 262.5L245 241.5L242.5 230L244 222L245.5 214L245 207.5L244 202.5L250.5 205L259.5 207.5L266.5 208.5H277.5L286.5 205L292 201L296 196L299.5 188L301 182L300.5 178.5L298.5 175L292 172.5L278.5 170.5L265 169.5L251.5 168.5L245 167.5L234.5 166.5L232 162L233.5 158L233 155.5L232 152.5L246.5 151L255.5 148.5L267 141.5L273 134.5L277 127.5L278 123V115L275.5 104.5L270 95L263.5 86.5L253.5 75.5L238 63.5L239 55.5L240 42L238 27L234.5 18L228.5 12L223 10H216L209 13L203.5 18L199 25L196.5 30.5L193.5 42V46H183.5L183 30.5L181 21.5L178 16L173.5 12L168 10H161L155.5 12L151 15L148.5 19L146.5 26L144.5 36.5L143.5 69.5L142.5 77.5L140 85L139.5 97.5L141 111L144 123L150.5 137L156.5 143.5L165 148L158 148.5L152 152.5L150.5 160L152 164.5L144 171L118 148.5L98.5 135L83 128L72.5 126.5H64L54 129.5L44 135L32.5 160.5L30 172Z" stroke="#DAFFF5" stroke-width="20" mask="url(#path-2-outside-1_409_325)"/>
<path d="M30 172V181L31.5 186.5L34 192L37.5 196L42.5 200.5L52 206L65.5 211.5L80 217.5L89.5 222.5L91 227L95 234.5L102 244L112.5 253L121.5 260L133.5 265.5L145.5 269.5L151.5 270.5L153.5 277.5L157.5 283.5L161.5 288L168 292L179 295L184.5 294.5L187.5 292L189.5 286L190.5 274.5L190 256.5H203L210 255.5L210.5 264L212.5 273.5L215.5 279L219 285L224 289.5L229 292L234.5 293.5L242.5 294.5L250.5 293L253.5 289L254 281L250.5 262.5L245 241.5L242.5 230L244 222L245.5 214L245 207.5L244 202.5L250.5 205L259.5 207.5L266.5 208.5H277.5L286.5 205L292 201L296 196L299.5 188L301 182L300.5 178.5L298.5 175L292 172.5L278.5 170.5L265 169.5L251.5 168.5L245 167.5L234.5 166.5L232 162L233.5 158L233 155.5L232 152.5L246.5 151L255.5 148.5L267 141.5L273 134.5L277 127.5L278 123V115L275.5 104.5L270 95L263.5 86.5L253.5 75.5L238 63.5L239 55.5L240 42L238 27L234.5 18L228.5 12L223 10H216L209 13L203.5 18L199 25L196.5 30.5L193.5 42V46H183.5L183 30.5L181 21.5L178 16L173.5 12L168 10H161L155.5 12L151 15L148.5 19L146.5 26L144.5 36.5L143.5 69.5L142.5 77.5L140 85L139.5 97.5L141 111L144 123L150.5 137L156.5 143.5L165 148L158 148.5L152 152.5L150.5 160L152 164.5L144 171L118 148.5L98.5 135L83 128L72.5 126.5H64L54 129.5L44 135L32.5 160.5L30 172Z" stroke="#1A1840" stroke-width="12"/>
<path d="M170.103 161.21C180.772 168.84 182.268 173.713 169.116 192.104C155.963 210.495 149.975 239.001 139.306 231.371C117.694 215.915 114.178 193.762 139.306 174.182C162.17 156.367 163.742 156.662 170.103 161.21Z" fill="#4D548B"/>
<path d="M222.258 216.067C235.138 213.59 239.701 215.863 243.97 238.066C248.239 260.269 261.584 290.865 248.704 293.341C222.612 298.358 207.322 279.028 210.443 247.325C213.282 218.48 214.579 217.543 222.258 216.067Z" fill="#78638A"/>
<path d="M174.229 213.493C187.329 214.165 191.216 217.462 190.059 240.042C188.901 262.622 194.552 295.52 181.453 294.848C154.918 293.487 144.688 271.065 155.29 241.025C164.937 213.693 166.42 213.093 174.229 213.493Z" fill="#4D548B"/>
<mask id="mask0_409_325" style="mask-type:alpha" maskUnits="userSpaceOnUse" x="149" y="142" width="97" height="115">
<path d="M149.998 199.859C146.149 242.91 157.885 256.748 196.688 256.748C227.47 256.748 250.041 240.514 244.072 199.859C237.557 155.479 218.98 142.969 196.688 142.969C165.905 142.969 154.342 151.288 149.998 199.859Z" fill="#78638A"/>
</mask>
<g mask="url(#mask0_409_325)">
<path d="M149.998 199.859C146.149 242.91 157.885 256.748 196.688 256.748C227.47 256.748 250.041 240.514 244.072 199.859C237.557 155.479 218.98 142.969 196.688 142.969C165.905 142.969 154.342 151.288 149.998 199.859Z" fill="#4D548B"/>
<ellipse cx="211.902" cy="208.337" rx="44.3081" ry="58.257" fill="#78638A"/>
</g>
<path d="M165.061 10.0695C146.597 10.0695 143.681 21.731 143.681 76.6372C136.393 80.0383 137.126 136.402 162.392 146.606C182.605 154.769 216.728 153.895 236.973 152.437C264.184 150.493 274.387 134.945 277.303 126.199C283.911 104.819 258.353 76.6372 236.973 63.5181C241.346 51.8566 242.998 12.0131 222.397 10.0695C201.795 8.12596 194.377 33.2305 193.243 46.0258H183.525C183.525 32.4207 183.525 10.0695 165.061 10.0695Z" fill="#78638A"/>
<path d="M172.349 51.8574C141.738 80.5252 140.28 142.72 245.719 138.347C238.688 142.488 229.085 147.836 218.489 153.275C196.116 153.788 177.7 152.789 162.392 146.607C137.126 136.403 136.393 80.039 143.681 76.6379C143.681 42.5282 144.807 25.1081 150.086 16.8054L151.942 26.5908L172.349 51.8574Z" fill="#4D548B"/>
<path d="M276.974 127.129C277.093 126.811 277.202 126.501 277.303 126.199C283.911 104.82 258.353 76.6375 236.973 63.5185C240.249 54.7838 241.998 30.2385 234.012 17.6509L232.005 63.49L234.124 65.0245C240.858 69.9014 250.916 78.7646 258.948 89.2908C267.094 99.9672 272.483 111.469 271.494 121.851C271.239 124.523 273.199 126.894 275.87 127.149C276.246 127.185 276.615 127.177 276.974 127.129Z" fill="#D874D1"/>
<path d="M185.038 46.0261L184.967 46.9048C184.75 49.5796 182.406 51.5721 179.731 51.3552C177.056 51.1383 175.064 48.7942 175.281 46.1194L177.728 15.9291C183.525 23.4931 183.525 36.7796 183.525 46.0261H185.038Z" fill="#D874D1"/>
<ellipse cx="248.149" cy="94.1298" rx="7.28843" ry="11.1756" fill="#403945"/>
<ellipse cx="162.944" cy="158.7" rx="12.4978" ry="11.0637" transform="rotate(8.20516 162.944 158.7)" fill="#EE70B7"/>
<ellipse cx="184.595" cy="162.384" rx="10.9909" ry="10.5968" transform="rotate(9.74409 184.595 162.384)" fill="#EE70B7"/>
<ellipse cx="201.847" cy="163.482" rx="10.1198" ry="10.6668" fill="#EE70B7"/>
<ellipse cx="221.9" cy="158.621" rx="11.5212" ry="9.9409" transform="rotate(-17.2941 221.9 158.621)" fill="#EE70B7"/>
<mask id="mask1_409_325" style="mask-type:alpha" maskUnits="userSpaceOnUse" x="30" y="126" width="159" height="145">
<path d="M91.0961 197.989C80.56 213.715 92.5559 240.223 117.89 257.196C143.224 274.168 172.302 275.179 182.838 259.452C193.374 243.726 181.378 217.218 156.044 200.245C130.71 183.273 101.632 182.262 91.0961 197.989Z" fill="#4D548B"/>
<path d="M43.9372 135.394C1.94616 213.14 65.0891 200.61 98.4005 228.939C131.712 257.268 168.488 274.111 183.214 256.794C197.941 239.478 179.524 200.726 146.212 172.396C112.901 144.067 78.4447 109.618 43.9372 135.394Z" fill="#4D548B"/>
</mask>
<g mask="url(#mask1_409_325)">
<path d="M91.0961 197.989C80.56 213.715 92.5559 240.223 117.89 257.196C143.224 274.168 172.302 275.179 182.838 259.452C193.374 243.726 181.378 217.218 156.044 200.245C130.71 183.273 101.632 182.262 91.0961 197.989Z" fill="#78638A"/>
<path d="M43.9372 135.394C1.94616 213.14 65.0891 200.61 98.4005 228.939C131.712 257.268 168.488 274.111 183.214 256.794C197.941 239.478 179.524 200.726 146.212 172.396C112.901 144.067 78.4447 109.618 43.9372 135.394Z" fill="#78638A"/>
<ellipse cx="132.241" cy="239.97" rx="51.0312" ry="30.6509" transform="rotate(36.2182 132.241 239.97)" fill="#4D548B"/>
<ellipse cx="80.2583" cy="200.666" rx="33.3046" ry="24.3647" transform="rotate(-1.91944 80.2583 200.666)" fill="#4D548B"/>
</g>
<mask id="mask2_409_325" style="mask-type:alpha" maskUnits="userSpaceOnUse" x="218" y="166" width="83" height="43">
<path d="M219.21 181.128C221.079 168.145 224.719 164.576 247.098 167.799C269.477 171.021 302.754 168.409 300.884 181.391C297.097 207.69 273.832 215.822 244.89 202.511C218.557 190.399 218.095 188.868 219.21 181.128Z" fill="#78638A"/>
</mask>
<g mask="url(#mask2_409_325)">
<path d="M219.21 181.128C221.079 168.145 224.719 164.576 247.098 167.799C269.477 171.021 302.754 168.409 300.884 181.391C297.097 207.69 273.832 215.822 244.89 202.511C218.557 190.399 218.095 188.868 219.21 181.128Z" fill="#D874D1"/>
<path d="M293.133 198.218C290.232 211.808 271.702 226.782 245.949 221.285C220.197 215.787 201.672 200.314 204.573 186.723C207.474 173.132 230.703 166.571 256.455 172.068C282.208 177.565 296.034 184.627 293.133 198.218Z" fill="#78638A"/>
<path d="M281.648 204.103C279.57 209.736 256.578 210.218 239.996 204.103C223.415 197.987 214.749 192.759 216.827 187.126C218.904 181.494 230.938 177.588 247.52 183.704C264.101 189.82 283.725 198.47 281.648 204.103Z" fill="#4D548B"/>
</g>
</svg>
