<svg width="112" height="20" viewBox="0 0 112 20" fill="none" xmlns="http://www.w3.org/2000/svg">
<path d="M84.0965 1.14516C67.5965 -2.35484 64.0965 3.14516 54.5965 4.64516C50.9965 0.645265 45.0965 2.31178 42.5966 3.64502C38.1966 1.24502 30.0966 2.64502 26.5966 3.64502C19.3966 6.84502 12.2632 6.97835 9.5965 6.64502C0.796502 3.04502 -0.403498 5.14502 0.0965023 6.64502C4.4965 11.845 16.5965 10.8117 22.0965 9.64502C35.2965 4.44502 43.2632 8.47835 45.5965 11.145C49.9965 18.345 58.7632 19.4784 62.5965 19.145C70.9965 15.945 79.0965 15.8117 82.0965 16.145C90.4965 17.745 99.5965 15.4784 103.097 14.145C116.697 10.545 109.763 5.64502 104.597 3.64502C93.7965 4.44502 86.4298 2.31178 84.0965 1.14516Z" fill="#DAFFF5"/>
</svg>
