<svg width="182" height="184" viewBox="0 0 182 184" fill="none" xmlns="http://www.w3.org/2000/svg">
<ellipse cx="77" cy="150" rx="77" ry="34" fill="#895C17"/>
<path d="M57.756 22.6034L57.1008 22.9778L56.5853 23.5288L46.1301 34.7052L45.699 35.1659L45.396 35.7194L37.1039 50.8615L36.7841 51.4455L36.6282 52.0928L31.9414 71.5612L31.77 72.2729L31.8099 73.0038L32.8915 92.8327L32.9315 93.567L33.1813 94.2586L37.8681 107.238L38.0927 107.859L38.4711 108.401L51.8106 127.509L52.1879 128.05L52.6924 128.474L68.5555 141.814L69.362 142.492L70.3735 142.787L96.3314 150.358L97.2906 150.638L98.2836 150.527L127.486 147.282L128.532 147.166L129.442 146.639L154.318 132.218L155.213 131.699L155.828 130.868L170.249 111.4L170.874 110.556L171.107 109.532L176.515 85.7369L176.639 85.1899V84.6288V59.7525V58.4343L175.989 57.2875L163.732 35.6559L163.353 34.987L162.79 34.4629L146.927 19.6813L146.387 19.1783L145.725 18.8526L123.733 8.03683L122.887 7.621L121.948 7.54144L100.677 5.73881L99.8819 5.67139L99.105 5.85502L79.276 10.5419L78.5728 10.7081L77.9455 11.0666L57.756 22.6034Z" fill="white" stroke="#DAFFF5" stroke-width="10"/>
<path d="M49.4211 38.121L64.5632 51.821L61.3184 57.9499L63.1211 65.1604L50.8632 74.1736L41.85 84.2683L37.1632 95.0841L35 73.4526L39.6868 51.821L49.4211 38.121Z" fill="#8E4EA8"/>
<path d="M87.6367 25.8632L80.4261 42.4474L86.1946 44.9711L89.4393 51.1L105.663 45.6921L124.41 42.4474H143.879L159.021 45.6921L167.674 51.1L169.837 48.5763L149.647 24.7816L122.608 10L103.5 10.7211L96.2893 15.7684L87.6367 25.8632Z" fill="#E84DA5"/>
<path d="M78.6236 134.382L86.5552 143.034L94.1262 147L127.295 145.558L152.171 130.776L156.497 121.763L146.042 115.634L125.492 100.132L84.7525 65.8816L77.1815 71.2895H69.971L68.1683 85.7105L68.8894 100.132L71.7736 119.239L78.6236 134.382Z" fill="#F1B274"/>
<path d="M58.7483 24.3399L58.3552 24.5645L58.0459 24.8952L47.5906 36.0715L47.332 36.3479L47.1501 36.68L38.858 51.8221L38.6662 52.1725L38.5727 52.5609L33.8858 72.0293L33.783 72.4563L33.8069 72.8949L34.8885 92.7238L34.9126 93.1644L35.0624 93.5794L39.7492 106.558L39.884 106.931L40.111 107.257L53.4505 126.365L53.6769 126.689L53.9796 126.943L69.8427 140.283L70.3266 140.69L70.9335 140.867L96.8914 148.438L97.4669 148.606L98.0627 148.539L127.265 145.295L127.893 145.225L128.439 144.908L153.315 130.487L153.852 130.176L154.221 129.678L168.642 110.209L169.017 109.703L169.157 109.088L174.565 85.2937L174.639 84.9655V84.6288V59.7525V58.9616L174.249 58.2735L161.992 36.6419L161.764 36.2406L161.427 35.9261L145.563 21.1445L145.24 20.8427L144.842 20.6473L122.85 9.83153L122.343 9.58203L121.779 9.53429L100.508 7.73166L100.031 7.69122L99.565 7.80139L79.7361 12.4882L79.3142 12.588L78.9378 12.8031L58.7483 24.3399Z" stroke="#1A1840" stroke-width="6"/>
<g style="mix-blend-mode:multiply" opacity="0.4">
<path fill-rule="evenodd" clip-rule="evenodd" d="M53.0493 34.628L50.6578 38.9625L46 58.1657L47.0749 77.7245L51.7326 90.5267L64.9893 109.374L80.754 122.532L106.551 130L135.572 126.799L160.294 112.575L167.475 102.953L166.232 108.424L151.811 127.892L126.934 142.313L97.7317 145.558L71.7738 137.987L55.9106 124.647L42.5712 105.539L37.8843 92.5604L36.8027 72.7314L41.4896 53.263L49.7817 38.1209L53.0493 34.628Z" fill="#00BCD8"/>
</g>
</svg>
