<svg width="115" height="85" viewBox="0 0 115 85" fill="none" xmlns="http://www.w3.org/2000/svg">
<g style="mix-blend-mode:color-burn" opacity="0.5" filter="url(#filter0_df_378_1741)">
<mask id="mask0_378_1741" style="mask-type:alpha" maskUnits="userSpaceOnUse" x="53" y="5" width="58" height="34">
<path d="M88.1611 22.3126C91.9382 18.6865 87.6378 12.5746 78.5558 8.6612C69.4739 4.74781 59.0496 4.51487 55.2726 8.14092C51.4955 11.767 55.7959 17.8789 64.8778 21.7923C73.9598 25.7057 84.384 25.9386 88.1611 22.3126Z" fill="#C679A5"/>
<path d="M105.067 36.745C120.12 18.8191 97.4844 21.7083 85.5425 15.1764C73.6007 8.64453 60.4169 4.76105 55.1376 8.75374C49.8583 12.7464 56.4607 21.6816 68.4026 28.2134C80.3444 34.7453 92.6965 42.6884 105.067 36.745Z" fill="#C679A5"/>
</mask>
<g mask="url(#mask0_378_1741)">
<path d="M88.1611 22.3126C91.9382 18.6865 87.6378 12.5746 78.5558 8.6612C69.4739 4.74781 59.0496 4.51487 55.2726 8.14092C51.4955 11.767 55.7959 17.8789 64.8778 21.7923C73.9598 25.7057 84.384 25.9386 88.1611 22.3126Z" fill="#C679A5"/>
<path d="M105.067 36.745C120.12 18.8191 97.4844 21.7083 85.5425 15.1764C73.6007 8.64453 60.4169 4.76105 55.1376 8.75374C49.8583 12.7464 56.4607 21.6816 68.4026 28.2134C80.3444 34.7453 92.6965 42.6884 105.067 36.745Z" fill="#C679A5"/>
<ellipse cx="32.6587" cy="17.4569" rx="32.6587" ry="17.4569" transform="matrix(0.952787 0.303639 0.610285 -0.792182 53.1936 45.664)" fill="#F0BC89"/>
</g>
<mask id="mask1_378_1741" style="mask-type:alpha" maskUnits="userSpaceOnUse" x="11" y="17" width="34" height="12">
<path d="M44.4666 25.2375C43.5984 28.6398 42.0827 29.5591 32.964 28.5965C23.8453 27.634 10.2267 28.1488 11.095 24.7464C12.8537 17.8543 22.4256 15.8373 34.145 19.4852C44.8078 22.8042 44.9842 23.2091 44.4666 25.2375Z" fill="#C679A5"/>
</mask>
<g mask="url(#mask1_378_1741)">
<path d="M44.4666 25.2375C43.5984 28.6398 42.0827 29.5591 32.964 28.5965C23.8453 27.634 10.2267 28.1488 11.095 24.7464C12.8537 17.8543 22.4256 15.8373 34.145 19.4852C44.8078 22.8042 44.9842 23.2091 44.4666 25.2375Z" fill="#C679A5"/>
<path d="M50.5158 31.7976C51.9195 29.4789 45.72 25.7617 36.6688 23.4951C27.6175 21.2284 16.0769 23.692 14.6733 26.0108C13.2696 28.3295 22.5344 29.6253 31.5856 31.8919C40.6368 34.1586 49.1121 34.1163 50.5158 31.7976Z" fill="#F0BC89"/>
</g>
<path d="M19.8989 69.3312C19.8989 64.9899 23.7979 61.4706 30.63 61.4706C37.4621 61.4706 43.0006 64.9899 43.0006 69.3312C43.0006 73.6724 38.6545 77 31.8224 77C24.9903 77 19.8989 73.6724 19.8989 69.3312Z" fill="#F0BC89"/>
<ellipse cx="75.6413" cy="64.7299" rx="12.3706" ry="7.86055" transform="rotate(-180 75.6413 64.7299)" fill="#C679A5"/>
<mask id="mask2_378_1741" style="mask-type:alpha" maskUnits="userSpaceOnUse" x="32" y="3" width="40" height="32">
<path d="M71.7867 19.8671C73.3644 8.55058 65.3205 -1.26966 52.6515 4.9129C41.5447 10.3331 30.7852 9.18023 33.2313 19.8671C35.9013 31.5329 43.5153 34.8214 52.6515 34.8214C65.2676 34.8214 70.0066 32.6347 71.7867 19.8671Z" fill="#F0BC89"/>
</mask>
<g mask="url(#mask2_378_1741)">
<path d="M71.7867 19.8671C73.3644 8.55051 68.5545 4.91284 52.6515 4.91284C40.0354 4.91284 30.7852 9.18017 33.2313 19.8671C35.9013 31.5328 43.5153 34.8213 52.6515 34.8213C65.2676 34.8213 70.0066 32.6347 71.7867 19.8671Z" fill="#C679A5"/>
<path d="M72.4295 20.6341C72.4295 11.9516 63.2877 4.91301 52.0106 4.91301C40.7336 4.91301 32.1879 7.35029 32.1879 16.0328C32.1879 24.7153 40.7336 36.3552 52.0106 36.3552C63.2877 36.3552 72.4295 29.3166 72.4295 20.6341Z" fill="#F0BC89"/>
</g>
<mask id="mask3_378_1741" style="mask-type:alpha" maskUnits="userSpaceOnUse" x="19" y="29" width="58" height="38">
<path d="M19.452 48.2419C19.452 38.077 32.9626 29.8367 49.6287 29.8367C66.2949 29.8367 76.3865 38.077 76.3865 48.2419C76.3865 58.4068 72.2242 64.7708 49.6287 66.6471C21.0872 65.7536 19.452 58.4068 19.452 48.2419Z" fill="#F0BC89"/>
</mask>
<g mask="url(#mask3_378_1741)">
<path d="M19.452 48.2419C19.452 38.077 32.9626 29.8367 49.6287 29.8367C66.2949 29.8367 76.3865 38.077 76.3865 48.2419C76.3865 58.4068 72.2242 64.7708 49.6287 66.6471C21.0872 65.7536 19.452 58.4068 19.452 48.2419Z" fill="#C679A5"/>
<path d="M66.7659 50.3512C66.7659 39.2333 77.6587 28.3033 60.208 28.3033C42.7574 28.3033 7.14868 38.083 7.14868 49.2009C7.14868 60.3187 21.2952 69.3315 38.7458 69.3315C56.1965 69.3315 66.7659 61.4691 66.7659 50.3512Z" fill="#F0BC89"/>
</g>
<path d="M44.4092 53.9372C42.2156 60.0285 33.9351 61.2956 28.399 56.387L17.9355 47.1096C11.1078 41.0558 13.9834 31.0687 22.6265 30.8174L36.5772 30.4119C44.0848 30.1936 50.2464 37.7287 47.8964 44.2542L44.4092 53.9372Z" fill="#F0BC89"/>
<path d="M63.4909 30.0269C59.1304 28.0212 58.5189 26.7403 63.8943 21.906C69.2696 17.0716 71.717 9.57848 76.0774 11.5841C84.9103 15.6469 86.3475 21.4702 76.0774 26.617C66.7332 31.2998 66.0905 31.2225 63.4909 30.0269Z" fill="#F0BC89"/>
<path d="M59.4784 44.562C60.7058 43.7791 61.0254 42.4926 59.8082 41.7031C58.5911 40.9137 56.2981 40.9203 55.0707 41.7031C53.8433 42.486 53.3745 43.7725 54.5917 44.562C55.8089 45.3514 58.251 45.3448 59.4784 44.562Z" fill="#78638A"/>
<path d="M39.1929 45.5301C40.4203 44.7472 40.7399 43.4607 39.5227 42.6712C38.3055 41.8818 36.0126 41.8884 34.7852 42.6712C33.5577 43.4541 33.089 44.7406 34.3062 45.5301C35.5234 46.3195 37.9655 46.3129 39.1929 45.5301Z" fill="#78638A"/>
</g>
<defs>
<filter id="filter0_df_378_1741" x="7.05542" y="0.912842" width="107.008" height="84.0872" filterUnits="userSpaceOnUse" color-interpolation-filters="sRGB">
<feFlood flood-opacity="0" result="BackgroundImageFix"/>
<feColorMatrix in="SourceAlpha" type="matrix" values="0 0 0 0 0 0 0 0 0 0 0 0 0 0 0 0 0 0 127 0" result="hardAlpha"/>
<feOffset dy="4"/>
<feGaussianBlur stdDeviation="2"/>
<feComposite in2="hardAlpha" operator="out"/>
<feColorMatrix type="matrix" values="0 0 0 0 0 0 0 0 0 0 0 0 0 0 0 0 0 0 0.25 0"/>
<feBlend mode="normal" in2="BackgroundImageFix" result="effect1_dropShadow_378_1741"/>
<feBlend mode="normal" in="SourceGraphic" in2="effect1_dropShadow_378_1741" result="shape"/>
<feGaussianBlur stdDeviation="2" result="effect2_foregroundBlur_378_1741"/>
</filter>
</defs>
</svg>
