<svg width="647" height="796" viewBox="0 0 647 796" fill="none" xmlns="http://www.w3.org/2000/svg">
<path d="M563.756 643.87L601.842 498.395C611.203 462.641 614.961 425.65 612.984 388.744V388.744M56.2184 487.976L31.1457 361.175C30.3598 357.2 30.7996 353.08 32.4069 349.361L86.2783 224.706C87.4382 222.022 87.9955 219.117 87.911 216.194L85.2001 122.428C84.9736 114.594 89.344 107.349 96.3798 103.896L96.8839 103.649M399.117 761.681L214.705 766.529C209.861 766.656 205.135 765.02 201.407 761.926L86.0834 666.211C76.268 656.132 64.0793 623.53 60.7315 614.752M71.5143 439.201V439.201C56.3157 487.666 50.0706 539.047 56.8524 589.384C58.7653 603.582 60.3211 613.676 60.7315 614.752M60.7315 614.752L90.7986 550.264M96.8839 103.649L136.388 84.2601C138.548 83.1996 140.883 82.5378 143.279 82.3066L422 55.4099M96.8839 103.649C176.792 11.1761 361.185 -4.94895 422 55.4099M422 55.4099L448.455 52.7112C486.564 48.8237 524.469 61.7905 552.212 88.2057V88.2057C583.669 118.157 598.259 161.739 591.175 204.593L572.419 318.054C572.148 319.688 572.469 321.366 573.323 322.786L612.984 388.744M612.984 388.744C573.29 468.378 504.109 518.906 474.481 534.216" stroke="#DAFFF5" stroke-width="5"/>
<path d="M555.927 641.718C558.126 644.952 561.56 644.576 562.645 636.626L560.645 659.126L547.645 677.626C555.589 659.467 556.791 647.95 555.927 641.718C555.083 640.477 554.422 638.705 554.145 636.626C554.871 637.498 555.573 639.164 555.927 641.718Z" fill="#DAFFF5"/>
<path d="M93.6224 403.626C93.6507 404.094 93.6531 404.596 93.6224 405.114L93.6224 446.626C93.6224 438.522 83.774 417.639 81.6445 410.211C90.7769 414.917 93.3646 409.461 93.6224 405.114V403.626Z" fill="#DAFFF5"/>
<path d="M42.3679 351.419C43.5674 335.553 44.3206 322.06 40.2422 321.752C36.1639 321.443 28.7984 334.436 27.5989 350.302C26.3994 366.168 29.5741 385.49 33.6525 385.799C37.7308 386.107 41.1683 367.284 42.3679 351.419Z" fill="#DAFFF5"/>
<path d="M479.5 736.086C480.239 729.841 439.46 728.2 402.218 727.86C364.976 727.52 334.186 732.307 333.447 738.552C332.709 744.797 381.464 766.061 418.706 766.401C455.948 766.741 472 744.12 479.5 736.086Z" fill="#DAFFF5"/>
<path d="M413 66.7212L530.512 115.086L569.769 413.586L564.964 544.159L567.977 550.113C572.69 559.427 572.358 570.497 567.094 579.512C563.525 585.625 562.173 592.781 563.267 599.775L565.527 614.222C568.259 631.685 564.458 649.543 554.851 664.38L534 696.586L491.5 709.96L463.319 727.674L288 727.674L229.029 709.96L175.016 687.666L125.509 670.742L103.415 625.624L96.155 565.344L93.9337 555.888C91.6184 546.032 90.8287 535.879 91.5919 525.784L91.8593 522.247L92.1658 518.635C92.7389 511.882 92.6168 505.087 91.8015 498.358L80.4403 404.585L72.291 236.931L83.5373 211.231C86.2275 205.084 88.2217 198.655 89.4828 192.064L100.854 132.63C101.268 130.469 101.078 128.236 100.307 126.175C98.0057 120.029 101.075 113.175 107.193 110.799L190.511 78.4416L210.454 79.9494L219.73 76.6393L240.511 73.6976L267.614 66.721L413 66.7212Z" fill="#DAFFF5" stroke="#DAFFF5" stroke-width="32"/>
<path d="M274.676 720.869L118.01 675.615L105.219 651.935L77.6162 396.31L95.7935 156.472L118.01 120.004L165.136 99.36L274.2 71.5037L403.461 64.8246L503.773 100.004L529.355 112.755L542.82 156.472L566.383 418.776L549.552 657.399L529.355 692.009L451.934 716.903L274.676 720.869Z" fill="#DB9F42"/>
<path d="M489.553 168.251L489.727 166.718L489.008 165.353C486.719 161.014 482.557 154.473 477.351 148.691C472.307 143.089 465.503 137.315 457.83 136.026C446.758 134.166 434.733 131.03 429.489 129.52C425.935 127.299 421.046 125.142 416.986 123.476C414.771 122.566 412.695 121.761 411.064 121.13C409.315 120.454 408.317 120.067 407.968 119.906C406.909 119.417 405.793 119.264 405.027 119.181C404.148 119.085 403.026 119.022 401.628 118.967C399.696 118.89 396.979 118.821 393.19 118.725C391.467 118.681 389.523 118.632 387.331 118.574C373.229 118.199 348.456 117.449 304.728 115.45L303.753 115.405L302.833 115.731L242.923 136.912H200.051C199.325 136.912 198.643 137.061 198.343 137.128C197.917 137.222 197.445 137.348 196.955 137.49C195.969 137.776 194.734 138.181 193.325 138.686C190.501 139.697 186.84 141.158 182.844 142.993C174.949 146.621 165.314 151.909 158.346 158.346C154.837 161.588 152.608 164.521 151.329 167.628C150.052 170.728 149.919 173.573 149.829 175.94C149.823 176.104 149.817 176.266 149.811 176.428C149.729 178.646 149.653 180.734 149.067 183.404C148.442 186.253 147.193 189.92 144.523 194.853C134.806 212.808 130.699 237.918 129.795 266.312L129.778 266.826L129.867 267.332L145.863 358.792L135.286 411.853L135.156 412.505L135.201 413.168L143.923 542.299L145.074 607.652L145.097 608.933L145.732 610.044C146.547 611.47 147.517 613.983 148.876 617.647C148.961 617.875 149.047 618.107 149.134 618.342C150.368 621.673 151.825 625.605 153.565 629.535C157.164 637.669 162.55 647.223 171.273 651.562C178.561 655.188 194.855 661.741 212.012 667.6C229.06 673.423 247.702 678.821 259.493 679.811L259.56 679.817L259.626 679.821C268.607 680.333 277.785 681.174 286.809 682.011L287.641 682.088C296.343 682.894 304.909 683.688 312.845 684.141C321.018 684.607 328.715 684.725 335.38 684.084C341.161 683.528 346.607 682.367 350.994 680.039C353.314 680.413 355.982 680.916 358.978 681.482C360.121 681.697 361.312 681.922 362.549 682.152C367.762 683.121 373.638 684.149 379.669 684.843C391.466 686.2 404.786 686.409 415.254 681.62C423.76 678.201 436.91 675.184 449.487 672.397C450.248 672.229 451.007 672.061 451.761 671.894C457.162 670.7 462.355 669.551 466.756 668.453C471.602 667.243 476.086 665.957 478.846 664.523C480.732 663.542 482.36 661.989 483.706 660.448C485.102 658.85 486.468 656.945 487.774 654.925C490.384 650.888 492.995 646.015 495.361 641.382C496.54 639.073 497.616 636.913 498.619 634.897C499.718 632.691 500.73 630.658 501.696 628.797C502.588 627.078 503.325 625.734 503.908 624.799C504.139 624.427 504.311 624.178 504.424 624.024C505.834 622.947 506.53 621.471 506.879 620.605C507.31 619.534 507.612 618.334 507.84 617.15C508.3 614.766 508.584 611.765 508.756 608.475C509.104 601.854 509.031 593.398 508.761 584.898C508.22 567.911 506.868 550.191 506.305 545.516C506.221 544.81 506.314 542.552 506.786 538.426C507.231 534.538 507.94 529.521 508.828 523.706C510.138 515.135 511.819 504.964 513.577 494.318C514.205 490.515 514.843 486.651 515.478 482.778C517.883 468.105 520.239 453.314 521.782 441.398C522.553 435.445 523.131 430.135 523.407 425.88C523.545 423.755 523.613 421.827 523.582 420.179C523.553 418.615 523.435 416.975 523.06 415.588C522.968 415.25 522.797 414.25 522.602 412.338C522.417 410.535 522.236 408.19 522.06 405.357C521.709 399.695 521.385 392.23 521.088 383.541C520.494 366.172 520.008 344.045 519.606 321.95C519.269 303.4 518.99 284.81 518.755 269.101C518.431 247.542 518.19 231.412 517.989 228.268C517.834 225.834 516.641 223.721 515.589 222.178C514.469 220.536 512.998 218.826 511.481 217.141C510.729 216.305 509.947 215.455 509.144 214.581C506.576 211.786 503.787 208.752 501.03 205.191C493.926 196.015 487.737 184.184 489.553 168.251ZM504.569 623.846C504.569 623.848 504.553 623.867 504.521 623.9C504.553 623.861 504.569 623.844 504.569 623.846Z" fill="#EFC588" stroke="#EFC588" stroke-width="10"/>
<path d="M265.951 709.533C274.708 710.402 284.964 720.464 288.997 725.387L193.114 709.337L142.652 691.263L114.63 674.915L91.1246 643.439L98.0686 613.981C100.525 616.235 105.825 620.881 107.378 621.437C108.93 621.993 111.784 637.786 113.017 645.613C115.475 651.216 121.258 662.811 124.722 664.361C128.186 665.91 146.675 681.111 155.486 688.518L182.852 691.234C189.818 691.926 207.239 703.704 216.693 704.643L239.083 706.865C248.536 707.804 245.156 711.488 249.136 711.883C253.117 712.278 255.005 708.446 265.951 709.533Z" fill="#D5FDF4"/>
</svg>
