<svg width="177" height="214" viewBox="0 0 177 214" fill="none" xmlns="http://www.w3.org/2000/svg">
<g filter="url(#filter0_d_300_448)">
<path d="M50.2459 90.3227L41.1693 101.058L34.2599 115.331L30.8573 133.407L32.7631 151.548L37.6608 163.239L50.7788 180.154L65.9462 191.66L90.1086 197.41L116.749 193.088L138.906 178.712L151.239 160.187L155.104 138.109L153.957 115.287L141.715 96.0075L126.482 83.1779L105.808 74.269L86.2109 73.5953L68.236 78.8087L50.2459 90.3227Z" fill="white"/>
<path fill-rule="evenodd" clip-rule="evenodd" d="M139.613 94.2372L134.532 91.9203L124.56 107.422L109.424 119.684L115.337 127.887L139.131 138.693L152.242 154.459L155.104 138.109L153.958 115.288L141.716 96.0077L139.613 94.2372ZM151.524 158.56L150.729 160.954L151.239 160.187L151.524 158.56ZM139.095 178.428L129.536 166.677L111.04 151.855L85.6158 158.382L72.652 179.035L75.3987 193.898L75.4066 193.912L90.1088 197.41L116.749 193.088L138.906 178.712L139.095 178.428ZM48.2167 176.85L49.1557 164.214L62.5318 146.791L73.5415 141.987L72.2672 131.551L48.312 127.503L30.8747 133.572L32.7633 151.548L37.661 163.239L48.2167 176.85Z" fill="#C65242"/>
<g style="mix-blend-mode:multiply" opacity="0.4">
<path d="M50.9051 124.373L42.4861 116.045L116.141 99.0944L114.423 109.682L122.541 112.024L141.892 104.052L146.095 108.091L146.233 110.834L146.671 119.563L142.932 124.751L131.823 132.56L121.088 137.849L138.136 148.744L151.098 172.845L139.677 179.419L136.984 180.554L135.137 173.647L130.858 168.111L127.729 170.518L122.866 173.263L112.617 178.278L109.093 197.707L72.1943 194.809L78.7241 175.48L74.1565 159.208L70.0524 152.163L66.2238 150.606L62.9817 150.768L48.5056 156.246L43.7763 141.732L50.9051 124.373Z" fill="#00BCD8"/>
</g>
<path d="M96.8079 17.8084C86.9176 10.0545 72.4802 21.2805 72.9938 31.5055L100.606 48.6203C110.292 37.3829 106.698 25.5623 96.8079 17.8084Z" fill="#4D548B"/>
<path d="M133.274 91.7332C124.386 108.931 118.875 108.708 105.395 109.135L119.814 127.412C129.004 126.2 146.21 115.335 151.02 101.593C155.83 87.85 138.496 81.22 133.274 91.7332Z" fill="#4D548B"/>
<path d="M161.784 166.558C162.115 143.289 134.392 128.93 126.162 129.343L127.602 158.023C135.933 160.605 138.066 165.582 138.092 167.747C138.417 174.232 141.275 186.339 151.962 185.052C160.511 184.023 162.072 172.294 161.784 166.558Z" fill="#4D548B"/>
<path d="M35.2123 40.9038C34.4892 41.4401 30.4249 45.1446 28.555 47.7387C22.531 42.2908 9.5251 42.1939 5.11223 48.9161C-3.44319 65.7472 10.9211 76.6267 19.1726 79.9626C23.4798 113.949 51.2336 122.606 64.572 122.686C53.6113 123.487 35.8714 143.629 33.3035 147.258C31.0598 150.429 25.8377 162.885 35.0287 166.673C42.3815 169.704 47.7264 163.952 49.4798 160.697C54.914 149.423 65.4245 142.978 70.0005 141.165C70.5007 147.14 75.183 156.406 77.4617 160.292C81.3436 165.897 81.9003 175.654 81.6934 179.831C81.3711 188.348 73.4167 194.248 74.2537 200.956C75.5628 211.091 88.4007 210.497 94.656 208.932C110.155 203.904 109.572 184.014 107.704 175.024C111.285 174.644 118.647 170.558 121.881 168.562C131.755 162.065 133.606 148.138 133.297 141.986C132.576 131.621 114.894 115.742 106.143 109.097C109.644 107.121 119.986 99.3178 124.72 95.6631C129.507 91.4223 131.876 87.1363 132.461 85.5235L133.059 82.4932L132.909 79.5005L132.01 76.5454L130.626 73.8647L126.971 70.798L107.752 56.512C97.4122 33.8294 76.4056 29.7507 67.1948 30.5467C68.3416 28.489 69.4902 23.4809 64.9105 19.9106C60.3308 16.3403 55.4127 19.9709 53.5261 22.2325C53.4385 20.4867 49.3947 4.68851 39.0831 8.45669C28.7715 12.2249 32.6649 25.0304 35.2123 40.9038Z" fill="#78638A"/>
<circle cx="61.2752" cy="101.85" r="11.9859" transform="rotate(-2.87533 61.2752 101.85)" fill="#D874D1"/>
<circle cx="104.865" cy="83.6591" r="11.9859" transform="rotate(-2.87533 104.865 83.6591)" fill="#D874D1"/>
<path fill-rule="evenodd" clip-rule="evenodd" d="M132.325 151.823C123.38 136.367 107.256 116.276 94.7865 126.919C78.0846 141.174 102.62 169.092 108.601 174.872C112.401 174.023 118.897 170.403 121.88 168.562C127.905 164.598 130.943 157.866 132.325 151.823ZM39.4577 140.141C39.7367 140.242 40.0188 140.336 40.3034 140.422C42.406 141.059 44.6136 141.276 46.8 141.061C48.9864 140.845 51.1089 140.2 53.0463 139.164C54.9837 138.128 56.6981 136.721 58.0915 135.022C59.4849 133.323 60.5301 131.367 61.1674 129.264C61.7604 127.308 61.9894 125.261 61.8445 123.224C54.5977 125.444 45.4822 133.783 39.4577 140.141ZM51.5155 66.8371C51.8475 73.4484 46.7572 79.0771 40.1459 79.4092C33.5347 79.7412 27.906 74.6509 27.5739 68.0396C27.2418 61.4284 32.3322 55.7997 38.9435 55.4676C45.5547 55.1355 51.1834 60.2259 51.5155 66.8371ZM95.6621 194.131C99.1054 193.958 101.757 191.026 101.584 187.583C101.411 184.139 98.4791 181.488 95.0358 181.661C91.5924 181.834 88.9412 184.766 89.1141 188.209C89.2871 191.652 92.2187 194.303 95.6621 194.131Z" fill="#9973A3"/>
<ellipse cx="65.7749" cy="91.8732" rx="4.99412" ry="5.74324" transform="rotate(-2.87533 65.7749 91.8732)" fill="#403945"/>
<ellipse cx="95.1255" cy="78.8981" rx="4.99412" ry="5.74324" transform="rotate(-2.87533 95.1255 78.8981)" fill="#403945"/>
</g>
<defs>
<filter id="filter0_d_300_448" x="2.4834" y="0.87793" width="174.332" height="208.939" filterUnits="userSpaceOnUse" color-interpolation-filters="sRGB">
<feFlood flood-opacity="0" result="BackgroundImageFix"/>
<feColorMatrix in="SourceAlpha" type="matrix" values="0 0 0 0 0 0 0 0 0 0 0 0 0 0 0 0 0 0 127 0" result="hardAlpha"/>
<feOffset dx="15" dy="-7"/>
<feColorMatrix type="matrix" values="0 0 0 0 0.0196078 0 0 0 0 0.517647 0 0 0 0 0.678431 0 0 0 0.7 0"/>
<feBlend mode="normal" in2="BackgroundImageFix" result="effect1_dropShadow_300_448"/>
<feBlend mode="normal" in="SourceGraphic" in2="effect1_dropShadow_300_448" result="shape"/>
</filter>
</defs>
</svg>
