<svg width="290" height="332" viewBox="0 0 290 332" fill="none" xmlns="http://www.w3.org/2000/svg">
<path d="M149.284 22V3L131.284 15.5C119.284 7.1 112.94 9.80743 105.784 11C88.9842 13.8 78.4507 4.83333 75.2839 0C71.7839 34 101.784 33 102.784 33C119.984 31.8 123.284 43.1667 122.784 49V58L129.784 51.5C136.591 45.5268 141.784 49.6932 152.284 59C174.284 78.5 189.617 66 194.284 61C181.484 62.6 169.284 45.3333 164.784 36.5C159.784 26.6858 153.617 23 149.284 22Z" fill="#95EBF3"/>
<g style="mix-blend-mode:multiply">
<path d="M74.2839 116V97L56.2842 109.5C44.2842 101.1 37.9396 103.807 30.7842 105C13.9842 107.8 3.45065 98.8333 0.283886 94C-3.21611 128 26.7839 127 27.7839 127C44.9839 125.8 48.2839 137.167 47.7839 143V152L54.7839 145.5C61.5914 139.527 66.7842 143.693 77.2842 153C99.2842 172.5 114.617 160 119.284 155C106.484 156.6 94.2839 139.333 89.7839 130.5C84.7842 120.686 78.6172 117 74.2839 116Z" fill="#0090b3"/>
</g>
<path d="M248.56 203.08L252.896 188.103L235.855 193.849C228.312 184.489 222.693 185.176 216.781 184.483C202.899 182.856 196.642 173.384 195.249 168.852C184.732 194.854 208.607 200.912 209.396 201.14C223.228 204.119 223.235 213.832 221.51 218.316L219.456 225.41L226.457 221.884C233.186 218.729 236.329 223.198 242.481 232.93C255.373 253.322 270.312 246.968 275.132 244.091C264.677 242.431 259 226.037 257.469 218.047C255.767 209.17 251.747 204.857 248.56 203.08Z" fill="#95EBF3"/>
<g style="mix-blend-mode:multiply">
<path d="M172.41 283.293L176.746 268.316L159.705 274.062C152.163 264.702 146.544 265.389 140.632 264.696C126.75 263.069 120.493 253.597 119.1 249.065C108.582 275.067 132.458 281.125 133.246 281.353C147.078 284.332 147.085 294.045 145.36 298.529L143.306 305.623L150.307 302.097C157.037 298.942 160.179 303.411 166.332 313.143C179.224 333.535 194.163 327.18 198.982 324.304C188.527 322.644 182.851 306.25 181.319 298.26C179.618 289.383 175.598 285.07 172.41 283.293Z" fill="#0090b3"/>
</g>
</svg>
