<svg width="228" height="240" viewBox="0 0 228 240" fill="none" xmlns="http://www.w3.org/2000/svg">
<g style="mix-blend-mode:multiply">
<path d="M24.9652 114.116C10.2541 84.7103 2.35804 28.187 0.248896 3.60102C2.32758 -3.26493 4.83437 4.23092 5.82793 8.83709C7.30006 24.7996 31.2393 74.9324 43.0249 98.0034C60.6534 67.4136 59.5941 93.9146 56.8609 110.989C75.6237 135.719 108.608 153.197 122.755 158.845C126.854 155.909 120.708 136.578 117.123 127.279C109.617 113.452 118.954 117.129 124.561 120.696C143.186 133.767 150.329 154.063 151.572 162.577C158.395 163.894 172.593 159.558 178.84 157.226L181.026 149.529L173.804 139.783C155.875 126.686 173.949 120.845 185.227 119.562C195.367 121.279 211.234 132.101 214.298 140.911L226.806 209.873C228.806 219.549 222.444 225.701 219.013 227.568C212.919 230.185 212.387 231.945 199.428 235.466C186.165 235.735 189.821 223.342 194.862 219.312L195.451 208.845C178.043 221.669 148.035 220.012 135.207 217.58C121.537 240.017 88.4064 240.911 73.5499 238.554C58.833 234.915 67.4824 228.621 73.6466 225.928C84.8665 222.471 96.9648 213.903 102.315 207.904C86.3566 209.881 47.3419 161.68 31.9728 140.191C13.5457 134.482 -13.6537 121.275 24.9652 114.116Z" fill="#0090b3"/>
</g>
</svg>
