<svg width="335" height="483" viewBox="0 0 335 483" fill="none" xmlns="http://www.w3.org/2000/svg">
<path d="M246.541 324.716C246.541 317.961 239.304 304.934 250.401 286.117L315.055 260.545L343.522 292.872V382.132L320.362 373.447L315.055 348.358L246.541 324.716Z" fill="#463B12"/>
<path d="M289.966 0C307.335 6.27237 321.328 36.1867 337.732 94.568L335.802 305.416L327.6 284.187L325.67 305.416L317.95 313.618L321.328 350.77L299.615 374.895L295.273 371.035V383.097L235.927 440.996L231.584 438.583L229.172 451.611L180.923 482.49C153.518 411.467 233.514 319.73 276.938 282.739L220.487 294.319C222.803 276.563 229.172 262.796 232.067 258.132C209.679 275.502 200.223 308.794 198.293 323.268L101.312 362.832C103.628 352.025 113.535 333.883 118.199 326.163C107.391 330.023 94.7181 356.078 89.7323 368.622L30.8685 380.202C14.2709 281.002 182.37 248.482 284.658 229.665C291.606 220.787 306.21 209.24 312.643 204.576C305.695 204.576 274.687 223.232 260.051 232.56C246.542 226.384 199.418 216.477 177.546 212.296C191.055 194.154 228.207 171.284 245.094 162.117C209.197 162.503 163.875 193.8 145.701 209.401C142.227 198.207 86.0332 178.682 58.3705 170.319C78.0561 147.159 127.688 137.831 150.044 136.062C99.0926 136.062 55.4755 156.97 40.0359 167.424L0.47168 153.432C90.0218 88.9712 233.032 114.993 293.343 136.062L269.701 100.358H289.966L260.051 81.0583L289.966 0Z" fill="#007600"/>
<path fill-rule="evenodd" clip-rule="evenodd" d="M337.216 151.005L329.53 147.642C329.208 128.986 322.196 80.6724 296.72 36.6693V55.9689L303.958 79.6109V110.008L325.187 147.642L290.257 135.004C291.309 135.358 292.337 135.711 293.343 136.062L269.701 100.358H289.966L260.051 81.0583L289.966 0C307.335 6.27237 321.328 36.1867 337.732 94.568L337.216 151.005ZM336.842 191.769L288.036 173.214H229.172L239.898 165.012C221.508 175.492 189.8 195.839 177.546 212.296C199.418 216.477 246.542 226.384 260.051 232.56C274.687 223.232 305.695 204.576 312.643 204.576C306.21 209.24 291.606 220.787 284.658 229.665C283.429 229.891 282.19 230.119 280.943 230.35L302.51 227.735L336.496 229.623L336.842 191.769ZM336.367 243.733L335.802 241.728C296.501 242.962 260.024 250.833 231.093 259.814C227.929 265.612 222.57 278.353 220.487 294.319L275.833 282.966C293.518 269.207 318.485 254.904 335.32 246.552V260.062L308.3 282.257L304.923 310.724L264.876 350.77L269.701 367.175L252.331 389.37L231.584 401.914L225.794 396.124C208.425 420.056 191.538 447.268 185.265 457.883C176.797 428.089 199.609 378.228 219.072 345.05C188.009 386.926 164.008 438.654 180.923 482.49L229.172 451.611L231.584 438.583L235.927 440.996L295.273 383.097V371.035L299.615 374.895L321.328 350.77L317.95 313.618L325.67 305.416L327.6 284.187L335.802 305.416L336.367 243.733ZM31.3282 351.689C29.4075 360.528 29.1638 370.013 30.8685 380.202L89.7323 368.622C94.7181 356.078 107.391 330.023 118.199 326.163C113.535 333.883 103.628 352.025 101.312 362.832L198.293 323.268C200.143 309.389 208.914 278.208 229.37 260.354C204.867 268.077 185.962 276.533 175.615 282.257L206.495 257.167C177.554 261.677 80.0837 320.536 31.3282 351.689ZM243.642 162.149L245.577 160.669C243.062 161.326 240.57 161.955 238.1 162.558C239.967 162.348 241.816 162.21 243.642 162.149ZM219.177 166.752C139.602 182.591 86.8831 170.046 69.1409 160.751C64.9992 163.639 61.3433 166.821 58.3705 170.319C86.0332 178.682 142.227 198.207 145.701 209.401C159.68 197.401 189.719 176.116 219.177 166.752ZM70.3031 159.957L85.702 151.633C80.1779 154.074 74.9574 156.839 70.3031 159.957ZM95.7688 143.536L104.689 136.062L43.4132 151.019L21.8238 140.225C14.436 144.129 7.29848 148.518 0.47168 153.432L40.0359 167.424C49.5462 160.985 69.7477 150.579 95.7688 143.536Z" fill="#234A0C"/>
</svg>
