<svg width="18" height="57" viewBox="0 0 18 57" fill="none" xmlns="http://www.w3.org/2000/svg">
<path d="M9.578 38.1902C7.66453 38.3485 6.2628 38.2237 5.37279 37.8157C4.47839 37.3545 3.8919 36.7341 3.61333 35.9544C3.38352 35.1172 3.22903 34.2202 3.14988 33.2635L0.940108 6.55472C0.860952 5.59799 0.865922 4.68781 0.955016 3.82419C1.09726 2.95617 1.57161 2.22123 2.37806 1.61935C3.18452 1.01747 4.57105 0.635178 6.53766 0.472468C8.50428 0.309759 9.90821 0.461181 10.7495 0.926735C11.6439 1.38789 12.206 2.03709 12.4358 2.87432C12.7188 3.70716 12.8998 4.60194 12.979 5.55867L15.1953 32.3471C15.2701 33.2507 15.2364 34.1365 15.0941 35.0045C15.005 35.8682 14.555 36.5743 13.7442 37.1231C12.9865 37.6674 11.5978 38.0231 9.578 38.1902ZM11.0952 56.5276C8.49072 56.743 6.72151 56.381 5.78753 55.4415C4.85355 54.502 4.28981 52.8629 4.09632 50.5242C4.00837 49.4612 4.03112 48.4425 4.16457 47.4682C4.29362 46.4407 4.78355 45.5707 5.63436 44.8581C6.48517 44.1455 7.97361 43.7013 10.0997 43.5254C12.7573 43.3055 14.5265 43.6675 15.4073 44.6114C16.3369 45.4978 16.9006 47.1369 17.0985 49.5287C17.1865 50.5918 17.1659 51.637 17.0369 52.6645C16.9034 53.6388 16.4113 54.4823 15.5605 55.1948C14.7097 55.9074 13.2212 56.3517 11.0952 56.5276Z" fill="#01A7C5"/>
</svg>
