<svg width="400" height="87" viewBox="0 0 400 87" fill="none" xmlns="http://www.w3.org/2000/svg">
<mask id="path-1-outside-1_387_231" maskUnits="userSpaceOnUse" x="0" y="-1" width="400" height="88" fill="black">
<rect fill="white" y="-1" width="400" height="88"/>
<path d="M48.1804 67.0188C48.3903 67.4504 48.5901 68.0013 48.5901 68.4604C48.4902 69.149 48.0905 69.654 47.7807 70.1406C45.5922 72.9319 42.6943 74.3458 39.8963 75.87C38.1875 76.7974 36.0989 77.6605 34.7899 76.274C34.2902 75.8517 34.1003 75.0253 33.8006 74.3458C31.8919 68.8001 33.2909 71.2516 31.8919 65.2651C31.1924 62.3362 30.6028 59.3062 30.0032 56.4139C29.6935 54.5041 29.6935 50.8865 28.3944 49.647C26.6056 47.9025 26.8055 53.1269 26.8954 53.8339C27.1053 58.7736 26.6056 63.539 26.8055 68.6991C26.7955 70.2233 26.9054 71.7566 26.4058 73.042C25.1067 76.9443 22.0988 75.9159 19.6106 75.7415C16.9025 75.6313 12.0159 75.7966 11.2065 71.27C11.2165 71.1231 11.2165 70.9762 11.2165 70.8292C10.1073 64.503 10.3071 59.297 10.3071 53.7604C10.2072 45.1388 10.2072 37.3435 10.1073 29.8879C10.1173 26.5733 10.1073 23.2771 10.1173 20.1002C10.0173 17.2998 9.40777 14.0954 12.4156 12.5896C15.6134 10.8267 20.3001 10.9277 23.8975 10.7991C29.5935 10.5512 35.8891 10.8083 41.2853 12.5988C43.1839 13.3333 45.3924 14.1688 46.5815 15.9317C47.7907 17.5936 48.1904 20.1094 48.4802 22.2028C48.9898 25.5725 48.9898 29.1718 48.1804 32.4772C47.8906 34.3044 47.281 36.0305 46.4916 37.5455C46.0819 38.3076 45.6922 39.0697 45.1825 39.7216C44.6929 40.4928 42.9941 41.8058 42.4844 42.5679C41.8948 43.3392 41.4951 44.2206 41.4951 45.2122C41.4951 45.8917 41.685 46.562 41.8948 47.2322C43.084 51.162 44.493 55.2295 45.4823 59.4255C46.4816 63.3921 45.1825 58.9297 46.5815 62.6024C46.8913 63.3829 47.0812 64.1633 47.391 64.9346C47.6808 65.5865 47.9805 66.2384 48.1804 67.0188ZM32.5015 29.5758C32.9911 28.2261 33.201 25.8113 31.5921 24.9298C30.5928 24.3789 29.3937 24.333 28.2944 24.2963C28.0946 24.2871 27.9047 24.2779 27.7049 24.3789C27.7049 24.3789 27.5949 24.3697 27.6049 24.4707C27.3051 24.6727 27.2052 25.1777 27.2052 25.6001C27.0953 27.3538 27.2951 29.034 27.2951 30.8153C27.2951 31.1367 27.3051 31.4488 27.495 31.6784C27.9047 32.2293 29.2937 32.0916 29.7934 31.8987C30.293 31.8161 30.7927 31.7335 31.1924 31.4213C31.792 31.0357 32.2916 30.3103 32.5015 29.5758ZM56.5545 26.1602C56.5545 23.8464 56.5645 21.6428 56.5545 19.3381C56.5545 17.3641 56.6644 15.289 57.8636 13.8291C58.8629 12.7824 60.3618 12.3692 61.7508 12.0479C69.945 10.4502 78.7488 10.285 86.9331 10.9277C87.6326 11.0195 88.442 11.1205 89.0416 11.5245C89.9409 12.2223 90.1408 13.5353 90.1408 14.6463C90.2407 16.8591 90.3407 19.1821 90.0409 21.4132C89.5412 24.2595 88.0323 25.2144 85.2343 25.4899C82.5362 25.7562 79.8481 25.8296 77.15 25.5817C76.1507 25.6093 75.0414 25.5266 74.3519 26.1602C73.1528 27.1151 73.1528 29.4105 73.3426 30.8612C73.4526 31.6876 73.8523 31.6784 74.6517 31.6508C76.6503 31.5866 78.539 31.6325 80.5476 31.7702C80.8374 31.761 81.2471 31.8528 81.5469 32.0457C82.3363 32.4313 82.4362 33.4596 82.4462 34.3778C82.4462 36.9487 82.2464 39.5379 82.2464 42.118C82.2464 43.2382 82.1464 44.7991 81.4369 45.8733C80.4476 47.2965 78.7488 46.8741 77.2499 47.0761C76.3405 47.1312 75.4412 47.2781 74.6417 47.7556C73.1428 48.5819 72.7531 50.9325 73.9522 52.1077C74.7417 52.9065 75.8509 53.1452 76.8402 53.1728C80.1478 53.3472 83.4455 52.0526 86.8431 51.7955C87.7425 51.7313 88.8417 51.8506 89.3314 52.6219C89.6411 53.0075 89.6311 53.5125 89.7411 54.0083C90.0309 57.6443 90.2407 61.3721 89.831 65.0631C89.7411 65.8895 89.5412 66.725 88.9416 67.4045C88.442 67.9737 87.7325 68.3594 87.033 68.6532C79.7381 71.4169 71.3441 71.3985 63.9493 71.9494C62.7601 72.0871 61.6609 72.1055 60.6616 71.6648C59.4624 71.1322 58.653 69.9937 58.1534 68.7083C56.9642 65.8068 56.9642 62.2443 57.0541 58.9114C57.1541 51.8414 56.6544 44.9643 56.6644 37.9587C56.5645 34.0014 56.5645 30.0532 56.5545 26.1602ZM113.095 43.5595C111.196 42.5863 108.987 42.1364 106.899 41.5671C103.401 40.6765 100.304 38.6473 98.2051 35.8561C93.1087 28.7127 96.6062 18.4659 103.801 13.8658C105.6 12.7548 107.598 12.0387 109.697 11.6163C114.184 10.5788 118.99 10.5329 123.377 11.8734C129.473 13.7465 134.37 19.4851 134.769 25.6001C134.869 26.2703 134.779 27.0324 134.28 27.4181C134.08 27.7119 133.68 27.8221 133.28 27.9139C131.082 28.5474 128.973 29.08 126.785 29.7227C125.586 29.943 122.788 30.7969 121.689 30.1542C121.379 29.9706 121.189 29.5941 120.989 29.3095C119.39 26.6468 115.683 23.9106 113.284 27.4823C112.685 28.3913 112.495 29.5758 112.895 30.4388C113.594 31.7886 115.293 32.2109 116.792 32.4496C121.089 33.2576 125.586 34.1574 128.883 36.8936C129.873 37.7108 130.882 38.8034 131.671 39.8042C132.281 40.6214 133.68 44.1104 133.78 45.1296C134.28 48.8023 133.87 51.9424 132.181 55.4131C130.872 58.1217 128.883 60.6284 126.175 62.3912C124.387 63.5573 122.388 64.3929 120.389 64.9713C115.883 66.3945 111.096 66.8719 106.589 66.0731C100.603 64.9254 95.7069 59.5174 95.1972 53.1544C95.2072 52.4566 95.2072 51.6578 95.7069 51.2171C96.0067 50.8957 96.3964 50.758 96.7062 50.6386C98.9046 49.8766 101.103 49.2155 103.202 48.4626C104.401 48.0953 107.299 47.2047 108.398 47.8199C108.698 47.9943 108.888 48.3708 109.097 48.6462C110.097 50.3173 112.495 52.8331 114.793 51.7037C116.192 50.9325 117.382 49.2338 117.092 47.728C116.992 46.5803 116.292 45.6713 115.393 45.0653C114.693 44.4318 113.994 43.9911 113.095 43.5595ZM176.22 20.8348C176.32 21.1194 176.51 21.3948 176.61 21.6795C179.818 29.4656 179.018 37.8485 178.418 45.7907C177.819 52.9433 175.511 59.5174 167.206 62.0056C164.528 62.7493 161.71 63.0523 158.922 63.0891C157.124 63.1258 155.335 62.9789 153.636 62.5749C153.536 62.5749 153.536 62.5749 153.536 62.5749C151.438 62.2719 149.429 61.7118 147.64 60.8028C144.942 59.398 143.043 57.1668 141.644 54.6327C139.846 51.0059 138.846 46.9384 138.547 42.7056C138.347 38.8126 138.347 34.5063 139.236 30.5307C140.545 24.535 142.234 18.1353 147.231 14.2606C150.228 11.9377 154.226 10.7716 158.033 10.5512C162.03 10.3401 165.717 10.6247 169.325 12.6814C172.423 14.5636 174.711 17.5661 176.22 20.8348ZM156.334 30.8428C156.024 32.7985 156.134 34.6533 156.224 36.5998C156.224 38.6198 156.224 40.7316 156.224 42.7515C156.214 43.4769 156.334 44.3032 156.534 44.9276C156.834 45.653 157.333 46.3691 158.133 46.5344C158.922 46.7915 160.221 46.663 160.931 46.1947C161.131 46.0202 161.331 45.7356 161.43 45.5611C162.43 44.0921 162.63 42.0721 162.829 40.4286C163.119 37.1231 163.029 33.7994 162.53 30.4756C162.42 29.8237 162.32 29.2728 162.03 28.7127C160.831 26.6743 157.833 27.3722 156.824 29.2544C156.624 29.8145 156.424 30.2828 156.334 30.8428ZM220.489 35.3878C220.479 39.5012 220.189 43.431 219.689 47.5169C219.49 49.7847 219.19 52.1353 218.49 54.3021C217.791 56.5517 216.592 58.7186 214.683 60.2427C211.595 62.8503 207.988 62.6667 204.1 62.7585C200.203 62.8503 196.606 63.034 192.798 61.6934C190.31 60.8854 188.012 59.3613 186.813 57.2036C186.313 56.2211 185.913 55.1377 185.703 54.1461C184.904 50.9967 184.414 47.829 184.214 44.6522C184.005 41.7415 184.314 38.8218 184.114 35.8928C183.715 29.3462 184.314 22.6619 184.314 15.9317C184.414 14.4259 184.814 11.7816 186.613 11.0287C187.112 10.7441 187.712 10.7441 188.312 10.7441C191.409 10.5512 197.005 9.50452 199.304 12.0479C200.503 13.269 200.503 15.1421 200.403 16.7397C200.293 21.6887 200.003 26.6101 199.793 31.5039C199.803 33.7167 199.693 36.0122 199.693 38.2066C199.703 40.4928 199.394 42.9535 199.993 45.2306C200.193 46.2222 200.803 47.3149 201.792 47.6729C204.29 48.3983 204.7 45.5887 204.69 44.1288C205.2 35.0848 204.5 25.9582 204.2 16.7305C204.1 15.1421 204.1 13.269 205.3 12.0387C207.598 9.50452 213.294 10.5329 216.292 10.7257C216.891 10.7257 217.491 10.7257 218.09 11.0103C219.789 11.754 220.279 14.3984 220.289 15.895C220.279 22.4416 220.389 28.933 220.489 35.3878ZM266.656 65.0723C266.846 65.4396 267.056 65.8895 267.056 66.2476C266.956 66.7801 266.556 67.1107 266.257 67.4412C264.058 69.25 261.15 69.8927 258.362 70.6548C256.653 71.1322 254.565 71.5179 253.266 70.3518C252.766 69.9937 252.556 69.3602 252.256 68.8368C250.358 64.6408 248.769 60.3437 247.37 55.9273C246.67 53.7604 246.071 51.4925 245.471 49.3073C245.161 47.8566 245.171 45.0286 243.872 44.1013C242.064 42.7974 242.273 46.9017 242.373 47.4342C242.573 51.162 242.064 54.6694 242.263 58.3513C242.273 59.4255 242.363 60.509 241.874 61.3904C240.575 64.0531 237.567 63.3186 235.079 63.2084C232.38 63.1901 227.474 63.5206 226.674 60.8212C226.684 60.7294 226.684 60.6375 226.684 60.5549C225.585 56.7628 225.785 53.3381 225.785 49.4542C225.685 42.6414 225.685 35.7734 225.575 28.8596C225.585 25.7103 225.575 22.5517 225.585 19.4667C225.485 16.7489 224.886 13.6547 227.874 12.057C231.081 10.2666 235.778 10.2758 239.375 10.1013C245.061 9.82588 251.367 10.0371 256.753 11.6806C258.662 12.36 260.86 13.1313 262.049 14.7565C263.259 16.2806 263.658 18.5761 263.958 20.4767C264.458 23.5066 264.458 26.7202 263.648 29.6217C263.349 31.2193 262.749 32.7067 261.95 34.0014C261.55 34.6441 261.16 35.2868 260.66 35.8377C260.161 36.4804 258.452 37.5547 257.962 38.1974C257.363 38.8309 256.963 39.5655 256.963 40.3827C256.953 40.9519 257.163 41.5028 257.363 42.0629C258.552 45.3132 259.961 48.6462 260.95 52.0434C261.96 55.257 263.658 58.388 265.047 61.418C265.347 62.0515 265.557 62.6942 265.847 63.3278C266.147 63.8787 266.446 64.4388 266.656 65.0723ZM247.969 27.0783C248.469 25.8663 248.659 23.7178 247.06 22.9466C246.071 22.4783 244.872 22.4691 243.772 22.4599C243.573 22.4599 243.363 22.4507 243.173 22.5426C243.173 22.5426 243.073 22.5426 243.073 22.6436C242.763 22.8272 242.673 23.2955 242.673 23.6627C242.573 25.2512 242.773 26.7478 242.773 28.3271C242.773 28.6117 242.773 28.8871 242.973 29.0708C243.363 29.539 244.772 29.3738 245.271 29.1901C245.771 29.0983 246.261 29.0157 246.66 28.731C247.27 28.373 247.77 27.7302 247.969 27.0783ZM280.956 12.7916C286.952 9.82588 294.756 9.77997 300.043 14.2974C303.24 17.0794 305.249 20.9266 306.148 24.8655C306.248 25.4624 306.348 26.05 306.148 26.6376C305.849 27.7119 304.34 28.07 303.45 28.3362C301.352 29.1718 299.343 30.0073 297.245 30.8337C296.055 31.2836 293.647 33.1566 292.558 32.064C292.058 31.5682 291.858 30.9898 291.559 30.4939C290.349 28.4464 287.162 27.1242 285.253 28.8963C284.654 29.5666 284.364 30.5215 284.164 31.3754C282.755 36.205 282.765 42.9444 284.564 47.7464C285.063 49.0043 285.953 50.1796 287.162 50.7121C289.45 51.7864 291.848 49.2522 292.858 47.5719C293.058 47.2873 293.257 46.92 293.557 46.7456C294.656 46.1212 297.554 46.9384 298.644 47.2781C300.842 47.9668 303.051 48.5728 305.139 49.2614C305.549 49.3716 305.939 49.5001 306.248 49.8123C306.748 50.2346 306.748 51.0151 306.748 51.7037C306.248 57.9473 301.352 63.4196 295.356 64.8519C290.849 65.7058 286.063 65.3937 281.556 64.1082C279.567 63.5849 277.459 62.7952 275.76 61.6751C273.072 59.9489 271.073 57.4698 269.774 54.7612C266.876 48.9584 266.067 42.1915 266.776 35.8744C267.076 33.9187 267.276 32.0456 267.775 30.0716C268.775 26.2061 270.573 22.4507 273.162 19.2371C275.27 16.6754 277.858 14.3066 280.956 12.7916ZM311.754 24.8655C311.754 22.6987 311.754 20.6236 311.754 18.4383C311.744 16.5744 311.854 14.6096 313.053 13.2323C314.053 12.2499 315.552 11.8734 316.951 11.5888C325.145 10.1381 333.939 10.0738 342.133 10.7991C342.822 10.9001 343.632 11.0011 344.231 11.4143C345.121 12.1121 345.331 13.4159 345.321 14.5177C345.431 16.7305 345.531 19.0443 345.231 21.2663C344.731 24.0943 343.232 24.9941 340.434 25.1777C337.726 25.3522 335.038 25.3246 332.34 24.9941C331.331 24.9757 330.241 24.8655 329.542 25.4532C328.343 26.3346 328.343 28.5566 328.543 29.9706C328.642 30.7786 329.032 30.7786 329.842 30.7969C331.84 30.8337 333.739 30.9714 335.737 31.2009C336.037 31.2101 336.437 31.3111 336.727 31.5223C337.526 31.9447 337.636 32.9638 337.636 33.8728C337.636 36.4253 337.436 38.987 337.436 41.5487C337.436 42.6689 337.326 44.2114 336.637 45.2214C335.628 46.5344 333.939 45.956 332.44 46.0111C331.54 45.9743 330.631 46.0294 329.842 46.4242C328.333 47.0761 327.943 49.2981 329.142 50.5652C329.942 51.4374 331.041 51.7955 332.04 51.9424C335.328 52.5025 338.635 51.6119 342.023 51.7404C342.932 51.7772 344.032 52.0251 344.531 52.879C344.821 53.3105 344.831 53.8431 344.931 54.3664C345.221 58.186 345.431 62.125 345.031 65.9262C344.931 66.7709 344.731 67.6156 344.132 68.2125C343.632 68.6991 342.922 68.9745 342.233 69.1306C334.938 70.4344 326.544 68.6991 319.149 67.7626C317.94 67.6616 316.851 67.4687 315.852 66.8811C314.652 66.1833 313.843 65.0264 313.343 63.796C312.154 61.0232 312.154 57.8555 312.244 54.8898C312.344 48.5452 311.854 42.2741 311.854 35.8469C311.754 32.1834 311.744 28.5199 311.754 24.8655ZM368.275 44.9735C366.386 43.8533 364.187 43.2933 362.089 42.5954C358.591 41.4845 355.494 39.1982 353.395 36.1866C348.289 28.6851 351.786 18.4475 358.991 13.9117C360.78 12.8008 362.788 12.0938 364.887 11.6806C369.384 10.6431 374.18 10.6063 378.577 11.9285C384.673 13.7281 389.569 19.2555 389.969 25.2971C390.059 25.9582 389.969 26.7294 389.47 27.1426C389.27 27.4548 388.87 27.5925 388.47 27.7119C386.272 28.4831 384.173 29.1442 381.975 29.8971C380.766 30.1818 377.978 31.1734 376.878 30.5307C376.579 30.347 376.379 29.9614 376.169 29.6676C374.58 26.9406 370.883 24.1677 368.484 27.8496C367.875 28.7861 367.685 30.0165 368.085 30.9163C368.784 32.3211 370.483 32.771 371.982 33.0189C376.279 33.7994 380.766 34.5798 384.073 37.2792C385.073 38.0689 386.062 39.1523 386.871 40.1531C387.461 40.9703 388.86 44.6338 388.97 45.754C389.47 49.9316 389.07 53.8614 387.371 58.6267C386.072 62.428 384.073 65.917 381.375 68.24C379.577 69.6815 377.578 70.5813 375.579 71.0863C371.083 72.2157 366.276 71.9311 361.789 70.1498C355.793 67.7442 350.887 60.9956 350.387 54.1277C350.397 53.384 350.387 52.5301 350.887 52.1169C351.187 51.8047 351.596 51.7037 351.896 51.6027C354.095 51.0059 356.283 50.5009 358.391 49.849C359.581 49.546 362.489 48.7564 363.588 49.5093C363.888 49.7205 364.087 50.1428 364.287 50.4642C365.287 52.4107 367.685 55.4407 369.983 54.2562C371.382 53.4207 372.581 51.4834 372.282 49.7388C372.172 48.4258 371.482 47.3883 370.583 46.6905C369.883 45.9743 369.184 45.4693 368.275 44.9735Z"/>
</mask>
<path d="M48.1804 67.0188C48.3903 67.4504 48.5901 68.0013 48.5901 68.4604C48.4902 69.149 48.0905 69.654 47.7807 70.1406C45.5922 72.9319 42.6943 74.3458 39.8963 75.87C38.1875 76.7974 36.0989 77.6605 34.7899 76.274C34.2902 75.8517 34.1003 75.0253 33.8006 74.3458C31.8919 68.8001 33.2909 71.2516 31.8919 65.2651C31.1924 62.3362 30.6028 59.3062 30.0032 56.4139C29.6935 54.5041 29.6935 50.8865 28.3944 49.647C26.6056 47.9025 26.8055 53.1269 26.8954 53.8339C27.1053 58.7736 26.6056 63.539 26.8055 68.6991C26.7955 70.2233 26.9054 71.7566 26.4058 73.042C25.1067 76.9443 22.0988 75.9159 19.6106 75.7415C16.9025 75.6313 12.0159 75.7966 11.2065 71.27C11.2165 71.1231 11.2165 70.9762 11.2165 70.8292C10.1073 64.503 10.3071 59.297 10.3071 53.7604C10.2072 45.1388 10.2072 37.3435 10.1073 29.8879C10.1173 26.5733 10.1073 23.2771 10.1173 20.1002C10.0173 17.2998 9.40777 14.0954 12.4156 12.5896C15.6134 10.8267 20.3001 10.9277 23.8975 10.7991C29.5935 10.5512 35.8891 10.8083 41.2853 12.5988C43.1839 13.3333 45.3924 14.1688 46.5815 15.9317C47.7907 17.5936 48.1904 20.1094 48.4802 22.2028C48.9898 25.5725 48.9898 29.1718 48.1804 32.4772C47.8906 34.3044 47.281 36.0305 46.4916 37.5455C46.0819 38.3076 45.6922 39.0697 45.1825 39.7216C44.6929 40.4928 42.9941 41.8058 42.4844 42.5679C41.8948 43.3392 41.4951 44.2206 41.4951 45.2122C41.4951 45.8917 41.685 46.562 41.8948 47.2322C43.084 51.162 44.493 55.2295 45.4823 59.4255C46.4816 63.3921 45.1825 58.9297 46.5815 62.6024C46.8913 63.3829 47.0812 64.1633 47.391 64.9346C47.6808 65.5865 47.9805 66.2384 48.1804 67.0188ZM32.5015 29.5758C32.9911 28.2261 33.201 25.8113 31.5921 24.9298C30.5928 24.3789 29.3937 24.333 28.2944 24.2963C28.0946 24.2871 27.9047 24.2779 27.7049 24.3789C27.7049 24.3789 27.5949 24.3697 27.6049 24.4707C27.3051 24.6727 27.2052 25.1777 27.2052 25.6001C27.0953 27.3538 27.2951 29.034 27.2951 30.8153C27.2951 31.1367 27.3051 31.4488 27.495 31.6784C27.9047 32.2293 29.2937 32.0916 29.7934 31.8987C30.293 31.8161 30.7927 31.7335 31.1924 31.4213C31.792 31.0357 32.2916 30.3103 32.5015 29.5758ZM56.5545 26.1602C56.5545 23.8464 56.5645 21.6428 56.5545 19.3381C56.5545 17.3641 56.6644 15.289 57.8636 13.8291C58.8629 12.7824 60.3618 12.3692 61.7508 12.0479C69.945 10.4502 78.7488 10.285 86.9331 10.9277C87.6326 11.0195 88.442 11.1205 89.0416 11.5245C89.9409 12.2223 90.1408 13.5353 90.1408 14.6463C90.2407 16.8591 90.3407 19.1821 90.0409 21.4132C89.5412 24.2595 88.0323 25.2144 85.2343 25.4899C82.5362 25.7562 79.8481 25.8296 77.15 25.5817C76.1507 25.6093 75.0414 25.5266 74.3519 26.1602C73.1528 27.1151 73.1528 29.4105 73.3426 30.8612C73.4526 31.6876 73.8523 31.6784 74.6517 31.6508C76.6503 31.5866 78.539 31.6325 80.5476 31.7702C80.8374 31.761 81.2471 31.8528 81.5469 32.0457C82.3363 32.4313 82.4362 33.4596 82.4462 34.3778C82.4462 36.9487 82.2464 39.5379 82.2464 42.118C82.2464 43.2382 82.1464 44.7991 81.4369 45.8733C80.4476 47.2965 78.7488 46.8741 77.2499 47.0761C76.3405 47.1312 75.4412 47.2781 74.6417 47.7556C73.1428 48.5819 72.7531 50.9325 73.9522 52.1077C74.7417 52.9065 75.8509 53.1452 76.8402 53.1728C80.1478 53.3472 83.4455 52.0526 86.8431 51.7955C87.7425 51.7313 88.8417 51.8506 89.3314 52.6219C89.6411 53.0075 89.6311 53.5125 89.7411 54.0083C90.0309 57.6443 90.2407 61.3721 89.831 65.0631C89.7411 65.8895 89.5412 66.725 88.9416 67.4045C88.442 67.9737 87.7325 68.3594 87.033 68.6532C79.7381 71.4169 71.3441 71.3985 63.9493 71.9494C62.7601 72.0871 61.6609 72.1055 60.6616 71.6648C59.4624 71.1322 58.653 69.9937 58.1534 68.7083C56.9642 65.8068 56.9642 62.2443 57.0541 58.9114C57.1541 51.8414 56.6544 44.9643 56.6644 37.9587C56.5645 34.0014 56.5645 30.0532 56.5545 26.1602ZM113.095 43.5595C111.196 42.5863 108.987 42.1364 106.899 41.5671C103.401 40.6765 100.304 38.6473 98.2051 35.8561C93.1087 28.7127 96.6062 18.4659 103.801 13.8658C105.6 12.7548 107.598 12.0387 109.697 11.6163C114.184 10.5788 118.99 10.5329 123.377 11.8734C129.473 13.7465 134.37 19.4851 134.769 25.6001C134.869 26.2703 134.779 27.0324 134.28 27.4181C134.08 27.7119 133.68 27.8221 133.28 27.9139C131.082 28.5474 128.973 29.08 126.785 29.7227C125.586 29.943 122.788 30.7969 121.689 30.1542C121.379 29.9706 121.189 29.5941 120.989 29.3095C119.39 26.6468 115.683 23.9106 113.284 27.4823C112.685 28.3913 112.495 29.5758 112.895 30.4388C113.594 31.7886 115.293 32.2109 116.792 32.4496C121.089 33.2576 125.586 34.1574 128.883 36.8936C129.873 37.7108 130.882 38.8034 131.671 39.8042C132.281 40.6214 133.68 44.1104 133.78 45.1296C134.28 48.8023 133.87 51.9424 132.181 55.4131C130.872 58.1217 128.883 60.6284 126.175 62.3912C124.387 63.5573 122.388 64.3929 120.389 64.9713C115.883 66.3945 111.096 66.8719 106.589 66.0731C100.603 64.9254 95.7069 59.5174 95.1972 53.1544C95.2072 52.4566 95.2072 51.6578 95.7069 51.2171C96.0067 50.8957 96.3964 50.758 96.7062 50.6386C98.9046 49.8766 101.103 49.2155 103.202 48.4626C104.401 48.0953 107.299 47.2047 108.398 47.8199C108.698 47.9943 108.888 48.3708 109.097 48.6462C110.097 50.3173 112.495 52.8331 114.793 51.7037C116.192 50.9325 117.382 49.2338 117.092 47.728C116.992 46.5803 116.292 45.6713 115.393 45.0653C114.693 44.4318 113.994 43.9911 113.095 43.5595ZM176.22 20.8348C176.32 21.1194 176.51 21.3948 176.61 21.6795C179.818 29.4656 179.018 37.8485 178.418 45.7907C177.819 52.9433 175.511 59.5174 167.206 62.0056C164.528 62.7493 161.71 63.0523 158.922 63.0891C157.124 63.1258 155.335 62.9789 153.636 62.5749C153.536 62.5749 153.536 62.5749 153.536 62.5749C151.438 62.2719 149.429 61.7118 147.64 60.8028C144.942 59.398 143.043 57.1668 141.644 54.6327C139.846 51.0059 138.846 46.9384 138.547 42.7056C138.347 38.8126 138.347 34.5063 139.236 30.5307C140.545 24.535 142.234 18.1353 147.231 14.2606C150.228 11.9377 154.226 10.7716 158.033 10.5512C162.03 10.3401 165.717 10.6247 169.325 12.6814C172.423 14.5636 174.711 17.5661 176.22 20.8348ZM156.334 30.8428C156.024 32.7985 156.134 34.6533 156.224 36.5998C156.224 38.6198 156.224 40.7316 156.224 42.7515C156.214 43.4769 156.334 44.3032 156.534 44.9276C156.834 45.653 157.333 46.3691 158.133 46.5344C158.922 46.7915 160.221 46.663 160.931 46.1947C161.131 46.0202 161.331 45.7356 161.43 45.5611C162.43 44.0921 162.63 42.0721 162.829 40.4286C163.119 37.1231 163.029 33.7994 162.53 30.4756C162.42 29.8237 162.32 29.2728 162.03 28.7127C160.831 26.6743 157.833 27.3722 156.824 29.2544C156.624 29.8145 156.424 30.2828 156.334 30.8428ZM220.489 35.3878C220.479 39.5012 220.189 43.431 219.689 47.5169C219.49 49.7847 219.19 52.1353 218.49 54.3021C217.791 56.5517 216.592 58.7186 214.683 60.2427C211.595 62.8503 207.988 62.6667 204.1 62.7585C200.203 62.8503 196.606 63.034 192.798 61.6934C190.31 60.8854 188.012 59.3613 186.813 57.2036C186.313 56.2211 185.913 55.1377 185.703 54.1461C184.904 50.9967 184.414 47.829 184.214 44.6522C184.005 41.7415 184.314 38.8218 184.114 35.8928C183.715 29.3462 184.314 22.6619 184.314 15.9317C184.414 14.4259 184.814 11.7816 186.613 11.0287C187.112 10.7441 187.712 10.7441 188.312 10.7441C191.409 10.5512 197.005 9.50452 199.304 12.0479C200.503 13.269 200.503 15.1421 200.403 16.7397C200.293 21.6887 200.003 26.6101 199.793 31.5039C199.803 33.7167 199.693 36.0122 199.693 38.2066C199.703 40.4928 199.394 42.9535 199.993 45.2306C200.193 46.2222 200.803 47.3149 201.792 47.6729C204.29 48.3983 204.7 45.5887 204.69 44.1288C205.2 35.0848 204.5 25.9582 204.2 16.7305C204.1 15.1421 204.1 13.269 205.3 12.0387C207.598 9.50452 213.294 10.5329 216.292 10.7257C216.891 10.7257 217.491 10.7257 218.09 11.0103C219.789 11.754 220.279 14.3984 220.289 15.895C220.279 22.4416 220.389 28.933 220.489 35.3878ZM266.656 65.0723C266.846 65.4396 267.056 65.8895 267.056 66.2476C266.956 66.7801 266.556 67.1107 266.257 67.4412C264.058 69.25 261.15 69.8927 258.362 70.6548C256.653 71.1322 254.565 71.5179 253.266 70.3518C252.766 69.9937 252.556 69.3602 252.256 68.8368C250.358 64.6408 248.769 60.3437 247.37 55.9273C246.67 53.7604 246.071 51.4925 245.471 49.3073C245.161 47.8566 245.171 45.0286 243.872 44.1013C242.064 42.7974 242.273 46.9017 242.373 47.4342C242.573 51.162 242.064 54.6694 242.263 58.3513C242.273 59.4255 242.363 60.509 241.874 61.3904C240.575 64.0531 237.567 63.3186 235.079 63.2084C232.38 63.1901 227.474 63.5206 226.674 60.8212C226.684 60.7294 226.684 60.6375 226.684 60.5549C225.585 56.7628 225.785 53.3381 225.785 49.4542C225.685 42.6414 225.685 35.7734 225.575 28.8596C225.585 25.7103 225.575 22.5517 225.585 19.4667C225.485 16.7489 224.886 13.6547 227.874 12.057C231.081 10.2666 235.778 10.2758 239.375 10.1013C245.061 9.82588 251.367 10.0371 256.753 11.6806C258.662 12.36 260.86 13.1313 262.049 14.7565C263.259 16.2806 263.658 18.5761 263.958 20.4767C264.458 23.5066 264.458 26.7202 263.648 29.6217C263.349 31.2193 262.749 32.7067 261.95 34.0014C261.55 34.6441 261.16 35.2868 260.66 35.8377C260.161 36.4804 258.452 37.5547 257.962 38.1974C257.363 38.8309 256.963 39.5655 256.963 40.3827C256.953 40.9519 257.163 41.5028 257.363 42.0629C258.552 45.3132 259.961 48.6462 260.95 52.0434C261.96 55.257 263.658 58.388 265.047 61.418C265.347 62.0515 265.557 62.6942 265.847 63.3278C266.147 63.8787 266.446 64.4388 266.656 65.0723ZM247.969 27.0783C248.469 25.8663 248.659 23.7178 247.06 22.9466C246.071 22.4783 244.872 22.4691 243.772 22.4599C243.573 22.4599 243.363 22.4507 243.173 22.5426C243.173 22.5426 243.073 22.5426 243.073 22.6436C242.763 22.8272 242.673 23.2955 242.673 23.6627C242.573 25.2512 242.773 26.7478 242.773 28.3271C242.773 28.6117 242.773 28.8871 242.973 29.0708C243.363 29.539 244.772 29.3738 245.271 29.1901C245.771 29.0983 246.261 29.0157 246.66 28.731C247.27 28.373 247.77 27.7302 247.969 27.0783ZM280.956 12.7916C286.952 9.82588 294.756 9.77997 300.043 14.2974C303.24 17.0794 305.249 20.9266 306.148 24.8655C306.248 25.4624 306.348 26.05 306.148 26.6376C305.849 27.7119 304.34 28.07 303.45 28.3362C301.352 29.1718 299.343 30.0073 297.245 30.8337C296.055 31.2836 293.647 33.1566 292.558 32.064C292.058 31.5682 291.858 30.9898 291.559 30.4939C290.349 28.4464 287.162 27.1242 285.253 28.8963C284.654 29.5666 284.364 30.5215 284.164 31.3754C282.755 36.205 282.765 42.9444 284.564 47.7464C285.063 49.0043 285.953 50.1796 287.162 50.7121C289.45 51.7864 291.848 49.2522 292.858 47.5719C293.058 47.2873 293.257 46.92 293.557 46.7456C294.656 46.1212 297.554 46.9384 298.644 47.2781C300.842 47.9668 303.051 48.5728 305.139 49.2614C305.549 49.3716 305.939 49.5001 306.248 49.8123C306.748 50.2346 306.748 51.0151 306.748 51.7037C306.248 57.9473 301.352 63.4196 295.356 64.8519C290.849 65.7058 286.063 65.3937 281.556 64.1082C279.567 63.5849 277.459 62.7952 275.76 61.6751C273.072 59.9489 271.073 57.4698 269.774 54.7612C266.876 48.9584 266.067 42.1915 266.776 35.8744C267.076 33.9187 267.276 32.0456 267.775 30.0716C268.775 26.2061 270.573 22.4507 273.162 19.2371C275.27 16.6754 277.858 14.3066 280.956 12.7916ZM311.754 24.8655C311.754 22.6987 311.754 20.6236 311.754 18.4383C311.744 16.5744 311.854 14.6096 313.053 13.2323C314.053 12.2499 315.552 11.8734 316.951 11.5888C325.145 10.1381 333.939 10.0738 342.133 10.7991C342.822 10.9001 343.632 11.0011 344.231 11.4143C345.121 12.1121 345.331 13.4159 345.321 14.5177C345.431 16.7305 345.531 19.0443 345.231 21.2663C344.731 24.0943 343.232 24.9941 340.434 25.1777C337.726 25.3522 335.038 25.3246 332.34 24.9941C331.331 24.9757 330.241 24.8655 329.542 25.4532C328.343 26.3346 328.343 28.5566 328.543 29.9706C328.642 30.7786 329.032 30.7786 329.842 30.7969C331.84 30.8337 333.739 30.9714 335.737 31.2009C336.037 31.2101 336.437 31.3111 336.727 31.5223C337.526 31.9447 337.636 32.9638 337.636 33.8728C337.636 36.4253 337.436 38.987 337.436 41.5487C337.436 42.6689 337.326 44.2114 336.637 45.2214C335.628 46.5344 333.939 45.956 332.44 46.0111C331.54 45.9743 330.631 46.0294 329.842 46.4242C328.333 47.0761 327.943 49.2981 329.142 50.5652C329.942 51.4374 331.041 51.7955 332.04 51.9424C335.328 52.5025 338.635 51.6119 342.023 51.7404C342.932 51.7772 344.032 52.0251 344.531 52.879C344.821 53.3105 344.831 53.8431 344.931 54.3664C345.221 58.186 345.431 62.125 345.031 65.9262C344.931 66.7709 344.731 67.6156 344.132 68.2125C343.632 68.6991 342.922 68.9745 342.233 69.1306C334.938 70.4344 326.544 68.6991 319.149 67.7626C317.94 67.6616 316.851 67.4687 315.852 66.8811C314.652 66.1833 313.843 65.0264 313.343 63.796C312.154 61.0232 312.154 57.8555 312.244 54.8898C312.344 48.5452 311.854 42.2741 311.854 35.8469C311.754 32.1834 311.744 28.5199 311.754 24.8655ZM368.275 44.9735C366.386 43.8533 364.187 43.2933 362.089 42.5954C358.591 41.4845 355.494 39.1982 353.395 36.1866C348.289 28.6851 351.786 18.4475 358.991 13.9117C360.78 12.8008 362.788 12.0938 364.887 11.6806C369.384 10.6431 374.18 10.6063 378.577 11.9285C384.673 13.7281 389.569 19.2555 389.969 25.2971C390.059 25.9582 389.969 26.7294 389.47 27.1426C389.27 27.4548 388.87 27.5925 388.47 27.7119C386.272 28.4831 384.173 29.1442 381.975 29.8971C380.766 30.1818 377.978 31.1734 376.878 30.5307C376.579 30.347 376.379 29.9614 376.169 29.6676C374.58 26.9406 370.883 24.1677 368.484 27.8496C367.875 28.7861 367.685 30.0165 368.085 30.9163C368.784 32.3211 370.483 32.771 371.982 33.0189C376.279 33.7994 380.766 34.5798 384.073 37.2792C385.073 38.0689 386.062 39.1523 386.871 40.1531C387.461 40.9703 388.86 44.6338 388.97 45.754C389.47 49.9316 389.07 53.8614 387.371 58.6267C386.072 62.428 384.073 65.917 381.375 68.24C379.577 69.6815 377.578 70.5813 375.579 71.0863C371.083 72.2157 366.276 71.9311 361.789 70.1498C355.793 67.7442 350.887 60.9956 350.387 54.1277C350.397 53.384 350.387 52.5301 350.887 52.1169C351.187 51.8047 351.596 51.7037 351.896 51.6027C354.095 51.0059 356.283 50.5009 358.391 49.849C359.581 49.546 362.489 48.7564 363.588 49.5093C363.888 49.7205 364.087 50.1428 364.287 50.4642C365.287 52.4107 367.685 55.4407 369.983 54.2562C371.382 53.4207 372.581 51.4834 372.282 49.7388C372.172 48.4258 371.482 47.3883 370.583 46.6905C369.883 45.9743 369.184 45.4693 368.275 44.9735Z" fill="url(#paint0_linear_387_231)"/>
<path d="M48.1804 67.0188C48.3903 67.4504 48.5901 68.0013 48.5901 68.4604C48.4902 69.149 48.0905 69.654 47.7807 70.1406C45.5922 72.9319 42.6943 74.3458 39.8963 75.87C38.1875 76.7974 36.0989 77.6605 34.7899 76.274C34.2902 75.8517 34.1003 75.0253 33.8006 74.3458C31.8919 68.8001 33.2909 71.2516 31.8919 65.2651C31.1924 62.3362 30.6028 59.3062 30.0032 56.4139C29.6935 54.5041 29.6935 50.8865 28.3944 49.647C26.6056 47.9025 26.8055 53.1269 26.8954 53.8339C27.1053 58.7736 26.6056 63.539 26.8055 68.6991C26.7955 70.2233 26.9054 71.7566 26.4058 73.042C25.1067 76.9443 22.0988 75.9159 19.6106 75.7415C16.9025 75.6313 12.0159 75.7966 11.2065 71.27C11.2165 71.1231 11.2165 70.9762 11.2165 70.8292C10.1073 64.503 10.3071 59.297 10.3071 53.7604C10.2072 45.1388 10.2072 37.3435 10.1073 29.8879C10.1173 26.5733 10.1073 23.2771 10.1173 20.1002C10.0173 17.2998 9.40777 14.0954 12.4156 12.5896C15.6134 10.8267 20.3001 10.9277 23.8975 10.7991C29.5935 10.5512 35.8891 10.8083 41.2853 12.5988C43.1839 13.3333 45.3924 14.1688 46.5815 15.9317C47.7907 17.5936 48.1904 20.1094 48.4802 22.2028C48.9898 25.5725 48.9898 29.1718 48.1804 32.4772C47.8906 34.3044 47.281 36.0305 46.4916 37.5455C46.0819 38.3076 45.6922 39.0697 45.1825 39.7216C44.6929 40.4928 42.9941 41.8058 42.4844 42.5679C41.8948 43.3392 41.4951 44.2206 41.4951 45.2122C41.4951 45.8917 41.685 46.562 41.8948 47.2322C43.084 51.162 44.493 55.2295 45.4823 59.4255C46.4816 63.3921 45.1825 58.9297 46.5815 62.6024C46.8913 63.3829 47.0812 64.1633 47.391 64.9346C47.6808 65.5865 47.9805 66.2384 48.1804 67.0188ZM32.5015 29.5758C32.9911 28.2261 33.201 25.8113 31.5921 24.9298C30.5928 24.3789 29.3937 24.333 28.2944 24.2963C28.0946 24.2871 27.9047 24.2779 27.7049 24.3789C27.7049 24.3789 27.5949 24.3697 27.6049 24.4707C27.3051 24.6727 27.2052 25.1777 27.2052 25.6001C27.0953 27.3538 27.2951 29.034 27.2951 30.8153C27.2951 31.1367 27.3051 31.4488 27.495 31.6784C27.9047 32.2293 29.2937 32.0916 29.7934 31.8987C30.293 31.8161 30.7927 31.7335 31.1924 31.4213C31.792 31.0357 32.2916 30.3103 32.5015 29.5758ZM56.5545 26.1602C56.5545 23.8464 56.5645 21.6428 56.5545 19.3381C56.5545 17.3641 56.6644 15.289 57.8636 13.8291C58.8629 12.7824 60.3618 12.3692 61.7508 12.0479C69.945 10.4502 78.7488 10.285 86.9331 10.9277C87.6326 11.0195 88.442 11.1205 89.0416 11.5245C89.9409 12.2223 90.1408 13.5353 90.1408 14.6463C90.2407 16.8591 90.3407 19.1821 90.0409 21.4132C89.5412 24.2595 88.0323 25.2144 85.2343 25.4899C82.5362 25.7562 79.8481 25.8296 77.15 25.5817C76.1507 25.6093 75.0414 25.5266 74.3519 26.1602C73.1528 27.1151 73.1528 29.4105 73.3426 30.8612C73.4526 31.6876 73.8523 31.6784 74.6517 31.6508C76.6503 31.5866 78.539 31.6325 80.5476 31.7702C80.8374 31.761 81.2471 31.8528 81.5469 32.0457C82.3363 32.4313 82.4362 33.4596 82.4462 34.3778C82.4462 36.9487 82.2464 39.5379 82.2464 42.118C82.2464 43.2382 82.1464 44.7991 81.4369 45.8733C80.4476 47.2965 78.7488 46.8741 77.2499 47.0761C76.3405 47.1312 75.4412 47.2781 74.6417 47.7556C73.1428 48.5819 72.7531 50.9325 73.9522 52.1077C74.7417 52.9065 75.8509 53.1452 76.8402 53.1728C80.1478 53.3472 83.4455 52.0526 86.8431 51.7955C87.7425 51.7313 88.8417 51.8506 89.3314 52.6219C89.6411 53.0075 89.6311 53.5125 89.7411 54.0083C90.0309 57.6443 90.2407 61.3721 89.831 65.0631C89.7411 65.8895 89.5412 66.725 88.9416 67.4045C88.442 67.9737 87.7325 68.3594 87.033 68.6532C79.7381 71.4169 71.3441 71.3985 63.9493 71.9494C62.7601 72.0871 61.6609 72.1055 60.6616 71.6648C59.4624 71.1322 58.653 69.9937 58.1534 68.7083C56.9642 65.8068 56.9642 62.2443 57.0541 58.9114C57.1541 51.8414 56.6544 44.9643 56.6644 37.9587C56.5645 34.0014 56.5645 30.0532 56.5545 26.1602ZM113.095 43.5595C111.196 42.5863 108.987 42.1364 106.899 41.5671C103.401 40.6765 100.304 38.6473 98.2051 35.8561C93.1087 28.7127 96.6062 18.4659 103.801 13.8658C105.6 12.7548 107.598 12.0387 109.697 11.6163C114.184 10.5788 118.99 10.5329 123.377 11.8734C129.473 13.7465 134.37 19.4851 134.769 25.6001C134.869 26.2703 134.779 27.0324 134.28 27.4181C134.08 27.7119 133.68 27.8221 133.28 27.9139C131.082 28.5474 128.973 29.08 126.785 29.7227C125.586 29.943 122.788 30.7969 121.689 30.1542C121.379 29.9706 121.189 29.5941 120.989 29.3095C119.39 26.6468 115.683 23.9106 113.284 27.4823C112.685 28.3913 112.495 29.5758 112.895 30.4388C113.594 31.7886 115.293 32.2109 116.792 32.4496C121.089 33.2576 125.586 34.1574 128.883 36.8936C129.873 37.7108 130.882 38.8034 131.671 39.8042C132.281 40.6214 133.68 44.1104 133.78 45.1296C134.28 48.8023 133.87 51.9424 132.181 55.4131C130.872 58.1217 128.883 60.6284 126.175 62.3912C124.387 63.5573 122.388 64.3929 120.389 64.9713C115.883 66.3945 111.096 66.8719 106.589 66.0731C100.603 64.9254 95.7069 59.5174 95.1972 53.1544C95.2072 52.4566 95.2072 51.6578 95.7069 51.2171C96.0067 50.8957 96.3964 50.758 96.7062 50.6386C98.9046 49.8766 101.103 49.2155 103.202 48.4626C104.401 48.0953 107.299 47.2047 108.398 47.8199C108.698 47.9943 108.888 48.3708 109.097 48.6462C110.097 50.3173 112.495 52.8331 114.793 51.7037C116.192 50.9325 117.382 49.2338 117.092 47.728C116.992 46.5803 116.292 45.6713 115.393 45.0653C114.693 44.4318 113.994 43.9911 113.095 43.5595ZM176.22 20.8348C176.32 21.1194 176.51 21.3948 176.61 21.6795C179.818 29.4656 179.018 37.8485 178.418 45.7907C177.819 52.9433 175.511 59.5174 167.206 62.0056C164.528 62.7493 161.71 63.0523 158.922 63.0891C157.124 63.1258 155.335 62.9789 153.636 62.5749C153.536 62.5749 153.536 62.5749 153.536 62.5749C151.438 62.2719 149.429 61.7118 147.64 60.8028C144.942 59.398 143.043 57.1668 141.644 54.6327C139.846 51.0059 138.846 46.9384 138.547 42.7056C138.347 38.8126 138.347 34.5063 139.236 30.5307C140.545 24.535 142.234 18.1353 147.231 14.2606C150.228 11.9377 154.226 10.7716 158.033 10.5512C162.03 10.3401 165.717 10.6247 169.325 12.6814C172.423 14.5636 174.711 17.5661 176.22 20.8348ZM156.334 30.8428C156.024 32.7985 156.134 34.6533 156.224 36.5998C156.224 38.6198 156.224 40.7316 156.224 42.7515C156.214 43.4769 156.334 44.3032 156.534 44.9276C156.834 45.653 157.333 46.3691 158.133 46.5344C158.922 46.7915 160.221 46.663 160.931 46.1947C161.131 46.0202 161.331 45.7356 161.43 45.5611C162.43 44.0921 162.63 42.0721 162.829 40.4286C163.119 37.1231 163.029 33.7994 162.53 30.4756C162.42 29.8237 162.32 29.2728 162.03 28.7127C160.831 26.6743 157.833 27.3722 156.824 29.2544C156.624 29.8145 156.424 30.2828 156.334 30.8428ZM220.489 35.3878C220.479 39.5012 220.189 43.431 219.689 47.5169C219.49 49.7847 219.19 52.1353 218.49 54.3021C217.791 56.5517 216.592 58.7186 214.683 60.2427C211.595 62.8503 207.988 62.6667 204.1 62.7585C200.203 62.8503 196.606 63.034 192.798 61.6934C190.31 60.8854 188.012 59.3613 186.813 57.2036C186.313 56.2211 185.913 55.1377 185.703 54.1461C184.904 50.9967 184.414 47.829 184.214 44.6522C184.005 41.7415 184.314 38.8218 184.114 35.8928C183.715 29.3462 184.314 22.6619 184.314 15.9317C184.414 14.4259 184.814 11.7816 186.613 11.0287C187.112 10.7441 187.712 10.7441 188.312 10.7441C191.409 10.5512 197.005 9.50452 199.304 12.0479C200.503 13.269 200.503 15.1421 200.403 16.7397C200.293 21.6887 200.003 26.6101 199.793 31.5039C199.803 33.7167 199.693 36.0122 199.693 38.2066C199.703 40.4928 199.394 42.9535 199.993 45.2306C200.193 46.2222 200.803 47.3149 201.792 47.6729C204.29 48.3983 204.7 45.5887 204.69 44.1288C205.2 35.0848 204.5 25.9582 204.2 16.7305C204.1 15.1421 204.1 13.269 205.3 12.0387C207.598 9.50452 213.294 10.5329 216.292 10.7257C216.891 10.7257 217.491 10.7257 218.09 11.0103C219.789 11.754 220.279 14.3984 220.289 15.895C220.279 22.4416 220.389 28.933 220.489 35.3878ZM266.656 65.0723C266.846 65.4396 267.056 65.8895 267.056 66.2476C266.956 66.7801 266.556 67.1107 266.257 67.4412C264.058 69.25 261.15 69.8927 258.362 70.6548C256.653 71.1322 254.565 71.5179 253.266 70.3518C252.766 69.9937 252.556 69.3602 252.256 68.8368C250.358 64.6408 248.769 60.3437 247.37 55.9273C246.67 53.7604 246.071 51.4925 245.471 49.3073C245.161 47.8566 245.171 45.0286 243.872 44.1013C242.064 42.7974 242.273 46.9017 242.373 47.4342C242.573 51.162 242.064 54.6694 242.263 58.3513C242.273 59.4255 242.363 60.509 241.874 61.3904C240.575 64.0531 237.567 63.3186 235.079 63.2084C232.38 63.1901 227.474 63.5206 226.674 60.8212C226.684 60.7294 226.684 60.6375 226.684 60.5549C225.585 56.7628 225.785 53.3381 225.785 49.4542C225.685 42.6414 225.685 35.7734 225.575 28.8596C225.585 25.7103 225.575 22.5517 225.585 19.4667C225.485 16.7489 224.886 13.6547 227.874 12.057C231.081 10.2666 235.778 10.2758 239.375 10.1013C245.061 9.82588 251.367 10.0371 256.753 11.6806C258.662 12.36 260.86 13.1313 262.049 14.7565C263.259 16.2806 263.658 18.5761 263.958 20.4767C264.458 23.5066 264.458 26.7202 263.648 29.6217C263.349 31.2193 262.749 32.7067 261.95 34.0014C261.55 34.6441 261.16 35.2868 260.66 35.8377C260.161 36.4804 258.452 37.5547 257.962 38.1974C257.363 38.8309 256.963 39.5655 256.963 40.3827C256.953 40.9519 257.163 41.5028 257.363 42.0629C258.552 45.3132 259.961 48.6462 260.95 52.0434C261.96 55.257 263.658 58.388 265.047 61.418C265.347 62.0515 265.557 62.6942 265.847 63.3278C266.147 63.8787 266.446 64.4388 266.656 65.0723ZM247.969 27.0783C248.469 25.8663 248.659 23.7178 247.06 22.9466C246.071 22.4783 244.872 22.4691 243.772 22.4599C243.573 22.4599 243.363 22.4507 243.173 22.5426C243.173 22.5426 243.073 22.5426 243.073 22.6436C242.763 22.8272 242.673 23.2955 242.673 23.6627C242.573 25.2512 242.773 26.7478 242.773 28.3271C242.773 28.6117 242.773 28.8871 242.973 29.0708C243.363 29.539 244.772 29.3738 245.271 29.1901C245.771 29.0983 246.261 29.0157 246.66 28.731C247.27 28.373 247.77 27.7302 247.969 27.0783ZM280.956 12.7916C286.952 9.82588 294.756 9.77997 300.043 14.2974C303.24 17.0794 305.249 20.9266 306.148 24.8655C306.248 25.4624 306.348 26.05 306.148 26.6376C305.849 27.7119 304.34 28.07 303.45 28.3362C301.352 29.1718 299.343 30.0073 297.245 30.8337C296.055 31.2836 293.647 33.1566 292.558 32.064C292.058 31.5682 291.858 30.9898 291.559 30.4939C290.349 28.4464 287.162 27.1242 285.253 28.8963C284.654 29.5666 284.364 30.5215 284.164 31.3754C282.755 36.205 282.765 42.9444 284.564 47.7464C285.063 49.0043 285.953 50.1796 287.162 50.7121C289.45 51.7864 291.848 49.2522 292.858 47.5719C293.058 47.2873 293.257 46.92 293.557 46.7456C294.656 46.1212 297.554 46.9384 298.644 47.2781C300.842 47.9668 303.051 48.5728 305.139 49.2614C305.549 49.3716 305.939 49.5001 306.248 49.8123C306.748 50.2346 306.748 51.0151 306.748 51.7037C306.248 57.9473 301.352 63.4196 295.356 64.8519C290.849 65.7058 286.063 65.3937 281.556 64.1082C279.567 63.5849 277.459 62.7952 275.76 61.6751C273.072 59.9489 271.073 57.4698 269.774 54.7612C266.876 48.9584 266.067 42.1915 266.776 35.8744C267.076 33.9187 267.276 32.0456 267.775 30.0716C268.775 26.2061 270.573 22.4507 273.162 19.2371C275.27 16.6754 277.858 14.3066 280.956 12.7916ZM311.754 24.8655C311.754 22.6987 311.754 20.6236 311.754 18.4383C311.744 16.5744 311.854 14.6096 313.053 13.2323C314.053 12.2499 315.552 11.8734 316.951 11.5888C325.145 10.1381 333.939 10.0738 342.133 10.7991C342.822 10.9001 343.632 11.0011 344.231 11.4143C345.121 12.1121 345.331 13.4159 345.321 14.5177C345.431 16.7305 345.531 19.0443 345.231 21.2663C344.731 24.0943 343.232 24.9941 340.434 25.1777C337.726 25.3522 335.038 25.3246 332.34 24.9941C331.331 24.9757 330.241 24.8655 329.542 25.4532C328.343 26.3346 328.343 28.5566 328.543 29.9706C328.642 30.7786 329.032 30.7786 329.842 30.7969C331.84 30.8337 333.739 30.9714 335.737 31.2009C336.037 31.2101 336.437 31.3111 336.727 31.5223C337.526 31.9447 337.636 32.9638 337.636 33.8728C337.636 36.4253 337.436 38.987 337.436 41.5487C337.436 42.6689 337.326 44.2114 336.637 45.2214C335.628 46.5344 333.939 45.956 332.44 46.0111C331.54 45.9743 330.631 46.0294 329.842 46.4242C328.333 47.0761 327.943 49.2981 329.142 50.5652C329.942 51.4374 331.041 51.7955 332.04 51.9424C335.328 52.5025 338.635 51.6119 342.023 51.7404C342.932 51.7772 344.032 52.0251 344.531 52.879C344.821 53.3105 344.831 53.8431 344.931 54.3664C345.221 58.186 345.431 62.125 345.031 65.9262C344.931 66.7709 344.731 67.6156 344.132 68.2125C343.632 68.6991 342.922 68.9745 342.233 69.1306C334.938 70.4344 326.544 68.6991 319.149 67.7626C317.94 67.6616 316.851 67.4687 315.852 66.8811C314.652 66.1833 313.843 65.0264 313.343 63.796C312.154 61.0232 312.154 57.8555 312.244 54.8898C312.344 48.5452 311.854 42.2741 311.854 35.8469C311.754 32.1834 311.744 28.5199 311.754 24.8655ZM368.275 44.9735C366.386 43.8533 364.187 43.2933 362.089 42.5954C358.591 41.4845 355.494 39.1982 353.395 36.1866C348.289 28.6851 351.786 18.4475 358.991 13.9117C360.78 12.8008 362.788 12.0938 364.887 11.6806C369.384 10.6431 374.18 10.6063 378.577 11.9285C384.673 13.7281 389.569 19.2555 389.969 25.2971C390.059 25.9582 389.969 26.7294 389.47 27.1426C389.27 27.4548 388.87 27.5925 388.47 27.7119C386.272 28.4831 384.173 29.1442 381.975 29.8971C380.766 30.1818 377.978 31.1734 376.878 30.5307C376.579 30.347 376.379 29.9614 376.169 29.6676C374.58 26.9406 370.883 24.1677 368.484 27.8496C367.875 28.7861 367.685 30.0165 368.085 30.9163C368.784 32.3211 370.483 32.771 371.982 33.0189C376.279 33.7994 380.766 34.5798 384.073 37.2792C385.073 38.0689 386.062 39.1523 386.871 40.1531C387.461 40.9703 388.86 44.6338 388.97 45.754C389.47 49.9316 389.07 53.8614 387.371 58.6267C386.072 62.428 384.073 65.917 381.375 68.24C379.577 69.6815 377.578 70.5813 375.579 71.0863C371.083 72.2157 366.276 71.9311 361.789 70.1498C355.793 67.7442 350.887 60.9956 350.387 54.1277C350.397 53.384 350.387 52.5301 350.887 52.1169C351.187 51.8047 351.596 51.7037 351.896 51.6027C354.095 51.0059 356.283 50.5009 358.391 49.849C359.581 49.546 362.489 48.7564 363.588 49.5093C363.888 49.7205 364.087 50.1428 364.287 50.4642C365.287 52.4107 367.685 55.4407 369.983 54.2562C371.382 53.4207 372.581 51.4834 372.282 49.7388C372.172 48.4258 371.482 47.3883 370.583 46.6905C369.883 45.9743 369.184 45.4693 368.275 44.9735Z" stroke="white" stroke-width="20" mask="url(#path-1-outside-1_387_231)"/>
<rect x="25" y="20" width="336" height="40" fill="#0B0A22"/>
<mask id="path-3-outside-2_387_231" maskUnits="userSpaceOnUse" x="4" y="3" width="392" height="80" fill="black">
<rect fill="white" x="4" y="3" width="392" height="80"/>
<path d="M48.1804 67.0188C48.3903 67.4504 48.5901 68.0013 48.5901 68.4604C48.4902 69.149 48.0905 69.654 47.7807 70.1406C45.5922 72.9319 42.6943 74.3458 39.8963 75.87C38.1875 76.7974 36.0989 77.6605 34.7899 76.274C34.2902 75.8517 34.1003 75.0253 33.8006 74.3458C31.8919 68.8001 33.2909 71.2516 31.8919 65.2651C31.1924 62.3362 30.6028 59.3062 30.0032 56.4139C29.6935 54.5041 29.6935 50.8865 28.3944 49.647C26.6056 47.9025 26.8055 53.1269 26.8954 53.8339C27.1053 58.7736 26.6056 63.539 26.8055 68.6991C26.7955 70.2233 26.9054 71.7566 26.4058 73.042C25.1067 76.9443 22.0988 75.9159 19.6106 75.7415C16.9025 75.6313 12.0159 75.7966 11.2065 71.27C11.2165 71.1231 11.2165 70.9762 11.2165 70.8292C10.1073 64.503 10.3071 59.297 10.3071 53.7604C10.2072 45.1388 10.2072 37.3435 10.1073 29.8879C10.1173 26.5733 10.1073 23.2771 10.1173 20.1002C10.0173 17.2998 9.40777 14.0954 12.4156 12.5896C15.6134 10.8267 20.3001 10.9277 23.8975 10.7991C29.5935 10.5512 35.8891 10.8083 41.2853 12.5988C43.1839 13.3333 45.3924 14.1688 46.5815 15.9317C47.7907 17.5936 48.1904 20.1094 48.4802 22.2028C48.9898 25.5725 48.9898 29.1718 48.1804 32.4772C47.8906 34.3044 47.281 36.0305 46.4916 37.5455C46.0819 38.3076 45.6922 39.0697 45.1825 39.7216C44.6929 40.4928 42.9941 41.8058 42.4844 42.5679C41.8948 43.3392 41.4951 44.2206 41.4951 45.2122C41.4951 45.8917 41.685 46.562 41.8948 47.2322C43.084 51.162 44.493 55.2295 45.4823 59.4255C46.4816 63.3921 45.1825 58.9297 46.5815 62.6024C46.8913 63.3829 47.0812 64.1633 47.391 64.9346C47.6808 65.5865 47.9805 66.2384 48.1804 67.0188ZM32.5015 29.5758C32.9911 28.2261 33.201 25.8113 31.5921 24.9298C30.5928 24.3789 29.3937 24.333 28.2944 24.2963C28.0946 24.2871 27.9047 24.2779 27.7049 24.3789C27.7049 24.3789 27.5949 24.3697 27.6049 24.4707C27.3051 24.6727 27.2052 25.1777 27.2052 25.6001C27.0953 27.3538 27.2951 29.034 27.2951 30.8153C27.2951 31.1367 27.3051 31.4488 27.495 31.6784C27.9047 32.2293 29.2937 32.0916 29.7934 31.8987C30.293 31.8161 30.7927 31.7335 31.1924 31.4213C31.792 31.0357 32.2916 30.3103 32.5015 29.5758ZM56.5545 26.1602C56.5545 23.8464 56.5645 21.6428 56.5545 19.3381C56.5545 17.3641 56.6644 15.289 57.8636 13.8291C58.8629 12.7824 60.3618 12.3692 61.7508 12.0479C69.945 10.4502 78.7488 10.285 86.9331 10.9277C87.6326 11.0195 88.442 11.1205 89.0416 11.5245C89.9409 12.2223 90.1408 13.5353 90.1408 14.6463C90.2407 16.8591 90.3407 19.1821 90.0409 21.4132C89.5412 24.2595 88.0323 25.2144 85.2343 25.4899C82.5362 25.7562 79.8481 25.8296 77.15 25.5817C76.1507 25.6093 75.0414 25.5266 74.3519 26.1602C73.1528 27.1151 73.1528 29.4105 73.3426 30.8612C73.4526 31.6876 73.8523 31.6784 74.6517 31.6508C76.6503 31.5866 78.539 31.6325 80.5476 31.7702C80.8374 31.761 81.2471 31.8528 81.5469 32.0457C82.3363 32.4313 82.4362 33.4596 82.4462 34.3778C82.4462 36.9487 82.2464 39.5379 82.2464 42.118C82.2464 43.2382 82.1464 44.7991 81.4369 45.8733C80.4476 47.2965 78.7488 46.8741 77.2499 47.0761C76.3405 47.1312 75.4412 47.2781 74.6417 47.7556C73.1428 48.5819 72.7531 50.9325 73.9522 52.1077C74.7417 52.9065 75.8509 53.1452 76.8402 53.1728C80.1478 53.3472 83.4455 52.0526 86.8431 51.7955C87.7425 51.7313 88.8417 51.8506 89.3314 52.6219C89.6411 53.0075 89.6311 53.5125 89.7411 54.0083C90.0309 57.6443 90.2407 61.3721 89.831 65.0631C89.7411 65.8895 89.5412 66.725 88.9416 67.4045C88.442 67.9737 87.7325 68.3594 87.033 68.6532C79.7381 71.4169 71.3441 71.3985 63.9493 71.9494C62.7601 72.0871 61.6609 72.1055 60.6616 71.6648C59.4624 71.1322 58.653 69.9937 58.1534 68.7083C56.9642 65.8068 56.9642 62.2443 57.0541 58.9114C57.1541 51.8414 56.6544 44.9643 56.6644 37.9587C56.5645 34.0014 56.5645 30.0532 56.5545 26.1602ZM113.095 43.5595C111.196 42.5863 108.987 42.1364 106.899 41.5671C103.401 40.6765 100.304 38.6473 98.2051 35.8561C93.1087 28.7127 96.6062 18.4659 103.801 13.8658C105.6 12.7548 107.598 12.0387 109.697 11.6163C114.184 10.5788 118.99 10.5329 123.377 11.8734C129.473 13.7465 134.37 19.4851 134.769 25.6001C134.869 26.2703 134.779 27.0324 134.28 27.4181C134.08 27.7119 133.68 27.8221 133.28 27.9139C131.082 28.5474 128.973 29.08 126.785 29.7227C125.586 29.943 122.788 30.7969 121.689 30.1542C121.379 29.9706 121.189 29.5941 120.989 29.3095C119.39 26.6468 115.683 23.9106 113.284 27.4823C112.685 28.3913 112.495 29.5758 112.895 30.4388C113.594 31.7886 115.293 32.2109 116.792 32.4496C121.089 33.2576 125.586 34.1574 128.883 36.8936C129.873 37.7108 130.882 38.8034 131.671 39.8042C132.281 40.6214 133.68 44.1104 133.78 45.1296C134.28 48.8023 133.87 51.9424 132.181 55.4131C130.872 58.1217 128.883 60.6284 126.175 62.3912C124.387 63.5573 122.388 64.3929 120.389 64.9713C115.883 66.3945 111.096 66.8719 106.589 66.0731C100.603 64.9254 95.7069 59.5174 95.1972 53.1544C95.2072 52.4566 95.2072 51.6578 95.7069 51.2171C96.0067 50.8957 96.3964 50.758 96.7062 50.6386C98.9046 49.8766 101.103 49.2155 103.202 48.4626C104.401 48.0953 107.299 47.2047 108.398 47.8199C108.698 47.9943 108.888 48.3708 109.097 48.6462C110.097 50.3173 112.495 52.8331 114.793 51.7037C116.192 50.9325 117.382 49.2338 117.092 47.728C116.992 46.5803 116.292 45.6713 115.393 45.0653C114.693 44.4318 113.994 43.9911 113.095 43.5595ZM176.22 20.8348C176.32 21.1194 176.51 21.3948 176.61 21.6795C179.818 29.4656 179.018 37.8485 178.418 45.7907C177.819 52.9433 175.511 59.5174 167.206 62.0056C164.528 62.7493 161.71 63.0523 158.922 63.0891C157.124 63.1258 155.335 62.9789 153.636 62.5749C153.536 62.5749 153.536 62.5749 153.536 62.5749C151.438 62.2719 149.429 61.7118 147.64 60.8028C144.942 59.398 143.043 57.1668 141.644 54.6327C139.846 51.0059 138.846 46.9384 138.547 42.7056C138.347 38.8126 138.347 34.5063 139.236 30.5307C140.545 24.535 142.234 18.1353 147.231 14.2606C150.228 11.9377 154.226 10.7716 158.033 10.5512C162.03 10.3401 165.717 10.6247 169.325 12.6814C172.423 14.5636 174.711 17.5661 176.22 20.8348ZM156.334 30.8428C156.024 32.7985 156.134 34.6533 156.224 36.5998C156.224 38.6198 156.224 40.7316 156.224 42.7515C156.214 43.4769 156.334 44.3032 156.534 44.9276C156.834 45.653 157.333 46.3691 158.133 46.5344C158.922 46.7915 160.221 46.663 160.931 46.1947C161.131 46.0202 161.331 45.7356 161.43 45.5611C162.43 44.0921 162.63 42.0721 162.829 40.4286C163.119 37.1231 163.029 33.7994 162.53 30.4756C162.42 29.8237 162.32 29.2728 162.03 28.7127C160.831 26.6743 157.833 27.3722 156.824 29.2544C156.624 29.8145 156.424 30.2828 156.334 30.8428ZM220.489 35.3878C220.479 39.5012 220.189 43.431 219.689 47.5169C219.49 49.7847 219.19 52.1353 218.49 54.3021C217.791 56.5517 216.592 58.7186 214.683 60.2427C211.595 62.8503 207.988 62.6667 204.1 62.7585C200.203 62.8503 196.606 63.034 192.798 61.6934C190.31 60.8854 188.012 59.3613 186.813 57.2036C186.313 56.2211 185.913 55.1377 185.703 54.1461C184.904 50.9967 184.414 47.829 184.214 44.6522C184.005 41.7415 184.314 38.8218 184.114 35.8928C183.715 29.3462 184.314 22.6619 184.314 15.9317C184.414 14.4259 184.814 11.7816 186.613 11.0287C187.112 10.7441 187.712 10.7441 188.312 10.7441C191.409 10.5512 197.005 9.50452 199.304 12.0479C200.503 13.269 200.503 15.1421 200.403 16.7397C200.293 21.6887 200.003 26.6101 199.793 31.5039C199.803 33.7167 199.693 36.0122 199.693 38.2066C199.703 40.4928 199.394 42.9535 199.993 45.2306C200.193 46.2222 200.803 47.3149 201.792 47.6729C204.29 48.3983 204.7 45.5887 204.69 44.1288C205.2 35.0848 204.5 25.9582 204.2 16.7305C204.1 15.1421 204.1 13.269 205.3 12.0387C207.598 9.50452 213.294 10.5329 216.292 10.7257C216.891 10.7257 217.491 10.7257 218.09 11.0103C219.789 11.754 220.279 14.3984 220.289 15.895C220.279 22.4416 220.389 28.933 220.489 35.3878ZM266.656 65.0723C266.846 65.4396 267.056 65.8895 267.056 66.2476C266.956 66.7801 266.556 67.1107 266.257 67.4412C264.058 69.25 261.15 69.8927 258.362 70.6548C256.653 71.1322 254.565 71.5179 253.266 70.3518C252.766 69.9937 252.556 69.3602 252.256 68.8368C250.358 64.6408 248.769 60.3437 247.37 55.9273C246.67 53.7604 246.071 51.4925 245.471 49.3073C245.161 47.8566 245.171 45.0286 243.872 44.1013C242.064 42.7974 242.273 46.9017 242.373 47.4342C242.573 51.162 242.064 54.6694 242.263 58.3513C242.273 59.4255 242.363 60.509 241.874 61.3904C240.575 64.0531 237.567 63.3186 235.079 63.2084C232.38 63.1901 227.474 63.5206 226.674 60.8212C226.684 60.7294 226.684 60.6375 226.684 60.5549C225.585 56.7628 225.785 53.3381 225.785 49.4542C225.685 42.6414 225.685 35.7734 225.575 28.8596C225.585 25.7103 225.575 22.5517 225.585 19.4667C225.485 16.7489 224.886 13.6547 227.874 12.057C231.081 10.2666 235.778 10.2758 239.375 10.1013C245.061 9.82588 251.367 10.0371 256.753 11.6806C258.662 12.36 260.86 13.1313 262.049 14.7565C263.259 16.2806 263.658 18.5761 263.958 20.4767C264.458 23.5066 264.458 26.7202 263.648 29.6217C263.349 31.2193 262.749 32.7067 261.95 34.0014C261.55 34.6441 261.16 35.2868 260.66 35.8377C260.161 36.4804 258.452 37.5547 257.962 38.1974C257.363 38.8309 256.963 39.5655 256.963 40.3827C256.953 40.9519 257.163 41.5028 257.363 42.0629C258.552 45.3132 259.961 48.6462 260.95 52.0434C261.96 55.257 263.658 58.388 265.047 61.418C265.347 62.0515 265.557 62.6942 265.847 63.3278C266.147 63.8787 266.446 64.4388 266.656 65.0723ZM247.969 27.0783C248.469 25.8663 248.659 23.7178 247.06 22.9466C246.071 22.4783 244.872 22.4691 243.772 22.4599C243.573 22.4599 243.363 22.4507 243.173 22.5426C243.173 22.5426 243.073 22.5426 243.073 22.6436C242.763 22.8272 242.673 23.2955 242.673 23.6627C242.573 25.2512 242.773 26.7478 242.773 28.3271C242.773 28.6117 242.773 28.8871 242.973 29.0708C243.363 29.539 244.772 29.3738 245.271 29.1901C245.771 29.0983 246.261 29.0157 246.66 28.731C247.27 28.373 247.77 27.7302 247.969 27.0783ZM280.956 12.7916C286.952 9.82588 294.756 9.77997 300.043 14.2974C303.24 17.0794 305.249 20.9266 306.148 24.8655C306.248 25.4624 306.348 26.05 306.148 26.6376C305.849 27.7119 304.34 28.07 303.45 28.3362C301.352 29.1718 299.343 30.0073 297.245 30.8337C296.055 31.2836 293.647 33.1566 292.558 32.064C292.058 31.5682 291.858 30.9898 291.559 30.4939C290.349 28.4464 287.162 27.1242 285.253 28.8963C284.654 29.5666 284.364 30.5215 284.164 31.3754C282.755 36.205 282.765 42.9444 284.564 47.7464C285.063 49.0043 285.953 50.1796 287.162 50.7121C289.45 51.7864 291.848 49.2522 292.858 47.5719C293.058 47.2873 293.257 46.92 293.557 46.7456C294.656 46.1212 297.554 46.9384 298.644 47.2781C300.842 47.9668 303.051 48.5728 305.139 49.2614C305.549 49.3716 305.939 49.5001 306.248 49.8123C306.748 50.2346 306.748 51.0151 306.748 51.7037C306.248 57.9473 301.352 63.4196 295.356 64.8519C290.849 65.7058 286.063 65.3937 281.556 64.1082C279.567 63.5849 277.459 62.7952 275.76 61.6751C273.072 59.9489 271.073 57.4698 269.774 54.7612C266.876 48.9584 266.067 42.1915 266.776 35.8744C267.076 33.9187 267.276 32.0456 267.775 30.0716C268.775 26.2061 270.573 22.4507 273.162 19.2371C275.27 16.6754 277.858 14.3066 280.956 12.7916ZM311.754 24.8655C311.754 22.6987 311.754 20.6236 311.754 18.4383C311.744 16.5744 311.854 14.6096 313.053 13.2323C314.053 12.2499 315.552 11.8734 316.951 11.5888C325.145 10.1381 333.939 10.0738 342.133 10.7991C342.822 10.9001 343.632 11.0011 344.231 11.4143C345.121 12.1121 345.331 13.4159 345.321 14.5177C345.431 16.7305 345.531 19.0443 345.231 21.2663C344.731 24.0943 343.232 24.9941 340.434 25.1777C337.726 25.3522 335.038 25.3246 332.34 24.9941C331.331 24.9757 330.241 24.8655 329.542 25.4532C328.343 26.3346 328.343 28.5566 328.543 29.9706C328.642 30.7786 329.032 30.7786 329.842 30.7969C331.84 30.8337 333.739 30.9714 335.737 31.2009C336.037 31.2101 336.437 31.3111 336.727 31.5223C337.526 31.9447 337.636 32.9638 337.636 33.8728C337.636 36.4253 337.436 38.987 337.436 41.5487C337.436 42.6689 337.326 44.2114 336.637 45.2214C335.628 46.5344 333.939 45.956 332.44 46.0111C331.54 45.9743 330.631 46.0294 329.842 46.4242C328.333 47.0761 327.943 49.2981 329.142 50.5652C329.942 51.4374 331.041 51.7955 332.04 51.9424C335.328 52.5025 338.635 51.6119 342.023 51.7404C342.932 51.7772 344.032 52.0251 344.531 52.879C344.821 53.3105 344.831 53.8431 344.931 54.3664C345.221 58.186 345.431 62.125 345.031 65.9262C344.931 66.7709 344.731 67.6156 344.132 68.2125C343.632 68.6991 342.922 68.9745 342.233 69.1306C334.938 70.4344 326.544 68.6991 319.149 67.7626C317.94 67.6616 316.851 67.4687 315.852 66.8811C314.652 66.1833 313.843 65.0264 313.343 63.796C312.154 61.0232 312.154 57.8555 312.244 54.8898C312.344 48.5452 311.854 42.2741 311.854 35.8469C311.754 32.1834 311.744 28.5199 311.754 24.8655ZM368.275 44.9735C366.386 43.8533 364.187 43.2933 362.089 42.5954C358.591 41.4845 355.494 39.1982 353.395 36.1866C348.289 28.6851 351.786 18.4475 358.991 13.9117C360.78 12.8008 362.788 12.0938 364.887 11.6806C369.384 10.6431 374.18 10.6063 378.577 11.9285C384.673 13.7281 389.569 19.2555 389.969 25.2971C390.059 25.9582 389.969 26.7294 389.47 27.1426C389.27 27.4548 388.87 27.5925 388.47 27.7119C386.272 28.4831 384.173 29.1442 381.975 29.8971C380.766 30.1818 377.978 31.1734 376.878 30.5307C376.579 30.347 376.379 29.9614 376.169 29.6676C374.58 26.9406 370.883 24.1677 368.484 27.8496C367.875 28.7861 367.685 30.0165 368.085 30.9163C368.784 32.3211 370.483 32.771 371.982 33.0189C376.279 33.7994 380.766 34.5798 384.073 37.2792C385.073 38.0689 386.062 39.1523 386.871 40.1531C387.461 40.9703 388.86 44.6338 388.97 45.754C389.47 49.9316 389.07 53.8614 387.371 58.6267C386.072 62.428 384.073 65.917 381.375 68.24C379.577 69.6815 377.578 70.5813 375.579 71.0863C371.083 72.2157 366.276 71.9311 361.789 70.1498C355.793 67.7442 350.887 60.9956 350.387 54.1277C350.397 53.384 350.387 52.5301 350.887 52.1169C351.187 51.8047 351.596 51.7037 351.896 51.6027C354.095 51.0059 356.283 50.5009 358.391 49.849C359.581 49.546 362.489 48.7564 363.588 49.5093C363.888 49.7205 364.087 50.1428 364.287 50.4642C365.287 52.4107 367.685 55.4407 369.983 54.2562C371.382 53.4207 372.581 51.4834 372.282 49.7388C372.172 48.4258 371.482 47.3883 370.583 46.6905C369.883 45.9743 369.184 45.4693 368.275 44.9735Z"/>
</mask>
<path d="M48.1804 67.0188C48.3903 67.4504 48.5901 68.0013 48.5901 68.4604C48.4902 69.149 48.0905 69.654 47.7807 70.1406C45.5922 72.9319 42.6943 74.3458 39.8963 75.87C38.1875 76.7974 36.0989 77.6605 34.7899 76.274C34.2902 75.8517 34.1003 75.0253 33.8006 74.3458C31.8919 68.8001 33.2909 71.2516 31.8919 65.2651C31.1924 62.3362 30.6028 59.3062 30.0032 56.4139C29.6935 54.5041 29.6935 50.8865 28.3944 49.647C26.6056 47.9025 26.8055 53.1269 26.8954 53.8339C27.1053 58.7736 26.6056 63.539 26.8055 68.6991C26.7955 70.2233 26.9054 71.7566 26.4058 73.042C25.1067 76.9443 22.0988 75.9159 19.6106 75.7415C16.9025 75.6313 12.0159 75.7966 11.2065 71.27C11.2165 71.1231 11.2165 70.9762 11.2165 70.8292C10.1073 64.503 10.3071 59.297 10.3071 53.7604C10.2072 45.1388 10.2072 37.3435 10.1073 29.8879C10.1173 26.5733 10.1073 23.2771 10.1173 20.1002C10.0173 17.2998 9.40777 14.0954 12.4156 12.5896C15.6134 10.8267 20.3001 10.9277 23.8975 10.7991C29.5935 10.5512 35.8891 10.8083 41.2853 12.5988C43.1839 13.3333 45.3924 14.1688 46.5815 15.9317C47.7907 17.5936 48.1904 20.1094 48.4802 22.2028C48.9898 25.5725 48.9898 29.1718 48.1804 32.4772C47.8906 34.3044 47.281 36.0305 46.4916 37.5455C46.0819 38.3076 45.6922 39.0697 45.1825 39.7216C44.6929 40.4928 42.9941 41.8058 42.4844 42.5679C41.8948 43.3392 41.4951 44.2206 41.4951 45.2122C41.4951 45.8917 41.685 46.562 41.8948 47.2322C43.084 51.162 44.493 55.2295 45.4823 59.4255C46.4816 63.3921 45.1825 58.9297 46.5815 62.6024C46.8913 63.3829 47.0812 64.1633 47.391 64.9346C47.6808 65.5865 47.9805 66.2384 48.1804 67.0188ZM32.5015 29.5758C32.9911 28.2261 33.201 25.8113 31.5921 24.9298C30.5928 24.3789 29.3937 24.333 28.2944 24.2963C28.0946 24.2871 27.9047 24.2779 27.7049 24.3789C27.7049 24.3789 27.5949 24.3697 27.6049 24.4707C27.3051 24.6727 27.2052 25.1777 27.2052 25.6001C27.0953 27.3538 27.2951 29.034 27.2951 30.8153C27.2951 31.1367 27.3051 31.4488 27.495 31.6784C27.9047 32.2293 29.2937 32.0916 29.7934 31.8987C30.293 31.8161 30.7927 31.7335 31.1924 31.4213C31.792 31.0357 32.2916 30.3103 32.5015 29.5758ZM56.5545 26.1602C56.5545 23.8464 56.5645 21.6428 56.5545 19.3381C56.5545 17.3641 56.6644 15.289 57.8636 13.8291C58.8629 12.7824 60.3618 12.3692 61.7508 12.0479C69.945 10.4502 78.7488 10.285 86.9331 10.9277C87.6326 11.0195 88.442 11.1205 89.0416 11.5245C89.9409 12.2223 90.1408 13.5353 90.1408 14.6463C90.2407 16.8591 90.3407 19.1821 90.0409 21.4132C89.5412 24.2595 88.0323 25.2144 85.2343 25.4899C82.5362 25.7562 79.8481 25.8296 77.15 25.5817C76.1507 25.6093 75.0414 25.5266 74.3519 26.1602C73.1528 27.1151 73.1528 29.4105 73.3426 30.8612C73.4526 31.6876 73.8523 31.6784 74.6517 31.6508C76.6503 31.5866 78.539 31.6325 80.5476 31.7702C80.8374 31.761 81.2471 31.8528 81.5469 32.0457C82.3363 32.4313 82.4362 33.4596 82.4462 34.3778C82.4462 36.9487 82.2464 39.5379 82.2464 42.118C82.2464 43.2382 82.1464 44.7991 81.4369 45.8733C80.4476 47.2965 78.7488 46.8741 77.2499 47.0761C76.3405 47.1312 75.4412 47.2781 74.6417 47.7556C73.1428 48.5819 72.7531 50.9325 73.9522 52.1077C74.7417 52.9065 75.8509 53.1452 76.8402 53.1728C80.1478 53.3472 83.4455 52.0526 86.8431 51.7955C87.7425 51.7313 88.8417 51.8506 89.3314 52.6219C89.6411 53.0075 89.6311 53.5125 89.7411 54.0083C90.0309 57.6443 90.2407 61.3721 89.831 65.0631C89.7411 65.8895 89.5412 66.725 88.9416 67.4045C88.442 67.9737 87.7325 68.3594 87.033 68.6532C79.7381 71.4169 71.3441 71.3985 63.9493 71.9494C62.7601 72.0871 61.6609 72.1055 60.6616 71.6648C59.4624 71.1322 58.653 69.9937 58.1534 68.7083C56.9642 65.8068 56.9642 62.2443 57.0541 58.9114C57.1541 51.8414 56.6544 44.9643 56.6644 37.9587C56.5645 34.0014 56.5645 30.0532 56.5545 26.1602ZM113.095 43.5595C111.196 42.5863 108.987 42.1364 106.899 41.5671C103.401 40.6765 100.304 38.6473 98.2051 35.8561C93.1087 28.7127 96.6062 18.4659 103.801 13.8658C105.6 12.7548 107.598 12.0387 109.697 11.6163C114.184 10.5788 118.99 10.5329 123.377 11.8734C129.473 13.7465 134.37 19.4851 134.769 25.6001C134.869 26.2703 134.779 27.0324 134.28 27.4181C134.08 27.7119 133.68 27.8221 133.28 27.9139C131.082 28.5474 128.973 29.08 126.785 29.7227C125.586 29.943 122.788 30.7969 121.689 30.1542C121.379 29.9706 121.189 29.5941 120.989 29.3095C119.39 26.6468 115.683 23.9106 113.284 27.4823C112.685 28.3913 112.495 29.5758 112.895 30.4388C113.594 31.7886 115.293 32.2109 116.792 32.4496C121.089 33.2576 125.586 34.1574 128.883 36.8936C129.873 37.7108 130.882 38.8034 131.671 39.8042C132.281 40.6214 133.68 44.1104 133.78 45.1296C134.28 48.8023 133.87 51.9424 132.181 55.4131C130.872 58.1217 128.883 60.6284 126.175 62.3912C124.387 63.5573 122.388 64.3929 120.389 64.9713C115.883 66.3945 111.096 66.8719 106.589 66.0731C100.603 64.9254 95.7069 59.5174 95.1972 53.1544C95.2072 52.4566 95.2072 51.6578 95.7069 51.2171C96.0067 50.8957 96.3964 50.758 96.7062 50.6386C98.9046 49.8766 101.103 49.2155 103.202 48.4626C104.401 48.0953 107.299 47.2047 108.398 47.8199C108.698 47.9943 108.888 48.3708 109.097 48.6462C110.097 50.3173 112.495 52.8331 114.793 51.7037C116.192 50.9325 117.382 49.2338 117.092 47.728C116.992 46.5803 116.292 45.6713 115.393 45.0653C114.693 44.4318 113.994 43.9911 113.095 43.5595ZM176.22 20.8348C176.32 21.1194 176.51 21.3948 176.61 21.6795C179.818 29.4656 179.018 37.8485 178.418 45.7907C177.819 52.9433 175.511 59.5174 167.206 62.0056C164.528 62.7493 161.71 63.0523 158.922 63.0891C157.124 63.1258 155.335 62.9789 153.636 62.5749C153.536 62.5749 153.536 62.5749 153.536 62.5749C151.438 62.2719 149.429 61.7118 147.64 60.8028C144.942 59.398 143.043 57.1668 141.644 54.6327C139.846 51.0059 138.846 46.9384 138.547 42.7056C138.347 38.8126 138.347 34.5063 139.236 30.5307C140.545 24.535 142.234 18.1353 147.231 14.2606C150.228 11.9377 154.226 10.7716 158.033 10.5512C162.03 10.3401 165.717 10.6247 169.325 12.6814C172.423 14.5636 174.711 17.5661 176.22 20.8348ZM156.334 30.8428C156.024 32.7985 156.134 34.6533 156.224 36.5998C156.224 38.6198 156.224 40.7316 156.224 42.7515C156.214 43.4769 156.334 44.3032 156.534 44.9276C156.834 45.653 157.333 46.3691 158.133 46.5344C158.922 46.7915 160.221 46.663 160.931 46.1947C161.131 46.0202 161.331 45.7356 161.43 45.5611C162.43 44.0921 162.63 42.0721 162.829 40.4286C163.119 37.1231 163.029 33.7994 162.53 30.4756C162.42 29.8237 162.32 29.2728 162.03 28.7127C160.831 26.6743 157.833 27.3722 156.824 29.2544C156.624 29.8145 156.424 30.2828 156.334 30.8428ZM220.489 35.3878C220.479 39.5012 220.189 43.431 219.689 47.5169C219.49 49.7847 219.19 52.1353 218.49 54.3021C217.791 56.5517 216.592 58.7186 214.683 60.2427C211.595 62.8503 207.988 62.6667 204.1 62.7585C200.203 62.8503 196.606 63.034 192.798 61.6934C190.31 60.8854 188.012 59.3613 186.813 57.2036C186.313 56.2211 185.913 55.1377 185.703 54.1461C184.904 50.9967 184.414 47.829 184.214 44.6522C184.005 41.7415 184.314 38.8218 184.114 35.8928C183.715 29.3462 184.314 22.6619 184.314 15.9317C184.414 14.4259 184.814 11.7816 186.613 11.0287C187.112 10.7441 187.712 10.7441 188.312 10.7441C191.409 10.5512 197.005 9.50452 199.304 12.0479C200.503 13.269 200.503 15.1421 200.403 16.7397C200.293 21.6887 200.003 26.6101 199.793 31.5039C199.803 33.7167 199.693 36.0122 199.693 38.2066C199.703 40.4928 199.394 42.9535 199.993 45.2306C200.193 46.2222 200.803 47.3149 201.792 47.6729C204.29 48.3983 204.7 45.5887 204.69 44.1288C205.2 35.0848 204.5 25.9582 204.2 16.7305C204.1 15.1421 204.1 13.269 205.3 12.0387C207.598 9.50452 213.294 10.5329 216.292 10.7257C216.891 10.7257 217.491 10.7257 218.09 11.0103C219.789 11.754 220.279 14.3984 220.289 15.895C220.279 22.4416 220.389 28.933 220.489 35.3878ZM266.656 65.0723C266.846 65.4396 267.056 65.8895 267.056 66.2476C266.956 66.7801 266.556 67.1107 266.257 67.4412C264.058 69.25 261.15 69.8927 258.362 70.6548C256.653 71.1322 254.565 71.5179 253.266 70.3518C252.766 69.9937 252.556 69.3602 252.256 68.8368C250.358 64.6408 248.769 60.3437 247.37 55.9273C246.67 53.7604 246.071 51.4925 245.471 49.3073C245.161 47.8566 245.171 45.0286 243.872 44.1013C242.064 42.7974 242.273 46.9017 242.373 47.4342C242.573 51.162 242.064 54.6694 242.263 58.3513C242.273 59.4255 242.363 60.509 241.874 61.3904C240.575 64.0531 237.567 63.3186 235.079 63.2084C232.38 63.1901 227.474 63.5206 226.674 60.8212C226.684 60.7294 226.684 60.6375 226.684 60.5549C225.585 56.7628 225.785 53.3381 225.785 49.4542C225.685 42.6414 225.685 35.7734 225.575 28.8596C225.585 25.7103 225.575 22.5517 225.585 19.4667C225.485 16.7489 224.886 13.6547 227.874 12.057C231.081 10.2666 235.778 10.2758 239.375 10.1013C245.061 9.82588 251.367 10.0371 256.753 11.6806C258.662 12.36 260.86 13.1313 262.049 14.7565C263.259 16.2806 263.658 18.5761 263.958 20.4767C264.458 23.5066 264.458 26.7202 263.648 29.6217C263.349 31.2193 262.749 32.7067 261.95 34.0014C261.55 34.6441 261.16 35.2868 260.66 35.8377C260.161 36.4804 258.452 37.5547 257.962 38.1974C257.363 38.8309 256.963 39.5655 256.963 40.3827C256.953 40.9519 257.163 41.5028 257.363 42.0629C258.552 45.3132 259.961 48.6462 260.95 52.0434C261.96 55.257 263.658 58.388 265.047 61.418C265.347 62.0515 265.557 62.6942 265.847 63.3278C266.147 63.8787 266.446 64.4388 266.656 65.0723ZM247.969 27.0783C248.469 25.8663 248.659 23.7178 247.06 22.9466C246.071 22.4783 244.872 22.4691 243.772 22.4599C243.573 22.4599 243.363 22.4507 243.173 22.5426C243.173 22.5426 243.073 22.5426 243.073 22.6436C242.763 22.8272 242.673 23.2955 242.673 23.6627C242.573 25.2512 242.773 26.7478 242.773 28.3271C242.773 28.6117 242.773 28.8871 242.973 29.0708C243.363 29.539 244.772 29.3738 245.271 29.1901C245.771 29.0983 246.261 29.0157 246.66 28.731C247.27 28.373 247.77 27.7302 247.969 27.0783ZM280.956 12.7916C286.952 9.82588 294.756 9.77997 300.043 14.2974C303.24 17.0794 305.249 20.9266 306.148 24.8655C306.248 25.4624 306.348 26.05 306.148 26.6376C305.849 27.7119 304.34 28.07 303.45 28.3362C301.352 29.1718 299.343 30.0073 297.245 30.8337C296.055 31.2836 293.647 33.1566 292.558 32.064C292.058 31.5682 291.858 30.9898 291.559 30.4939C290.349 28.4464 287.162 27.1242 285.253 28.8963C284.654 29.5666 284.364 30.5215 284.164 31.3754C282.755 36.205 282.765 42.9444 284.564 47.7464C285.063 49.0043 285.953 50.1796 287.162 50.7121C289.45 51.7864 291.848 49.2522 292.858 47.5719C293.058 47.2873 293.257 46.92 293.557 46.7456C294.656 46.1212 297.554 46.9384 298.644 47.2781C300.842 47.9668 303.051 48.5728 305.139 49.2614C305.549 49.3716 305.939 49.5001 306.248 49.8123C306.748 50.2346 306.748 51.0151 306.748 51.7037C306.248 57.9473 301.352 63.4196 295.356 64.8519C290.849 65.7058 286.063 65.3937 281.556 64.1082C279.567 63.5849 277.459 62.7952 275.76 61.6751C273.072 59.9489 271.073 57.4698 269.774 54.7612C266.876 48.9584 266.067 42.1915 266.776 35.8744C267.076 33.9187 267.276 32.0456 267.775 30.0716C268.775 26.2061 270.573 22.4507 273.162 19.2371C275.27 16.6754 277.858 14.3066 280.956 12.7916ZM311.754 24.8655C311.754 22.6987 311.754 20.6236 311.754 18.4383C311.744 16.5744 311.854 14.6096 313.053 13.2323C314.053 12.2499 315.552 11.8734 316.951 11.5888C325.145 10.1381 333.939 10.0738 342.133 10.7991C342.822 10.9001 343.632 11.0011 344.231 11.4143C345.121 12.1121 345.331 13.4159 345.321 14.5177C345.431 16.7305 345.531 19.0443 345.231 21.2663C344.731 24.0943 343.232 24.9941 340.434 25.1777C337.726 25.3522 335.038 25.3246 332.34 24.9941C331.331 24.9757 330.241 24.8655 329.542 25.4532C328.343 26.3346 328.343 28.5566 328.543 29.9706C328.642 30.7786 329.032 30.7786 329.842 30.7969C331.84 30.8337 333.739 30.9714 335.737 31.2009C336.037 31.2101 336.437 31.3111 336.727 31.5223C337.526 31.9447 337.636 32.9638 337.636 33.8728C337.636 36.4253 337.436 38.987 337.436 41.5487C337.436 42.6689 337.326 44.2114 336.637 45.2214C335.628 46.5344 333.939 45.956 332.44 46.0111C331.54 45.9743 330.631 46.0294 329.842 46.4242C328.333 47.0761 327.943 49.2981 329.142 50.5652C329.942 51.4374 331.041 51.7955 332.04 51.9424C335.328 52.5025 338.635 51.6119 342.023 51.7404C342.932 51.7772 344.032 52.0251 344.531 52.879C344.821 53.3105 344.831 53.8431 344.931 54.3664C345.221 58.186 345.431 62.125 345.031 65.9262C344.931 66.7709 344.731 67.6156 344.132 68.2125C343.632 68.6991 342.922 68.9745 342.233 69.1306C334.938 70.4344 326.544 68.6991 319.149 67.7626C317.94 67.6616 316.851 67.4687 315.852 66.8811C314.652 66.1833 313.843 65.0264 313.343 63.796C312.154 61.0232 312.154 57.8555 312.244 54.8898C312.344 48.5452 311.854 42.2741 311.854 35.8469C311.754 32.1834 311.744 28.5199 311.754 24.8655ZM368.275 44.9735C366.386 43.8533 364.187 43.2933 362.089 42.5954C358.591 41.4845 355.494 39.1982 353.395 36.1866C348.289 28.6851 351.786 18.4475 358.991 13.9117C360.78 12.8008 362.788 12.0938 364.887 11.6806C369.384 10.6431 374.18 10.6063 378.577 11.9285C384.673 13.7281 389.569 19.2555 389.969 25.2971C390.059 25.9582 389.969 26.7294 389.47 27.1426C389.27 27.4548 388.87 27.5925 388.47 27.7119C386.272 28.4831 384.173 29.1442 381.975 29.8971C380.766 30.1818 377.978 31.1734 376.878 30.5307C376.579 30.347 376.379 29.9614 376.169 29.6676C374.58 26.9406 370.883 24.1677 368.484 27.8496C367.875 28.7861 367.685 30.0165 368.085 30.9163C368.784 32.3211 370.483 32.771 371.982 33.0189C376.279 33.7994 380.766 34.5798 384.073 37.2792C385.073 38.0689 386.062 39.1523 386.871 40.1531C387.461 40.9703 388.86 44.6338 388.97 45.754C389.47 49.9316 389.07 53.8614 387.371 58.6267C386.072 62.428 384.073 65.917 381.375 68.24C379.577 69.6815 377.578 70.5813 375.579 71.0863C371.083 72.2157 366.276 71.9311 361.789 70.1498C355.793 67.7442 350.887 60.9956 350.387 54.1277C350.397 53.384 350.387 52.5301 350.887 52.1169C351.187 51.8047 351.596 51.7037 351.896 51.6027C354.095 51.0059 356.283 50.5009 358.391 49.849C359.581 49.546 362.489 48.7564 363.588 49.5093C363.888 49.7205 364.087 50.1428 364.287 50.4642C365.287 52.4107 367.685 55.4407 369.983 54.2562C371.382 53.4207 372.581 51.4834 372.282 49.7388C372.172 48.4258 371.482 47.3883 370.583 46.6905C369.883 45.9743 369.184 45.4693 368.275 44.9735Z" fill="url(#paint1_linear_387_231)"/>
<path d="M48.1804 67.0188C48.3903 67.4504 48.5901 68.0013 48.5901 68.4604C48.4902 69.149 48.0905 69.654 47.7807 70.1406C45.5922 72.9319 42.6943 74.3458 39.8963 75.87C38.1875 76.7974 36.0989 77.6605 34.7899 76.274C34.2902 75.8517 34.1003 75.0253 33.8006 74.3458C31.8919 68.8001 33.2909 71.2516 31.8919 65.2651C31.1924 62.3362 30.6028 59.3062 30.0032 56.4139C29.6935 54.5041 29.6935 50.8865 28.3944 49.647C26.6056 47.9025 26.8055 53.1269 26.8954 53.8339C27.1053 58.7736 26.6056 63.539 26.8055 68.6991C26.7955 70.2233 26.9054 71.7566 26.4058 73.042C25.1067 76.9443 22.0988 75.9159 19.6106 75.7415C16.9025 75.6313 12.0159 75.7966 11.2065 71.27C11.2165 71.1231 11.2165 70.9762 11.2165 70.8292C10.1073 64.503 10.3071 59.297 10.3071 53.7604C10.2072 45.1388 10.2072 37.3435 10.1073 29.8879C10.1173 26.5733 10.1073 23.2771 10.1173 20.1002C10.0173 17.2998 9.40777 14.0954 12.4156 12.5896C15.6134 10.8267 20.3001 10.9277 23.8975 10.7991C29.5935 10.5512 35.8891 10.8083 41.2853 12.5988C43.1839 13.3333 45.3924 14.1688 46.5815 15.9317C47.7907 17.5936 48.1904 20.1094 48.4802 22.2028C48.9898 25.5725 48.9898 29.1718 48.1804 32.4772C47.8906 34.3044 47.281 36.0305 46.4916 37.5455C46.0819 38.3076 45.6922 39.0697 45.1825 39.7216C44.6929 40.4928 42.9941 41.8058 42.4844 42.5679C41.8948 43.3392 41.4951 44.2206 41.4951 45.2122C41.4951 45.8917 41.685 46.562 41.8948 47.2322C43.084 51.162 44.493 55.2295 45.4823 59.4255C46.4816 63.3921 45.1825 58.9297 46.5815 62.6024C46.8913 63.3829 47.0812 64.1633 47.391 64.9346C47.6808 65.5865 47.9805 66.2384 48.1804 67.0188ZM32.5015 29.5758C32.9911 28.2261 33.201 25.8113 31.5921 24.9298C30.5928 24.3789 29.3937 24.333 28.2944 24.2963C28.0946 24.2871 27.9047 24.2779 27.7049 24.3789C27.7049 24.3789 27.5949 24.3697 27.6049 24.4707C27.3051 24.6727 27.2052 25.1777 27.2052 25.6001C27.0953 27.3538 27.2951 29.034 27.2951 30.8153C27.2951 31.1367 27.3051 31.4488 27.495 31.6784C27.9047 32.2293 29.2937 32.0916 29.7934 31.8987C30.293 31.8161 30.7927 31.7335 31.1924 31.4213C31.792 31.0357 32.2916 30.3103 32.5015 29.5758ZM56.5545 26.1602C56.5545 23.8464 56.5645 21.6428 56.5545 19.3381C56.5545 17.3641 56.6644 15.289 57.8636 13.8291C58.8629 12.7824 60.3618 12.3692 61.7508 12.0479C69.945 10.4502 78.7488 10.285 86.9331 10.9277C87.6326 11.0195 88.442 11.1205 89.0416 11.5245C89.9409 12.2223 90.1408 13.5353 90.1408 14.6463C90.2407 16.8591 90.3407 19.1821 90.0409 21.4132C89.5412 24.2595 88.0323 25.2144 85.2343 25.4899C82.5362 25.7562 79.8481 25.8296 77.15 25.5817C76.1507 25.6093 75.0414 25.5266 74.3519 26.1602C73.1528 27.1151 73.1528 29.4105 73.3426 30.8612C73.4526 31.6876 73.8523 31.6784 74.6517 31.6508C76.6503 31.5866 78.539 31.6325 80.5476 31.7702C80.8374 31.761 81.2471 31.8528 81.5469 32.0457C82.3363 32.4313 82.4362 33.4596 82.4462 34.3778C82.4462 36.9487 82.2464 39.5379 82.2464 42.118C82.2464 43.2382 82.1464 44.7991 81.4369 45.8733C80.4476 47.2965 78.7488 46.8741 77.2499 47.0761C76.3405 47.1312 75.4412 47.2781 74.6417 47.7556C73.1428 48.5819 72.7531 50.9325 73.9522 52.1077C74.7417 52.9065 75.8509 53.1452 76.8402 53.1728C80.1478 53.3472 83.4455 52.0526 86.8431 51.7955C87.7425 51.7313 88.8417 51.8506 89.3314 52.6219C89.6411 53.0075 89.6311 53.5125 89.7411 54.0083C90.0309 57.6443 90.2407 61.3721 89.831 65.0631C89.7411 65.8895 89.5412 66.725 88.9416 67.4045C88.442 67.9737 87.7325 68.3594 87.033 68.6532C79.7381 71.4169 71.3441 71.3985 63.9493 71.9494C62.7601 72.0871 61.6609 72.1055 60.6616 71.6648C59.4624 71.1322 58.653 69.9937 58.1534 68.7083C56.9642 65.8068 56.9642 62.2443 57.0541 58.9114C57.1541 51.8414 56.6544 44.9643 56.6644 37.9587C56.5645 34.0014 56.5645 30.0532 56.5545 26.1602ZM113.095 43.5595C111.196 42.5863 108.987 42.1364 106.899 41.5671C103.401 40.6765 100.304 38.6473 98.2051 35.8561C93.1087 28.7127 96.6062 18.4659 103.801 13.8658C105.6 12.7548 107.598 12.0387 109.697 11.6163C114.184 10.5788 118.99 10.5329 123.377 11.8734C129.473 13.7465 134.37 19.4851 134.769 25.6001C134.869 26.2703 134.779 27.0324 134.28 27.4181C134.08 27.7119 133.68 27.8221 133.28 27.9139C131.082 28.5474 128.973 29.08 126.785 29.7227C125.586 29.943 122.788 30.7969 121.689 30.1542C121.379 29.9706 121.189 29.5941 120.989 29.3095C119.39 26.6468 115.683 23.9106 113.284 27.4823C112.685 28.3913 112.495 29.5758 112.895 30.4388C113.594 31.7886 115.293 32.2109 116.792 32.4496C121.089 33.2576 125.586 34.1574 128.883 36.8936C129.873 37.7108 130.882 38.8034 131.671 39.8042C132.281 40.6214 133.68 44.1104 133.78 45.1296C134.28 48.8023 133.87 51.9424 132.181 55.4131C130.872 58.1217 128.883 60.6284 126.175 62.3912C124.387 63.5573 122.388 64.3929 120.389 64.9713C115.883 66.3945 111.096 66.8719 106.589 66.0731C100.603 64.9254 95.7069 59.5174 95.1972 53.1544C95.2072 52.4566 95.2072 51.6578 95.7069 51.2171C96.0067 50.8957 96.3964 50.758 96.7062 50.6386C98.9046 49.8766 101.103 49.2155 103.202 48.4626C104.401 48.0953 107.299 47.2047 108.398 47.8199C108.698 47.9943 108.888 48.3708 109.097 48.6462C110.097 50.3173 112.495 52.8331 114.793 51.7037C116.192 50.9325 117.382 49.2338 117.092 47.728C116.992 46.5803 116.292 45.6713 115.393 45.0653C114.693 44.4318 113.994 43.9911 113.095 43.5595ZM176.22 20.8348C176.32 21.1194 176.51 21.3948 176.61 21.6795C179.818 29.4656 179.018 37.8485 178.418 45.7907C177.819 52.9433 175.511 59.5174 167.206 62.0056C164.528 62.7493 161.71 63.0523 158.922 63.0891C157.124 63.1258 155.335 62.9789 153.636 62.5749C153.536 62.5749 153.536 62.5749 153.536 62.5749C151.438 62.2719 149.429 61.7118 147.64 60.8028C144.942 59.398 143.043 57.1668 141.644 54.6327C139.846 51.0059 138.846 46.9384 138.547 42.7056C138.347 38.8126 138.347 34.5063 139.236 30.5307C140.545 24.535 142.234 18.1353 147.231 14.2606C150.228 11.9377 154.226 10.7716 158.033 10.5512C162.03 10.3401 165.717 10.6247 169.325 12.6814C172.423 14.5636 174.711 17.5661 176.22 20.8348ZM156.334 30.8428C156.024 32.7985 156.134 34.6533 156.224 36.5998C156.224 38.6198 156.224 40.7316 156.224 42.7515C156.214 43.4769 156.334 44.3032 156.534 44.9276C156.834 45.653 157.333 46.3691 158.133 46.5344C158.922 46.7915 160.221 46.663 160.931 46.1947C161.131 46.0202 161.331 45.7356 161.43 45.5611C162.43 44.0921 162.63 42.0721 162.829 40.4286C163.119 37.1231 163.029 33.7994 162.53 30.4756C162.42 29.8237 162.32 29.2728 162.03 28.7127C160.831 26.6743 157.833 27.3722 156.824 29.2544C156.624 29.8145 156.424 30.2828 156.334 30.8428ZM220.489 35.3878C220.479 39.5012 220.189 43.431 219.689 47.5169C219.49 49.7847 219.19 52.1353 218.49 54.3021C217.791 56.5517 216.592 58.7186 214.683 60.2427C211.595 62.8503 207.988 62.6667 204.1 62.7585C200.203 62.8503 196.606 63.034 192.798 61.6934C190.31 60.8854 188.012 59.3613 186.813 57.2036C186.313 56.2211 185.913 55.1377 185.703 54.1461C184.904 50.9967 184.414 47.829 184.214 44.6522C184.005 41.7415 184.314 38.8218 184.114 35.8928C183.715 29.3462 184.314 22.6619 184.314 15.9317C184.414 14.4259 184.814 11.7816 186.613 11.0287C187.112 10.7441 187.712 10.7441 188.312 10.7441C191.409 10.5512 197.005 9.50452 199.304 12.0479C200.503 13.269 200.503 15.1421 200.403 16.7397C200.293 21.6887 200.003 26.6101 199.793 31.5039C199.803 33.7167 199.693 36.0122 199.693 38.2066C199.703 40.4928 199.394 42.9535 199.993 45.2306C200.193 46.2222 200.803 47.3149 201.792 47.6729C204.29 48.3983 204.7 45.5887 204.69 44.1288C205.2 35.0848 204.5 25.9582 204.2 16.7305C204.1 15.1421 204.1 13.269 205.3 12.0387C207.598 9.50452 213.294 10.5329 216.292 10.7257C216.891 10.7257 217.491 10.7257 218.09 11.0103C219.789 11.754 220.279 14.3984 220.289 15.895C220.279 22.4416 220.389 28.933 220.489 35.3878ZM266.656 65.0723C266.846 65.4396 267.056 65.8895 267.056 66.2476C266.956 66.7801 266.556 67.1107 266.257 67.4412C264.058 69.25 261.15 69.8927 258.362 70.6548C256.653 71.1322 254.565 71.5179 253.266 70.3518C252.766 69.9937 252.556 69.3602 252.256 68.8368C250.358 64.6408 248.769 60.3437 247.37 55.9273C246.67 53.7604 246.071 51.4925 245.471 49.3073C245.161 47.8566 245.171 45.0286 243.872 44.1013C242.064 42.7974 242.273 46.9017 242.373 47.4342C242.573 51.162 242.064 54.6694 242.263 58.3513C242.273 59.4255 242.363 60.509 241.874 61.3904C240.575 64.0531 237.567 63.3186 235.079 63.2084C232.38 63.1901 227.474 63.5206 226.674 60.8212C226.684 60.7294 226.684 60.6375 226.684 60.5549C225.585 56.7628 225.785 53.3381 225.785 49.4542C225.685 42.6414 225.685 35.7734 225.575 28.8596C225.585 25.7103 225.575 22.5517 225.585 19.4667C225.485 16.7489 224.886 13.6547 227.874 12.057C231.081 10.2666 235.778 10.2758 239.375 10.1013C245.061 9.82588 251.367 10.0371 256.753 11.6806C258.662 12.36 260.86 13.1313 262.049 14.7565C263.259 16.2806 263.658 18.5761 263.958 20.4767C264.458 23.5066 264.458 26.7202 263.648 29.6217C263.349 31.2193 262.749 32.7067 261.95 34.0014C261.55 34.6441 261.16 35.2868 260.66 35.8377C260.161 36.4804 258.452 37.5547 257.962 38.1974C257.363 38.8309 256.963 39.5655 256.963 40.3827C256.953 40.9519 257.163 41.5028 257.363 42.0629C258.552 45.3132 259.961 48.6462 260.95 52.0434C261.96 55.257 263.658 58.388 265.047 61.418C265.347 62.0515 265.557 62.6942 265.847 63.3278C266.147 63.8787 266.446 64.4388 266.656 65.0723ZM247.969 27.0783C248.469 25.8663 248.659 23.7178 247.06 22.9466C246.071 22.4783 244.872 22.4691 243.772 22.4599C243.573 22.4599 243.363 22.4507 243.173 22.5426C243.173 22.5426 243.073 22.5426 243.073 22.6436C242.763 22.8272 242.673 23.2955 242.673 23.6627C242.573 25.2512 242.773 26.7478 242.773 28.3271C242.773 28.6117 242.773 28.8871 242.973 29.0708C243.363 29.539 244.772 29.3738 245.271 29.1901C245.771 29.0983 246.261 29.0157 246.66 28.731C247.27 28.373 247.77 27.7302 247.969 27.0783ZM280.956 12.7916C286.952 9.82588 294.756 9.77997 300.043 14.2974C303.24 17.0794 305.249 20.9266 306.148 24.8655C306.248 25.4624 306.348 26.05 306.148 26.6376C305.849 27.7119 304.34 28.07 303.45 28.3362C301.352 29.1718 299.343 30.0073 297.245 30.8337C296.055 31.2836 293.647 33.1566 292.558 32.064C292.058 31.5682 291.858 30.9898 291.559 30.4939C290.349 28.4464 287.162 27.1242 285.253 28.8963C284.654 29.5666 284.364 30.5215 284.164 31.3754C282.755 36.205 282.765 42.9444 284.564 47.7464C285.063 49.0043 285.953 50.1796 287.162 50.7121C289.45 51.7864 291.848 49.2522 292.858 47.5719C293.058 47.2873 293.257 46.92 293.557 46.7456C294.656 46.1212 297.554 46.9384 298.644 47.2781C300.842 47.9668 303.051 48.5728 305.139 49.2614C305.549 49.3716 305.939 49.5001 306.248 49.8123C306.748 50.2346 306.748 51.0151 306.748 51.7037C306.248 57.9473 301.352 63.4196 295.356 64.8519C290.849 65.7058 286.063 65.3937 281.556 64.1082C279.567 63.5849 277.459 62.7952 275.76 61.6751C273.072 59.9489 271.073 57.4698 269.774 54.7612C266.876 48.9584 266.067 42.1915 266.776 35.8744C267.076 33.9187 267.276 32.0456 267.775 30.0716C268.775 26.2061 270.573 22.4507 273.162 19.2371C275.27 16.6754 277.858 14.3066 280.956 12.7916ZM311.754 24.8655C311.754 22.6987 311.754 20.6236 311.754 18.4383C311.744 16.5744 311.854 14.6096 313.053 13.2323C314.053 12.2499 315.552 11.8734 316.951 11.5888C325.145 10.1381 333.939 10.0738 342.133 10.7991C342.822 10.9001 343.632 11.0011 344.231 11.4143C345.121 12.1121 345.331 13.4159 345.321 14.5177C345.431 16.7305 345.531 19.0443 345.231 21.2663C344.731 24.0943 343.232 24.9941 340.434 25.1777C337.726 25.3522 335.038 25.3246 332.34 24.9941C331.331 24.9757 330.241 24.8655 329.542 25.4532C328.343 26.3346 328.343 28.5566 328.543 29.9706C328.642 30.7786 329.032 30.7786 329.842 30.7969C331.84 30.8337 333.739 30.9714 335.737 31.2009C336.037 31.2101 336.437 31.3111 336.727 31.5223C337.526 31.9447 337.636 32.9638 337.636 33.8728C337.636 36.4253 337.436 38.987 337.436 41.5487C337.436 42.6689 337.326 44.2114 336.637 45.2214C335.628 46.5344 333.939 45.956 332.44 46.0111C331.54 45.9743 330.631 46.0294 329.842 46.4242C328.333 47.0761 327.943 49.2981 329.142 50.5652C329.942 51.4374 331.041 51.7955 332.04 51.9424C335.328 52.5025 338.635 51.6119 342.023 51.7404C342.932 51.7772 344.032 52.0251 344.531 52.879C344.821 53.3105 344.831 53.8431 344.931 54.3664C345.221 58.186 345.431 62.125 345.031 65.9262C344.931 66.7709 344.731 67.6156 344.132 68.2125C343.632 68.6991 342.922 68.9745 342.233 69.1306C334.938 70.4344 326.544 68.6991 319.149 67.7626C317.94 67.6616 316.851 67.4687 315.852 66.8811C314.652 66.1833 313.843 65.0264 313.343 63.796C312.154 61.0232 312.154 57.8555 312.244 54.8898C312.344 48.5452 311.854 42.2741 311.854 35.8469C311.754 32.1834 311.744 28.5199 311.754 24.8655ZM368.275 44.9735C366.386 43.8533 364.187 43.2933 362.089 42.5954C358.591 41.4845 355.494 39.1982 353.395 36.1866C348.289 28.6851 351.786 18.4475 358.991 13.9117C360.78 12.8008 362.788 12.0938 364.887 11.6806C369.384 10.6431 374.18 10.6063 378.577 11.9285C384.673 13.7281 389.569 19.2555 389.969 25.2971C390.059 25.9582 389.969 26.7294 389.47 27.1426C389.27 27.4548 388.87 27.5925 388.47 27.7119C386.272 28.4831 384.173 29.1442 381.975 29.8971C380.766 30.1818 377.978 31.1734 376.878 30.5307C376.579 30.347 376.379 29.9614 376.169 29.6676C374.58 26.9406 370.883 24.1677 368.484 27.8496C367.875 28.7861 367.685 30.0165 368.085 30.9163C368.784 32.3211 370.483 32.771 371.982 33.0189C376.279 33.7994 380.766 34.5798 384.073 37.2792C385.073 38.0689 386.062 39.1523 386.871 40.1531C387.461 40.9703 388.86 44.6338 388.97 45.754C389.47 49.9316 389.07 53.8614 387.371 58.6267C386.072 62.428 384.073 65.917 381.375 68.24C379.577 69.6815 377.578 70.5813 375.579 71.0863C371.083 72.2157 366.276 71.9311 361.789 70.1498C355.793 67.7442 350.887 60.9956 350.387 54.1277C350.397 53.384 350.387 52.5301 350.887 52.1169C351.187 51.8047 351.596 51.7037 351.896 51.6027C354.095 51.0059 356.283 50.5009 358.391 49.849C359.581 49.546 362.489 48.7564 363.588 49.5093C363.888 49.7205 364.087 50.1428 364.287 50.4642C365.287 52.4107 367.685 55.4407 369.983 54.2562C371.382 53.4207 372.581 51.4834 372.282 49.7388C372.172 48.4258 371.482 47.3883 370.583 46.6905C369.883 45.9743 369.184 45.4693 368.275 44.9735Z" stroke="#0B0A22" stroke-width="12" mask="url(#path-3-outside-2_387_231)"/>
<defs>
<linearGradient id="paint0_linear_387_231" x1="200" y1="10" x2="200" y2="77" gradientUnits="userSpaceOnUse">
<stop stop-color="#01A7C5"/>
<stop offset="1" stop-color="#1555A4"/>
</linearGradient>
<linearGradient id="paint1_linear_387_231" x1="200" y1="10" x2="200" y2="77" gradientUnits="userSpaceOnUse">
<stop stop-color="#01A7C5"/>
<stop offset="1" stop-color="#1555A4"/>
</linearGradient>
</defs>
</svg>
