<svg width="395" height="447" viewBox="0 0 395 447" fill="none" xmlns="http://www.w3.org/2000/svg">
<g style="mix-blend-mode:multiply" opacity="0.5">
<path d="M345.7 166.29C349.903 156.755 382.76 130.82 399.571 122.811L393.84 290.626H375.501L382.378 299.398L375.501 312.747L399.571 345.929L416 447L333.474 352.032L328.507 337.538L316.281 352.032H310.55V360.804C294.885 374.28 262.257 402.3 257.061 406.572C251.865 410.843 247.255 409.877 245.599 408.86V419.921C241.014 419.921 232.227 421.446 223.821 430.6C217.097 437.923 199.879 444.585 192.11 447C187.22 441.508 185.488 417.759 185.233 406.572C193.18 365.075 238.977 315.036 260.882 295.203C260.27 285.744 264.957 274.48 267.377 270.031L241.396 276.133C242.619 262.708 247.764 249.689 250.184 244.858C236.429 252.181 219.491 284.27 212.742 299.398C193.485 301.839 128.56 317.706 98.5042 325.334L123.72 290.626C113.634 293.678 93.792 302.036 85.1319 312.334C63.8636 313.986 18.729 287.216 8.33689 286.91C-2.05527 286.605 -0.577958 275.341 1.45972 269.747C8.79537 209.944 158.361 231.891 232.227 228.84L187.907 194.132L196.313 178.495L165.366 173.918L117.989 134.253C119.823 127.235 135.564 123.701 143.206 122.811L81.3113 86.1638C70.0022 77.0102 63.3726 63.8208 63.5 51.8703L103.471 57.9727L95.4477 51.8703C166.665 55.5317 238.213 122.811 265.849 154.467C264.932 116.022 308.767 34.4531 330.036 0L359.072 65.6007L349.521 102.596L338.823 86.1963L349.521 110.606C344.936 131.354 345.063 156.374 345.7 166.29Z" fill="#0584AD"/>
</g>
</svg>
