<svg width="166" height="225" viewBox="0 0 166 225" fill="none" xmlns="http://www.w3.org/2000/svg">
<g filter="url(#filter0_d_300_592)">
<path d="M113.883 100.864L122.811 111.424L129.607 125.463L132.954 143.244L131.079 161.088L126.262 172.588L113.358 189.226L98.4393 200.544L74.6721 206.2L48.4672 201.948L26.6728 187.807L14.5419 169.586L10.7404 147.869L11.8678 125.421L23.9096 106.456L38.8942 93.8366L59.2297 85.0733L78.506 84.4107L96.1869 89.5388L113.883 100.864Z" fill="white"/>
<path fill-rule="evenodd" clip-rule="evenodd" d="M21.0176 111.011L28.2089 106.64L39.7501 120.623L55.958 130.841L51.1358 139.541L29.1494 152.86L17.7897 170.377L21.8228 178.964L28.2934 188.859L26.6728 187.808L14.5419 169.586L10.7403 147.869L11.8678 125.421L21.0176 111.011ZM33.4565 192.209L41.7723 179.079L58.1166 162.453L83.7082 165.875L98.7697 184.542L97.8133 199.379L97.153 200.851L74.6721 206.2L48.4672 201.948L33.4565 192.209ZM122.075 177.987L119.998 167.336L104.909 151.872L93.5976 148.459L93.6299 138.116L116.558 131.381L131.333 134.631L132.954 143.244L131.079 161.088L126.262 172.588L122.075 177.987Z" fill="#C65242"/>
<g style="mix-blend-mode:multiply" opacity="0.4">
<path fill-rule="evenodd" clip-rule="evenodd" d="M122.811 111.424L113.883 100.865L111.75 99.4998L93.5196 99.4998L40.5196 94.9998L33.1194 98.6999L31.6741 99.9171L36.5196 113L44.5196 123.5L52.5196 128.5L23.307 182.752L26.6727 187.807L36.6867 194.305L48.5196 180.5L55.0196 187L91.0196 135.5L124.02 123.5L124.02 113.921L122.811 111.424Z" fill="#00BCD8"/>
</g>
<path d="M57.5576 22.1048C62.8627 17.9455 76.7298 19.75 79.3462 33.3554L58.0807 49.5346C48.5527 38.481 51.3505 26.9713 57.5576 22.1048Z" fill="#9F8585"/>
<path d="M59.4615 65.014C68.2031 81.9304 65.2717 99.2056 78.5309 99.6256L64.3477 130.948C55.3081 129.756 37.5056 106.789 32.7741 93.2713C28.0425 79.7534 54.3245 54.6729 59.4615 65.014Z" fill="#9F8585"/>
<path d="M8.70306 183.538C11.0578 161.036 32.7741 143.768 39.7991 138.697L58.6766 157.897C50.4825 160.436 42.1931 170.194 37.222 176.997C32.2508 183.799 26.7929 195.801 18.3838 194.788C9.97462 193.776 8.41968 189.18 8.70306 183.538Z" fill="#9F8585"/>
<path d="M124.609 45.3924C122.548 43.0165 121.701 42.1908 120.946 41.7294C122.037 25.9536 132.85 13.1829 124.609 8.7609C114.143 3.1449 104.724 17.9203 103.416 25.2442C101.368 23.1956 94.2428 16.11 90.0721 20.0129C85.9015 23.9157 87.4585 27.2559 88.7639 29.1703C76.7284 28.3854 47.9478 43.0373 48.7328 70.248L39.496 78.2631L36.1874 81.5908L35.068 84.3394L34.4492 87.3139L34.5667 90.259L35.4205 93.1747C36.137 94.703 37.6498 97.6523 42.715 101.383C47.6756 104.545 63.7047 112.839 67.3093 114.465C59.3242 121.749 35.2095 136.43 35.4206 146.647C35.6621 152.701 36.4356 159.337 41.6685 165.224C43.7616 167.578 51.9935 176.681 55.5355 176.736C54.5006 185.709 43.8333 213.734 59.4616 217.29C70.4508 219.789 75.1601 208.917 78.2988 197.667C80.1966 190.864 83.0083 183.538 86.6713 174.904C90.0727 170.456 92.0861 165.821 95.393 159.986C97.2815 155.977 101.363 144.695 101.325 138.797C105.968 140.169 130.367 141.937 139.001 128.855C143.242 122.429 143.037 84.656 132.677 78.5591C132.876 76.9561 132.982 75.3193 132.982 73.6493C149.988 68.1546 150.773 55.0728 145.389 46.9621C140.471 40.7671 130.028 39.5223 124.609 45.3924Z" fill="#B4AFAC"/>
<circle cx="10.6782" cy="10.6782" r="10.6782" transform="matrix(-0.998741 -0.0501628 -0.0501628 0.998741 70.7314 75.624)" fill="#C28773"/>
<circle cx="10.6782" cy="10.6782" r="10.6782" transform="matrix(-0.998741 -0.0501628 -0.0501628 0.998741 111.428 89.1099)" fill="#C28773"/>
<path d="M92.9512 90.1318C94.7827 91.44 96.6142 91.9633 98.7073 92.4866" stroke="#403945" stroke-width="8.37253" stroke-linecap="round"/>
<path d="M65.2178 80.7129C65.9962 81.3001 67.6632 81.6028 69.9273 82.0211" stroke="#403945" stroke-width="8.37253" stroke-linecap="round"/>
<path d="M119.758 103.61C118.22 107.22 113.3 115.494 105.92 119.708C109.827 120.879 117.316 120.196 120.572 119.708L119.758 103.61Z" fill="white"/>
<circle cx="72.6914" cy="53.1132" r="13.3437" fill="#D8CECC"/>
<path d="M141.088 100.998C140.068 90.9034 137.451 81.3684 132.677 78.5591C132.764 77.8588 132.833 77.1521 132.883 76.439C132.833 76.4428 132.783 76.447 132.733 76.4514C132.042 84.3707 128.762 90.8581 123.631 98.2452C123.768 98.411 123.91 98.5744 124.057 98.7351C128.498 103.605 135.717 104.43 141.088 100.998Z" fill="#D8CECC"/>
<path d="M55.4999 177.022C61.0128 177.512 67.4567 174.315 75.0459 163.788C83.1568 152.537 87.3431 134.746 80.2787 129.774C73.2144 124.803 57.5157 127.42 46.2651 141.548C36.5898 153.699 41.6206 164.107 43.3856 167.117C46.6391 170.629 52.6467 176.691 55.5352 176.736C55.5245 176.829 55.5127 176.925 55.4999 177.022Z" fill="#D8CECC"/>
<circle cx="64.8423" cy="195.446" r="8.11088" fill="#D8CECC"/>
</g>
<defs>
<filter id="filter0_d_300_592" x="0.821875" y="3.85265" width="147.525" height="213.799" filterUnits="userSpaceOnUse" color-interpolation-filters="sRGB">
<feFlood flood-opacity="0" result="BackgroundImageFix"/>
<feColorMatrix in="SourceAlpha" type="matrix" values="0 0 0 0 0 0 0 0 0 0 0 0 0 0 0 0 0 0 127 0" result="hardAlpha"/>
<feOffset dx="-7.85" dy="-3.66298"/>
<feColorMatrix type="matrix" values="0 0 0 0 0.0196078 0 0 0 0 0.517647 0 0 0 0 0.678431 0 0 0 0.7 0"/>
<feBlend mode="normal" in2="BackgroundImageFix" result="effect1_dropShadow_300_592"/>
<feBlend mode="normal" in="SourceGraphic" in2="effect1_dropShadow_300_592" result="shape"/>
</filter>
</defs>
</svg>
