<svg width="326" height="266" viewBox="0 0 326 266" fill="none" xmlns="http://www.w3.org/2000/svg">
<mask id="path-1-outside-1_361_79" maskUnits="userSpaceOnUse" x="-7.51402" y="-3.69064" width="338.699" height="273.377" fill="black">
<rect fill="white" x="-7.51402" y="-3.69064" width="338.699" height="273.377"/>
<path d="M180.487 52.1012L211.239 50.1065L251.591 10.431L220.839 12.4258L180.487 52.1012Z"/>
<path d="M285.016 49.6443L112.803 60.815L124.772 245.329L296.985 234.158L285.016 49.6443Z"/>
<path d="M32.8473 66.0013L112.803 60.815L124.772 245.329L44.8158 250.515L32.8473 66.0013Z"/>
<path d="M70.5912 28.9656L32.8473 66.0013L112.803 60.815L70.5912 28.9656Z"/>
<path d="M255.105 16.997L70.7591 26.793L112.803 60.815L293.658 54.3336L255.105 16.997Z"/>
<path d="M75.7451 72.9331L105.433 71.625L115.988 230.169L86.3004 231.477L75.7451 72.9331Z"/>
<path d="M103.8 74.3693L76.1899 76.1602L55.8437 59.5686L50.6832 41.992L63.1079 41.186L103.8 74.3693Z"/>
<path d="M14.6187 80.1541L42.2291 78.3631L60.2614 59.2821L50.6832 41.992L14.6187 80.1541Z"/>
<path d="M310.606 206.099L116.131 216.86L123.326 251.599L307.72 237.785L310.606 206.099Z"/>
<path d="M22.1489 224.81L116.558 218.686L123.326 251.599L30.334 255.778L22.1489 224.81Z"/>
<path d="M265.002 64.8393L243.544 62.5254L191.715 20.4912L225.427 18.3045L271.801 45.8693L265.002 64.8393Z"/>
<path d="M81.7717 58.5044L112.524 56.5097L126.707 218.027L95.9544 220.022L81.7717 58.5044Z"/>
<path d="M43.9464 60.958L13.1941 62.9527L12.6888 150.381L29.837 224.311L60.5893 222.316L43.4411 148.386L43.9464 60.958Z"/>
<path d="M286.275 45.2393L255.522 47.234L268.481 170.847L257.404 209.55L288.156 207.555L299.234 168.852L286.275 45.2393Z"/>
<path d="M286.981 51.3698L256.088 53.3737L216.932 18.8555L247.825 16.8516L286.981 51.3698Z"/>
<path d="M297.038 44.5411L266.286 46.5359L279.245 170.148L268.167 208.852L298.92 206.857L309.997 168.154L297.038 44.5411Z"/>
<path d="M297.038 44.5411L266.286 46.5359L221.146 12.4058L251.898 10.4111L297.038 44.5411Z"/>
<path d="M143.276 54.5149L112.524 56.5097L67.3846 22.3796L98.1369 20.3848L143.276 54.5149Z"/>
<path d="M112.524 56.5097L81.7717 58.5044L59.202 41.4394L53.5461 23.2772L67.3846 22.3796L112.524 56.5097Z"/>
<path d="M13.1941 62.9527L43.9464 60.958L64.1224 41.1202L53.5461 23.2772L13.1941 62.9527Z"/>
<path d="M214.447 191.749L182.923 167.197L187.18 119.765L196.95 118.255L237.561 117.104L224.27 190.238L214.447 191.749Z"/>
<path d="M143.276 54.5149L112.524 56.5097L126.707 218.027L157.459 216.033L143.276 54.5149Z"/>
<path d="M11.2908 152.633L111.543 146.13L113.059 169.502L15.8821 175.805L12.368 169.239L11.2908 152.633Z"/>
<path d="M13.485 186.461L113.299 173.192L113.817 181.188L120.526 189.399L18.5367 192.927L13.485 186.461Z"/>
<path d="M311.433 133.164L111.543 146.13L113.059 169.502L308.684 157.43L312.51 149.771L311.433 133.164Z"/>
<path d="M315.017 169.372L113.817 181.188L120.526 189.399L311.438 176.089L315.017 169.372Z"/>
<path d="M10.852 145.868L111.104 139.365L112.62 162.736L12.368 169.239L10.852 145.868Z"/>
<path d="M12.6073 172.93L112.86 166.427L113.817 181.188L13.485 186.461L12.6073 172.93Z"/>
<path d="M310.994 126.399L111.104 139.365L112.62 162.736L312.51 149.771L310.994 126.399Z"/>
<path d="M312.75 153.461L112.86 166.427L113.817 181.188L315.017 169.372L312.75 153.461Z"/>
<path d="M224.27 190.238L192.779 166.918L197.002 118.254L247.418 116.825L254.389 165.172L224.27 190.238Z"/>
</mask>
<path d="M180.487 52.1012L211.239 50.1065L251.591 10.431L220.839 12.4258L180.487 52.1012Z" fill="#B26E0E"/>
<path d="M285.016 49.6443L112.803 60.815L124.772 245.329L296.985 234.158L285.016 49.6443Z" fill="#895C17"/>
<path d="M32.8473 66.0013L112.803 60.815L124.772 245.329L44.8158 250.515L32.8473 66.0013Z" fill="#463B12"/>
<path d="M70.5912 28.9656L32.8473 66.0013L112.803 60.815L70.5912 28.9656Z" fill="#463B12"/>
<path d="M255.105 16.997L70.7591 26.793L112.803 60.815L293.658 54.3336L255.105 16.997Z" fill="#B07926"/>
<path d="M75.7451 72.9331L105.433 71.625L115.988 230.169L86.3004 231.477L75.7451 72.9331Z" fill="#342F08"/>
<path d="M103.8 74.3693L76.1899 76.1602L55.8437 59.5686L50.6832 41.992L63.1079 41.186L103.8 74.3693Z" fill="#342F08"/>
<path d="M14.6187 80.1541L42.2291 78.3631L60.2614 59.2821L50.6832 41.992L14.6187 80.1541Z" fill="#342F08"/>
<path d="M310.606 206.099L116.131 216.86L123.326 251.599L307.72 237.785L310.606 206.099Z" fill="#FFCD28"/>
<path d="M22.1489 224.81L116.558 218.686L123.326 251.599L30.334 255.778L22.1489 224.81Z" fill="#CA7F16"/>
<path d="M265.002 64.8393L243.544 62.5254L191.715 20.4912L225.427 18.3045L271.801 45.8693L265.002 64.8393Z" fill="#895C17"/>
<path d="M81.7717 58.5044L112.524 56.5097L126.707 218.027L95.9544 220.022L81.7717 58.5044Z" fill="#CA7F16"/>
<path d="M43.9464 60.958L13.1941 62.9527L12.6888 150.381L29.837 224.311L60.5893 222.316L43.4411 148.386L43.9464 60.958Z" fill="#CA7F16"/>
<path d="M286.275 45.2393L255.522 47.234L268.481 170.847L257.404 209.55L288.156 207.555L299.234 168.852L286.275 45.2393Z" fill="#B26E0E"/>
<path d="M286.981 51.3698L256.088 53.3737L216.932 18.8555L247.825 16.8516L286.981 51.3698Z" fill="#B26E0E"/>
<path d="M297.038 44.5411L266.286 46.5359L279.245 170.148L268.167 208.852L298.92 206.857L309.997 168.154L297.038 44.5411Z" fill="#FFCD28"/>
<path d="M297.038 44.5411L266.286 46.5359L221.146 12.4058L251.898 10.4111L297.038 44.5411Z" fill="#FFCD28"/>
<path d="M143.276 54.5149L112.524 56.5097L67.3846 22.3796L98.1369 20.3848L143.276 54.5149Z" fill="#FFCD28"/>
<path d="M112.524 56.5097L81.7717 58.5044L59.202 41.4394L53.5461 23.2772L67.3846 22.3796L112.524 56.5097Z" fill="#CA7F16"/>
<path d="M13.1941 62.9527L43.9464 60.958L64.1224 41.1202L53.5461 23.2772L13.1941 62.9527Z" fill="#CA7F16"/>
<path d="M214.447 191.749L182.923 167.197L187.18 119.765L196.95 118.255L237.561 117.104L224.27 190.238L214.447 191.749Z" fill="#B26E0E"/>
<path d="M143.276 54.5149L112.524 56.5097L126.707 218.027L157.459 216.033L143.276 54.5149Z" fill="#FFCD28"/>
<path d="M11.2908 152.633L111.543 146.13L113.059 169.502L15.8821 175.805L12.368 169.239L11.2908 152.633Z" fill="#A76509"/>
<path d="M13.485 186.461L113.299 173.192L113.817 181.188L120.526 189.399L18.5367 192.927L13.485 186.461Z" fill="#A76509"/>
<path d="M311.433 133.164L111.543 146.13L113.059 169.502L308.684 157.43L312.51 149.771L311.433 133.164Z" fill="#B36E0E"/>
<path d="M315.017 169.372L113.817 181.188L120.526 189.399L311.438 176.089L315.017 169.372Z" fill="#B36E0E"/>
<path d="M10.852 145.868L111.104 139.365L112.62 162.736L12.368 169.239L10.852 145.868Z" fill="#CA7F16"/>
<path d="M12.6073 172.93L112.86 166.427L113.817 181.188L13.485 186.461L12.6073 172.93Z" fill="#CA7F16"/>
<path d="M310.994 126.399L111.104 139.365L112.62 162.736L312.51 149.771L310.994 126.399Z" fill="#FFCD28"/>
<path d="M312.75 153.461L112.86 166.427L113.817 181.188L315.017 169.372L312.75 153.461Z" fill="#FFCD28"/>
<path d="M224.27 190.238L192.779 166.918L197.002 118.254L247.418 116.825L254.389 165.172L224.27 190.238Z" fill="#FFCD28"/>
<path d="M112.803 60.815L117.793 60.4913C117.614 57.7357 115.235 55.6467 112.48 55.8255L112.803 60.815ZM113.817 181.188L108.828 181.511C108.895 182.551 109.286 183.544 109.945 184.351L113.817 181.188ZM107.814 61.1386L119.782 245.652L129.761 245.005L117.793 60.4913L107.814 61.1386ZM33.171 70.9909L113.127 65.8045L112.48 55.8255L32.5237 61.0118L33.171 70.9909ZM82.0954 63.4939L112.848 61.4992L112.2 51.5201L81.4481 53.5149L82.0954 63.4939ZM107.543 56.947L121.726 218.465L131.688 217.59L117.505 56.0723L107.543 56.947ZM43.6227 55.9684L12.8704 57.9632L13.5177 67.9422L44.27 65.9475L43.6227 55.9684ZM296.714 39.5516L265.962 41.5464L266.609 51.5254L297.361 49.5306L296.714 39.5516ZM142.953 49.5254L112.2 51.5201L112.848 61.4992L143.6 59.5044L142.953 49.5254ZM115.54 52.5214L70.4002 18.3913L64.3691 26.3679L109.508 60.4979L115.54 52.5214ZM106.554 146.454L108.07 169.826L118.049 169.178L116.533 145.807L106.554 146.454ZM109.945 184.351L116.654 192.563L124.398 186.236L117.689 178.024L109.945 184.351ZM314.724 164.381L113.524 176.196L114.11 186.179L315.31 174.364L314.724 164.381ZM106.115 139.688L107.631 163.06L117.61 162.413L116.094 139.041L106.115 139.688ZM107.87 166.75L108.828 181.511L118.807 180.864L117.849 166.103L107.87 166.75ZM180.487 52.1012L173.476 44.9707C170.496 47.9001 169.652 52.373 171.359 56.1867C173.066 60.0004 176.964 62.3507 181.134 62.0803L180.487 52.1012ZM211.239 50.1065L211.886 60.0855C214.28 59.9302 216.539 58.9192 218.25 57.2371L211.239 50.1065ZM251.591 10.431L258.602 17.5616C261.581 14.6322 262.425 10.1592 260.718 6.34556C259.011 2.53189 255.113 0.181526 250.944 0.451983L251.591 10.431ZM220.839 12.4258L220.191 2.44674C217.797 2.60204 215.538 3.61302 213.828 5.29518L220.839 12.4258ZM285.016 49.6443L294.995 48.997C294.638 43.4858 289.88 39.3078 284.369 39.6653L285.016 49.6443ZM112.803 60.815L106.78 68.7977C108.613 70.1807 110.867 70.8908 113.161 70.8086L112.803 60.815ZM296.985 234.158L297.632 244.137C303.143 243.78 307.321 239.022 306.964 233.511L296.985 234.158ZM32.8473 66.0013L25.8435 58.8636C23.7661 60.902 22.6799 63.7443 22.8683 66.6486L32.8473 66.0013ZM44.8158 250.515L34.8368 251.162C35.1943 256.674 39.9519 260.852 45.4631 260.494L44.8158 250.515ZM70.5912 28.9656L76.6142 20.9829C72.6616 18.0006 67.1216 18.36 63.5874 21.8279L70.5912 28.9656ZM255.105 16.997L262.062 9.81352C260.064 7.87897 257.351 6.86357 254.574 7.01113L255.105 16.997ZM293.658 54.3336L294.017 64.3272C298.023 64.1837 301.556 61.6617 302.993 57.9197C304.431 54.1777 303.495 49.9389 300.615 47.1501L293.658 54.3336ZM70.7591 26.793L70.2284 16.8071C66.0948 17.0267 62.5238 19.7704 61.2468 23.708C59.9698 27.6455 61.2508 31.9628 64.4686 34.5667L70.7591 26.793ZM75.7451 72.9331L75.3049 62.9428C72.6164 63.0612 70.0892 64.2583 68.2943 66.2633C66.4994 68.2684 65.5884 70.9123 65.7672 73.5974L75.7451 72.9331ZM105.433 71.625L115.411 70.9607C115.049 65.5373 110.423 61.3954 104.992 61.6347L105.433 71.625ZM115.988 230.169L116.428 240.159C119.117 240.041 121.644 238.844 123.439 236.839C125.234 234.834 126.145 232.19 125.966 229.505L115.988 230.169ZM86.3004 231.477L76.3225 232.141C76.6836 237.565 81.3105 241.707 86.7406 241.467L86.3004 231.477ZM103.8 74.3693L104.448 84.3483C108.55 84.0822 112.072 81.3323 113.325 77.4166C114.578 73.501 113.306 69.2176 110.12 66.6194L103.8 74.3693ZM76.1899 76.1602L69.8702 83.9101C71.8276 85.5064 74.3167 86.3028 76.8372 86.1393L76.1899 76.1602ZM50.6832 41.992L50.0359 32.0129C47.5154 32.1764 45.1501 33.2877 43.4152 35.1235L50.6832 41.992ZM63.1079 41.186L69.4277 33.4361C67.4702 31.8399 64.9812 31.0435 62.4606 31.207L63.1079 41.186ZM55.8437 59.5686L46.2487 62.3857C46.8175 64.3229 47.9593 66.0426 49.5239 67.3185L55.8437 59.5686ZM14.6187 80.1541L7.35067 73.2856C4.5269 76.2736 3.8196 80.6853 5.56779 84.4063C7.31597 88.1273 11.1634 90.3992 15.2659 90.1331L14.6187 80.1541ZM42.2291 78.3631L42.8764 88.3421C45.3969 88.1786 47.7622 87.0674 49.4971 85.2316L42.2291 78.3631ZM60.2614 59.2821L67.5294 66.1506C70.5212 62.9847 71.1196 58.2465 69.0088 54.4362L60.2614 59.2821ZM310.606 206.099L320.564 207.006C320.828 204.111 319.819 201.246 317.801 199.154C315.783 197.063 312.955 195.953 310.053 196.114L310.606 206.099ZM116.131 216.86L115.579 206.876C112.672 207.037 109.98 208.456 108.205 210.764C106.43 213.071 105.749 216.038 106.339 218.888L116.131 216.86ZM123.326 251.599L123.775 261.589C123.874 261.584 123.973 261.578 124.073 261.571L123.326 251.599ZM307.72 237.785L308.467 247.757C313.34 247.392 317.235 243.559 317.679 238.692L307.72 237.785ZM22.1489 224.81L21.5016 214.831C18.5185 215.024 15.7785 216.542 14.0323 218.968C12.2862 221.395 11.717 224.475 12.4809 227.365L22.1489 224.81ZM116.558 218.686L126.354 216.672C125.348 211.783 120.892 208.384 115.911 208.707L116.558 218.686ZM30.334 255.778L20.666 258.333C21.8686 262.883 26.0813 265.979 30.783 265.768L30.334 255.778ZM265.002 64.8393L263.93 74.7817C268.523 75.2769 272.857 72.5618 274.416 68.2131L265.002 64.8393ZM243.544 62.5254L237.245 70.2922C238.741 71.5057 240.556 72.2612 242.472 72.4678L243.544 62.5254ZM191.715 20.4912L191.068 10.5122C186.961 10.7786 183.436 13.5346 182.187 17.4565C180.938 21.3785 182.219 25.6652 185.416 28.2579L191.715 20.4912ZM225.427 18.3045L230.537 9.70839C228.801 8.67689 226.794 8.19477 224.78 8.32545L225.427 18.3045ZM271.801 45.8693L281.215 49.2431C282.83 44.7372 281.025 39.7189 276.911 37.2732L271.801 45.8693ZM81.7717 58.5044L91.7334 57.6297C91.4861 54.8132 90.0581 52.233 87.8028 50.5278L81.7717 58.5044ZM95.9544 220.022L85.9927 220.897C86.4681 226.31 91.1791 230.353 96.6017 230.001L95.9544 220.022ZM43.9464 60.958L36.9353 53.8274C35.0376 55.6933 33.9619 58.2388 33.9466 60.9002L43.9464 60.958ZM13.1941 62.9527L6.18305 55.8221C4.28529 57.6881 3.20964 60.2335 3.19426 62.8949L13.1941 62.9527ZM29.837 224.311L20.0956 226.57C21.2018 231.34 25.5986 234.607 30.4843 234.29L29.837 224.311ZM60.5893 222.316L61.2366 232.295C64.1664 232.105 66.8647 230.637 68.6159 228.28C70.367 225.924 70.9941 222.917 70.3307 220.057L60.5893 222.316ZM43.4411 148.386L33.4413 148.328C33.4368 149.108 33.5235 149.886 33.6997 150.645L43.4411 148.386ZM12.6888 150.381L2.68896 150.323C2.68445 151.103 2.77119 151.88 2.9474 152.64L12.6888 150.381ZM286.275 45.2393L296.22 44.1966C295.66 38.8574 290.984 34.9128 285.627 35.2603L286.275 45.2393ZM255.522 47.234L254.875 37.255C252.16 37.4311 249.633 38.7061 247.879 40.7859C246.124 42.8656 245.293 45.5705 245.577 48.2767L255.522 47.234ZM257.404 209.55L247.79 206.798C246.895 209.925 247.577 213.293 249.618 215.825C251.66 218.358 254.805 219.739 258.051 219.529L257.404 209.55ZM288.156 207.555L288.804 217.534C293.019 217.261 296.608 214.368 297.77 210.307L288.156 207.555ZM299.234 168.852L308.848 171.604C309.2 170.372 309.313 169.084 309.179 167.809L299.234 168.852ZM268.481 170.847L278.095 173.598C278.448 172.366 278.561 171.078 278.427 169.804L268.481 170.847ZM286.981 51.3698L287.628 61.3488C291.661 61.0872 295.14 58.4242 296.445 54.5996C297.75 50.775 296.625 46.5408 293.594 43.8684L286.981 51.3698ZM256.088 53.3737L249.475 60.875C251.47 62.6332 254.082 63.5248 256.736 63.3527L256.088 53.3737ZM216.932 18.8555L216.285 8.87647C212.252 9.13805 208.773 11.8011 207.468 15.6257C206.163 19.4503 207.288 23.6845 210.319 26.3568L216.932 18.8555ZM247.825 16.8516L254.438 9.35028C252.443 7.59207 249.831 6.7005 247.178 6.8726L247.825 16.8516ZM297.038 44.5411L306.983 43.4985C306.695 40.7449 305.277 38.2343 303.069 36.5645L297.038 44.5411ZM266.286 46.5359L276.231 45.4932C275.942 42.7397 274.525 40.2291 272.317 38.5593L266.286 46.5359ZM268.167 208.852L258.553 206.1C257.658 209.227 258.34 212.594 260.382 215.127C262.423 217.66 265.569 219.041 268.815 218.831L268.167 208.852ZM298.92 206.857L299.567 216.836C303.782 216.562 307.371 213.67 308.534 209.608L298.92 206.857ZM309.997 168.154L319.611 170.905C319.964 169.674 320.076 168.385 319.943 167.111L309.997 168.154ZM279.245 170.148L288.859 172.9C289.211 171.668 289.324 170.38 289.19 169.106L279.245 170.148ZM221.146 12.4058L220.499 2.42679C216.329 2.69725 212.767 5.53151 211.567 9.53374C210.367 13.536 211.782 17.8624 215.115 20.3824L221.146 12.4058ZM251.898 10.4111L257.93 2.43449C256.016 0.987444 253.645 0.276731 251.251 0.432035L251.898 10.4111ZM143.276 54.5149L153.238 53.6402C152.991 50.8237 151.563 48.2435 149.307 46.5383L143.276 54.5149ZM98.1369 20.3848L104.168 12.4083C102.254 10.9612 99.8839 10.2505 97.4896 10.4058L98.1369 20.3848ZM53.5461 23.2772L52.8988 13.2982C50.5045 13.4535 48.2459 14.4645 46.535 16.1467L53.5461 23.2772ZM59.202 41.4394L49.6543 44.4127C50.2753 46.4068 51.505 48.1563 53.1709 49.416L59.202 41.4394ZM64.1224 41.1202L71.1334 48.2508C74.4137 45.0256 75.0704 39.9785 72.7247 36.0212L64.1224 41.1202ZM214.447 191.749L208.303 199.639C210.475 201.33 213.248 202.052 215.968 201.633L214.447 191.749ZM182.923 167.197L172.963 166.303C172.659 169.689 174.096 172.997 176.778 175.086L182.923 167.197ZM187.18 119.765L185.653 109.882C181.11 110.584 177.631 114.293 177.22 118.871L187.18 119.765ZM237.561 117.104L247.399 118.892C247.938 115.926 247.111 112.875 245.146 110.588C243.182 108.302 240.291 107.023 237.277 107.108L237.561 117.104ZM224.27 190.238L225.791 200.122C227.585 199.846 229.271 199.086 230.667 197.924L224.27 190.238ZM196.95 118.255L196.667 108.259C196.25 108.271 195.835 108.309 195.423 108.372L196.95 118.255ZM157.459 216.033L158.106 226.012C160.792 225.837 163.295 224.588 165.048 222.545C166.801 220.502 167.656 217.839 167.421 215.158L157.459 216.033ZM11.2908 152.633L10.6435 142.654C5.13225 143.012 0.954288 147.769 1.31178 153.28L11.2908 152.633ZM113.059 169.502L112.443 159.521C112.433 159.522 112.423 159.522 112.412 159.523L113.059 169.502ZM15.8821 175.805L7.06533 180.524C8.91571 183.981 12.6161 186.038 16.5293 185.784L15.8821 175.805ZM12.368 169.239L2.38895 169.887C2.48135 171.311 2.87767 172.699 3.55125 173.958L12.368 169.239ZM13.485 186.461L3.50601 187.108C3.6361 189.113 4.36746 191.033 5.60474 192.617L13.485 186.461ZM113.299 173.192L123.278 172.545C123.098 169.782 121.781 167.216 119.64 165.46C117.499 163.704 114.726 162.915 111.981 163.279L113.299 173.192ZM120.526 189.399L120.872 199.394C120.989 199.389 121.105 199.383 121.222 199.375L120.526 189.399ZM18.5367 192.927L10.6564 199.083C12.6265 201.605 15.6843 203.032 18.8824 202.921L18.5367 192.927ZM113.817 181.188L114.342 191.174C117.012 191.034 119.514 189.83 121.291 187.832C123.067 185.834 123.969 183.208 123.796 180.541L113.817 181.188ZM311.433 133.164L321.412 132.517C321.055 127.006 316.297 122.828 310.786 123.185L311.433 133.164ZM308.684 157.43L309.3 167.411C312.861 167.192 316.035 165.091 317.63 161.899L308.684 157.43ZM312.51 149.771L321.456 154.24C322.248 152.656 322.604 150.89 322.489 149.123L312.51 149.771ZM315.017 169.372L323.843 174.074C324.84 172.202 325.216 170.061 324.917 167.961L315.017 169.372ZM311.438 176.089L312.134 186.065C315.571 185.826 318.643 183.833 320.264 180.792L311.438 176.089ZM10.852 145.868L10.2047 135.889C4.6934 136.246 0.515442 141.004 0.872931 146.515L10.852 145.868ZM12.6073 172.93L11.9601 162.951C6.44879 163.308 2.27083 168.066 2.62832 173.577L12.6073 172.93ZM310.994 126.399L320.973 125.751C320.616 120.24 315.858 116.062 310.347 116.42L310.994 126.399ZM312.75 153.461L322.65 152.05C321.913 146.877 317.317 143.144 312.103 143.482L312.75 153.461ZM192.779 166.918L182.817 166.053C182.516 169.516 184.035 172.886 186.828 174.954L192.779 166.918ZM197.002 118.254L196.719 108.258C191.641 108.402 187.479 112.329 187.039 117.389L197.002 118.254ZM247.418 116.825L257.315 115.398C256.59 110.371 252.212 106.685 247.134 106.829L247.418 116.825ZM254.389 165.172L260.785 172.858C263.457 170.635 264.782 167.185 264.286 163.745L254.389 165.172ZM181.134 62.0803L211.886 60.0855L210.592 40.1275L179.839 42.1222L181.134 62.0803ZM218.25 57.2371L258.602 17.5616L244.58 3.30042L204.228 42.9759L218.25 57.2371ZM250.944 0.451983L220.191 2.44674L221.486 22.4048L252.238 20.41L250.944 0.451983ZM213.828 5.29518L173.476 44.9707L187.498 59.2318L227.85 19.5564L213.828 5.29518ZM284.369 39.6653L112.156 50.836L113.451 70.794L285.663 59.6234L284.369 39.6653ZM125.419 255.308L297.632 244.137L296.337 224.179L124.125 235.35L125.419 255.308ZM306.964 233.511L294.995 48.997L275.037 50.2916L287.006 234.805L306.964 233.511ZM124.125 235.35L44.1686 240.536L45.4631 260.494L125.419 255.308L124.125 235.35ZM54.7949 249.868L42.8263 65.3541L22.8683 66.6486L34.8368 251.162L54.7949 249.868ZM63.5874 21.8279L25.8435 58.8636L39.8511 73.1391L77.595 36.1033L63.5874 21.8279ZM118.826 52.8323L76.6142 20.9829L64.5682 36.9483L106.78 68.7977L118.826 52.8323ZM113.161 70.8086L294.017 64.3272L293.3 44.3401L112.445 50.8214L113.161 70.8086ZM300.615 47.1501L262.062 9.81352L248.148 24.1806L286.702 61.5172L300.615 47.1501ZM254.574 7.01113L70.2284 16.8071L71.2897 36.7789L255.636 26.983L254.574 7.01113ZM64.4686 34.5667L106.513 68.5887L119.094 53.0413L77.0495 19.0193L64.4686 34.5667ZM76.1853 82.9234L105.873 81.6153L104.992 61.6347L75.3049 62.9428L76.1853 82.9234ZM95.4547 72.2893L106.01 230.833L125.966 229.505L115.411 70.9607L95.4547 72.2893ZM115.548 220.179L85.8602 221.487L86.7406 241.467L116.428 240.159L115.548 220.179ZM96.2783 230.813L85.723 72.2688L65.7672 73.5974L76.3225 232.141L96.2783 230.813ZM103.153 64.3902L75.5426 66.1812L76.8372 86.1393L104.448 84.3483L103.153 64.3902ZM56.7882 48.9359L97.4806 82.1192L110.12 66.6194L69.4277 33.4361L56.7882 48.9359ZM82.5097 68.4103L62.1635 51.8187L49.5239 67.3185L69.8702 83.9101L82.5097 68.4103ZM65.4387 56.7515L60.2782 39.1749L41.0882 44.809L46.2487 62.3857L65.4387 56.7515ZM15.2659 90.1331L42.8764 88.3421L41.5818 68.3841L13.9714 70.175L15.2659 90.1331ZM69.0088 54.4362L59.4307 37.1462L41.9358 46.8378L51.5139 64.1279L69.0088 54.4362ZM43.4152 35.1235L7.35067 73.2856L21.8866 87.0226L57.9512 48.8605L43.4152 35.1235ZM49.4971 85.2316L67.5294 66.1506L52.9934 52.4135L34.9611 71.4946L49.4971 85.2316ZM51.3305 51.971L63.7552 51.1651L62.4606 31.207L50.0359 32.0129L51.3305 51.971ZM310.053 196.114L115.579 206.876L116.684 226.845L311.158 216.083L310.053 196.114ZM106.339 218.888L113.533 253.627L133.118 249.571L125.923 214.833L106.339 218.888ZM124.073 261.571L308.467 247.757L306.973 227.813L122.579 241.627L124.073 261.571ZM317.679 238.692L320.564 207.006L300.647 205.192L297.761 236.878L317.679 238.692ZM22.7962 234.789L117.206 228.665L115.911 208.707L21.5016 214.831L22.7962 234.789ZM106.763 220.7L113.531 253.613L133.121 249.585L126.354 216.672L106.763 220.7ZM122.877 241.609L29.8851 245.788L30.783 265.768L123.775 261.589L122.877 241.609ZM40.002 253.223L31.8169 222.254L12.4809 227.365L20.666 258.333L40.002 253.223ZM266.074 54.8969L244.616 52.5831L242.472 72.4678L263.93 74.7817L266.074 54.8969ZM249.843 54.7587L198.014 12.7245L185.416 28.2579L237.245 70.2922L249.843 54.7587ZM192.363 30.4702L226.074 28.2835L224.78 8.32545L191.068 10.5122L192.363 30.4702ZM220.318 26.9006L266.691 54.4654L276.911 37.2732L230.537 9.70839L220.318 26.9006ZM262.387 42.4955L255.589 61.4655L274.416 68.2131L281.215 49.2431L262.387 42.4955ZM126.059 208.048L95.3071 210.043L96.6017 230.001L127.354 228.006L126.059 208.048ZM105.916 219.147L91.7334 57.6297L71.8101 59.3791L85.9927 220.897L105.916 219.147ZM30.4843 234.29L61.2366 232.295L59.942 212.337L29.1897 214.332L30.4843 234.29ZM70.3307 220.057L53.1825 146.126L33.6997 150.645L50.8479 224.576L70.3307 220.057ZM53.4409 148.444L53.9462 61.0158L33.9466 60.9002L33.4413 148.328L53.4409 148.444ZM3.19426 62.8949L2.68896 150.323L22.6886 150.438L23.1939 63.0105L3.19426 62.8949ZM2.9474 152.64L20.0956 226.57L39.5784 222.051L22.4302 148.121L2.9474 152.64ZM285.627 35.2603L254.875 37.255L256.17 57.2131L286.922 55.2183L285.627 35.2603ZM258.051 219.529L288.804 217.534L287.509 197.576L256.757 199.571L258.051 219.529ZM297.77 210.307L308.848 171.604L289.62 166.1L278.542 204.803L297.77 210.307ZM309.179 167.809L296.22 44.1966L276.329 46.2819L289.288 169.895L309.179 167.809ZM245.577 48.2767L258.536 171.889L278.427 169.804L265.468 46.1914L245.577 48.2767ZM258.868 168.095L247.79 206.798L267.018 212.301L278.095 173.598L258.868 168.095ZM286.334 41.3908L255.441 43.3946L256.736 63.3527L287.628 61.3488L286.334 41.3908ZM262.701 45.8723L223.545 11.3541L210.319 26.3568L249.475 60.875L262.701 45.8723ZM217.58 28.8345L248.472 26.8307L247.178 6.8726L216.285 8.87647L217.58 28.8345ZM241.212 24.353L280.368 58.8711L293.594 43.8684L254.438 9.35028L241.212 24.353ZM268.815 218.831L299.567 216.836L298.272 196.878L267.52 198.872L268.815 218.831ZM308.534 209.608L319.611 170.905L300.383 165.402L289.306 204.105L308.534 209.608ZM319.943 167.111L306.983 43.4985L287.092 45.5838L300.052 169.196L319.943 167.111ZM256.34 47.5785L269.299 171.191L289.19 169.106L276.231 45.4932L256.34 47.5785ZM269.631 167.397L258.553 206.1L277.781 211.603L288.859 172.9L269.631 167.397ZM272.317 38.5593L227.177 4.42925L215.115 20.3824L260.254 54.5124L272.317 38.5593ZM221.793 22.3848L252.546 20.3901L251.251 0.432035L220.499 2.42679L221.793 22.3848ZM245.867 18.3876L291.007 52.5177L303.069 36.5645L257.93 2.43449L245.867 18.3876ZM68.0319 32.3586L98.7842 30.3639L97.4896 10.4058L66.7373 12.4006L68.0319 32.3586ZM92.1058 28.3614L137.245 62.4915L149.307 46.5383L104.168 12.4083L92.1058 28.3614ZM87.8028 50.5278L65.2331 33.4628L53.1709 49.416L75.7406 66.481L87.8028 50.5278ZM68.7498 38.4661L63.0938 20.3039L43.9983 26.2505L49.6543 44.4127L68.7498 38.4661ZM72.7247 36.0212L62.1484 18.1783L44.9437 28.3762L55.52 46.2192L72.7247 36.0212ZM46.535 16.1467L6.18305 55.8221L20.2051 70.0833L60.5571 30.4078L46.535 16.1467ZM50.9574 68.0886L71.1334 48.2508L57.1113 33.9896L36.9353 53.8274L50.9574 68.0886ZM54.1934 33.2563L68.0319 32.3586L66.7373 12.4006L52.8988 13.2982L54.1934 33.2563ZM220.592 183.86L189.067 159.307L176.778 175.086L208.303 199.639L220.592 183.86ZM192.882 168.091L197.14 120.659L177.22 118.871L172.963 166.303L192.882 168.091ZM227.722 115.316L214.431 188.45L234.109 192.026L247.399 118.892L227.722 115.316ZM222.749 180.354L212.927 181.866L215.968 201.633L225.791 200.122L222.749 180.354ZM188.707 129.648L198.478 128.138L195.423 108.372L185.653 109.882L188.707 129.648ZM197.233 128.251L237.844 127.1L237.277 107.108L196.667 108.259L197.233 128.251ZM127.354 228.006L158.106 226.012L156.812 206.054L126.059 208.048L127.354 228.006ZM167.421 215.158L153.238 53.6402L133.315 55.3896L147.497 216.907L167.421 215.158ZM11.9381 162.612L112.191 156.109L110.896 136.151L10.6435 142.654L11.9381 162.612ZM112.412 159.523L15.2348 165.826L16.5293 185.784L113.707 179.481L112.412 159.523ZM24.6988 171.087L21.1847 164.521L3.55125 173.958L7.06533 180.524L24.6988 171.087ZM22.347 168.592L21.2698 151.986L1.31178 153.28L2.38895 169.887L22.347 168.592ZM14.8028 196.373L114.616 183.105L111.981 163.279L12.1673 176.548L14.8028 196.373ZM120.181 179.405L18.1911 182.933L18.8824 202.921L120.872 199.394L120.181 179.405ZM26.417 186.771L21.3653 180.304L5.60474 192.617L10.6564 199.083L26.417 186.771ZM103.32 173.839L103.838 181.835L123.796 180.541L123.278 172.545L103.32 173.839ZM310.786 123.185L110.896 136.151L112.191 156.109L312.081 143.143L310.786 123.185ZM113.675 179.483L309.3 167.411L308.068 147.449L112.443 159.521L113.675 179.483ZM317.63 161.899L321.456 154.24L303.565 145.301L299.738 152.961L317.63 161.899ZM322.489 149.123L321.412 132.517L301.454 133.812L302.531 150.418L322.489 149.123ZM121.222 199.375L312.134 186.065L310.743 166.114L119.831 179.424L121.222 199.375ZM320.264 180.792L323.843 174.074L306.192 164.67L302.613 171.387L320.264 180.792ZM11.4993 155.847L111.752 149.344L110.457 129.386L10.2047 135.889L11.4993 155.847ZM111.973 152.757L11.7207 159.26L13.0153 179.218L113.268 172.715L111.973 152.757ZM22.347 168.592L20.831 145.22L0.872931 146.515L2.38895 169.887L22.347 168.592ZM13.2546 182.909L113.507 176.406L112.213 156.448L11.9601 162.951L13.2546 182.909ZM113.293 171.202L12.9602 176.474L14.0098 196.447L114.342 191.174L113.293 171.202ZM23.4641 185.813L22.5864 172.282L2.62832 173.577L3.50601 187.108L23.4641 185.813ZM310.347 116.42L110.457 129.386L111.752 149.344L311.642 136.378L310.347 116.42ZM113.268 172.715L313.158 159.75L311.863 139.791L111.973 152.757L113.268 172.715ZM322.489 149.123L320.973 125.751L301.015 127.046L302.531 150.418L322.489 149.123ZM312.103 143.482L112.213 156.448L113.507 176.406L313.397 163.44L312.103 143.482ZM324.917 167.961L322.65 152.05L302.85 154.872L305.117 170.783L324.917 167.961ZM230.221 182.202L198.731 158.881L186.828 174.954L218.318 198.274L230.221 182.202ZM202.742 167.782L206.965 119.118L187.039 117.389L182.817 166.053L202.742 167.782ZM197.285 128.25L247.701 126.821L247.134 106.829L196.719 108.258L197.285 128.25ZM237.52 118.252L244.491 166.599L264.286 163.745L257.315 115.398L237.52 118.252ZM247.992 157.486L217.873 182.552L230.667 197.924L260.785 172.858L247.992 157.486Z" fill="white" mask="url(#path-1-outside-1_361_79)"/>
<mask id="path-3-outside-2_361_79" maskUnits="userSpaceOnUse" x="-3.26349" y="0.559892" width="330.198" height="264.876" fill="black">
<rect fill="white" x="-3.26349" y="0.559892" width="330.198" height="264.876"/>
<path d="M180.487 52.1012L211.239 50.1065L251.591 10.431L220.839 12.4258L180.487 52.1012Z"/>
<path d="M285.016 49.6443L112.803 60.815L124.772 245.329L296.985 234.158L285.016 49.6443Z"/>
<path d="M32.8473 66.0013L112.803 60.815L124.772 245.329L44.8158 250.515L32.8473 66.0013Z"/>
<path d="M70.5912 28.9656L32.8473 66.0013L112.803 60.815L70.5912 28.9656Z"/>
<path d="M255.105 16.997L70.7591 26.793L112.803 60.815L293.658 54.3336L255.105 16.997Z"/>
<path d="M75.7451 72.9331L105.433 71.625L115.988 230.169L86.3004 231.477L75.7451 72.9331Z"/>
<path d="M103.8 74.3693L76.1899 76.1602L55.8437 59.5686L50.6832 41.992L63.1079 41.186L103.8 74.3693Z"/>
<path d="M14.6187 80.1541L42.2291 78.3631L60.2614 59.2821L50.6832 41.992L14.6187 80.1541Z"/>
<path d="M310.606 206.099L116.131 216.86L123.326 251.599L307.72 237.785L310.606 206.099Z"/>
<path d="M22.1489 224.81L116.558 218.686L123.326 251.599L30.334 255.778L22.1489 224.81Z"/>
<path d="M265.002 64.8393L243.544 62.5254L191.715 20.4912L225.427 18.3045L271.801 45.8693L265.002 64.8393Z"/>
<path d="M81.7717 58.5044L112.524 56.5097L126.707 218.027L95.9544 220.022L81.7717 58.5044Z"/>
<path d="M43.9464 60.958L13.1941 62.9527L12.6888 150.381L29.837 224.311L60.5893 222.316L43.4411 148.386L43.9464 60.958Z"/>
<path d="M286.275 45.2393L255.522 47.234L268.481 170.847L257.404 209.55L288.156 207.555L299.234 168.852L286.275 45.2393Z"/>
<path d="M286.981 51.3698L256.088 53.3737L216.932 18.8555L247.825 16.8516L286.981 51.3698Z"/>
<path d="M297.038 44.5411L266.286 46.5359L279.245 170.148L268.167 208.852L298.92 206.857L309.997 168.154L297.038 44.5411Z"/>
<path d="M297.038 44.5411L266.286 46.5359L221.146 12.4058L251.898 10.4111L297.038 44.5411Z"/>
<path d="M143.276 54.5149L112.524 56.5097L67.3846 22.3796L98.1369 20.3848L143.276 54.5149Z"/>
<path d="M112.524 56.5097L81.7717 58.5044L59.202 41.4394L53.5461 23.2772L67.3846 22.3796L112.524 56.5097Z"/>
<path d="M13.1941 62.9527L43.9464 60.958L64.1224 41.1202L53.5461 23.2772L13.1941 62.9527Z"/>
<path d="M214.447 191.749L182.923 167.197L187.18 119.765L196.95 118.255L237.561 117.104L224.27 190.238L214.447 191.749Z"/>
<path d="M143.276 54.5149L112.524 56.5097L126.707 218.027L157.459 216.033L143.276 54.5149Z"/>
<path d="M11.2908 152.633L111.543 146.13L113.059 169.502L15.8821 175.805L12.368 169.239L11.2908 152.633Z"/>
<path d="M13.485 186.461L113.299 173.192L113.817 181.188L120.526 189.399L18.5367 192.927L13.485 186.461Z"/>
<path d="M311.433 133.164L111.543 146.13L113.059 169.502L308.684 157.43L312.51 149.771L311.433 133.164Z"/>
<path d="M315.017 169.372L113.817 181.188L120.526 189.399L311.438 176.089L315.017 169.372Z"/>
<path d="M10.852 145.868L111.104 139.365L112.62 162.736L12.368 169.239L10.852 145.868Z"/>
<path d="M12.6073 172.93L112.86 166.427L113.817 181.188L13.485 186.461L12.6073 172.93Z"/>
<path d="M310.994 126.399L111.104 139.365L112.62 162.736L312.51 149.771L310.994 126.399Z"/>
<path d="M312.75 153.461L112.86 166.427L113.817 181.188L315.017 169.372L312.75 153.461Z"/>
<path d="M224.27 190.238L192.779 166.918L197.002 118.254L247.418 116.825L254.389 165.172L224.27 190.238Z"/>
</mask>
<path d="M180.487 52.1012L211.239 50.1065L251.591 10.431L220.839 12.4258L180.487 52.1012Z" fill="#B26E0E"/>
<path d="M285.016 49.6443L112.803 60.815L124.772 245.329L296.985 234.158L285.016 49.6443Z" fill="#895C17"/>
<path d="M32.8473 66.0013L112.803 60.815L124.772 245.329L44.8158 250.515L32.8473 66.0013Z" fill="#463B12"/>
<path d="M70.5912 28.9656L32.8473 66.0013L112.803 60.815L70.5912 28.9656Z" fill="#463B12"/>
<path d="M255.105 16.997L70.7591 26.793L112.803 60.815L293.658 54.3336L255.105 16.997Z" fill="#B07926"/>
<path d="M75.7451 72.9331L105.433 71.625L115.988 230.169L86.3004 231.477L75.7451 72.9331Z" fill="#342F08"/>
<path d="M103.8 74.3693L76.1899 76.1602L55.8437 59.5686L50.6832 41.992L63.1079 41.186L103.8 74.3693Z" fill="#342F08"/>
<path d="M14.6187 80.1541L42.2291 78.3631L60.2614 59.2821L50.6832 41.992L14.6187 80.1541Z" fill="#342F08"/>
<path d="M310.606 206.099L116.131 216.86L123.326 251.599L307.72 237.785L310.606 206.099Z" fill="#FFCD28"/>
<path d="M22.1489 224.81L116.558 218.686L123.326 251.599L30.334 255.778L22.1489 224.81Z" fill="#CA7F16"/>
<path d="M265.002 64.8393L243.544 62.5254L191.715 20.4912L225.427 18.3045L271.801 45.8693L265.002 64.8393Z" fill="#895C17"/>
<path d="M81.7717 58.5044L112.524 56.5097L126.707 218.027L95.9544 220.022L81.7717 58.5044Z" fill="#CA7F16"/>
<path d="M43.9464 60.958L13.1941 62.9527L12.6888 150.381L29.837 224.311L60.5893 222.316L43.4411 148.386L43.9464 60.958Z" fill="#CA7F16"/>
<path d="M286.275 45.2393L255.522 47.234L268.481 170.847L257.404 209.55L288.156 207.555L299.234 168.852L286.275 45.2393Z" fill="#B26E0E"/>
<path d="M286.981 51.3698L256.088 53.3737L216.932 18.8555L247.825 16.8516L286.981 51.3698Z" fill="#B26E0E"/>
<path d="M297.038 44.5411L266.286 46.5359L279.245 170.148L268.167 208.852L298.92 206.857L309.997 168.154L297.038 44.5411Z" fill="#FFCD28"/>
<path d="M297.038 44.5411L266.286 46.5359L221.146 12.4058L251.898 10.4111L297.038 44.5411Z" fill="#FFCD28"/>
<path d="M143.276 54.5149L112.524 56.5097L67.3846 22.3796L98.1369 20.3848L143.276 54.5149Z" fill="#FFCD28"/>
<path d="M112.524 56.5097L81.7717 58.5044L59.202 41.4394L53.5461 23.2772L67.3846 22.3796L112.524 56.5097Z" fill="#CA7F16"/>
<path d="M13.1941 62.9527L43.9464 60.958L64.1224 41.1202L53.5461 23.2772L13.1941 62.9527Z" fill="#CA7F16"/>
<path d="M214.447 191.749L182.923 167.197L187.18 119.765L196.95 118.255L237.561 117.104L224.27 190.238L214.447 191.749Z" fill="#B26E0E"/>
<path d="M143.276 54.5149L112.524 56.5097L126.707 218.027L157.459 216.033L143.276 54.5149Z" fill="#FFCD28"/>
<path d="M11.2908 152.633L111.543 146.13L113.059 169.502L15.8821 175.805L12.368 169.239L11.2908 152.633Z" fill="#A76509"/>
<path d="M13.485 186.461L113.299 173.192L113.817 181.188L120.526 189.399L18.5367 192.927L13.485 186.461Z" fill="#A76509"/>
<path d="M311.433 133.164L111.543 146.13L113.059 169.502L308.684 157.43L312.51 149.771L311.433 133.164Z" fill="#B36E0E"/>
<path d="M315.017 169.372L113.817 181.188L120.526 189.399L311.438 176.089L315.017 169.372Z" fill="#B36E0E"/>
<path d="M10.852 145.868L111.104 139.365L112.62 162.736L12.368 169.239L10.852 145.868Z" fill="#CA7F16"/>
<path d="M12.6073 172.93L112.86 166.427L113.817 181.188L13.485 186.461L12.6073 172.93Z" fill="#CA7F16"/>
<path d="M310.994 126.399L111.104 139.365L112.62 162.736L312.51 149.771L310.994 126.399Z" fill="#FFCD28"/>
<path d="M312.75 153.461L112.86 166.427L113.817 181.188L315.017 169.372L312.75 153.461Z" fill="#FFCD28"/>
<path d="M224.27 190.238L192.779 166.918L197.002 118.254L247.418 116.825L254.389 165.172L224.27 190.238Z" fill="#FFCD28"/>
<path d="M112.803 60.815L115.797 60.6208C115.69 58.9674 114.262 57.714 112.609 57.8213L112.803 60.815ZM113.817 181.188L110.824 181.382C110.864 182.006 111.099 182.602 111.494 183.086L113.817 181.188ZM109.81 61.0092L121.778 245.523L127.766 245.135L115.797 60.6208L109.81 61.0092ZM33.0415 68.9951L112.997 63.8087L112.609 57.8213L32.6531 63.0076L33.0415 68.9951ZM81.9659 61.4981L112.718 59.5034L112.33 53.5159L81.5775 55.5107L81.9659 61.4981ZM109.536 56.7721L123.718 218.29L129.695 217.765L115.513 56.2472L109.536 56.7721ZM43.7522 57.9643L12.9999 59.959L13.3883 65.9464L44.1406 63.9517L43.7522 57.9643ZM296.844 41.5474L266.091 43.5422L266.48 49.5296L297.232 47.5348L296.844 41.5474ZM143.082 51.5212L112.33 53.5159L112.718 59.5034L143.471 57.5086L143.082 51.5212ZM114.333 54.1167L69.194 19.9866L65.5753 24.7726L110.715 58.9026L114.333 54.1167ZM108.55 146.324L110.066 169.696L116.053 169.308L114.537 145.936L108.55 146.324ZM111.494 183.086L118.203 191.298L122.85 187.501L116.141 179.29L111.494 183.086ZM314.841 166.377L113.641 178.193L113.993 184.183L315.193 172.367L314.841 166.377ZM108.111 139.559L109.627 162.931L115.614 162.542L114.098 139.17L108.111 139.559ZM109.866 166.621L110.824 181.382L116.811 180.994L115.854 166.233L109.866 166.621ZM180.487 52.1012L176.28 47.8229C174.492 49.5805 173.986 52.2643 175.01 54.5525C176.034 56.8407 178.373 58.2509 180.875 58.0887L180.487 52.1012ZM211.239 50.1065L211.627 56.0939C213.064 56.0007 214.419 55.3941 215.446 54.3848L211.239 50.1065ZM251.591 10.431L255.798 14.7094C257.585 12.9517 258.092 10.2679 257.067 7.97974C256.043 5.69154 253.704 4.28132 251.203 4.44359L251.591 10.431ZM220.839 12.4258L220.45 6.43835C219.014 6.53153 217.659 7.13812 216.632 8.14741L220.839 12.4258ZM285.016 49.6443L291.004 49.256C290.789 45.9492 287.935 43.4424 284.628 43.6569L285.016 49.6443ZM112.803 60.815L109.189 65.6046C110.289 66.4344 111.641 66.8605 113.018 66.8111L112.803 60.815ZM296.985 234.158L297.373 240.146C300.68 239.931 303.187 237.077 302.972 233.77L296.985 234.158ZM32.8473 66.0013L28.645 61.7187C27.3986 62.9418 26.7469 64.6471 26.8599 66.3897L32.8473 66.0013ZM44.8158 250.515L38.8284 250.904C39.0429 254.21 41.8975 256.717 45.2042 256.503L44.8158 250.515ZM70.5912 28.9656L74.205 24.176C71.8334 22.3866 68.5094 22.6022 66.3889 24.683L70.5912 28.9656ZM255.105 16.997L259.279 12.6869C258.081 11.5262 256.453 10.917 254.787 11.0055L255.105 16.997ZM293.658 54.3336L293.873 60.3298C296.277 60.2437 298.397 58.7305 299.259 56.4853C300.122 54.2401 299.56 51.6968 297.832 50.0235L293.658 54.3336ZM70.7591 26.793L70.4407 20.8014C67.9605 20.9332 65.8179 22.5795 65.0517 24.942C64.2855 27.3045 65.0541 29.8949 66.9848 31.4572L70.7591 26.793ZM75.7451 72.9331L75.481 66.9389C73.8679 67.01 72.3515 67.7282 71.2746 68.9312C70.1977 70.1343 69.6511 71.7206 69.7583 73.3317L75.7451 72.9331ZM105.433 71.625L111.419 71.2264C111.203 67.9724 108.427 65.4872 105.168 65.6308L105.433 71.625ZM115.988 230.169L116.252 236.163C117.865 236.092 119.381 235.374 120.458 234.171C121.535 232.968 122.082 231.381 121.975 229.77L115.988 230.169ZM86.3004 231.477L80.3137 231.876C80.5303 235.13 83.3064 237.615 86.5645 237.471L86.3004 231.477ZM103.8 74.3693L104.189 80.3567C106.65 80.197 108.763 78.5471 109.515 76.1977C110.267 73.8483 109.504 71.2782 107.592 69.7193L103.8 74.3693ZM76.1899 76.1602L72.3981 80.8102C73.5725 81.7679 75.066 82.2457 76.5783 82.1476L76.1899 76.1602ZM50.6832 41.992L50.2949 36.0045C48.7825 36.1026 47.3634 36.7694 46.3224 37.8709L50.6832 41.992ZM63.1079 41.186L66.8998 36.5361C65.7253 35.5783 64.2319 35.1005 62.7195 35.1986L63.1079 41.186ZM55.8437 59.5686L50.0867 61.2589C50.428 62.4212 51.113 63.453 52.0518 64.2185L55.8437 59.5686ZM14.6187 80.1541L10.2579 76.033C8.5636 77.8258 8.13922 80.4728 9.18813 82.7054C10.237 84.938 12.5455 86.3011 15.007 86.1415L14.6187 80.1541ZM42.2291 78.3631L42.6175 84.3505C44.1298 84.2524 45.549 83.5857 46.5899 82.4842L42.2291 78.3631ZM60.2614 59.2821L64.6222 63.4032C66.4172 61.5037 66.7763 58.6607 65.5099 56.3746L60.2614 59.2821ZM310.606 206.099L316.581 206.643C316.739 204.906 316.134 203.187 314.923 201.932C313.712 200.677 312.015 200.012 310.274 200.108L310.606 206.099ZM116.131 216.86L115.8 210.87C114.056 210.966 112.44 211.818 111.375 213.202C110.31 214.587 109.902 216.367 110.256 218.077L116.131 216.86ZM123.326 251.599L123.595 257.593C123.655 257.59 123.714 257.587 123.774 257.582L123.326 251.599ZM307.72 237.785L308.168 243.769C311.092 243.549 313.429 241.249 313.695 238.329L307.72 237.785ZM22.1489 224.81L21.7605 218.822C19.9707 218.938 18.3266 219.849 17.2789 221.305C16.2312 222.761 15.8898 224.609 16.3481 226.343L22.1489 224.81ZM116.558 218.686L122.436 217.477C121.832 214.544 119.159 212.504 116.17 212.698L116.558 218.686ZM30.334 255.778L24.5332 257.311C25.2548 260.041 27.7824 261.899 30.6034 261.772L30.334 255.778ZM265.002 64.8393L264.359 70.8047C267.115 71.1019 269.715 69.4728 270.65 66.8636L265.002 64.8393ZM243.544 62.5254L239.764 67.1855C240.662 67.9136 241.751 68.3669 242.901 68.4908L243.544 62.5254ZM191.715 20.4912L191.327 14.5038C188.863 14.6636 186.748 16.3172 185.998 18.6704C185.249 21.0236 186.018 23.5956 187.936 25.1512L191.715 20.4912ZM225.427 18.3045L228.493 13.1468C227.452 12.5279 226.247 12.2387 225.039 12.3171L225.427 18.3045ZM271.801 45.8693L277.449 47.8936C278.418 45.1901 277.335 42.1791 274.867 40.7116L271.801 45.8693ZM81.7717 58.5044L87.7487 57.9796C87.6003 56.2897 86.7435 54.7416 85.3904 53.7185L81.7717 58.5044ZM95.9544 220.022L89.9774 220.547C90.2626 223.795 93.0892 226.221 96.3428 226.01L95.9544 220.022ZM43.9464 60.958L39.7398 56.6796C38.6011 57.7992 37.9557 59.3265 37.9465 60.9233L43.9464 60.958ZM13.1941 62.9527L8.98746 58.6744C7.84881 59.7939 7.20342 61.3212 7.19419 62.918L13.1941 62.9527ZM29.837 224.311L23.9921 225.667C24.6559 228.528 27.2939 230.488 30.2253 230.298L29.837 224.311ZM60.5893 222.316L60.9776 228.304C62.7356 228.19 64.3546 227.309 65.4052 225.895C66.4559 224.481 66.8321 222.676 66.4341 220.96L60.5893 222.316ZM43.4411 148.386L37.4412 148.351C37.4385 148.819 37.4905 149.286 37.5963 149.742L43.4411 148.386ZM12.6888 150.381L6.68889 150.346C6.68618 150.814 6.73823 151.281 6.84396 151.736L12.6888 150.381ZM286.275 45.2393L292.242 44.6137C291.906 41.4101 289.101 39.0434 285.886 39.2519L286.275 45.2393ZM255.522 47.234L255.134 41.2466C253.505 41.3523 251.989 42.1173 250.936 43.3651C249.883 44.613 249.385 46.2359 249.555 47.8596L255.522 47.234ZM257.404 209.55L251.636 207.899C251.099 209.775 251.508 211.795 252.733 213.315C253.957 214.835 255.845 215.663 257.792 215.537L257.404 209.55ZM288.156 207.555L288.545 213.542C291.074 213.378 293.227 211.643 293.925 209.206L288.156 207.555ZM299.234 168.852L305.002 170.503C305.214 169.764 305.281 168.991 305.201 168.226L299.234 168.852ZM268.481 170.847L274.25 172.498C274.461 171.759 274.529 170.986 274.449 170.221L268.481 170.847ZM286.981 51.3698L287.369 57.3572C289.789 57.2003 291.876 55.6024 292.659 53.3077C293.443 51.0129 292.768 48.4724 290.949 46.869L286.981 51.3698ZM256.088 53.3737L252.121 57.8745C253.317 58.9294 254.885 59.4643 256.477 59.3611L256.088 53.3737ZM216.932 18.8555L216.544 12.8681C214.124 13.025 212.037 14.6229 211.254 16.9176C210.471 19.2123 211.146 21.7529 212.965 23.3563L216.932 18.8555ZM247.825 16.8516L251.793 12.3508C250.596 11.2959 249.029 10.761 247.437 10.8642L247.825 16.8516ZM297.038 44.5411L303.005 43.9155C302.832 42.2634 301.982 40.757 300.657 39.7552L297.038 44.5411ZM266.286 46.5359L272.253 45.9103C272.08 44.2582 271.229 42.7518 269.904 41.7499L266.286 46.5359ZM268.167 208.852L262.399 207.201C261.862 209.077 262.271 211.097 263.496 212.617C264.721 214.136 266.608 214.965 268.556 214.839L268.167 208.852ZM298.92 206.857L299.308 212.844C301.837 212.68 303.991 210.944 304.688 208.508L298.92 206.857ZM309.997 168.154L315.765 169.805C315.977 169.066 316.045 168.293 315.964 167.528L309.997 168.154ZM279.245 170.148L285.013 171.8C285.225 171.06 285.292 170.288 285.212 169.523L279.245 170.148ZM221.146 12.4058L220.758 6.4184C218.256 6.58068 216.119 8.28123 215.399 10.6826C214.679 13.0839 215.528 15.6798 217.527 17.1918L221.146 12.4058ZM251.898 10.4111L255.517 5.62512C254.369 4.75689 252.947 4.33046 251.51 4.42365L251.898 10.4111ZM143.276 54.5149L149.253 53.9901C149.105 52.3002 148.248 50.7521 146.895 49.729L143.276 54.5149ZM98.1369 20.3848L101.756 15.5989C100.607 14.7307 99.1851 14.3042 97.7485 14.3974L98.1369 20.3848ZM53.5461 23.2772L53.1577 17.2898C51.7211 17.383 50.366 17.9896 49.3395 18.9989L53.5461 23.2772ZM59.202 41.4394L53.4734 43.2234C53.846 44.4198 54.5838 45.4696 55.5834 46.2253L59.202 41.4394ZM64.1224 41.1202L68.329 45.3986C70.2972 43.4634 70.6912 40.4352 69.2838 38.0608L64.1224 41.1202ZM214.447 191.749L210.761 196.483C212.064 197.498 213.728 197.931 215.36 197.68L214.447 191.749ZM182.923 167.197L176.947 166.66C176.764 168.692 177.626 170.677 179.236 171.93L182.923 167.197ZM187.18 119.765L186.264 113.835C183.538 114.257 181.451 116.482 181.204 119.228L187.18 119.765ZM237.561 117.104L243.464 118.177C243.787 116.397 243.291 114.567 242.112 113.195C240.933 111.823 239.199 111.056 237.391 111.107L237.561 117.104ZM224.27 190.238L225.182 196.168C226.259 196.003 227.27 195.547 228.108 194.85L224.27 190.238ZM196.95 118.255L196.78 112.257C196.53 112.264 196.281 112.287 196.034 112.325L196.95 118.255ZM157.459 216.033L157.847 222.02C159.459 221.916 160.96 221.166 162.012 219.94C163.064 218.715 163.577 217.117 163.436 215.508L157.459 216.033ZM11.2908 152.633L10.9024 146.646C7.59567 146.86 5.0889 149.715 5.30339 153.021L11.2908 152.633ZM113.059 169.502L112.69 163.513C112.684 163.514 112.677 163.514 112.671 163.515L113.059 169.502ZM15.8821 175.805L10.592 178.637C11.7022 180.711 13.9225 181.945 16.2704 181.793L15.8821 175.805ZM12.368 169.239L6.38056 169.628C6.436 170.482 6.67379 171.315 7.07794 172.071L12.368 169.239ZM13.485 186.461L7.49762 186.849C7.57568 188.052 8.01449 189.204 8.75686 190.154L13.485 186.461ZM113.299 173.192L119.286 172.804C119.179 171.146 118.388 169.607 117.104 168.553C115.819 167.499 114.155 167.026 112.508 167.245L113.299 173.192ZM120.526 189.399L120.734 195.396C120.804 195.393 120.874 195.39 120.944 195.385L120.526 189.399ZM18.5367 192.927L13.8085 196.621C14.9906 198.134 16.8253 198.99 18.7441 198.923L18.5367 192.927ZM113.817 181.188L114.132 187.18C115.734 187.095 117.236 186.373 118.301 185.175C119.367 183.976 119.909 182.4 119.805 180.799L113.817 181.188ZM311.433 133.164L317.421 132.776C317.206 129.469 314.352 126.962 311.045 127.177L311.433 133.164ZM308.684 157.43L309.053 163.419C311.19 163.287 313.095 162.027 314.051 160.112L308.684 157.43ZM312.51 149.771L317.878 152.452C318.353 151.502 318.567 150.442 318.498 149.382L312.51 149.771ZM315.017 169.372L320.313 172.193C320.911 171.07 321.137 169.786 320.957 168.526L315.017 169.372ZM311.438 176.089L311.856 182.075C313.918 181.931 315.761 180.736 316.734 178.911L311.438 176.089ZM10.852 145.868L10.4636 139.88C7.15683 140.095 4.65005 142.949 4.86454 146.256L10.852 145.868ZM12.6073 172.93L12.219 166.942C8.91221 167.157 6.40543 170.011 6.61993 173.318L12.6073 172.93ZM310.994 126.399L316.982 126.01C316.767 122.704 313.913 120.197 310.606 120.411L310.994 126.399ZM312.75 153.461L318.69 152.614C318.248 149.51 315.49 147.27 312.361 147.473L312.75 153.461ZM192.779 166.918L186.802 166.399C186.622 168.476 187.533 170.498 189.209 171.739L192.779 166.918ZM197.002 118.254L196.832 112.256C193.786 112.342 191.288 114.699 191.024 117.735L197.002 118.254ZM247.418 116.825L253.356 115.969C252.921 112.953 250.294 110.741 247.248 110.828L247.418 116.825ZM254.389 165.172L258.227 169.784C259.829 168.45 260.625 166.38 260.327 164.316L254.389 165.172ZM180.875 58.0887L211.627 56.0939L210.851 44.1191L180.098 46.1138L180.875 58.0887ZM215.446 54.3848L255.798 14.7094L247.384 6.15266L207.032 45.8281L215.446 54.3848ZM251.203 4.44359L220.45 6.43835L221.227 18.4132L251.979 16.4184L251.203 4.44359ZM216.632 8.14741L176.28 47.8229L184.693 56.3796L225.045 16.7041L216.632 8.14741ZM284.628 43.6569L112.415 54.8276L113.192 66.8024L285.405 55.6318L284.628 43.6569ZM125.16 251.316L297.373 240.146L296.596 228.171L124.383 239.341L125.16 251.316ZM302.972 233.77L291.004 49.256L279.029 50.0327L290.997 234.547L302.972 233.77ZM124.383 239.341L44.4275 244.528L45.2042 256.503L125.16 251.316L124.383 239.341ZM50.8033 250.127L38.8347 65.613L26.8599 66.3897L38.8284 250.904L50.8033 250.127ZM66.3889 24.683L28.645 61.7187L37.0496 70.284L74.7934 33.2482L66.3889 24.683ZM116.417 56.0254L74.205 24.176L66.9774 33.7552L109.189 65.6046L116.417 56.0254ZM113.018 66.8111L293.873 60.3298L293.444 48.3375L112.588 54.8188L113.018 66.8111ZM297.832 50.0235L259.279 12.6869L250.931 21.3072L289.484 58.6438L297.832 50.0235ZM254.787 11.0055L70.4407 20.8014L71.0774 32.7845L255.423 22.9886L254.787 11.0055ZM66.9848 31.4572L109.029 65.4792L116.578 56.1508L74.5333 22.1288L66.9848 31.4572ZM76.0092 78.9273L105.697 77.6192L105.168 65.6308L75.481 66.9389L76.0092 78.9273ZM99.4459 72.0236L110.001 230.567L121.975 229.77L111.419 71.2264L99.4459 72.0236ZM115.724 224.175L86.0363 225.483L86.5645 237.471L116.252 236.163L115.724 224.175ZM92.2871 231.078L81.7318 72.5345L69.7583 73.3317L80.3137 231.876L92.2871 231.078ZM103.412 68.3819L75.8015 70.1728L76.5783 82.1476L104.189 80.3567L103.412 68.3819ZM59.3161 45.836L100.008 79.0192L107.592 69.7193L66.8998 36.5361L59.3161 45.836ZM79.9818 71.5103L59.6356 54.9187L52.0518 64.2185L72.3981 80.8102L79.9818 71.5103ZM61.6007 57.8784L56.4402 40.3017L44.9262 43.6822L50.0867 61.2589L61.6007 57.8784ZM15.007 86.1415L42.6175 84.3505L41.8407 72.3757L14.2303 74.1666L15.007 86.1415ZM65.5099 56.3746L55.9317 39.0845L45.4348 44.8994L55.0129 62.1895L65.5099 56.3746ZM46.3224 37.8709L10.2579 76.033L18.9794 84.2752L55.044 46.1131L46.3224 37.8709ZM46.5899 82.4842L64.6222 63.4032L55.9006 55.1609L37.8683 74.242L46.5899 82.4842ZM51.0716 47.9794L63.4963 47.1734L62.7195 35.1986L50.2949 36.0045L51.0716 47.9794ZM310.274 200.108L115.8 210.87L116.463 222.851L310.937 212.09L310.274 200.108ZM110.256 218.077L117.45 252.816L129.201 250.382L122.007 215.644L110.256 218.077ZM123.774 257.582L308.168 243.769L307.272 231.802L122.877 245.616L123.774 257.582ZM313.695 238.329L316.581 206.643L304.63 205.555L301.745 237.241L313.695 238.329ZM22.5373 230.797L116.947 224.673L116.17 212.698L21.7605 218.822L22.5373 230.797ZM110.681 219.894L117.449 252.807L129.203 250.391L122.436 217.477L110.681 219.894ZM123.056 245.605L30.0646 249.784L30.6034 261.772L123.595 257.593L123.056 245.605ZM36.1348 254.245L27.9497 223.276L16.3481 226.343L24.5332 257.311L36.1348 254.245ZM265.646 58.8739L244.187 56.56L242.901 68.4908L264.359 70.8047L265.646 58.8739ZM247.323 57.8654L195.495 15.8312L187.936 25.1512L239.764 67.1855L247.323 57.8654ZM192.104 26.4786L225.815 24.2919L225.039 12.3171L191.327 14.5038L192.104 26.4786ZM222.361 23.4621L268.735 51.0269L274.867 40.7116L228.493 13.1468L222.361 23.4621ZM266.153 43.845L259.354 62.815L270.65 66.8636L277.449 47.8936L266.153 43.845ZM126.318 212.04L95.566 214.035L96.3428 226.01L127.095 224.015L126.318 212.04ZM101.931 219.497L87.7487 57.9796L75.7947 59.0292L89.9774 220.547L101.931 219.497ZM30.2253 230.298L60.9776 228.304L60.2009 216.329L29.4486 218.323L30.2253 230.298ZM66.4341 220.96L49.2859 147.03L37.5963 149.742L54.7444 223.672L66.4341 220.96ZM49.441 148.421L49.9463 60.9926L37.9465 60.9233L37.4412 148.351L49.441 148.421ZM7.19419 62.918L6.68889 150.346L18.6887 150.415L19.194 62.9874L7.19419 62.918ZM6.84396 151.736L23.9921 225.667L35.6818 222.955L18.5336 149.025L6.84396 151.736ZM285.886 39.2519L255.134 41.2466L255.911 53.2215L286.663 51.2267L285.886 39.2519ZM257.792 215.537L288.545 213.542L287.768 201.568L257.016 203.562L257.792 215.537ZM293.925 209.206L305.002 170.503L293.465 167.201L282.388 205.904L293.925 209.206ZM305.201 168.226L292.242 44.6137L280.307 45.8649L293.266 169.477L305.201 168.226ZM249.555 47.8596L262.514 171.472L274.449 170.221L261.49 46.6084L249.555 47.8596ZM262.713 169.196L251.636 207.899L263.172 211.201L274.25 172.498L262.713 169.196ZM286.593 45.3824L255.7 47.3862L256.477 59.3611L287.369 57.3572L286.593 45.3824ZM260.056 48.8728L220.9 14.3547L212.965 23.3563L252.121 57.8745L260.056 48.8728ZM217.321 24.8429L248.213 22.839L247.437 10.8642L216.544 12.8681L217.321 24.8429ZM243.857 21.3524L283.013 55.8706L290.949 46.869L251.793 12.3508L243.857 21.3524ZM268.556 214.839L299.308 212.844L298.531 200.869L267.779 202.864L268.556 214.839ZM304.688 208.508L315.765 169.805L304.229 166.503L293.151 205.206L304.688 208.508ZM315.964 167.528L303.005 43.9155L291.071 45.1667L304.03 168.779L315.964 167.528ZM260.318 47.1615L273.277 170.774L285.212 169.523L272.253 45.9103L260.318 47.1615ZM273.476 168.497L262.399 207.201L273.936 210.503L285.013 171.8L273.476 168.497ZM269.904 41.7499L224.765 7.61988L217.527 17.1918L262.667 51.3218L269.904 41.7499ZM221.535 18.3932L252.287 16.3985L251.51 4.42365L220.758 6.4184L221.535 18.3932ZM248.28 15.197L293.419 49.3271L300.657 39.7552L255.517 5.62512L248.28 15.197ZM67.773 28.367L98.5253 26.3723L97.7485 14.3974L66.9962 16.3922L67.773 28.367ZM94.5183 25.1708L139.658 59.3008L146.895 49.729L101.756 15.5989L94.5183 25.1708ZM85.3904 53.7185L62.8207 36.6534L55.5834 46.2253L78.1531 63.2904L85.3904 53.7185ZM64.9307 39.6554L59.2747 21.4933L47.8174 25.0612L53.4734 43.2234L64.9307 39.6554ZM69.2838 38.0608L58.7075 20.2179L48.3847 26.3366L58.961 44.1796L69.2838 38.0608ZM49.3395 18.9989L8.98746 58.6744L17.4007 67.2311L57.7527 27.5556L49.3395 18.9989ZM48.153 65.2363L68.329 45.3986L59.9158 36.8419L39.7398 56.6796L48.153 65.2363ZM53.9345 29.2647L67.773 28.367L66.9962 16.3922L53.1577 17.2898L53.9345 29.2647ZM218.134 187.016L186.609 162.463L179.236 171.93L210.761 196.483L218.134 187.016ZM188.898 167.733L193.156 120.301L181.204 119.228L176.947 166.66L188.898 167.733ZM231.657 116.031L218.366 189.165L230.173 191.311L243.464 118.177L231.657 116.031ZM223.357 184.308L213.535 185.819L215.36 197.68L225.182 196.168L223.357 184.308ZM188.096 125.694L197.867 124.185L196.034 112.325L186.264 113.835L188.096 125.694ZM197.12 124.252L237.73 123.102L237.391 111.107L196.78 112.257L197.12 124.252ZM127.095 224.015L157.847 222.02L157.071 210.045L126.318 212.04L127.095 224.015ZM163.436 215.508L149.253 53.9901L137.299 55.0397L151.482 216.557L163.436 215.508ZM11.6792 158.621L111.932 152.118L111.155 140.143L10.9024 146.646L11.6792 158.621ZM112.671 163.515L15.4937 169.818L16.2704 181.793L113.448 175.489L112.671 163.515ZM21.1721 172.974L17.658 166.408L7.07794 172.071L10.592 178.637L21.1721 172.974ZM18.3554 168.851L17.2782 152.245L5.30339 153.021L6.38056 169.628L18.3554 168.851ZM14.2757 192.408L114.089 179.14L112.508 167.245L12.6944 180.513L14.2757 192.408ZM120.319 183.403L18.3293 186.931L18.7441 198.923L120.734 195.396L120.319 183.403ZM23.2649 189.233L18.2132 182.767L8.75686 190.154L13.8085 196.621L23.2649 189.233ZM107.311 173.581L107.83 181.576L119.805 180.799L119.286 172.804L107.311 173.581ZM311.045 127.177L111.155 140.143L111.932 152.118L311.822 139.152L311.045 127.177ZM113.429 175.491L309.053 163.419L308.314 151.442L112.69 163.513L113.429 175.491ZM314.051 160.112L317.878 152.452L307.143 147.089L303.316 154.749L314.051 160.112ZM318.498 149.382L317.421 132.776L305.446 133.553L306.523 150.159L318.498 149.382ZM120.944 195.385L311.856 182.075L311.021 170.104L120.109 183.414L120.944 195.385ZM316.734 178.911L320.313 172.193L309.722 166.551L306.143 173.268L316.734 178.911ZM11.2403 151.855L111.493 145.352L110.716 133.377L10.4636 139.88L11.2403 151.855ZM112.232 156.749L11.9796 163.252L12.7564 175.227L113.009 168.724L112.232 156.749ZM18.3554 168.851L16.8394 145.479L4.86454 146.256L6.38056 169.628L18.3554 168.851ZM12.9957 178.917L113.248 172.414L112.471 160.439L12.219 166.942L12.9957 178.917ZM113.502 175.196L13.1702 180.469L13.7999 192.452L114.132 187.18L113.502 175.196ZM19.4725 186.072L18.5948 172.541L6.61993 173.318L7.49762 186.849L19.4725 186.072ZM310.606 120.411L110.716 133.377L111.493 145.352L311.383 132.386L310.606 120.411ZM113.009 168.724L312.899 155.758L312.122 143.783L112.232 156.749L113.009 168.724ZM318.498 149.382L316.982 126.01L305.007 126.787L306.523 150.159L318.498 149.382ZM312.361 147.473L112.471 160.439L113.248 172.414L313.138 159.448L312.361 147.473ZM320.957 168.526L318.69 152.614L306.81 154.307L309.077 170.219L320.957 168.526ZM227.841 185.416L196.35 162.096L189.209 171.739L220.699 195.06L227.841 185.416ZM198.757 167.436L202.98 118.772L191.024 117.735L186.802 166.399L198.757 167.436ZM197.172 124.251L247.587 122.823L247.248 110.828L196.832 112.256L197.172 124.251ZM241.479 117.682L248.45 166.028L260.327 164.316L253.356 115.969L241.479 117.682ZM250.551 160.56L220.432 185.626L228.108 194.85L258.227 169.784L250.551 160.56Z" fill="#0B0A22" mask="url(#path-3-outside-2_361_79)"/>
<path d="M180.487 52.1016L211.24 50.1068L251.592 10.4313L220.839 12.4261L180.487 52.1016Z" fill="#B26E0E"/>
<rect width="172.575" height="184.902" transform="matrix(-0.997903 0.0647292 0.0647292 0.997903 285.017 49.6445)" fill="#895C17"/>
<rect x="32.8477" y="66.0016" width="80.124" height="184.902" transform="rotate(-3.71131 32.8477 66.0016)" fill="#463B12"/>
<path d="M70.5913 28.9657L32.8475 66.0015L112.803 60.8151L70.5913 28.9657Z" fill="#463B12"/>
<path d="M255.106 16.9973L70.7598 26.7932L112.804 60.8152L293.659 54.3339L255.106 16.9973Z" fill="#B07926"/>
<path d="M75.7461 72.9334L105.434 71.6253L115.989 230.169L86.3014 231.477L75.7461 72.9334Z" fill="#342F08"/>
<path d="M103.8 74.3693L76.1899 76.1603L55.8437 59.5687L50.6832 41.992L63.1079 41.1861L103.8 74.3693Z" fill="#342F08"/>
<path d="M14.6186 80.1541L42.229 78.3632L60.2613 59.2821L50.6832 41.992L14.6186 80.1541Z" fill="#342F08"/>
<path d="M310.606 206.099L116.132 216.861L123.326 251.599L307.72 237.785L310.606 206.099Z" fill="#FFCD28"/>
<path d="M22.1494 224.81L116.559 218.686L123.326 251.599L30.3345 255.778L22.1494 224.81Z" fill="#CA7F16"/>
<path d="M265.002 64.8394L243.544 62.5255L191.716 20.4913L225.427 18.3046L271.801 45.8694L265.002 64.8394Z" fill="#895C17"/>
<path d="M81.7725 58.5044L112.525 56.5096L126.707 218.027L95.9552 220.022L81.7725 58.5044Z" fill="#CA7F16"/>
<path d="M43.9472 60.9579L13.1949 62.9527L12.6896 150.381L29.8378 224.311L60.5901 222.316L43.4419 148.386L43.9472 60.9579Z" fill="#CA7F16"/>
<path d="M286.276 45.2391L255.524 47.2338L268.483 170.846L257.405 209.549L288.158 207.555L299.235 168.852L286.276 45.2391Z" fill="#B26E0E"/>
<path d="M286.982 51.3701L256.09 53.374L216.934 18.8558L247.826 16.852L286.982 51.3701Z" fill="#B26E0E"/>
<path d="M297.039 44.5413L266.286 46.5361L279.246 170.149L268.168 208.852L298.92 206.857L309.998 168.154L297.039 44.5413Z" fill="#FFCD28"/>
<path d="M297.038 44.5411L266.286 46.5359L221.146 12.4058L251.899 10.4111L297.038 44.5411Z" fill="#FFCD28"/>
<path d="M143.276 54.5151L112.524 56.5098L67.3847 22.3798L98.137 20.385L143.276 54.5151Z" fill="#FFCD28"/>
<path d="M112.524 56.5095L81.7721 58.5043L59.2024 41.4392L53.5465 23.2771L67.385 22.3795L112.524 56.5095Z" fill="#CA7F16"/>
<path d="M13.1945 62.9526L43.9468 60.9578L64.1228 41.1201L53.5465 23.2771L13.1945 62.9526Z" fill="#CA7F16"/>
<path d="M214.447 191.75L182.922 167.197L187.18 119.765L196.95 118.255L237.561 117.104L224.27 190.238L214.447 191.75Z" fill="#B26E0E"/>
<path d="M143.277 54.5149L112.524 56.5096L126.707 218.027L157.459 216.033L143.277 54.5149Z" fill="#FFCD28"/>
<path d="M11.292 152.633L111.545 146.13L113.061 169.502L15.8832 175.806L12.3692 169.239L11.292 152.633Z" fill="#A76509"/>
<path d="M13.4857 186.461L113.299 173.193L113.818 181.188L120.527 189.4L18.5374 192.927L13.4857 186.461Z" fill="#A76509"/>
<path d="M311.433 133.164L111.543 146.13L113.059 169.502L308.683 157.43L312.51 149.77L311.433 133.164Z" fill="#B36E0E"/>
<path d="M315.017 169.372L113.817 181.188L120.526 189.399L311.438 176.089L315.017 169.372Z" fill="#B36E0E"/>
<rect x="10.8525" y="145.868" width="100.463" height="23.4209" transform="rotate(-3.71131 10.8525 145.868)" fill="#CA7F16"/>
<path d="M12.6074 172.93L112.86 166.427L113.817 181.188L13.4851 186.461L12.6074 172.93Z" fill="#CA7F16"/>
<rect width="200.31" height="23.4209" transform="matrix(-0.997903 0.0647292 0.0647292 0.997903 310.994 126.399)" fill="#FFCD28"/>
<path d="M312.75 153.461L112.86 166.427L113.818 181.188L315.018 169.373L312.75 153.461Z" fill="#FFCD28"/>
<path d="M224.271 190.238L192.781 166.918L197.003 118.254L247.419 116.825L254.39 165.172L224.271 190.238Z" fill="#FFCD28"/>
<ellipse cx="226.2" cy="146.813" rx="7.98977" ry="8.43907" transform="rotate(0.846254 226.2 146.813)" fill="#B26E0E"/>
<ellipse cx="223.204" cy="146.984" rx="7.98977" ry="8.43907" transform="rotate(0.846254 223.204 146.984)" fill="#B26E0E"/>
<path d="M224.352 153.036C225.131 151.66 227.124 151.689 227.862 153.088L231.851 160.649C232.56 161.992 231.571 163.604 230.052 163.582L221.853 163.461C220.334 163.438 219.393 161.798 220.141 160.476L224.352 153.036Z" fill="#B26E0E"/>
<path d="M221.356 153.206C222.135 151.83 224.128 151.859 224.866 153.258L228.855 160.819C229.564 162.163 228.575 163.775 227.056 163.752L218.856 163.631C217.338 163.609 216.397 161.968 217.145 160.646L221.356 153.206Z" fill="#B26E0E"/>
<path fill-rule="evenodd" clip-rule="evenodd" d="M222.034 138.638C226.35 138.816 229.762 142.6 229.694 147.188C229.64 150.854 227.381 153.941 224.273 155.06L227.896 161.928C228.282 162.659 227.871 163.477 227.113 163.755L217.894 163.619C216.783 163.603 216.073 162.543 216.576 161.653L220.401 154.896C217.326 153.686 215.159 150.533 215.213 146.867C215.275 142.672 218.226 139.234 222.034 138.638Z" fill="#0B0A22"/>
</svg>
