<svg width="300" height="81" viewBox="0 0 300 81" fill="none" xmlns="http://www.w3.org/2000/svg">
<mask id="path-1-outside-1_378_2391" maskUnits="userSpaceOnUse" x="-1" y="0" width="301" height="82" fill="black">
<rect fill="white" x="-1" width="301" height="82"/>
<path d="M25.0945 43.0841C23.5029 41.8972 21.6477 41.183 19.8663 40.3481C16.9148 38.9599 14.3112 36.4149 12.5298 33.2664C8.23967 25.6818 11.1911 17.1014 17.2521 13.4801C18.77 12.5546 20.4566 11.9611 22.238 11.6594C26.0221 10.8043 30.0804 10.8647 33.7908 12.1925C38.9242 14.1037 43.0562 19.7268 43.404 25.7723C43.4778 26.4362 43.404 27.2007 42.9824 27.583C42.8032 27.8646 42.4764 27.9652 42.1391 28.0658C40.2734 28.6392 38.5131 29.122 36.6473 29.6753C35.6354 29.8664 33.2848 30.6209 32.3572 29.9268C32.0937 29.7357 31.9356 29.3433 31.7564 29.0516C30.4177 26.3357 27.2976 23.4889 25.2737 26.8286C24.7572 27.6635 24.5886 28.8102 24.9364 29.6854C25.5162 31.0735 26.9497 31.6167 28.2252 31.9386C31.8512 33.0149 35.6354 34.1315 38.4287 37.0487C39.2615 37.9238 40.1153 39.0806 40.7899 40.1469C41.2853 41.022 42.4659 44.7137 42.5608 45.7901C42.9824 49.7131 42.6346 53.0829 41.2115 56.835C40.1047 59.8024 38.4287 62.5184 36.1414 64.4095C34.634 65.6368 32.9475 66.4817 31.261 67.0249C27.4662 68.3527 23.408 68.5539 19.6238 67.2764C14.5537 65.3652 10.4216 58.4545 10 51.0711C10 50.2764 10.0105 49.3711 10.4216 48.9687C10.6746 48.6569 11.0119 48.5966 11.2649 48.5161C13.1201 48.0634 14.9858 47.6912 16.7462 47.2084C17.7581 46.967 20.2036 46.3835 21.1417 47.1581C21.3841 47.3794 21.5528 47.8119 21.732 48.1137C22.5753 50.0451 24.5886 53.0025 26.5281 51.9764C27.7192 51.2421 28.7206 49.4818 28.4782 47.8421C28.3833 46.6149 27.793 45.5889 27.0446 44.8646C26.4543 44.1404 25.8535 43.6173 25.0945 43.0841ZM59.8689 13.1883C64.9285 10.2712 71.506 10.1304 75.9754 14.2949C78.6633 16.8096 80.3604 20.3203 81.1193 23.9416C81.2036 24.4848 81.2774 25.0179 81.1193 25.5712C80.8663 26.5771 79.5909 26.9794 78.8319 27.2712C77.0611 28.1463 75.3745 29.0215 73.6142 29.9067C72.6023 30.3996 70.5679 32.3108 69.6508 31.325C69.2292 30.8723 69.0605 30.3291 68.8076 29.8765C67.7851 27.9552 65.0866 26.8286 63.4844 28.6291C62.989 29.283 62.7255 30.2386 62.5674 31.0836C61.3868 35.9019 61.3868 42.5812 62.8941 47.2084C63.3263 48.4054 64.0852 49.4818 65.0866 49.8841C67.0262 50.6889 69.05 47.9427 69.8933 46.2226C70.0725 45.9309 70.2411 45.5486 70.4836 45.3474C71.4217 44.6534 73.8672 45.1463 74.7948 45.3676C76.65 45.8001 78.5052 46.1421 80.2655 46.5747C80.6133 46.6451 80.9507 46.7054 81.2036 46.9569C81.6253 47.2889 81.6253 48.0131 81.6147 48.6569C81.2036 54.461 77.0611 60.2953 72.012 62.6089C68.2173 64.1882 64.1696 64.6811 60.3749 64.1178C58.6883 63.8965 56.9175 63.3936 55.4839 62.4782C53.2071 61.0397 51.51 58.6658 50.4137 55.9397C47.9682 50.0551 47.3042 42.9936 47.8839 36.4149C48.1474 34.393 48.3161 32.4818 48.7377 30.47C49.581 26.567 51.0989 22.7848 53.2914 19.5759C55.0623 17.0309 57.2548 14.6972 59.8689 13.1883ZM85.9365 39.2013C85.7678 35.1676 85.9365 31.1138 86.1051 27.0499C86.1789 23.0866 85.5992 19.3144 86.0208 15.341C86.1789 14.0736 86.4425 12.5345 87.5387 11.8002C88.2133 11.3475 89.0566 11.2469 89.8155 11.1463C93.0938 10.754 97.7423 9.53688 99.8504 13.0073C100.947 14.8582 100.694 17.2522 100.515 19.4753C100.272 22.312 100.262 25.1386 100.356 27.9552C100.356 28.6493 100.441 29.3534 100.862 29.8664C101.273 30.2084 101.706 30.4398 102.285 30.5203C102.802 30.4096 103.297 30.138 103.645 29.7759C104.151 29.2327 104.141 28.5286 104.235 27.8345C104.32 25.028 104.225 22.2215 103.972 19.415C103.814 17.202 103.635 14.8179 104.731 12.9469C106.85 9.46646 111.656 10.583 114.945 10.5629C115.704 10.5529 116.463 10.5529 117.053 11.0759C117.728 11.6795 117.896 12.6452 117.981 13.6108C118.234 16.2262 118.392 18.741 118.402 21.4268C118.308 26.8587 118.908 32.2203 118.655 37.6421C118.402 43.1847 118.476 48.7374 118.476 54.29C118.476 55.6078 118.402 57.0965 117.464 58.0924C115.788 59.8226 112.658 59.2995 110.644 59.5811C109.126 59.8125 108.03 60.0036 106.512 59.903C106.164 59.9332 105.753 59.893 105.49 59.7421C104.826 59.2995 104.741 58.4445 104.647 57.5995C104.573 54.9539 104.573 52.2983 104.573 49.6427C104.573 48.2545 105.49 43.567 103.814 43.064C103.55 42.9936 103.392 43.0037 103.139 43.0137C102.633 43.0439 102.212 43.064 101.706 43.0942C101.2 43.1244 100.609 43.2551 100.188 43.6273C99.7661 44.08 99.7556 44.7841 99.7661 45.3877C99.6818 48.9486 99.6818 52.5196 99.6818 55.99C99.7556 57.0161 99.7661 58.0622 99.3445 59.048C98.7437 60.8385 96.9728 61.1906 95.3811 61.2711C93.5259 61.2811 91.6602 61.6433 89.805 61.7439C88.7193 61.8545 87.4544 61.8947 86.6954 61.08C85.9365 60.1646 86.1789 58.8066 86.3581 57.5391C86.7798 54.5516 86.3476 51.7249 86.4425 48.7676C86.5268 45.6291 86.0208 42.3398 85.9365 39.2013ZM122.988 22.9055C122.988 21.0144 122.998 19.2037 122.998 17.3025C122.998 15.6528 123.072 13.9126 124.084 12.6854C124.938 11.8102 126.203 11.4481 127.383 11.1866C134.298 9.83865 141.719 9.74812 148.623 10.3718C149.224 10.4623 149.899 10.5529 150.405 10.9049C151.153 11.4984 151.332 12.6452 151.332 13.5907C151.416 15.4919 151.49 17.4735 151.248 19.3647C150.826 21.7487 149.561 22.5031 147.2 22.6641C144.923 22.825 142.646 22.825 140.37 22.5735C139.526 22.5836 138.599 22.4931 137.998 23.0061C136.997 23.7806 136.997 25.6416 137.155 26.8185C137.249 27.4824 137.587 27.4723 138.261 27.4723C139.937 27.4623 141.55 27.5528 143.237 27.7138C143.49 27.7138 143.816 27.7842 144.08 27.9652C144.755 28.2972 144.839 29.1321 144.828 29.8765C144.828 31.9587 144.67 34.0208 144.67 36.0629C144.67 36.9581 144.586 38.1753 143.996 38.98C143.152 40.0362 141.719 39.6439 140.454 39.7344C139.695 39.7445 138.936 39.835 138.261 40.167C136.986 40.7605 136.649 42.5409 137.671 43.4764C138.346 44.0901 139.273 44.3214 140.117 44.3717C142.899 44.6433 145.672 43.8587 148.549 43.8688C149.308 43.8688 150.236 44.0297 150.647 44.6735C150.91 44.9954 150.91 45.3977 150.995 45.7901C151.237 48.5865 151.416 51.4332 151.079 54.1492C150.984 54.7427 150.826 55.3362 150.32 55.7587C149.888 56.1208 149.298 56.332 148.707 56.4729C142.562 57.9013 135.479 57.5693 129.238 57.8409C128.227 57.9214 127.288 57.9314 126.456 57.5995C125.433 57.2072 124.769 56.3723 124.347 55.4468C123.336 53.3344 123.336 50.7291 123.42 48.2747C123.504 43.0137 123.072 37.8031 123.072 32.351C122.998 29.2226 122.998 26.0741 122.988 22.9055ZM191.366 37.8232C191.524 43.4563 191.103 49.19 188.499 53.7066C183.429 62.2569 172.635 59.3196 163.791 57.9214C161.43 57.5391 157.035 57.3078 156.455 54.9942C156.371 54.9137 156.371 54.8332 156.371 54.7628C155.274 50.3368 155.601 45.9912 155.77 41.3741C155.865 36.5155 155.938 31.5664 156.191 26.6274C156.286 23.499 155.021 12.5747 158.721 10.9351C159.659 10.5026 160.745 10.4221 161.768 10.4321C171.202 10.0499 181.163 10.241 187.066 19.5156C190.439 24.9475 191.198 31.5362 191.366 37.8232ZM174.501 44.5226C175.418 42.6617 175.766 37.1895 175.344 33.0853C174.743 27.4019 173.067 24.5049 171.634 24.4647C171.381 24.4647 171.128 24.4546 170.959 25.3096C170.791 25.9132 170.791 26.9392 170.791 27.8646C170.696 32.4717 170.696 37.0285 170.791 41.5451C170.791 42.8729 170.78 44.5226 171.044 45.3676C171.128 45.448 171.117 45.609 171.212 45.6995C171.37 45.9611 171.55 45.9711 171.718 45.9812C172.635 45.9711 173.658 46.2025 174.501 44.5226ZM225.087 36.7167C225.087 41.0019 224.834 45.0759 224.412 49.3208C224.243 51.6847 223.99 54.1492 223.39 56.3622C222.81 58.6859 221.798 60.8385 220.196 62.2569C217.582 64.651 214.546 64.0776 211.257 63.7456C207.968 63.4237 204.932 63.2125 201.728 61.4622C199.62 60.3959 197.67 58.6557 196.668 56.4226C196.247 55.3965 195.899 54.3102 195.741 53.3143C195.066 50.1658 194.645 47.0474 194.476 43.9392C194.307 41.1025 194.56 38.2859 194.392 35.4291C194.054 29.0818 194.56 22.6641 194.56 16.186C194.645 14.7475 194.971 12.2227 196.5 11.5286C196.921 11.257 197.417 11.2671 197.933 11.2771C200.547 11.1262 205.27 10.1807 207.209 12.6955C208.221 13.9025 208.211 15.7434 208.126 17.3025C208.042 22.1712 207.8 27.0297 207.62 31.8883C207.631 34.0812 207.536 36.3646 207.547 38.5676C207.536 40.851 207.294 43.2954 207.8 45.619C207.968 46.6451 208.474 47.7818 209.317 48.2244C211.426 49.1397 211.763 46.3131 211.752 44.8344C212.185 35.7108 211.594 26.5368 211.341 17.383C211.257 15.8037 211.257 13.9629 212.269 12.7759C214.198 10.2913 219.015 11.3878 221.545 11.6091C222.051 11.6191 222.557 11.6292 223.063 11.9108C224.496 12.6854 224.918 15.3209 224.918 16.8298C224.907 23.4386 225.002 30.0475 225.087 36.7167ZM229.398 39.151C229.398 38.2859 229.398 37.5214 229.398 36.6563C229.398 35.1274 229.556 33.5984 229.651 32.0694C229.904 28.2469 229.735 24.2434 229.482 20.5215C229.314 18.6203 229.219 16.7191 229.398 14.9286C229.472 14.2647 229.567 13.6108 229.904 13.0475C230.399 12.2931 231.253 12.0215 232.096 11.8404C234.963 11.1966 237.578 11.428 240.445 11.4481C241.119 11.4582 241.963 11.4682 242.553 12.0416C243.227 12.615 243.396 13.7718 243.48 14.7375C243.733 17.6244 243.902 20.4209 243.902 23.2274C243.902 27.412 244.071 31.6268 244.155 35.7611C244.229 39.0303 243.818 45.2066 243.976 48.4054C243.986 49.4013 244.071 50.4072 244.313 51.3226C244.566 52.2279 244.998 53.0729 245.757 53.7267C246.168 54.0486 246.685 54.3001 247.191 54.4309C249.13 55.0545 251.239 54.793 253.262 54.9137C254.601 54.9942 256.035 55.0746 257.141 56.1812C258.311 57.3882 258.575 59.6013 258.564 61.6131C258.659 63.7356 258.564 61.9149 258.406 64.1078C258.227 66.2001 258.153 67.3468 256.298 67.6687C255.455 67.89 254.612 67.89 253.684 67.89C252.409 67.9504 251.07 67.6888 249.794 67.5379C246.168 67.0048 242.553 66.4717 238.927 65.9285C235.554 65.516 231.327 66.3912 229.988 61.7841C229.482 60.1746 229.567 58.4545 229.567 56.8149C229.809 50.9403 229.472 45.0356 229.398 39.151ZM261.579 25.4002C261.59 23.2374 261.59 21.1854 261.579 19.0327C261.59 17.1919 261.674 15.2605 262.686 13.9025C263.529 12.9369 264.784 12.5345 265.975 12.2327C272.89 10.6836 280.3 10.3818 287.225 10.6836C287.815 10.7339 288.49 10.7842 288.985 11.096C289.755 11.6392 289.924 12.7558 289.924 13.7215C289.997 15.6227 290.082 15.6126 289.839 17.5741C289.418 20.1392 288.153 21.1653 285.792 21.7286C283.515 22.2315 281.238 22.4931 278.961 22.4327C278.118 22.5132 277.18 22.4931 276.589 23.1167C275.577 24.0723 275.588 31.2646 275.757 32.6427C275.841 33.4274 276.178 33.3972 276.853 33.3469C278.539 33.1759 280.131 33.1155 281.828 33.0954C282.081 33.0652 282.418 33.1055 282.671 33.2765C283.346 33.5682 283.43 34.554 283.43 35.4492C283.42 38.0143 283.262 38.638 283.262 41.3238C283.262 42.5208 283.167 43.1847 282.577 44.3818C281.744 45.9409 280.31 45.5486 279.045 45.7901C278.286 45.8504 277.527 46.0214 276.853 46.5143C275.588 47.3593 275.24 54.8332 276.263 56.1309C276.937 56.9859 277.865 57.2877 278.708 57.348C281.491 57.6196 284.274 58.203 287.13 57.8107C287.9 57.69 288.827 57.7604 289.249 58.6658C289.491 59.1285 289.491 59.7521 289.586 60.3658C289.829 64.832 290.008 61.4924 289.671 66.1095C289.576 67.1255 289.418 68.1515 288.901 68.916C288.49 69.5397 287.9 69.9119 287.309 70.1533C281.154 72.0344 274.06 70.3243 267.83 69.4089C266.818 69.3083 265.88 69.1072 265.037 68.4835C264.035 67.7391 263.361 66.4918 262.939 65.164C261.927 62.1965 261.916 59.7823 262.001 56.5936C262.096 49.8137 261.674 44.2208 261.674 37.5415C261.579 33.7895 261.59 29.0717 261.579 25.4002Z"/>
</mask>
<path d="M25.0945 43.0841C23.5029 41.8972 21.6477 41.183 19.8663 40.3481C16.9148 38.9599 14.3112 36.4149 12.5298 33.2664C8.23967 25.6818 11.1911 17.1014 17.2521 13.4801C18.77 12.5546 20.4566 11.9611 22.238 11.6594C26.0221 10.8043 30.0804 10.8647 33.7908 12.1925C38.9242 14.1037 43.0562 19.7268 43.404 25.7723C43.4778 26.4362 43.404 27.2007 42.9824 27.583C42.8032 27.8646 42.4764 27.9652 42.1391 28.0658C40.2734 28.6392 38.5131 29.122 36.6473 29.6753C35.6354 29.8664 33.2848 30.6209 32.3572 29.9268C32.0937 29.7357 31.9356 29.3433 31.7564 29.0516C30.4177 26.3357 27.2976 23.4889 25.2737 26.8286C24.7572 27.6635 24.5886 28.8102 24.9364 29.6854C25.5162 31.0735 26.9497 31.6167 28.2252 31.9386C31.8512 33.0149 35.6354 34.1315 38.4287 37.0487C39.2615 37.9238 40.1153 39.0806 40.7899 40.1469C41.2853 41.022 42.4659 44.7137 42.5608 45.7901C42.9824 49.7131 42.6346 53.0829 41.2115 56.835C40.1047 59.8024 38.4287 62.5184 36.1414 64.4095C34.634 65.6368 32.9475 66.4817 31.261 67.0249C27.4662 68.3527 23.408 68.5539 19.6238 67.2764C14.5537 65.3652 10.4216 58.4545 10 51.0711C10 50.2764 10.0105 49.3711 10.4216 48.9687C10.6746 48.6569 11.0119 48.5966 11.2649 48.5161C13.1201 48.0634 14.9858 47.6912 16.7462 47.2084C17.7581 46.967 20.2036 46.3835 21.1417 47.1581C21.3841 47.3794 21.5528 47.8119 21.732 48.1137C22.5753 50.0451 24.5886 53.0025 26.5281 51.9764C27.7192 51.2421 28.7206 49.4818 28.4782 47.8421C28.3833 46.6149 27.793 45.5889 27.0446 44.8646C26.4543 44.1404 25.8535 43.6173 25.0945 43.0841ZM59.8689 13.1883C64.9285 10.2712 71.506 10.1304 75.9754 14.2949C78.6633 16.8096 80.3604 20.3203 81.1193 23.9416C81.2036 24.4848 81.2774 25.0179 81.1193 25.5712C80.8663 26.5771 79.5909 26.9794 78.8319 27.2712C77.0611 28.1463 75.3745 29.0215 73.6142 29.9067C72.6023 30.3996 70.5679 32.3108 69.6508 31.325C69.2292 30.8723 69.0605 30.3291 68.8076 29.8765C67.7851 27.9552 65.0866 26.8286 63.4844 28.6291C62.989 29.283 62.7255 30.2386 62.5674 31.0836C61.3868 35.9019 61.3868 42.5812 62.8941 47.2084C63.3263 48.4054 64.0852 49.4818 65.0866 49.8841C67.0262 50.6889 69.05 47.9427 69.8933 46.2226C70.0725 45.9309 70.2411 45.5486 70.4836 45.3474C71.4217 44.6534 73.8672 45.1463 74.7948 45.3676C76.65 45.8001 78.5052 46.1421 80.2655 46.5747C80.6133 46.6451 80.9507 46.7054 81.2036 46.9569C81.6253 47.2889 81.6253 48.0131 81.6147 48.6569C81.2036 54.461 77.0611 60.2953 72.012 62.6089C68.2173 64.1882 64.1696 64.6811 60.3749 64.1178C58.6883 63.8965 56.9175 63.3936 55.4839 62.4782C53.2071 61.0397 51.51 58.6658 50.4137 55.9397C47.9682 50.0551 47.3042 42.9936 47.8839 36.4149C48.1474 34.393 48.3161 32.4818 48.7377 30.47C49.581 26.567 51.0989 22.7848 53.2914 19.5759C55.0623 17.0309 57.2548 14.6972 59.8689 13.1883ZM85.9365 39.2013C85.7678 35.1676 85.9365 31.1138 86.1051 27.0499C86.1789 23.0866 85.5992 19.3144 86.0208 15.341C86.1789 14.0736 86.4425 12.5345 87.5387 11.8002C88.2133 11.3475 89.0566 11.2469 89.8155 11.1463C93.0938 10.754 97.7423 9.53688 99.8504 13.0073C100.947 14.8582 100.694 17.2522 100.515 19.4753C100.272 22.312 100.262 25.1386 100.356 27.9552C100.356 28.6493 100.441 29.3534 100.862 29.8664C101.273 30.2084 101.706 30.4398 102.285 30.5203C102.802 30.4096 103.297 30.138 103.645 29.7759C104.151 29.2327 104.141 28.5286 104.235 27.8345C104.32 25.028 104.225 22.2215 103.972 19.415C103.814 17.202 103.635 14.8179 104.731 12.9469C106.85 9.46646 111.656 10.583 114.945 10.5629C115.704 10.5529 116.463 10.5529 117.053 11.0759C117.728 11.6795 117.896 12.6452 117.981 13.6108C118.234 16.2262 118.392 18.741 118.402 21.4268C118.308 26.8587 118.908 32.2203 118.655 37.6421C118.402 43.1847 118.476 48.7374 118.476 54.29C118.476 55.6078 118.402 57.0965 117.464 58.0924C115.788 59.8226 112.658 59.2995 110.644 59.5811C109.126 59.8125 108.03 60.0036 106.512 59.903C106.164 59.9332 105.753 59.893 105.49 59.7421C104.826 59.2995 104.741 58.4445 104.647 57.5995C104.573 54.9539 104.573 52.2983 104.573 49.6427C104.573 48.2545 105.49 43.567 103.814 43.064C103.55 42.9936 103.392 43.0037 103.139 43.0137C102.633 43.0439 102.212 43.064 101.706 43.0942C101.2 43.1244 100.609 43.2551 100.188 43.6273C99.7661 44.08 99.7556 44.7841 99.7661 45.3877C99.6818 48.9486 99.6818 52.5196 99.6818 55.99C99.7556 57.0161 99.7661 58.0622 99.3445 59.048C98.7437 60.8385 96.9728 61.1906 95.3811 61.2711C93.5259 61.2811 91.6602 61.6433 89.805 61.7439C88.7193 61.8545 87.4544 61.8947 86.6954 61.08C85.9365 60.1646 86.1789 58.8066 86.3581 57.5391C86.7798 54.5516 86.3476 51.7249 86.4425 48.7676C86.5268 45.6291 86.0208 42.3398 85.9365 39.2013ZM122.988 22.9055C122.988 21.0144 122.998 19.2037 122.998 17.3025C122.998 15.6528 123.072 13.9126 124.084 12.6854C124.938 11.8102 126.203 11.4481 127.383 11.1866C134.298 9.83865 141.719 9.74812 148.623 10.3718C149.224 10.4623 149.899 10.5529 150.405 10.9049C151.153 11.4984 151.332 12.6452 151.332 13.5907C151.416 15.4919 151.49 17.4735 151.248 19.3647C150.826 21.7487 149.561 22.5031 147.2 22.6641C144.923 22.825 142.646 22.825 140.37 22.5735C139.526 22.5836 138.599 22.4931 137.998 23.0061C136.997 23.7806 136.997 25.6416 137.155 26.8185C137.249 27.4824 137.587 27.4723 138.261 27.4723C139.937 27.4623 141.55 27.5528 143.237 27.7138C143.49 27.7138 143.816 27.7842 144.08 27.9652C144.755 28.2972 144.839 29.1321 144.828 29.8765C144.828 31.9587 144.67 34.0208 144.67 36.0629C144.67 36.9581 144.586 38.1753 143.996 38.98C143.152 40.0362 141.719 39.6439 140.454 39.7344C139.695 39.7445 138.936 39.835 138.261 40.167C136.986 40.7605 136.649 42.5409 137.671 43.4764C138.346 44.0901 139.273 44.3214 140.117 44.3717C142.899 44.6433 145.672 43.8587 148.549 43.8688C149.308 43.8688 150.236 44.0297 150.647 44.6735C150.91 44.9954 150.91 45.3977 150.995 45.7901C151.237 48.5865 151.416 51.4332 151.079 54.1492C150.984 54.7427 150.826 55.3362 150.32 55.7587C149.888 56.1208 149.298 56.332 148.707 56.4729C142.562 57.9013 135.479 57.5693 129.238 57.8409C128.227 57.9214 127.288 57.9314 126.456 57.5995C125.433 57.2072 124.769 56.3723 124.347 55.4468C123.336 53.3344 123.336 50.7291 123.42 48.2747C123.504 43.0137 123.072 37.8031 123.072 32.351C122.998 29.2226 122.998 26.0741 122.988 22.9055ZM191.366 37.8232C191.524 43.4563 191.103 49.19 188.499 53.7066C183.429 62.2569 172.635 59.3196 163.791 57.9214C161.43 57.5391 157.035 57.3078 156.455 54.9942C156.371 54.9137 156.371 54.8332 156.371 54.7628C155.274 50.3368 155.601 45.9912 155.77 41.3741C155.865 36.5155 155.938 31.5664 156.191 26.6274C156.286 23.499 155.021 12.5747 158.721 10.9351C159.659 10.5026 160.745 10.4221 161.768 10.4321C171.202 10.0499 181.163 10.241 187.066 19.5156C190.439 24.9475 191.198 31.5362 191.366 37.8232ZM174.501 44.5226C175.418 42.6617 175.766 37.1895 175.344 33.0853C174.743 27.4019 173.067 24.5049 171.634 24.4647C171.381 24.4647 171.128 24.4546 170.959 25.3096C170.791 25.9132 170.791 26.9392 170.791 27.8646C170.696 32.4717 170.696 37.0285 170.791 41.5451C170.791 42.8729 170.78 44.5226 171.044 45.3676C171.128 45.448 171.117 45.609 171.212 45.6995C171.37 45.9611 171.55 45.9711 171.718 45.9812C172.635 45.9711 173.658 46.2025 174.501 44.5226ZM225.087 36.7167C225.087 41.0019 224.834 45.0759 224.412 49.3208C224.243 51.6847 223.99 54.1492 223.39 56.3622C222.81 58.6859 221.798 60.8385 220.196 62.2569C217.582 64.651 214.546 64.0776 211.257 63.7456C207.968 63.4237 204.932 63.2125 201.728 61.4622C199.62 60.3959 197.67 58.6557 196.668 56.4226C196.247 55.3965 195.899 54.3102 195.741 53.3143C195.066 50.1658 194.645 47.0474 194.476 43.9392C194.307 41.1025 194.56 38.2859 194.392 35.4291C194.054 29.0818 194.56 22.6641 194.56 16.186C194.645 14.7475 194.971 12.2227 196.5 11.5286C196.921 11.257 197.417 11.2671 197.933 11.2771C200.547 11.1262 205.27 10.1807 207.209 12.6955C208.221 13.9025 208.211 15.7434 208.126 17.3025C208.042 22.1712 207.8 27.0297 207.62 31.8883C207.631 34.0812 207.536 36.3646 207.547 38.5676C207.536 40.851 207.294 43.2954 207.8 45.619C207.968 46.6451 208.474 47.7818 209.317 48.2244C211.426 49.1397 211.763 46.3131 211.752 44.8344C212.185 35.7108 211.594 26.5368 211.341 17.383C211.257 15.8037 211.257 13.9629 212.269 12.7759C214.198 10.2913 219.015 11.3878 221.545 11.6091C222.051 11.6191 222.557 11.6292 223.063 11.9108C224.496 12.6854 224.918 15.3209 224.918 16.8298C224.907 23.4386 225.002 30.0475 225.087 36.7167ZM229.398 39.151C229.398 38.2859 229.398 37.5214 229.398 36.6563C229.398 35.1274 229.556 33.5984 229.651 32.0694C229.904 28.2469 229.735 24.2434 229.482 20.5215C229.314 18.6203 229.219 16.7191 229.398 14.9286C229.472 14.2647 229.567 13.6108 229.904 13.0475C230.399 12.2931 231.253 12.0215 232.096 11.8404C234.963 11.1966 237.578 11.428 240.445 11.4481C241.119 11.4582 241.963 11.4682 242.553 12.0416C243.227 12.615 243.396 13.7718 243.48 14.7375C243.733 17.6244 243.902 20.4209 243.902 23.2274C243.902 27.412 244.071 31.6268 244.155 35.7611C244.229 39.0303 243.818 45.2066 243.976 48.4054C243.986 49.4013 244.071 50.4072 244.313 51.3226C244.566 52.2279 244.998 53.0729 245.757 53.7267C246.168 54.0486 246.685 54.3001 247.191 54.4309C249.13 55.0545 251.239 54.793 253.262 54.9137C254.601 54.9942 256.035 55.0746 257.141 56.1812C258.311 57.3882 258.575 59.6013 258.564 61.6131C258.659 63.7356 258.564 61.9149 258.406 64.1078C258.227 66.2001 258.153 67.3468 256.298 67.6687C255.455 67.89 254.612 67.89 253.684 67.89C252.409 67.9504 251.07 67.6888 249.794 67.5379C246.168 67.0048 242.553 66.4717 238.927 65.9285C235.554 65.516 231.327 66.3912 229.988 61.7841C229.482 60.1746 229.567 58.4545 229.567 56.8149C229.809 50.9403 229.472 45.0356 229.398 39.151ZM261.579 25.4002C261.59 23.2374 261.59 21.1854 261.579 19.0327C261.59 17.1919 261.674 15.2605 262.686 13.9025C263.529 12.9369 264.784 12.5345 265.975 12.2327C272.89 10.6836 280.3 10.3818 287.225 10.6836C287.815 10.7339 288.49 10.7842 288.985 11.096C289.755 11.6392 289.924 12.7558 289.924 13.7215C289.997 15.6227 290.082 15.6126 289.839 17.5741C289.418 20.1392 288.153 21.1653 285.792 21.7286C283.515 22.2315 281.238 22.4931 278.961 22.4327C278.118 22.5132 277.18 22.4931 276.589 23.1167C275.577 24.0723 275.588 31.2646 275.757 32.6427C275.841 33.4274 276.178 33.3972 276.853 33.3469C278.539 33.1759 280.131 33.1155 281.828 33.0954C282.081 33.0652 282.418 33.1055 282.671 33.2765C283.346 33.5682 283.43 34.554 283.43 35.4492C283.42 38.0143 283.262 38.638 283.262 41.3238C283.262 42.5208 283.167 43.1847 282.577 44.3818C281.744 45.9409 280.31 45.5486 279.045 45.7901C278.286 45.8504 277.527 46.0214 276.853 46.5143C275.588 47.3593 275.24 54.8332 276.263 56.1309C276.937 56.9859 277.865 57.2877 278.708 57.348C281.491 57.6196 284.274 58.203 287.13 57.8107C287.9 57.69 288.827 57.7604 289.249 58.6658C289.491 59.1285 289.491 59.7521 289.586 60.3658C289.829 64.832 290.008 61.4924 289.671 66.1095C289.576 67.1255 289.418 68.1515 288.901 68.916C288.49 69.5397 287.9 69.9119 287.309 70.1533C281.154 72.0344 274.06 70.3243 267.83 69.4089C266.818 69.3083 265.88 69.1072 265.037 68.4835C264.035 67.7391 263.361 66.4918 262.939 65.164C261.927 62.1965 261.916 59.7823 262.001 56.5936C262.096 49.8137 261.674 44.2208 261.674 37.5415C261.579 33.7895 261.59 29.0717 261.579 25.4002Z" fill="url(#paint0_linear_378_2391)"/>
<path d="M25.0945 43.0841C23.5029 41.8972 21.6477 41.183 19.8663 40.3481C16.9148 38.9599 14.3112 36.4149 12.5298 33.2664C8.23967 25.6818 11.1911 17.1014 17.2521 13.4801C18.77 12.5546 20.4566 11.9611 22.238 11.6594C26.0221 10.8043 30.0804 10.8647 33.7908 12.1925C38.9242 14.1037 43.0562 19.7268 43.404 25.7723C43.4778 26.4362 43.404 27.2007 42.9824 27.583C42.8032 27.8646 42.4764 27.9652 42.1391 28.0658C40.2734 28.6392 38.5131 29.122 36.6473 29.6753C35.6354 29.8664 33.2848 30.6209 32.3572 29.9268C32.0937 29.7357 31.9356 29.3433 31.7564 29.0516C30.4177 26.3357 27.2976 23.4889 25.2737 26.8286C24.7572 27.6635 24.5886 28.8102 24.9364 29.6854C25.5162 31.0735 26.9497 31.6167 28.2252 31.9386C31.8512 33.0149 35.6354 34.1315 38.4287 37.0487C39.2615 37.9238 40.1153 39.0806 40.7899 40.1469C41.2853 41.022 42.4659 44.7137 42.5608 45.7901C42.9824 49.7131 42.6346 53.0829 41.2115 56.835C40.1047 59.8024 38.4287 62.5184 36.1414 64.4095C34.634 65.6368 32.9475 66.4817 31.261 67.0249C27.4662 68.3527 23.408 68.5539 19.6238 67.2764C14.5537 65.3652 10.4216 58.4545 10 51.0711C10 50.2764 10.0105 49.3711 10.4216 48.9687C10.6746 48.6569 11.0119 48.5966 11.2649 48.5161C13.1201 48.0634 14.9858 47.6912 16.7462 47.2084C17.7581 46.967 20.2036 46.3835 21.1417 47.1581C21.3841 47.3794 21.5528 47.8119 21.732 48.1137C22.5753 50.0451 24.5886 53.0025 26.5281 51.9764C27.7192 51.2421 28.7206 49.4818 28.4782 47.8421C28.3833 46.6149 27.793 45.5889 27.0446 44.8646C26.4543 44.1404 25.8535 43.6173 25.0945 43.0841ZM59.8689 13.1883C64.9285 10.2712 71.506 10.1304 75.9754 14.2949C78.6633 16.8096 80.3604 20.3203 81.1193 23.9416C81.2036 24.4848 81.2774 25.0179 81.1193 25.5712C80.8663 26.5771 79.5909 26.9794 78.8319 27.2712C77.0611 28.1463 75.3745 29.0215 73.6142 29.9067C72.6023 30.3996 70.5679 32.3108 69.6508 31.325C69.2292 30.8723 69.0605 30.3291 68.8076 29.8765C67.7851 27.9552 65.0866 26.8286 63.4844 28.6291C62.989 29.283 62.7255 30.2386 62.5674 31.0836C61.3868 35.9019 61.3868 42.5812 62.8941 47.2084C63.3263 48.4054 64.0852 49.4818 65.0866 49.8841C67.0262 50.6889 69.05 47.9427 69.8933 46.2226C70.0725 45.9309 70.2411 45.5486 70.4836 45.3474C71.4217 44.6534 73.8672 45.1463 74.7948 45.3676C76.65 45.8001 78.5052 46.1421 80.2655 46.5747C80.6133 46.6451 80.9507 46.7054 81.2036 46.9569C81.6253 47.2889 81.6253 48.0131 81.6147 48.6569C81.2036 54.461 77.0611 60.2953 72.012 62.6089C68.2173 64.1882 64.1696 64.6811 60.3749 64.1178C58.6883 63.8965 56.9175 63.3936 55.4839 62.4782C53.2071 61.0397 51.51 58.6658 50.4137 55.9397C47.9682 50.0551 47.3042 42.9936 47.8839 36.4149C48.1474 34.393 48.3161 32.4818 48.7377 30.47C49.581 26.567 51.0989 22.7848 53.2914 19.5759C55.0623 17.0309 57.2548 14.6972 59.8689 13.1883ZM85.9365 39.2013C85.7678 35.1676 85.9365 31.1138 86.1051 27.0499C86.1789 23.0866 85.5992 19.3144 86.0208 15.341C86.1789 14.0736 86.4425 12.5345 87.5387 11.8002C88.2133 11.3475 89.0566 11.2469 89.8155 11.1463C93.0938 10.754 97.7423 9.53688 99.8504 13.0073C100.947 14.8582 100.694 17.2522 100.515 19.4753C100.272 22.312 100.262 25.1386 100.356 27.9552C100.356 28.6493 100.441 29.3534 100.862 29.8664C101.273 30.2084 101.706 30.4398 102.285 30.5203C102.802 30.4096 103.297 30.138 103.645 29.7759C104.151 29.2327 104.141 28.5286 104.235 27.8345C104.32 25.028 104.225 22.2215 103.972 19.415C103.814 17.202 103.635 14.8179 104.731 12.9469C106.85 9.46646 111.656 10.583 114.945 10.5629C115.704 10.5529 116.463 10.5529 117.053 11.0759C117.728 11.6795 117.896 12.6452 117.981 13.6108C118.234 16.2262 118.392 18.741 118.402 21.4268C118.308 26.8587 118.908 32.2203 118.655 37.6421C118.402 43.1847 118.476 48.7374 118.476 54.29C118.476 55.6078 118.402 57.0965 117.464 58.0924C115.788 59.8226 112.658 59.2995 110.644 59.5811C109.126 59.8125 108.03 60.0036 106.512 59.903C106.164 59.9332 105.753 59.893 105.49 59.7421C104.826 59.2995 104.741 58.4445 104.647 57.5995C104.573 54.9539 104.573 52.2983 104.573 49.6427C104.573 48.2545 105.49 43.567 103.814 43.064C103.55 42.9936 103.392 43.0037 103.139 43.0137C102.633 43.0439 102.212 43.064 101.706 43.0942C101.2 43.1244 100.609 43.2551 100.188 43.6273C99.7661 44.08 99.7556 44.7841 99.7661 45.3877C99.6818 48.9486 99.6818 52.5196 99.6818 55.99C99.7556 57.0161 99.7661 58.0622 99.3445 59.048C98.7437 60.8385 96.9728 61.1906 95.3811 61.2711C93.5259 61.2811 91.6602 61.6433 89.805 61.7439C88.7193 61.8545 87.4544 61.8947 86.6954 61.08C85.9365 60.1646 86.1789 58.8066 86.3581 57.5391C86.7798 54.5516 86.3476 51.7249 86.4425 48.7676C86.5268 45.6291 86.0208 42.3398 85.9365 39.2013ZM122.988 22.9055C122.988 21.0144 122.998 19.2037 122.998 17.3025C122.998 15.6528 123.072 13.9126 124.084 12.6854C124.938 11.8102 126.203 11.4481 127.383 11.1866C134.298 9.83865 141.719 9.74812 148.623 10.3718C149.224 10.4623 149.899 10.5529 150.405 10.9049C151.153 11.4984 151.332 12.6452 151.332 13.5907C151.416 15.4919 151.49 17.4735 151.248 19.3647C150.826 21.7487 149.561 22.5031 147.2 22.6641C144.923 22.825 142.646 22.825 140.37 22.5735C139.526 22.5836 138.599 22.4931 137.998 23.0061C136.997 23.7806 136.997 25.6416 137.155 26.8185C137.249 27.4824 137.587 27.4723 138.261 27.4723C139.937 27.4623 141.55 27.5528 143.237 27.7138C143.49 27.7138 143.816 27.7842 144.08 27.9652C144.755 28.2972 144.839 29.1321 144.828 29.8765C144.828 31.9587 144.67 34.0208 144.67 36.0629C144.67 36.9581 144.586 38.1753 143.996 38.98C143.152 40.0362 141.719 39.6439 140.454 39.7344C139.695 39.7445 138.936 39.835 138.261 40.167C136.986 40.7605 136.649 42.5409 137.671 43.4764C138.346 44.0901 139.273 44.3214 140.117 44.3717C142.899 44.6433 145.672 43.8587 148.549 43.8688C149.308 43.8688 150.236 44.0297 150.647 44.6735C150.91 44.9954 150.91 45.3977 150.995 45.7901C151.237 48.5865 151.416 51.4332 151.079 54.1492C150.984 54.7427 150.826 55.3362 150.32 55.7587C149.888 56.1208 149.298 56.332 148.707 56.4729C142.562 57.9013 135.479 57.5693 129.238 57.8409C128.227 57.9214 127.288 57.9314 126.456 57.5995C125.433 57.2072 124.769 56.3723 124.347 55.4468C123.336 53.3344 123.336 50.7291 123.42 48.2747C123.504 43.0137 123.072 37.8031 123.072 32.351C122.998 29.2226 122.998 26.0741 122.988 22.9055ZM191.366 37.8232C191.524 43.4563 191.103 49.19 188.499 53.7066C183.429 62.2569 172.635 59.3196 163.791 57.9214C161.43 57.5391 157.035 57.3078 156.455 54.9942C156.371 54.9137 156.371 54.8332 156.371 54.7628C155.274 50.3368 155.601 45.9912 155.77 41.3741C155.865 36.5155 155.938 31.5664 156.191 26.6274C156.286 23.499 155.021 12.5747 158.721 10.9351C159.659 10.5026 160.745 10.4221 161.768 10.4321C171.202 10.0499 181.163 10.241 187.066 19.5156C190.439 24.9475 191.198 31.5362 191.366 37.8232ZM174.501 44.5226C175.418 42.6617 175.766 37.1895 175.344 33.0853C174.743 27.4019 173.067 24.5049 171.634 24.4647C171.381 24.4647 171.128 24.4546 170.959 25.3096C170.791 25.9132 170.791 26.9392 170.791 27.8646C170.696 32.4717 170.696 37.0285 170.791 41.5451C170.791 42.8729 170.78 44.5226 171.044 45.3676C171.128 45.448 171.117 45.609 171.212 45.6995C171.37 45.9611 171.55 45.9711 171.718 45.9812C172.635 45.9711 173.658 46.2025 174.501 44.5226ZM225.087 36.7167C225.087 41.0019 224.834 45.0759 224.412 49.3208C224.243 51.6847 223.99 54.1492 223.39 56.3622C222.81 58.6859 221.798 60.8385 220.196 62.2569C217.582 64.651 214.546 64.0776 211.257 63.7456C207.968 63.4237 204.932 63.2125 201.728 61.4622C199.62 60.3959 197.67 58.6557 196.668 56.4226C196.247 55.3965 195.899 54.3102 195.741 53.3143C195.066 50.1658 194.645 47.0474 194.476 43.9392C194.307 41.1025 194.56 38.2859 194.392 35.4291C194.054 29.0818 194.56 22.6641 194.56 16.186C194.645 14.7475 194.971 12.2227 196.5 11.5286C196.921 11.257 197.417 11.2671 197.933 11.2771C200.547 11.1262 205.27 10.1807 207.209 12.6955C208.221 13.9025 208.211 15.7434 208.126 17.3025C208.042 22.1712 207.8 27.0297 207.62 31.8883C207.631 34.0812 207.536 36.3646 207.547 38.5676C207.536 40.851 207.294 43.2954 207.8 45.619C207.968 46.6451 208.474 47.7818 209.317 48.2244C211.426 49.1397 211.763 46.3131 211.752 44.8344C212.185 35.7108 211.594 26.5368 211.341 17.383C211.257 15.8037 211.257 13.9629 212.269 12.7759C214.198 10.2913 219.015 11.3878 221.545 11.6091C222.051 11.6191 222.557 11.6292 223.063 11.9108C224.496 12.6854 224.918 15.3209 224.918 16.8298C224.907 23.4386 225.002 30.0475 225.087 36.7167ZM229.398 39.151C229.398 38.2859 229.398 37.5214 229.398 36.6563C229.398 35.1274 229.556 33.5984 229.651 32.0694C229.904 28.2469 229.735 24.2434 229.482 20.5215C229.314 18.6203 229.219 16.7191 229.398 14.9286C229.472 14.2647 229.567 13.6108 229.904 13.0475C230.399 12.2931 231.253 12.0215 232.096 11.8404C234.963 11.1966 237.578 11.428 240.445 11.4481C241.119 11.4582 241.963 11.4682 242.553 12.0416C243.227 12.615 243.396 13.7718 243.48 14.7375C243.733 17.6244 243.902 20.4209 243.902 23.2274C243.902 27.412 244.071 31.6268 244.155 35.7611C244.229 39.0303 243.818 45.2066 243.976 48.4054C243.986 49.4013 244.071 50.4072 244.313 51.3226C244.566 52.2279 244.998 53.0729 245.757 53.7267C246.168 54.0486 246.685 54.3001 247.191 54.4309C249.13 55.0545 251.239 54.793 253.262 54.9137C254.601 54.9942 256.035 55.0746 257.141 56.1812C258.311 57.3882 258.575 59.6013 258.564 61.6131C258.659 63.7356 258.564 61.9149 258.406 64.1078C258.227 66.2001 258.153 67.3468 256.298 67.6687C255.455 67.89 254.612 67.89 253.684 67.89C252.409 67.9504 251.07 67.6888 249.794 67.5379C246.168 67.0048 242.553 66.4717 238.927 65.9285C235.554 65.516 231.327 66.3912 229.988 61.7841C229.482 60.1746 229.567 58.4545 229.567 56.8149C229.809 50.9403 229.472 45.0356 229.398 39.151ZM261.579 25.4002C261.59 23.2374 261.59 21.1854 261.579 19.0327C261.59 17.1919 261.674 15.2605 262.686 13.9025C263.529 12.9369 264.784 12.5345 265.975 12.2327C272.89 10.6836 280.3 10.3818 287.225 10.6836C287.815 10.7339 288.49 10.7842 288.985 11.096C289.755 11.6392 289.924 12.7558 289.924 13.7215C289.997 15.6227 290.082 15.6126 289.839 17.5741C289.418 20.1392 288.153 21.1653 285.792 21.7286C283.515 22.2315 281.238 22.4931 278.961 22.4327C278.118 22.5132 277.18 22.4931 276.589 23.1167C275.577 24.0723 275.588 31.2646 275.757 32.6427C275.841 33.4274 276.178 33.3972 276.853 33.3469C278.539 33.1759 280.131 33.1155 281.828 33.0954C282.081 33.0652 282.418 33.1055 282.671 33.2765C283.346 33.5682 283.43 34.554 283.43 35.4492C283.42 38.0143 283.262 38.638 283.262 41.3238C283.262 42.5208 283.167 43.1847 282.577 44.3818C281.744 45.9409 280.31 45.5486 279.045 45.7901C278.286 45.8504 277.527 46.0214 276.853 46.5143C275.588 47.3593 275.24 54.8332 276.263 56.1309C276.937 56.9859 277.865 57.2877 278.708 57.348C281.491 57.6196 284.274 58.203 287.13 57.8107C287.9 57.69 288.827 57.7604 289.249 58.6658C289.491 59.1285 289.491 59.7521 289.586 60.3658C289.829 64.832 290.008 61.4924 289.671 66.1095C289.576 67.1255 289.418 68.1515 288.901 68.916C288.49 69.5397 287.9 69.9119 287.309 70.1533C281.154 72.0344 274.06 70.3243 267.83 69.4089C266.818 69.3083 265.88 69.1072 265.037 68.4835C264.035 67.7391 263.361 66.4918 262.939 65.164C261.927 62.1965 261.916 59.7823 262.001 56.5936C262.096 49.8137 261.674 44.2208 261.674 37.5415C261.579 33.7895 261.59 29.0717 261.579 25.4002Z" stroke="white" stroke-width="20" mask="url(#path-1-outside-1_378_2391)"/>
<rect x="57" y="28" width="214" height="25" fill="#0B0A22"/>
<mask id="path-3-outside-2_378_2391" maskUnits="userSpaceOnUse" x="4" y="4" width="292" height="74" fill="black">
<rect fill="white" x="4" y="4" width="292" height="74"/>
<path d="M25.0945 43.0841C23.5029 41.8972 21.6477 41.183 19.8663 40.3481C16.9148 38.9599 14.3112 36.4149 12.5298 33.2664C8.23967 25.6818 11.1911 17.1014 17.2521 13.4801C18.77 12.5546 20.4566 11.9611 22.238 11.6594C26.0221 10.8043 30.0804 10.8647 33.7908 12.1925C38.9242 14.1037 43.0562 19.7268 43.404 25.7723C43.4778 26.4362 43.404 27.2007 42.9824 27.583C42.8032 27.8646 42.4764 27.9652 42.1391 28.0658C40.2734 28.6392 38.5131 29.122 36.6473 29.6753C35.6354 29.8664 33.2848 30.6209 32.3572 29.9268C32.0937 29.7357 31.9356 29.3433 31.7564 29.0516C30.4177 26.3357 27.2976 23.4889 25.2737 26.8286C24.7572 27.6635 24.5886 28.8102 24.9364 29.6854C25.5162 31.0735 26.9497 31.6167 28.2252 31.9386C31.8512 33.0149 35.6354 34.1315 38.4287 37.0487C39.2615 37.9238 40.1153 39.0806 40.7899 40.1469C41.2853 41.022 42.4659 44.7137 42.5608 45.7901C42.9824 49.7131 42.6346 53.0829 41.2115 56.835C40.1047 59.8024 38.4287 62.5184 36.1414 64.4095C34.634 65.6367 32.9475 66.4817 31.261 67.0249C27.4662 68.3527 23.408 68.5539 19.6238 67.2764C14.5537 65.3652 10.4216 58.4545 10 51.0711C10 50.2764 10.0105 49.3711 10.4216 48.9687C10.6746 48.6569 11.0119 48.5966 11.2649 48.5161C13.1201 48.0634 14.9858 47.6912 16.7462 47.2084C17.7581 46.967 20.2036 46.3835 21.1417 47.1581C21.3841 47.3794 21.5528 47.8119 21.732 48.1137C22.5753 50.0451 24.5886 53.0025 26.5281 51.9764C27.7192 51.2421 28.7206 49.4818 28.4782 47.8421C28.3833 46.6149 27.793 45.5889 27.0446 44.8646C26.4543 44.1404 25.8535 43.6173 25.0945 43.0841ZM59.8689 13.1883C64.9285 10.2712 71.506 10.1304 75.9754 14.2949C78.6633 16.8096 80.3604 20.3203 81.1193 23.9416C81.2036 24.4848 81.2774 25.0179 81.1193 25.5712C80.8663 26.5771 79.5909 26.9794 78.8319 27.2712C77.0611 28.1463 75.3745 29.0215 73.6142 29.9067C72.6023 30.3996 70.5679 32.3108 69.6508 31.325C69.2292 30.8723 69.0605 30.3291 68.8076 29.8765C67.7851 27.9552 65.0866 26.8286 63.4844 28.6291C62.989 29.283 62.7255 30.2386 62.5674 31.0836C61.3868 35.9019 61.3868 42.5812 62.8941 47.2084C63.3263 48.4054 64.0852 49.4818 65.0866 49.8841C67.0262 50.6889 69.05 47.9427 69.8933 46.2226C70.0725 45.9309 70.2411 45.5486 70.4836 45.3474C71.4217 44.6534 73.8672 45.1463 74.7948 45.3676C76.65 45.8001 78.5052 46.1421 80.2655 46.5747C80.6133 46.6451 80.9507 46.7054 81.2036 46.9569C81.6253 47.2889 81.6253 48.0131 81.6147 48.6569C81.2036 54.461 77.0611 60.2953 72.012 62.6089C68.2173 64.1882 64.1696 64.6811 60.3749 64.1178C58.6883 63.8965 56.9175 63.3936 55.4839 62.4782C53.2071 61.0397 51.51 58.6658 50.4137 55.9397C47.9682 50.0551 47.3042 42.9936 47.8839 36.4149C48.1474 34.393 48.3161 32.4818 48.7377 30.47C49.581 26.567 51.0989 22.7848 53.2914 19.5759C55.0623 17.0309 57.2548 14.6972 59.8689 13.1883ZM85.9365 39.2013C85.7678 35.1676 85.9365 31.1138 86.1051 27.0499C86.1789 23.0866 85.5992 19.3144 86.0208 15.341C86.1789 14.0736 86.4425 12.5345 87.5387 11.8002C88.2133 11.3475 89.0566 11.2469 89.8155 11.1463C93.0938 10.754 97.7423 9.53688 99.8504 13.0073C100.947 14.8582 100.694 17.2522 100.515 19.4753C100.272 22.312 100.262 25.1386 100.356 27.9552C100.356 28.6493 100.441 29.3534 100.862 29.8664C101.273 30.2084 101.706 30.4398 102.285 30.5203C102.802 30.4096 103.297 30.138 103.645 29.7759C104.151 29.2327 104.141 28.5286 104.235 27.8345C104.32 25.028 104.225 22.2215 103.972 19.415C103.814 17.202 103.635 14.8179 104.731 12.9469C106.85 9.46646 111.656 10.583 114.945 10.5629C115.704 10.5529 116.463 10.5529 117.053 11.0759C117.728 11.6795 117.896 12.6452 117.981 13.6108C118.234 16.2262 118.392 18.741 118.402 21.4268C118.308 26.8587 118.908 32.2203 118.655 37.6421C118.402 43.1847 118.476 48.7374 118.476 54.29C118.476 55.6078 118.402 57.0965 117.464 58.0924C115.788 59.8226 112.658 59.2995 110.644 59.5811C109.126 59.8125 108.03 60.0036 106.512 59.903C106.164 59.9332 105.753 59.893 105.49 59.7421C104.826 59.2995 104.741 58.4445 104.647 57.5995C104.573 54.9539 104.573 52.2983 104.573 49.6427C104.573 48.2545 105.49 43.567 103.814 43.064C103.55 42.9936 103.392 43.0037 103.139 43.0137C102.633 43.0439 102.212 43.064 101.706 43.0942C101.2 43.1244 100.609 43.2551 100.188 43.6273C99.7661 44.08 99.7556 44.7841 99.7661 45.3877C99.6818 48.9486 99.6818 52.5196 99.6818 55.99C99.7556 57.0161 99.7661 58.0622 99.3445 59.048C98.7437 60.8385 96.9728 61.1906 95.3811 61.2711C93.5259 61.2811 91.6602 61.6433 89.805 61.7439C88.7193 61.8545 87.4544 61.8947 86.6954 61.08C85.9365 60.1646 86.1789 58.8066 86.3581 57.5391C86.7798 54.5516 86.3476 51.7249 86.4425 48.7676C86.5268 45.6291 86.0208 42.3398 85.9365 39.2013ZM122.988 22.9055C122.988 21.0144 122.998 19.2037 122.998 17.3025C122.998 15.6528 123.072 13.9126 124.084 12.6854C124.938 11.8102 126.203 11.4481 127.383 11.1866C134.298 9.83865 141.719 9.74812 148.623 10.3718C149.224 10.4623 149.899 10.5529 150.405 10.9049C151.153 11.4984 151.332 12.6452 151.332 13.5907C151.416 15.4919 151.49 17.4735 151.248 19.3647C150.826 21.7487 149.561 22.5031 147.2 22.6641C144.923 22.825 142.646 22.825 140.37 22.5735C139.526 22.5836 138.599 22.4931 137.998 23.0061C136.997 23.7806 136.997 25.6416 137.155 26.8185C137.249 27.4824 137.587 27.4723 138.261 27.4723C139.937 27.4623 141.55 27.5528 143.237 27.7138C143.49 27.7138 143.816 27.7842 144.08 27.9652C144.755 28.2972 144.839 29.1321 144.828 29.8765C144.828 31.9587 144.67 34.0208 144.67 36.0629C144.67 36.9581 144.586 38.1753 143.996 38.98C143.152 40.0362 141.719 39.6439 140.454 39.7344C139.695 39.7445 138.936 39.835 138.261 40.167C136.986 40.7605 136.649 42.5409 137.671 43.4764C138.346 44.0901 139.273 44.3214 140.117 44.3717C142.899 44.6433 145.672 43.8587 148.549 43.8688C149.308 43.8688 150.236 44.0297 150.647 44.6735C150.91 44.9954 150.91 45.3977 150.995 45.7901C151.237 48.5865 151.416 51.4332 151.079 54.1492C150.984 54.7427 150.826 55.3362 150.32 55.7587C149.888 56.1208 149.298 56.332 148.707 56.4729C142.562 57.9013 135.479 57.5693 129.238 57.8409C128.227 57.9214 127.288 57.9314 126.456 57.5995C125.433 57.2072 124.769 56.3723 124.347 55.4468C123.336 53.3344 123.336 50.7291 123.42 48.2747C123.504 43.0137 123.072 37.8031 123.072 32.351C122.998 29.2226 122.998 26.0741 122.988 22.9055ZM191.366 37.8232C191.524 43.4563 191.103 49.19 188.499 53.7066C183.429 62.2569 172.635 59.3196 163.791 57.9214C161.43 57.5391 157.035 57.3078 156.455 54.9942C156.371 54.9137 156.371 54.8332 156.371 54.7628C155.274 50.3368 155.601 45.9912 155.77 41.3741C155.865 36.5155 155.938 31.5664 156.191 26.6274C156.286 23.499 155.021 12.5747 158.721 10.9351C159.659 10.5026 160.745 10.4221 161.768 10.4321C171.202 10.0499 181.163 10.241 187.066 19.5156C190.439 24.9475 191.198 31.5362 191.366 37.8232ZM174.501 44.5226C175.418 42.6617 175.766 37.1895 175.344 33.0853C174.743 27.4019 173.067 24.5049 171.634 24.4647C171.381 24.4647 171.128 24.4546 170.959 25.3096C170.791 25.9132 170.791 26.9392 170.791 27.8646C170.696 32.4717 170.696 37.0285 170.791 41.5451C170.791 42.8729 170.78 44.5226 171.044 45.3676C171.128 45.448 171.117 45.609 171.212 45.6995C171.37 45.9611 171.55 45.9711 171.718 45.9812C172.635 45.9711 173.658 46.2025 174.501 44.5226ZM225.087 36.7167C225.087 41.0019 224.834 45.0759 224.412 49.3208C224.243 51.6847 223.99 54.1492 223.39 56.3622C222.81 58.6859 221.798 60.8385 220.196 62.2569C217.582 64.651 214.546 64.0776 211.257 63.7456C207.968 63.4237 204.932 63.2125 201.728 61.4622C199.62 60.3959 197.67 58.6557 196.668 56.4226C196.247 55.3965 195.899 54.3102 195.741 53.3143C195.066 50.1658 194.645 47.0474 194.476 43.9392C194.307 41.1025 194.56 38.2859 194.392 35.4291C194.054 29.0818 194.56 22.6641 194.56 16.186C194.645 14.7475 194.971 12.2227 196.5 11.5286C196.921 11.257 197.417 11.2671 197.933 11.2771C200.547 11.1262 205.27 10.1807 207.209 12.6955C208.221 13.9025 208.211 15.7434 208.126 17.3025C208.042 22.1712 207.8 27.0297 207.62 31.8883C207.631 34.0812 207.536 36.3646 207.547 38.5676C207.536 40.851 207.294 43.2954 207.8 45.619C207.968 46.6451 208.474 47.7818 209.317 48.2244C211.426 49.1397 211.763 46.3131 211.752 44.8344C212.185 35.7108 211.594 26.5368 211.341 17.383C211.257 15.8037 211.257 13.9629 212.269 12.7759C214.198 10.2913 219.015 11.3878 221.545 11.6091C222.051 11.6191 222.557 11.6292 223.063 11.9108C224.496 12.6854 224.918 15.3209 224.918 16.8298C224.907 23.4386 225.002 30.0475 225.087 36.7167ZM229.398 39.151C229.398 38.2859 229.398 37.5214 229.398 36.6563C229.398 35.1274 229.556 33.5984 229.651 32.0694C229.904 28.2469 229.735 24.2434 229.482 20.5215C229.314 18.6203 229.219 16.7191 229.398 14.9286C229.472 14.2647 229.567 13.6108 229.904 13.0475C230.399 12.2931 231.253 12.0215 232.096 11.8404C234.963 11.1966 237.578 11.428 240.445 11.4481C241.119 11.4582 241.963 11.4682 242.553 12.0416C243.227 12.615 243.396 13.7718 243.48 14.7375C243.733 17.6244 243.902 20.4209 243.902 23.2274C243.902 27.412 244.071 31.6268 244.155 35.7611C244.229 39.0303 243.818 45.2066 243.976 48.4054C243.986 49.4013 244.071 50.4072 244.313 51.3226C244.566 52.2279 244.998 53.0729 245.757 53.7267C246.168 54.0486 246.685 54.3001 247.191 54.4309C249.13 55.0545 251.239 54.793 253.262 54.9137C254.601 54.9942 256.035 55.0746 257.141 56.1812C258.311 57.3883 258.575 59.6013 258.564 61.6131C258.659 63.7356 258.564 61.9149 258.406 64.1078C258.227 66.2001 258.153 67.3468 256.298 67.6687C255.455 67.89 254.612 67.89 253.684 67.89C252.409 67.9504 251.07 67.6888 249.794 67.5379C246.168 67.0048 242.553 66.4717 238.927 65.9285C235.554 65.516 231.327 66.3912 229.988 61.7841C229.482 60.1746 229.567 58.4545 229.567 56.8149C229.809 50.9403 229.472 45.0356 229.398 39.151ZM261.579 25.4002C261.59 23.2374 261.59 21.1854 261.579 19.0327C261.59 17.1919 261.674 15.2605 262.686 13.9025C263.529 12.9369 264.784 12.5345 265.975 12.2327C272.89 10.6836 280.3 10.3818 287.225 10.6836C287.815 10.7339 288.49 10.7842 288.985 11.096C289.755 11.6392 289.924 12.7558 289.924 13.7215C289.997 15.6227 290.082 15.6126 289.839 17.5741C289.418 20.1392 288.153 21.1653 285.792 21.7286C283.515 22.2315 281.238 22.4931 278.961 22.4327C278.118 22.5132 277.18 22.4931 276.589 23.1167C275.577 24.0723 275.588 31.2646 275.757 32.6427C275.841 33.4274 276.178 33.3972 276.853 33.3469C278.539 33.1759 280.131 33.1155 281.828 33.0954C282.081 33.0652 282.418 33.1055 282.671 33.2765C283.346 33.5682 283.43 34.554 283.43 35.4492C283.42 38.0143 283.262 38.638 283.262 41.3238C283.262 42.5208 283.167 43.1847 282.577 44.3818C281.744 45.9409 280.31 45.5486 279.045 45.7901C278.286 45.8504 277.528 46.0214 276.853 46.5143C275.588 47.3593 275.24 54.8332 276.263 56.1309C276.937 56.9859 277.865 57.2877 278.708 57.348C281.491 57.6196 284.274 58.203 287.13 57.8107C287.9 57.69 288.827 57.7604 289.249 58.6658C289.491 59.1285 289.491 59.7521 289.586 60.3658C289.829 64.832 290.008 61.4924 289.671 66.1095C289.576 67.1255 289.418 68.1515 288.901 68.916C288.49 69.5397 287.9 69.9119 287.309 70.1533C281.154 72.0344 274.06 70.3243 267.83 69.4089C266.818 69.3083 265.88 69.1072 265.037 68.4835C264.035 67.7391 263.361 66.4918 262.939 65.164C261.927 62.1965 261.916 59.7823 262.001 56.5936C262.096 49.8137 261.674 44.2208 261.674 37.5415C261.579 33.7895 261.59 29.0717 261.579 25.4002Z"/>
</mask>
<path d="M25.0945 43.0841C23.5029 41.8972 21.6477 41.183 19.8663 40.3481C16.9148 38.9599 14.3112 36.4149 12.5298 33.2664C8.23967 25.6818 11.1911 17.1014 17.2521 13.4801C18.77 12.5546 20.4566 11.9611 22.238 11.6594C26.0221 10.8043 30.0804 10.8647 33.7908 12.1925C38.9242 14.1037 43.0562 19.7268 43.404 25.7723C43.4778 26.4362 43.404 27.2007 42.9824 27.583C42.8032 27.8646 42.4764 27.9652 42.1391 28.0658C40.2734 28.6392 38.5131 29.122 36.6473 29.6753C35.6354 29.8664 33.2848 30.6209 32.3572 29.9268C32.0937 29.7357 31.9356 29.3433 31.7564 29.0516C30.4177 26.3357 27.2976 23.4889 25.2737 26.8286C24.7572 27.6635 24.5886 28.8102 24.9364 29.6854C25.5162 31.0735 26.9497 31.6167 28.2252 31.9386C31.8512 33.0149 35.6354 34.1315 38.4287 37.0487C39.2615 37.9238 40.1153 39.0806 40.7899 40.1469C41.2853 41.022 42.4659 44.7137 42.5608 45.7901C42.9824 49.7131 42.6346 53.0829 41.2115 56.835C40.1047 59.8024 38.4287 62.5184 36.1414 64.4095C34.634 65.6367 32.9475 66.4817 31.261 67.0249C27.4662 68.3527 23.408 68.5539 19.6238 67.2764C14.5537 65.3652 10.4216 58.4545 10 51.0711C10 50.2764 10.0105 49.3711 10.4216 48.9687C10.6746 48.6569 11.0119 48.5966 11.2649 48.5161C13.1201 48.0634 14.9858 47.6912 16.7462 47.2084C17.7581 46.967 20.2036 46.3835 21.1417 47.1581C21.3841 47.3794 21.5528 47.8119 21.732 48.1137C22.5753 50.0451 24.5886 53.0025 26.5281 51.9764C27.7192 51.2421 28.7206 49.4818 28.4782 47.8421C28.3833 46.6149 27.793 45.5889 27.0446 44.8646C26.4543 44.1404 25.8535 43.6173 25.0945 43.0841ZM59.8689 13.1883C64.9285 10.2712 71.506 10.1304 75.9754 14.2949C78.6633 16.8096 80.3604 20.3203 81.1193 23.9416C81.2036 24.4848 81.2774 25.0179 81.1193 25.5712C80.8663 26.5771 79.5909 26.9794 78.8319 27.2712C77.0611 28.1463 75.3745 29.0215 73.6142 29.9067C72.6023 30.3996 70.5679 32.3108 69.6508 31.325C69.2292 30.8723 69.0605 30.3291 68.8076 29.8765C67.7851 27.9552 65.0866 26.8286 63.4844 28.6291C62.989 29.283 62.7255 30.2386 62.5674 31.0836C61.3868 35.9019 61.3868 42.5812 62.8941 47.2084C63.3263 48.4054 64.0852 49.4818 65.0866 49.8841C67.0262 50.6889 69.05 47.9427 69.8933 46.2226C70.0725 45.9309 70.2411 45.5486 70.4836 45.3474C71.4217 44.6534 73.8672 45.1463 74.7948 45.3676C76.65 45.8001 78.5052 46.1421 80.2655 46.5747C80.6133 46.6451 80.9507 46.7054 81.2036 46.9569C81.6253 47.2889 81.6253 48.0131 81.6147 48.6569C81.2036 54.461 77.0611 60.2953 72.012 62.6089C68.2173 64.1882 64.1696 64.6811 60.3749 64.1178C58.6883 63.8965 56.9175 63.3936 55.4839 62.4782C53.2071 61.0397 51.51 58.6658 50.4137 55.9397C47.9682 50.0551 47.3042 42.9936 47.8839 36.4149C48.1474 34.393 48.3161 32.4818 48.7377 30.47C49.581 26.567 51.0989 22.7848 53.2914 19.5759C55.0623 17.0309 57.2548 14.6972 59.8689 13.1883ZM85.9365 39.2013C85.7678 35.1676 85.9365 31.1138 86.1051 27.0499C86.1789 23.0866 85.5992 19.3144 86.0208 15.341C86.1789 14.0736 86.4425 12.5345 87.5387 11.8002C88.2133 11.3475 89.0566 11.2469 89.8155 11.1463C93.0938 10.754 97.7423 9.53688 99.8504 13.0073C100.947 14.8582 100.694 17.2522 100.515 19.4753C100.272 22.312 100.262 25.1386 100.356 27.9552C100.356 28.6493 100.441 29.3534 100.862 29.8664C101.273 30.2084 101.706 30.4398 102.285 30.5203C102.802 30.4096 103.297 30.138 103.645 29.7759C104.151 29.2327 104.141 28.5286 104.235 27.8345C104.32 25.028 104.225 22.2215 103.972 19.415C103.814 17.202 103.635 14.8179 104.731 12.9469C106.85 9.46646 111.656 10.583 114.945 10.5629C115.704 10.5529 116.463 10.5529 117.053 11.0759C117.728 11.6795 117.896 12.6452 117.981 13.6108C118.234 16.2262 118.392 18.741 118.402 21.4268C118.308 26.8587 118.908 32.2203 118.655 37.6421C118.402 43.1847 118.476 48.7374 118.476 54.29C118.476 55.6078 118.402 57.0965 117.464 58.0924C115.788 59.8226 112.658 59.2995 110.644 59.5811C109.126 59.8125 108.03 60.0036 106.512 59.903C106.164 59.9332 105.753 59.893 105.49 59.7421C104.826 59.2995 104.741 58.4445 104.647 57.5995C104.573 54.9539 104.573 52.2983 104.573 49.6427C104.573 48.2545 105.49 43.567 103.814 43.064C103.55 42.9936 103.392 43.0037 103.139 43.0137C102.633 43.0439 102.212 43.064 101.706 43.0942C101.2 43.1244 100.609 43.2551 100.188 43.6273C99.7661 44.08 99.7556 44.7841 99.7661 45.3877C99.6818 48.9486 99.6818 52.5196 99.6818 55.99C99.7556 57.0161 99.7661 58.0622 99.3445 59.048C98.7437 60.8385 96.9728 61.1906 95.3811 61.2711C93.5259 61.2811 91.6602 61.6433 89.805 61.7439C88.7193 61.8545 87.4544 61.8947 86.6954 61.08C85.9365 60.1646 86.1789 58.8066 86.3581 57.5391C86.7798 54.5516 86.3476 51.7249 86.4425 48.7676C86.5268 45.6291 86.0208 42.3398 85.9365 39.2013ZM122.988 22.9055C122.988 21.0144 122.998 19.2037 122.998 17.3025C122.998 15.6528 123.072 13.9126 124.084 12.6854C124.938 11.8102 126.203 11.4481 127.383 11.1866C134.298 9.83865 141.719 9.74812 148.623 10.3718C149.224 10.4623 149.899 10.5529 150.405 10.9049C151.153 11.4984 151.332 12.6452 151.332 13.5907C151.416 15.4919 151.49 17.4735 151.248 19.3647C150.826 21.7487 149.561 22.5031 147.2 22.6641C144.923 22.825 142.646 22.825 140.37 22.5735C139.526 22.5836 138.599 22.4931 137.998 23.0061C136.997 23.7806 136.997 25.6416 137.155 26.8185C137.249 27.4824 137.587 27.4723 138.261 27.4723C139.937 27.4623 141.55 27.5528 143.237 27.7138C143.49 27.7138 143.816 27.7842 144.08 27.9652C144.755 28.2972 144.839 29.1321 144.828 29.8765C144.828 31.9587 144.67 34.0208 144.67 36.0629C144.67 36.9581 144.586 38.1753 143.996 38.98C143.152 40.0362 141.719 39.6439 140.454 39.7344C139.695 39.7445 138.936 39.835 138.261 40.167C136.986 40.7605 136.649 42.5409 137.671 43.4764C138.346 44.0901 139.273 44.3214 140.117 44.3717C142.899 44.6433 145.672 43.8587 148.549 43.8688C149.308 43.8688 150.236 44.0297 150.647 44.6735C150.91 44.9954 150.91 45.3977 150.995 45.7901C151.237 48.5865 151.416 51.4332 151.079 54.1492C150.984 54.7427 150.826 55.3362 150.32 55.7587C149.888 56.1208 149.298 56.332 148.707 56.4729C142.562 57.9013 135.479 57.5693 129.238 57.8409C128.227 57.9214 127.288 57.9314 126.456 57.5995C125.433 57.2072 124.769 56.3723 124.347 55.4468C123.336 53.3344 123.336 50.7291 123.42 48.2747C123.504 43.0137 123.072 37.8031 123.072 32.351C122.998 29.2226 122.998 26.0741 122.988 22.9055ZM191.366 37.8232C191.524 43.4563 191.103 49.19 188.499 53.7066C183.429 62.2569 172.635 59.3196 163.791 57.9214C161.43 57.5391 157.035 57.3078 156.455 54.9942C156.371 54.9137 156.371 54.8332 156.371 54.7628C155.274 50.3368 155.601 45.9912 155.77 41.3741C155.865 36.5155 155.938 31.5664 156.191 26.6274C156.286 23.499 155.021 12.5747 158.721 10.9351C159.659 10.5026 160.745 10.4221 161.768 10.4321C171.202 10.0499 181.163 10.241 187.066 19.5156C190.439 24.9475 191.198 31.5362 191.366 37.8232ZM174.501 44.5226C175.418 42.6617 175.766 37.1895 175.344 33.0853C174.743 27.4019 173.067 24.5049 171.634 24.4647C171.381 24.4647 171.128 24.4546 170.959 25.3096C170.791 25.9132 170.791 26.9392 170.791 27.8646C170.696 32.4717 170.696 37.0285 170.791 41.5451C170.791 42.8729 170.78 44.5226 171.044 45.3676C171.128 45.448 171.117 45.609 171.212 45.6995C171.37 45.9611 171.55 45.9711 171.718 45.9812C172.635 45.9711 173.658 46.2025 174.501 44.5226ZM225.087 36.7167C225.087 41.0019 224.834 45.0759 224.412 49.3208C224.243 51.6847 223.99 54.1492 223.39 56.3622C222.81 58.6859 221.798 60.8385 220.196 62.2569C217.582 64.651 214.546 64.0776 211.257 63.7456C207.968 63.4237 204.932 63.2125 201.728 61.4622C199.62 60.3959 197.67 58.6557 196.668 56.4226C196.247 55.3965 195.899 54.3102 195.741 53.3143C195.066 50.1658 194.645 47.0474 194.476 43.9392C194.307 41.1025 194.56 38.2859 194.392 35.4291C194.054 29.0818 194.56 22.6641 194.56 16.186C194.645 14.7475 194.971 12.2227 196.5 11.5286C196.921 11.257 197.417 11.2671 197.933 11.2771C200.547 11.1262 205.27 10.1807 207.209 12.6955C208.221 13.9025 208.211 15.7434 208.126 17.3025C208.042 22.1712 207.8 27.0297 207.62 31.8883C207.631 34.0812 207.536 36.3646 207.547 38.5676C207.536 40.851 207.294 43.2954 207.8 45.619C207.968 46.6451 208.474 47.7818 209.317 48.2244C211.426 49.1397 211.763 46.3131 211.752 44.8344C212.185 35.7108 211.594 26.5368 211.341 17.383C211.257 15.8037 211.257 13.9629 212.269 12.7759C214.198 10.2913 219.015 11.3878 221.545 11.6091C222.051 11.6191 222.557 11.6292 223.063 11.9108C224.496 12.6854 224.918 15.3209 224.918 16.8298C224.907 23.4386 225.002 30.0475 225.087 36.7167ZM229.398 39.151C229.398 38.2859 229.398 37.5214 229.398 36.6563C229.398 35.1274 229.556 33.5984 229.651 32.0694C229.904 28.2469 229.735 24.2434 229.482 20.5215C229.314 18.6203 229.219 16.7191 229.398 14.9286C229.472 14.2647 229.567 13.6108 229.904 13.0475C230.399 12.2931 231.253 12.0215 232.096 11.8404C234.963 11.1966 237.578 11.428 240.445 11.4481C241.119 11.4582 241.963 11.4682 242.553 12.0416C243.227 12.615 243.396 13.7718 243.48 14.7375C243.733 17.6244 243.902 20.4209 243.902 23.2274C243.902 27.412 244.071 31.6268 244.155 35.7611C244.229 39.0303 243.818 45.2066 243.976 48.4054C243.986 49.4013 244.071 50.4072 244.313 51.3226C244.566 52.2279 244.998 53.0729 245.757 53.7267C246.168 54.0486 246.685 54.3001 247.191 54.4309C249.13 55.0545 251.239 54.793 253.262 54.9137C254.601 54.9942 256.035 55.0746 257.141 56.1812C258.311 57.3883 258.575 59.6013 258.564 61.6131C258.659 63.7356 258.564 61.9149 258.406 64.1078C258.227 66.2001 258.153 67.3468 256.298 67.6687C255.455 67.89 254.612 67.89 253.684 67.89C252.409 67.9504 251.07 67.6888 249.794 67.5379C246.168 67.0048 242.553 66.4717 238.927 65.9285C235.554 65.516 231.327 66.3912 229.988 61.7841C229.482 60.1746 229.567 58.4545 229.567 56.8149C229.809 50.9403 229.472 45.0356 229.398 39.151ZM261.579 25.4002C261.59 23.2374 261.59 21.1854 261.579 19.0327C261.59 17.1919 261.674 15.2605 262.686 13.9025C263.529 12.9369 264.784 12.5345 265.975 12.2327C272.89 10.6836 280.3 10.3818 287.225 10.6836C287.815 10.7339 288.49 10.7842 288.985 11.096C289.755 11.6392 289.924 12.7558 289.924 13.7215C289.997 15.6227 290.082 15.6126 289.839 17.5741C289.418 20.1392 288.153 21.1653 285.792 21.7286C283.515 22.2315 281.238 22.4931 278.961 22.4327C278.118 22.5132 277.18 22.4931 276.589 23.1167C275.577 24.0723 275.588 31.2646 275.757 32.6427C275.841 33.4274 276.178 33.3972 276.853 33.3469C278.539 33.1759 280.131 33.1155 281.828 33.0954C282.081 33.0652 282.418 33.1055 282.671 33.2765C283.346 33.5682 283.43 34.554 283.43 35.4492C283.42 38.0143 283.262 38.638 283.262 41.3238C283.262 42.5208 283.167 43.1847 282.577 44.3818C281.744 45.9409 280.31 45.5486 279.045 45.7901C278.286 45.8504 277.528 46.0214 276.853 46.5143C275.588 47.3593 275.24 54.8332 276.263 56.1309C276.937 56.9859 277.865 57.2877 278.708 57.348C281.491 57.6196 284.274 58.203 287.13 57.8107C287.9 57.69 288.827 57.7604 289.249 58.6658C289.491 59.1285 289.491 59.7521 289.586 60.3658C289.829 64.832 290.008 61.4924 289.671 66.1095C289.576 67.1255 289.418 68.1515 288.901 68.916C288.49 69.5397 287.9 69.9119 287.309 70.1533C281.154 72.0344 274.06 70.3243 267.83 69.4089C266.818 69.3083 265.88 69.1072 265.037 68.4835C264.035 67.7391 263.361 66.4918 262.939 65.164C261.927 62.1965 261.916 59.7823 262.001 56.5936C262.096 49.8137 261.674 44.2208 261.674 37.5415C261.579 33.7895 261.59 29.0717 261.579 25.4002Z" fill="url(#paint1_linear_378_2391)"/>
<path d="M25.0945 43.0841C23.5029 41.8972 21.6477 41.183 19.8663 40.3481C16.9148 38.9599 14.3112 36.4149 12.5298 33.2664C8.23967 25.6818 11.1911 17.1014 17.2521 13.4801C18.77 12.5546 20.4566 11.9611 22.238 11.6594C26.0221 10.8043 30.0804 10.8647 33.7908 12.1925C38.9242 14.1037 43.0562 19.7268 43.404 25.7723C43.4778 26.4362 43.404 27.2007 42.9824 27.583C42.8032 27.8646 42.4764 27.9652 42.1391 28.0658C40.2734 28.6392 38.5131 29.122 36.6473 29.6753C35.6354 29.8664 33.2848 30.6209 32.3572 29.9268C32.0937 29.7357 31.9356 29.3433 31.7564 29.0516C30.4177 26.3357 27.2976 23.4889 25.2737 26.8286C24.7572 27.6635 24.5886 28.8102 24.9364 29.6854C25.5162 31.0735 26.9497 31.6167 28.2252 31.9386C31.8512 33.0149 35.6354 34.1315 38.4287 37.0487C39.2615 37.9238 40.1153 39.0806 40.7899 40.1469C41.2853 41.022 42.4659 44.7137 42.5608 45.7901C42.9824 49.7131 42.6346 53.0829 41.2115 56.835C40.1047 59.8024 38.4287 62.5184 36.1414 64.4095C34.634 65.6367 32.9475 66.4817 31.261 67.0249C27.4662 68.3527 23.408 68.5539 19.6238 67.2764C14.5537 65.3652 10.4216 58.4545 10 51.0711C10 50.2764 10.0105 49.3711 10.4216 48.9687C10.6746 48.6569 11.0119 48.5966 11.2649 48.5161C13.1201 48.0634 14.9858 47.6912 16.7462 47.2084C17.7581 46.967 20.2036 46.3835 21.1417 47.1581C21.3841 47.3794 21.5528 47.8119 21.732 48.1137C22.5753 50.0451 24.5886 53.0025 26.5281 51.9764C27.7192 51.2421 28.7206 49.4818 28.4782 47.8421C28.3833 46.6149 27.793 45.5889 27.0446 44.8646C26.4543 44.1404 25.8535 43.6173 25.0945 43.0841ZM59.8689 13.1883C64.9285 10.2712 71.506 10.1304 75.9754 14.2949C78.6633 16.8096 80.3604 20.3203 81.1193 23.9416C81.2036 24.4848 81.2774 25.0179 81.1193 25.5712C80.8663 26.5771 79.5909 26.9794 78.8319 27.2712C77.0611 28.1463 75.3745 29.0215 73.6142 29.9067C72.6023 30.3996 70.5679 32.3108 69.6508 31.325C69.2292 30.8723 69.0605 30.3291 68.8076 29.8765C67.7851 27.9552 65.0866 26.8286 63.4844 28.6291C62.989 29.283 62.7255 30.2386 62.5674 31.0836C61.3868 35.9019 61.3868 42.5812 62.8941 47.2084C63.3263 48.4054 64.0852 49.4818 65.0866 49.8841C67.0262 50.6889 69.05 47.9427 69.8933 46.2226C70.0725 45.9309 70.2411 45.5486 70.4836 45.3474C71.4217 44.6534 73.8672 45.1463 74.7948 45.3676C76.65 45.8001 78.5052 46.1421 80.2655 46.5747C80.6133 46.6451 80.9507 46.7054 81.2036 46.9569C81.6253 47.2889 81.6253 48.0131 81.6147 48.6569C81.2036 54.461 77.0611 60.2953 72.012 62.6089C68.2173 64.1882 64.1696 64.6811 60.3749 64.1178C58.6883 63.8965 56.9175 63.3936 55.4839 62.4782C53.2071 61.0397 51.51 58.6658 50.4137 55.9397C47.9682 50.0551 47.3042 42.9936 47.8839 36.4149C48.1474 34.393 48.3161 32.4818 48.7377 30.47C49.581 26.567 51.0989 22.7848 53.2914 19.5759C55.0623 17.0309 57.2548 14.6972 59.8689 13.1883ZM85.9365 39.2013C85.7678 35.1676 85.9365 31.1138 86.1051 27.0499C86.1789 23.0866 85.5992 19.3144 86.0208 15.341C86.1789 14.0736 86.4425 12.5345 87.5387 11.8002C88.2133 11.3475 89.0566 11.2469 89.8155 11.1463C93.0938 10.754 97.7423 9.53688 99.8504 13.0073C100.947 14.8582 100.694 17.2522 100.515 19.4753C100.272 22.312 100.262 25.1386 100.356 27.9552C100.356 28.6493 100.441 29.3534 100.862 29.8664C101.273 30.2084 101.706 30.4398 102.285 30.5203C102.802 30.4096 103.297 30.138 103.645 29.7759C104.151 29.2327 104.141 28.5286 104.235 27.8345C104.32 25.028 104.225 22.2215 103.972 19.415C103.814 17.202 103.635 14.8179 104.731 12.9469C106.85 9.46646 111.656 10.583 114.945 10.5629C115.704 10.5529 116.463 10.5529 117.053 11.0759C117.728 11.6795 117.896 12.6452 117.981 13.6108C118.234 16.2262 118.392 18.741 118.402 21.4268C118.308 26.8587 118.908 32.2203 118.655 37.6421C118.402 43.1847 118.476 48.7374 118.476 54.29C118.476 55.6078 118.402 57.0965 117.464 58.0924C115.788 59.8226 112.658 59.2995 110.644 59.5811C109.126 59.8125 108.03 60.0036 106.512 59.903C106.164 59.9332 105.753 59.893 105.49 59.7421C104.826 59.2995 104.741 58.4445 104.647 57.5995C104.573 54.9539 104.573 52.2983 104.573 49.6427C104.573 48.2545 105.49 43.567 103.814 43.064C103.55 42.9936 103.392 43.0037 103.139 43.0137C102.633 43.0439 102.212 43.064 101.706 43.0942C101.2 43.1244 100.609 43.2551 100.188 43.6273C99.7661 44.08 99.7556 44.7841 99.7661 45.3877C99.6818 48.9486 99.6818 52.5196 99.6818 55.99C99.7556 57.0161 99.7661 58.0622 99.3445 59.048C98.7437 60.8385 96.9728 61.1906 95.3811 61.2711C93.5259 61.2811 91.6602 61.6433 89.805 61.7439C88.7193 61.8545 87.4544 61.8947 86.6954 61.08C85.9365 60.1646 86.1789 58.8066 86.3581 57.5391C86.7798 54.5516 86.3476 51.7249 86.4425 48.7676C86.5268 45.6291 86.0208 42.3398 85.9365 39.2013ZM122.988 22.9055C122.988 21.0144 122.998 19.2037 122.998 17.3025C122.998 15.6528 123.072 13.9126 124.084 12.6854C124.938 11.8102 126.203 11.4481 127.383 11.1866C134.298 9.83865 141.719 9.74812 148.623 10.3718C149.224 10.4623 149.899 10.5529 150.405 10.9049C151.153 11.4984 151.332 12.6452 151.332 13.5907C151.416 15.4919 151.49 17.4735 151.248 19.3647C150.826 21.7487 149.561 22.5031 147.2 22.6641C144.923 22.825 142.646 22.825 140.37 22.5735C139.526 22.5836 138.599 22.4931 137.998 23.0061C136.997 23.7806 136.997 25.6416 137.155 26.8185C137.249 27.4824 137.587 27.4723 138.261 27.4723C139.937 27.4623 141.55 27.5528 143.237 27.7138C143.49 27.7138 143.816 27.7842 144.08 27.9652C144.755 28.2972 144.839 29.1321 144.828 29.8765C144.828 31.9587 144.67 34.0208 144.67 36.0629C144.67 36.9581 144.586 38.1753 143.996 38.98C143.152 40.0362 141.719 39.6439 140.454 39.7344C139.695 39.7445 138.936 39.835 138.261 40.167C136.986 40.7605 136.649 42.5409 137.671 43.4764C138.346 44.0901 139.273 44.3214 140.117 44.3717C142.899 44.6433 145.672 43.8587 148.549 43.8688C149.308 43.8688 150.236 44.0297 150.647 44.6735C150.91 44.9954 150.91 45.3977 150.995 45.7901C151.237 48.5865 151.416 51.4332 151.079 54.1492C150.984 54.7427 150.826 55.3362 150.32 55.7587C149.888 56.1208 149.298 56.332 148.707 56.4729C142.562 57.9013 135.479 57.5693 129.238 57.8409C128.227 57.9214 127.288 57.9314 126.456 57.5995C125.433 57.2072 124.769 56.3723 124.347 55.4468C123.336 53.3344 123.336 50.7291 123.42 48.2747C123.504 43.0137 123.072 37.8031 123.072 32.351C122.998 29.2226 122.998 26.0741 122.988 22.9055ZM191.366 37.8232C191.524 43.4563 191.103 49.19 188.499 53.7066C183.429 62.2569 172.635 59.3196 163.791 57.9214C161.43 57.5391 157.035 57.3078 156.455 54.9942C156.371 54.9137 156.371 54.8332 156.371 54.7628C155.274 50.3368 155.601 45.9912 155.77 41.3741C155.865 36.5155 155.938 31.5664 156.191 26.6274C156.286 23.499 155.021 12.5747 158.721 10.9351C159.659 10.5026 160.745 10.4221 161.768 10.4321C171.202 10.0499 181.163 10.241 187.066 19.5156C190.439 24.9475 191.198 31.5362 191.366 37.8232ZM174.501 44.5226C175.418 42.6617 175.766 37.1895 175.344 33.0853C174.743 27.4019 173.067 24.5049 171.634 24.4647C171.381 24.4647 171.128 24.4546 170.959 25.3096C170.791 25.9132 170.791 26.9392 170.791 27.8646C170.696 32.4717 170.696 37.0285 170.791 41.5451C170.791 42.8729 170.78 44.5226 171.044 45.3676C171.128 45.448 171.117 45.609 171.212 45.6995C171.37 45.9611 171.55 45.9711 171.718 45.9812C172.635 45.9711 173.658 46.2025 174.501 44.5226ZM225.087 36.7167C225.087 41.0019 224.834 45.0759 224.412 49.3208C224.243 51.6847 223.99 54.1492 223.39 56.3622C222.81 58.6859 221.798 60.8385 220.196 62.2569C217.582 64.651 214.546 64.0776 211.257 63.7456C207.968 63.4237 204.932 63.2125 201.728 61.4622C199.62 60.3959 197.67 58.6557 196.668 56.4226C196.247 55.3965 195.899 54.3102 195.741 53.3143C195.066 50.1658 194.645 47.0474 194.476 43.9392C194.307 41.1025 194.56 38.2859 194.392 35.4291C194.054 29.0818 194.56 22.6641 194.56 16.186C194.645 14.7475 194.971 12.2227 196.5 11.5286C196.921 11.257 197.417 11.2671 197.933 11.2771C200.547 11.1262 205.27 10.1807 207.209 12.6955C208.221 13.9025 208.211 15.7434 208.126 17.3025C208.042 22.1712 207.8 27.0297 207.62 31.8883C207.631 34.0812 207.536 36.3646 207.547 38.5676C207.536 40.851 207.294 43.2954 207.8 45.619C207.968 46.6451 208.474 47.7818 209.317 48.2244C211.426 49.1397 211.763 46.3131 211.752 44.8344C212.185 35.7108 211.594 26.5368 211.341 17.383C211.257 15.8037 211.257 13.9629 212.269 12.7759C214.198 10.2913 219.015 11.3878 221.545 11.6091C222.051 11.6191 222.557 11.6292 223.063 11.9108C224.496 12.6854 224.918 15.3209 224.918 16.8298C224.907 23.4386 225.002 30.0475 225.087 36.7167ZM229.398 39.151C229.398 38.2859 229.398 37.5214 229.398 36.6563C229.398 35.1274 229.556 33.5984 229.651 32.0694C229.904 28.2469 229.735 24.2434 229.482 20.5215C229.314 18.6203 229.219 16.7191 229.398 14.9286C229.472 14.2647 229.567 13.6108 229.904 13.0475C230.399 12.2931 231.253 12.0215 232.096 11.8404C234.963 11.1966 237.578 11.428 240.445 11.4481C241.119 11.4582 241.963 11.4682 242.553 12.0416C243.227 12.615 243.396 13.7718 243.48 14.7375C243.733 17.6244 243.902 20.4209 243.902 23.2274C243.902 27.412 244.071 31.6268 244.155 35.7611C244.229 39.0303 243.818 45.2066 243.976 48.4054C243.986 49.4013 244.071 50.4072 244.313 51.3226C244.566 52.2279 244.998 53.0729 245.757 53.7267C246.168 54.0486 246.685 54.3001 247.191 54.4309C249.13 55.0545 251.239 54.793 253.262 54.9137C254.601 54.9942 256.035 55.0746 257.141 56.1812C258.311 57.3883 258.575 59.6013 258.564 61.6131C258.659 63.7356 258.564 61.9149 258.406 64.1078C258.227 66.2001 258.153 67.3468 256.298 67.6687C255.455 67.89 254.612 67.89 253.684 67.89C252.409 67.9504 251.07 67.6888 249.794 67.5379C246.168 67.0048 242.553 66.4717 238.927 65.9285C235.554 65.516 231.327 66.3912 229.988 61.7841C229.482 60.1746 229.567 58.4545 229.567 56.8149C229.809 50.9403 229.472 45.0356 229.398 39.151ZM261.579 25.4002C261.59 23.2374 261.59 21.1854 261.579 19.0327C261.59 17.1919 261.674 15.2605 262.686 13.9025C263.529 12.9369 264.784 12.5345 265.975 12.2327C272.89 10.6836 280.3 10.3818 287.225 10.6836C287.815 10.7339 288.49 10.7842 288.985 11.096C289.755 11.6392 289.924 12.7558 289.924 13.7215C289.997 15.6227 290.082 15.6126 289.839 17.5741C289.418 20.1392 288.153 21.1653 285.792 21.7286C283.515 22.2315 281.238 22.4931 278.961 22.4327C278.118 22.5132 277.18 22.4931 276.589 23.1167C275.577 24.0723 275.588 31.2646 275.757 32.6427C275.841 33.4274 276.178 33.3972 276.853 33.3469C278.539 33.1759 280.131 33.1155 281.828 33.0954C282.081 33.0652 282.418 33.1055 282.671 33.2765C283.346 33.5682 283.43 34.554 283.43 35.4492C283.42 38.0143 283.262 38.638 283.262 41.3238C283.262 42.5208 283.167 43.1847 282.577 44.3818C281.744 45.9409 280.31 45.5486 279.045 45.7901C278.286 45.8504 277.528 46.0214 276.853 46.5143C275.588 47.3593 275.24 54.8332 276.263 56.1309C276.937 56.9859 277.865 57.2877 278.708 57.348C281.491 57.6196 284.274 58.203 287.13 57.8107C287.9 57.69 288.827 57.7604 289.249 58.6658C289.491 59.1285 289.491 59.7521 289.586 60.3658C289.829 64.832 290.008 61.4924 289.671 66.1095C289.576 67.1255 289.418 68.1515 288.901 68.916C288.49 69.5397 287.9 69.9119 287.309 70.1533C281.154 72.0344 274.06 70.3243 267.83 69.4089C266.818 69.3083 265.88 69.1072 265.037 68.4835C264.035 67.7391 263.361 66.4918 262.939 65.164C261.927 62.1965 261.916 59.7823 262.001 56.5936C262.096 49.8137 261.674 44.2208 261.674 37.5415C261.579 33.7895 261.59 29.0717 261.579 25.4002Z" stroke="#0B0A22" stroke-width="12" mask="url(#path-3-outside-2_378_2391)"/>
<defs>
<linearGradient id="paint0_linear_378_2391" x1="150" y1="10" x2="150" y2="71" gradientUnits="userSpaceOnUse">
<stop stop-color="#8A6AA6"/>
<stop offset="1" stop-color="#884CBB"/>
</linearGradient>
<linearGradient id="paint1_linear_378_2391" x1="150" y1="10" x2="150" y2="71" gradientUnits="userSpaceOnUse">
<stop stop-color="#BD5A5A"/>
<stop offset="1" stop-color="#BE3456"/>
</linearGradient>
</defs>
</svg>
