<svg width="1920" height="642" viewBox="0 0 1920 642" fill="none" xmlns="http://www.w3.org/2000/svg">
<path fill-rule="evenodd" clip-rule="evenodd" d="M448.597 402.5V402.351C606.049 403.584 538.395 382.794 538.395 382.794C538.395 382.794 463.661 369.934 463.235 353.27C462.81 336.606 691.961 320.424 691.961 320.424C627.98 291.329 646.131 284.684 646.131 284.684C720.865 235.228 764.193 270.164 764.193 270.164C768.345 264.752 780.694 258.59 780.694 258.59C720.598 239.032 764.3 193.219 764.3 193.219C710.325 158.391 800.708 127.849 800.708 127.849C829.825 60.6564 897.798 78.9816 897.798 78.9816C919.037 43.5636 955.445 46.6178 955.445 46.6178C940.861 27.0602 968.167 28.2926 968.167 28.2926C963.909 24.006 966.357 14.8435 966.357 14.8435C1013.68 -10.2331 1039.76 10.5569 1039.76 10.5569C1094.96 -20.5745 1113.16 27.0602 1113.16 27.0602C1125.3 26.4708 1127.11 41.7418 1127.11 41.7418C1139.83 49.0826 1136.8 75.9274 1136.8 75.9274C1165.91 48.4396 1177.46 66.1754 1177.46 66.1754C1173.79 28.2926 1234.47 40.5094 1234.47 40.5094C1261.19 71.0514 1286.05 57.6022 1286.05 57.6022L1310.32 81.3928C1355.2 150.996 1284.24 187.647 1284.24 187.647C1280.62 192.523 1297.6 203.507 1297.6 203.507C1354.61 238.925 1242.99 287.149 1242.99 287.149C1248.47 291.436 1289.72 289.614 1289.72 289.614C1353.44 274.343 1347.96 311.583 1347.96 311.583C1400.76 274.932 1423.54 297.008 1423.54 297.008C1436.16 273.379 1470.6 269.092 1470.6 269.092V269.216C1483.14 267.757 1497.64 270.432 1509 287C1528.83 276.476 1562.76 310.842 1567 339.434C1575.2 339.072 1584.43 339.097 1594.17 339.58C1627.69 341.246 1640.84 345.189 1640.52 351.503C1640.35 355.062 1633.71 357.819 1623.2 359.698C1662.56 365.241 1708.01 377.296 1721 393C1808 393 1887.5 377.5 1919.5 287.5V430H0.500328V331.665C-15.0979 333.379 -27.8864 329.684 -29.2421 322.569C-30.765 314.575 -17.2819 305.291 0.873379 301.832C15.6995 301.832 27.9119 305.805 29.4349 313.799C30.3187 318.438 28.5295 322.247 23.3237 325.302C172.137 329.366 176.592 373.07 96.5003 374.5C12.5003 376 326.5 402.5 448.5 402.5H448.597ZM617.6 232.764C619.907 232.474 622.157 231.911 624.418 231.346C625.913 230.973 627.413 230.598 628.938 230.299C634.207 229.281 639.584 229.228 644.906 229.228C648.473 229.228 652.465 229.495 654.754 232.228C655.712 233.353 656.191 234.961 655.712 236.354C654.914 238.604 652.146 239.247 649.857 239.569C639.797 241.016 629.417 242.409 619.676 239.569L619.458 239.506C616.112 238.537 606.83 235.85 606.049 232.496C607.387 232.515 608.712 232.603 610.036 232.691C612.556 232.859 615.07 233.027 617.653 232.71L617.6 232.764ZM448.597 257.031V256.928H535.361C719.321 278.2 535.361 279.54 535.361 279.54L490.707 276.975C487.438 277.067 484.062 277.128 480.602 277.158C440.505 275.166 408.218 269.175 408.486 263.776C408.675 259.973 424.967 257.478 448.597 257.031ZM1962.18 277.594C1962.44 272.194 1946.67 268.598 1906.57 266.606C1866.48 264.614 1833.75 267.377 1833.49 272.776C1833.22 278.175 1865.51 284.166 1905.6 286.158C1937.29 285.886 1961.91 282.993 1962.18 277.594ZM135.865 268.311C135.865 268.311 101.924 261.885 71.8234 260.39C70.9914 260.349 70.108 260.301 69.1849 260.251L69.1747 260.251C57.5188 259.622 39.559 258.653 39.2069 265.741C38.8269 273.392 74.3171 275.901 104.417 277.396C128.267 275.965 135.865 268.311 135.865 268.311ZM1761.35 354.951C1739.79 353.109 1714.91 355.733 1714.91 355.733C1714.91 355.733 1719.38 364.167 1736.15 368.222C1757.71 370.064 1783.23 371.497 1783.88 363.864C1784.48 356.793 1771.61 355.77 1763.25 355.106C1762.59 355.053 1761.95 355.002 1761.35 354.951Z" fill="#DBFFFA"/>
<rect y="413" width="2110" height="86" fill="#A0F4FF"/>
<path d="M538.395 382.794C538.395 382.794 606.049 403.584 448.597 402.351C326.597 402.351 12.5004 376 96.5004 374.5C176.507 373.071 171.692 329.459 23.3015 325.315C28.5244 322.257 30.32 318.445 29.4349 313.799C27.9119 305.805 15.6995 301.832 0.873379 301.832C-17.2819 305.291 -30.765 314.575 -29.2421 322.569C-27.9009 329.608 -15.3704 333.299 0.000358582 331.718V430H1919.5L1920 331C1853 389 1808 393 1721 393C1708.01 377.296 1662.56 365.241 1623.2 359.698C1633.71 357.819 1640.35 355.062 1640.52 351.503C1640.84 345.189 1627.69 341.246 1594.17 339.58C1584.43 339.097 1575.2 339.072 1567 339.434C1562.76 310.842 1528.83 276.476 1509 287C1497.64 270.432 1483.14 267.633 1470.6 269.092C1470.6 269.092 1436.16 273.379 1423.54 297.008C1423.54 297.008 1400.76 274.932 1347.96 311.583C1347.96 311.583 1353.44 274.343 1289.72 289.614C1289.72 289.614 1248.47 291.436 1242.99 287.149C1242.99 287.149 1354.61 238.925 1297.6 203.507C1297.6 203.507 1280.62 192.523 1284.24 187.647C1284.24 187.647 1355.2 150.996 1310.32 81.3928L1286.05 57.6022C1286.05 57.6022 1261.19 71.0514 1234.47 40.5094C1234.47 40.5094 1173.79 28.2926 1177.46 66.1754C1177.46 66.1754 1165.91 48.4396 1136.8 75.9274C1136.8 75.9274 1139.83 49.0826 1127.11 41.7418C1127.11 41.7418 1125.3 26.4708 1113.16 27.0602C1113.16 27.0602 1094.96 -20.5745 1039.76 10.5569C1039.76 10.5569 1013.68 -10.2331 966.358 14.8434C966.358 14.8434 963.909 24.006 968.167 28.2926C968.167 28.2926 940.861 27.0602 955.446 46.6178C955.446 46.6178 919.037 43.5636 897.798 78.9816C897.798 78.9816 829.825 60.6564 800.708 127.849C800.708 127.849 710.325 158.391 764.3 193.219C764.3 193.219 720.598 239.032 780.694 258.59C780.694 258.59 768.345 264.752 764.193 270.164C764.193 270.164 720.865 235.228 646.131 284.684C646.131 284.684 627.98 291.329 691.961 320.424C691.961 320.424 462.81 336.606 463.235 353.27C463.661 369.934 538.395 382.794 538.395 382.794Z" fill="#DBFFFA"/>
<path d="M624.417 231.346C622.156 231.912 619.907 232.474 617.6 232.764L617.653 232.71C615.07 233.027 612.556 232.859 610.036 232.691C608.713 232.603 607.387 232.515 606.049 232.496C606.83 235.85 616.112 238.537 619.458 239.506L619.676 239.569C629.417 242.409 639.797 241.016 649.857 239.569C652.146 239.247 654.914 238.604 655.712 236.354C656.191 234.961 655.712 233.353 654.754 232.228C652.465 229.495 648.473 229.228 644.906 229.228C639.584 229.228 634.208 229.281 628.938 230.299C627.413 230.598 625.913 230.973 624.418 231.346L624.417 231.346Z" fill="#DBFFFA"/>
<path d="M490.707 276.975C487.438 277.067 484.062 277.128 480.602 277.158C440.505 275.166 408.218 269.175 408.486 263.776C408.675 259.973 424.967 257.478 448.597 257.031V256.928H535.361C719.321 278.2 535.361 279.54 535.361 279.54L490.707 276.975Z" fill="#DBFFFA"/>
<path d="M1962.18 277.594C1962.44 272.194 1946.67 268.598 1906.57 266.606C1866.48 264.614 1833.75 267.377 1833.49 272.776C1833.22 278.175 1865.51 284.166 1905.6 286.158C1937.29 285.886 1961.91 282.993 1962.18 277.594Z" fill="#DBFFFA"/>
<path d="M71.8234 260.39C101.924 261.885 135.865 268.311 135.865 268.311C135.865 268.311 128.267 275.965 104.417 277.396C74.3171 275.901 38.8269 273.392 39.2069 265.741C39.559 258.653 57.5188 259.622 69.1747 260.251L69.1849 260.251C70.108 260.301 70.9914 260.349 71.8234 260.39Z" fill="#DBFFFA"/>
<path d="M1761.35 354.951C1739.79 353.109 1714.91 355.733 1714.91 355.733C1714.91 355.733 1719.38 364.167 1736.15 368.222C1757.71 370.064 1783.23 371.497 1783.88 363.864C1784.48 356.793 1771.61 355.77 1763.25 355.106C1762.59 355.053 1761.95 355.002 1761.35 354.951Z" fill="#DBFFFA"/>
<path fill-rule="evenodd" clip-rule="evenodd" d="M550.748 394.761C559.424 389.256 538.395 382.794 538.395 382.794C538.395 382.794 497.969 375.838 476.412 365.528C477.349 365.189 478.294 364.88 479.246 364.617C480.663 364.253 482.105 364.117 483.548 363.982L483.549 363.982L483.558 363.98L483.56 363.98L483.561 363.98L483.562 363.98L483.569 363.978L483.57 363.978C485.101 363.834 486.632 363.69 488.135 363.277C489.968 362.752 491.781 362.179 493.591 361.607C497.507 360.368 501.41 359.134 505.487 358.401C511.449 357.329 517.517 357.061 523.585 357.008C523.877 357.003 524.169 356.997 524.462 356.991L525.112 356.978H525.146C527.727 356.926 530.332 356.874 532.901 357.008C534.398 357.068 535.895 357.281 537.392 357.494C538.556 357.659 539.72 357.825 540.885 357.919C544.837 358.212 548.562 359.487 552.259 360.753C558.023 362.726 563.72 364.676 570.108 362.848L570.676 362.683C574.858 361.463 578.558 360.384 582.989 360.384H626.69C628.206 360.384 629.687 360.592 631.173 360.801L631.174 360.802C632.297 360.96 633.423 361.118 634.568 361.187C639.519 361.455 644.309 362.366 649.366 363.598C651.582 364.139 653.697 364.864 655.812 365.59C658.522 366.52 661.234 367.45 664.164 367.992C665.428 368.226 666.69 368.46 667.95 368.694C669.257 368.936 670.563 369.179 671.868 369.422L671.962 369.439C674.557 369.921 677.152 370.403 679.76 370.886C681.815 371.299 683.792 371.344 685.819 371.389C686.679 371.408 687.548 371.427 688.436 371.475C689.496 371.523 690.494 371.727 691.489 371.932C692.742 372.189 693.991 372.446 695.356 372.386C699.905 372.145 704.238 373.205 708.628 374.278L709.083 374.389C709.422 374.472 709.761 374.555 710.1 374.636C715.53 375.922 721.491 376.405 727.08 376.565C731.542 376.712 736.02 376.671 740.498 376.629C747.506 376.565 754.516 376.501 761.466 377.155C769.543 377.915 777.78 377.759 785.969 377.603H785.982L785.99 377.603C788.596 377.554 791.197 377.504 793.786 377.485C794.551 377.241 795.327 377.021 796.119 376.834C799.266 376.079 800.725 380.563 798.121 381.782C797.698 382.344 797.03 382.727 796.119 382.727C795.711 382.727 795.303 382.728 794.894 382.728C792.416 383.547 790.047 384.643 787.676 385.74L787.66 385.746L787.659 385.747C785.709 386.649 783.758 387.551 781.747 388.3C780.998 388.583 780.24 388.843 779.482 389.102C777.655 389.728 775.828 390.354 774.135 391.301C773.241 391.815 772.398 392.398 771.555 392.981C770.29 393.856 769.025 394.73 767.588 395.373C763.98 396.978 760.108 397.817 756.257 398.651C755.222 398.876 754.189 399.1 753.163 399.338C751.202 399.794 749.294 400.384 747.383 400.975L747.381 400.975L747.362 400.982C746.583 401.223 745.803 401.464 745.019 401.696C743.927 402.017 742.796 402.218 741.665 402.419C740.534 402.62 739.403 402.821 738.312 403.142C733.361 404.589 729.05 405.5 723.727 405.447C721.283 405.422 718.816 405.341 716.368 405.26L716.366 405.26L716.363 405.26H716.355C713.477 405.165 710.624 405.071 707.865 405.071C706.42 405.071 704.936 405.02 703.441 404.968L703.438 404.968H703.431C699.642 404.836 695.778 404.702 692.269 405.393C688.828 406.071 685.334 406.061 681.825 406.05C680.34 406.046 678.852 406.042 677.364 406.09C675.757 406.15 674.182 406.344 672.584 406.541H672.583L672.575 406.542L672.571 406.542L672.562 406.543C671.977 406.615 671.39 406.688 670.796 406.754C673.029 407.062 675.254 407.458 677.471 407.964C678.821 408.297 680.116 408.817 681.411 409.338C682.617 409.822 683.825 410.308 685.083 410.643C685.852 410.852 686.625 411.056 687.399 411.261L687.409 411.263L687.411 411.264C689.422 411.795 691.444 412.33 693.44 412.948C693.832 413.073 694.226 413.202 694.621 413.331C696.586 413.973 698.587 414.627 700.626 414.984C703.15 415.441 705.339 415.079 707.783 414.675L708.184 414.609C713.415 413.736 718.286 411.885 723.236 410.005L723.239 410.004L723.241 410.003C726.802 408.65 730.405 407.281 734.213 406.25C742.789 403.927 751.413 403.936 760.218 403.945L761.839 403.946C766.204 403.946 770.835 403.946 775.093 405.232C775.941 405.493 776.874 405.89 777.851 406.305C780.676 407.505 783.874 408.863 786.484 407.589C788.725 406.48 790.129 403.941 791.467 401.524C792.067 400.438 792.654 399.377 793.297 398.48C795.373 395.587 797.928 392.693 801.016 390.925C804.103 389.157 807.669 388.675 811.076 389.854C814.495 391.017 816.563 393.934 818.581 396.78L818.738 397.001L818.909 397.241C819.012 397.387 819.116 397.532 819.22 397.677C821.935 401.427 824.543 404.857 828.695 407.375C832.847 409.893 837.265 409.893 841.949 409.893C846.633 409.893 850.412 409.679 854.458 407.053C855.304 406.529 856.142 405.978 856.981 405.426C858.201 404.623 859.425 403.818 860.686 403.088C861.196 402.802 861.71 402.536 862.222 402.271C863.528 401.596 864.823 400.928 866.009 399.927C867.131 398.98 867.982 397.834 868.83 396.693L868.831 396.691C869.23 396.154 869.629 395.618 870.054 395.105C870.504 394.553 870.99 394.066 871.473 393.584L871.476 393.581C872.305 392.752 873.122 391.935 873.727 390.818C874.536 389.328 875.375 387.851 876.213 386.377L876.215 386.374L876.216 386.372L876.217 386.37C877.516 384.085 878.813 381.802 879.998 379.471C880.264 378.412 881.084 377.477 882.456 377.369C884.686 377.174 886.542 377.927 888.431 378.692C889.357 379.067 890.292 379.446 891.282 379.717C896.956 378.57 903.231 378.679 909.145 378.782H909.147C912.208 378.836 915.172 378.887 917.907 378.762C938.24 377.851 953.198 374.261 971.296 364.027C972.977 363.082 974.674 362.157 976.385 361.261C976.464 361.167 976.542 361.071 976.619 360.973C980.505 356.044 982.261 349.078 980.079 343.077C977.366 335.567 970.244 335.646 963.528 335.721L963.516 335.721L963.139 335.725C962.971 335.727 962.803 335.729 962.636 335.73C962.444 335.732 962.253 335.734 962.063 335.735C961.893 335.735 961.724 335.736 961.555 335.736C957.616 335.736 953.996 336.432 950.217 337.451C948.761 337.835 947.336 338.349 945.915 338.862C944.168 339.492 942.426 340.121 940.636 340.505C938.72 340.918 936.694 340.933 934.671 340.948C933.547 340.956 932.423 340.964 931.321 341.041C928.659 341.255 925.838 341.416 923.39 340.076C920.902 338.679 919.091 336.579 917.286 334.486C915.075 331.921 912.872 329.366 909.443 328.127C908.527 327.794 907.605 327.423 906.679 327.049L906.675 327.048L906.674 327.047C904.321 326.099 901.933 325.136 899.49 324.751C896.406 324.225 892.912 324.577 889.763 324.895L889.589 324.912C885.863 325.287 881.977 326.198 878.837 328.288C877 329.468 875.535 331.516 874.149 333.454C873.648 334.155 873.157 334.842 872.662 335.468C869.043 340.076 863.347 342.702 857.811 339.54C855.822 338.428 854.273 336.798 853.043 334.927C852.115 334.082 851.353 333.098 850.838 331.984C849.651 329.414 848.91 327.044 848.367 324.576C847.738 323.511 847.05 322.481 846.361 321.449C845.33 319.903 844.293 318.351 843.439 316.661L843.347 316.478L843.236 316.257L843.008 315.8L843.007 315.799L843.006 315.798C841.916 313.62 840.842 311.475 839.329 309.609C838.239 308.61 836.716 307.193 838.223 308.516C837.424 307.792 836.559 307.136 835.694 306.479L835.688 306.474C834.888 305.867 834.088 305.26 833.341 304.599L833.327 304.591C835.002 306.133 833.59 305.048 832.247 304.017L831.807 303.68C827.275 301.108 822.088 299.411 817.41 299.086C810.49 298.603 803.145 298.175 796.651 300.8C784.728 305.623 771.048 303.586 760.668 295.871C755.779 292.229 753.809 286.237 751.953 280.593L751.949 280.582C751.786 280.084 751.623 279.59 751.459 279.099C749.781 274.141 749.753 268.781 749.902 263.466C758.889 266.784 763.596 270.579 763.596 270.579C763.733 270.4 763.879 270.22 764.034 270.04C764.14 270.121 764.193 270.164 764.193 270.164C765.554 268.389 767.797 266.534 770.196 264.842C774.958 261.57 780.097 259.005 780.097 259.005C780.053 258.991 780.01 258.977 779.967 258.963C780.43 258.721 780.694 258.59 780.694 258.59C769.832 255.055 762.361 250.662 757.41 245.837C758.228 245.628 759.045 245.379 759.839 245.137L759.841 245.136L759.842 245.136C760.625 244.897 761.386 244.666 762.105 244.485C764.66 243.842 766.789 242.556 768.759 240.787C771.599 238.254 773.93 235.183 776.242 232.135L776.243 232.134L776.249 232.127L776.249 232.126L776.251 232.124C777.359 230.663 778.463 229.208 779.618 227.821C785.896 220.271 793.176 213.656 800.43 207.063L800.434 207.06C802.034 205.606 803.634 204.153 805.221 202.69C807.781 200.312 810.428 198.197 813.099 196.064L813.108 196.056L813.11 196.055C814.045 195.308 814.983 194.559 815.92 193.796C819.327 191.063 823.478 188.009 827.737 186.776C835.029 184.633 846.952 182.918 852.648 189.456C857.545 195.082 854.671 203.441 852.488 209.603C852.23 210.343 851.86 211.099 851.487 211.86C850.861 213.139 850.226 214.435 850.093 215.711C849.827 217.908 851.317 220.051 852.914 221.444C854.069 222.461 855.319 223.285 856.56 224.103C858.523 225.397 860.463 226.675 861.963 228.678C864.625 232.107 865.317 235.911 865.583 240.145C865.742 242.609 866.647 244.913 868.776 246.36C869.48 246.833 870.248 247.135 871.026 247.441C871.482 247.622 871.943 247.803 872.396 248.021C872.783 248.194 873.161 248.428 873.541 248.664L873.542 248.664C874.103 249.012 874.668 249.362 875.27 249.521C875.857 249.684 876.443 249.723 877.023 249.762C877.971 249.825 878.903 249.888 879.795 250.486C881.179 251.397 881.711 252.736 881.924 254.29C882.455 258.564 881.017 262.003 879.396 265.881L879.393 265.888L879.385 265.906C879.311 266.084 879.236 266.264 879.161 266.444C879.071 266.66 878.98 266.877 878.89 267.096L878.788 267.342L878.709 267.532L878.496 268.044C876.683 272.391 874.198 278.348 876.229 282.635C877.932 286.172 882.084 290.726 885.863 291.798C890.121 293.03 894.965 293.405 899.33 293.405C901.05 293.442 902.747 293.707 904.452 293.974L904.455 293.974C905.228 294.095 906.002 294.216 906.782 294.316C908.82 294.558 910.887 294.527 912.94 294.497L912.945 294.497L912.95 294.497C913.146 294.494 913.341 294.491 913.537 294.489C913.67 294.487 913.802 294.485 913.935 294.484C914.284 294.48 914.632 294.477 914.979 294.477C915.785 294.477 916.4 294.777 916.824 295.234C917.528 295.318 918.212 295.693 918.705 296.46C922.249 301.985 928.285 302.953 934.162 303.897C935.523 304.115 936.876 304.332 938.187 304.604C942.179 305.462 946.97 305.569 951.069 305.194L951.337 305.168L951.342 305.167C955.139 304.801 958.985 304.43 962.779 303.854C965.31 303.474 967.708 302.391 970.047 301.336L970.048 301.335L970.054 301.332C971.008 300.902 971.953 300.476 972.893 300.103C976.14 298.817 979.44 296.62 982.155 294.477C985.615 291.798 988.223 288.797 990.884 285.315C991.407 284.626 991.934 283.91 992.467 283.185C993.889 281.251 995.36 279.252 996.944 277.529C997.417 276.417 998.536 275.542 1000.04 275.83C1002.29 276.259 1004.45 278.672 1006.2 280.636C1006.64 281.129 1007.05 281.594 1007.44 281.992C1010.58 285.207 1013.72 288.422 1016.33 292.173C1018.56 295.388 1019.89 299.996 1020.8 303.8C1021.86 308.087 1022.4 312.534 1022.5 316.928L1022.51 317.186C1022.61 320.782 1022.74 325.154 1023.83 328.555C1024.74 331.288 1027.4 337.397 1031.02 335.575C1033.02 334.589 1034.59 332.02 1035.97 329.748L1035.97 329.747C1036.55 328.808 1037.09 327.921 1037.62 327.216C1038.75 325.713 1039.96 324.311 1041.17 322.896C1042.12 321.79 1043.07 320.676 1044.01 319.5C1045.92 317.035 1048.11 314.785 1051.19 313.981C1052.29 313.679 1053.46 313.524 1054.61 313.371L1054.61 313.371L1054.61 313.37C1055.29 313.28 1055.97 313.19 1056.62 313.07C1056.78 313.047 1056.94 313.023 1057.1 312.999L1057.11 312.998C1058.42 312.803 1059.67 312.617 1061.04 312.856C1063 313.218 1064.48 314.331 1065.93 315.43C1066.82 316.098 1067.7 316.761 1068.67 317.246C1070.49 316.488 1072.37 315.808 1074.03 315.481C1074.77 315.335 1075.49 315.231 1076.2 315.166C1076.25 315.055 1076.29 314.952 1076.32 314.857C1076.36 314.748 1076.4 314.651 1076.42 314.57C1077.43 311.296 1075.94 308.788 1074.4 306.203L1074.39 306.195L1074.39 306.193C1074.07 305.651 1073.75 305.107 1073.44 304.551C1073.1 303.916 1072.75 303.305 1072.42 302.707L1072.41 302.696C1071.18 300.52 1070.04 298.495 1069.29 295.977C1067.06 288.529 1065.46 282.582 1070.41 275.83C1072.48 272.937 1075.04 270.097 1077.97 268.168C1078.67 267.708 1079.36 267.22 1080.05 266.731C1082.25 265.171 1084.48 263.598 1087.07 262.863C1089.68 262.107 1092.37 261.738 1095.07 261.366L1095.08 261.366C1096.4 261.184 1097.72 261.002 1099.05 260.774C1100.3 260.558 1101.54 260.301 1102.77 260.044L1102.78 260.043L1102.78 260.043L1102.78 260.042L1102.78 260.042L1102.8 260.04C1104.91 259.6 1107.02 259.162 1109.18 258.934C1109.4 258.876 1109.64 258.845 1109.9 258.845L1110.17 258.845C1110.49 258.822 1110.81 258.804 1111.13 258.791C1111.41 258.778 1111.66 258.801 1111.89 258.855C1112.2 258.858 1112.5 258.862 1112.81 258.865C1113.21 258.87 1113.6 258.875 1114 258.88C1116.74 258.916 1119.47 258.952 1122.2 258.845L1122.48 258.832L1122.75 258.819L1123.01 258.807L1123.47 258.784C1126.66 258.626 1129.8 258.469 1132.95 259.273C1136.75 260.229 1140.38 261.783 1144 263.334C1147.88 265 1151.76 266.663 1155.84 267.579C1159.74 268.441 1162.47 266.979 1165.52 265.342L1165.52 265.34C1166.26 264.943 1167.02 264.536 1167.82 264.149C1171.01 262.596 1174.26 261.577 1177.83 261.631C1181.13 261.685 1184.48 262.381 1187.3 264.203C1188.06 264.681 1188.82 265.438 1189.6 266.22L1189.6 266.22C1190.61 267.224 1191.65 268.266 1192.79 268.809C1192.97 268.271 1193.11 267.706 1193.24 267.148L1193.24 267.146C1193.41 266.475 1193.57 265.814 1193.79 265.221L1193.91 264.925L1193.91 264.924C1194.62 263.153 1195.31 261.419 1195.71 259.541C1196.46 256.058 1196.88 251.611 1196.46 248.021C1196.33 247.009 1195.97 246.025 1195.61 245.051C1194.86 243.035 1194.13 241.061 1195.6 238.966C1197.15 236.769 1200.34 235.965 1202.79 235.376C1205.88 234.625 1209.23 234.358 1212.37 234.893L1212.5 234.916L1212.58 234.931L1212.64 234.943L1212.73 234.96L1212.82 234.977C1220.17 233.205 1223.71 232.153 1231.05 225.41C1233.58 223.106 1235.79 220.505 1237.92 217.831C1238.26 217.214 1238.62 216.606 1239.04 216.032C1239.11 215.941 1239.17 215.85 1239.24 215.758C1239.33 215.645 1239.41 215.532 1239.49 215.419C1239.69 215.16 1239.89 214.901 1240.08 214.643L1240.12 214.597C1240.84 213.645 1241.56 212.692 1242.23 211.692C1244.2 208.692 1246.06 205.262 1247.4 201.94C1247.59 201.477 1247.76 200.996 1247.93 200.515C1248.61 198.604 1249.29 196.688 1251.33 195.832C1252.67 195.253 1254.24 195.177 1255.81 195.1C1257 195.042 1258.19 194.984 1259.27 194.707C1261.45 194.139 1263.48 193.281 1265.51 192.417L1265.52 192.415L1265.52 192.415C1266.75 191.892 1267.99 191.367 1269.27 190.902C1272.68 189.67 1275.61 188.545 1278.96 186.776C1279.93 186.265 1280.89 185.736 1281.86 185.206C1284.24 183.902 1286.63 182.592 1289.13 181.525C1290.31 181.013 1291.43 180.501 1292.51 179.942C1292.61 179.81 1292.71 179.679 1292.81 179.548C1292.91 179.427 1293 179.307 1293.09 179.186L1293.19 179.062L1293.28 178.953C1292.45 179.993 1292.57 179.815 1292.84 179.444C1292.99 179.222 1293.2 178.932 1293.28 178.792C1293.65 178.149 1294.08 177.56 1294.5 176.97C1294.77 176.622 1295.04 176.287 1295.3 175.952L1295.52 175.681L1295.62 175.524C1295.67 175.44 1295.71 175.357 1295.76 175.275C1295.81 175.18 1295.86 175.086 1295.92 174.992C1295.98 174.883 1296.04 174.775 1296.1 174.667L1296.1 174.666L1296.11 174.653C1296.26 174.376 1296.42 174.099 1296.58 173.809L1296.68 173.623L1296.82 173.374C1297.55 172.025 1298.49 170.315 1299.58 169.367C1299.7 169.115 1299.82 168.863 1299.93 168.611C1300.16 168.249 1300.43 167.925 1300.71 167.607C1300.76 167.376 1300.84 167.153 1300.94 166.95C1301.26 165.932 1301.69 165.021 1302.27 164.111L1302.4 163.935L1302.53 163.753L1302.54 163.738L1302.54 163.735L1302.54 163.731C1302.84 163.302 1303.16 162.849 1303.45 162.396C1303.49 162.31 1303.53 162.237 1303.56 162.175C1303.59 162.108 1303.61 162.04 1303.64 161.971C1303.65 161.936 1303.66 161.9 1303.67 161.865L1303.69 161.811L1303.71 161.753C1304.41 159.789 1304.89 157.796 1305.36 155.795L1305.37 155.773C1305.54 155.052 1305.71 154.33 1305.89 153.608C1307.38 147.607 1314.04 144.339 1319.52 147.5C1319.83 147.672 1320.13 147.865 1320.42 148.075C1313.52 165.519 1299.67 177.379 1291.07 183.411C1286.99 186.225 1284.24 187.647 1284.24 187.647C1284.21 187.696 1284.17 187.746 1284.14 187.796C1283.82 187.973 1283.64 188.062 1283.64 188.062C1280.03 192.938 1297.01 203.923 1297.01 203.923C1328.82 223.686 1308.12 247.436 1283.61 264.57C1264.35 277.92 1242.99 287.149 1242.99 287.149C1243.03 287.181 1243.07 287.213 1243.12 287.245C1242.64 287.456 1242.39 287.565 1242.39 287.565C1245.62 290.086 1261.21 290.494 1273.51 290.403C1272.06 292 1270.88 293.743 1269.69 295.492L1269.68 295.496C1268.77 296.836 1267.86 298.179 1266.82 299.46C1264.53 302.301 1262.74 305.348 1260.86 308.55L1260.76 308.73C1259.53 310.823 1258.96 313.136 1258.38 315.457C1258.06 316.761 1257.74 318.067 1257.3 319.339C1257.16 319.726 1257.03 320.1 1256.92 320.464L1256.79 320.841L1256.79 320.842C1256 323.267 1255.38 325.168 1252.98 326.734C1247.49 330.27 1247.67 337.564 1247.83 343.718C1247.86 344.838 1247.88 345.92 1247.87 346.934C1247.84 351.365 1243.09 352.584 1238.85 353.675C1237.09 354.127 1235.41 354.557 1234.19 355.186C1230.55 357.098 1226.99 358.934 1223.25 360.368C1222.17 360.877 1221.04 361.269 1219.88 361.527C1218.39 361.976 1216.87 362.351 1215.3 362.634C1209.71 363.652 1203.53 365.099 1199.81 369.814C1198.64 371.314 1194.75 377.476 1196.83 379.084C1197.74 379.834 1199.91 379.611 1201.47 379.45C1201.92 379.404 1202.32 379.363 1202.63 379.352C1205.47 379.261 1207.88 378.595 1210.62 377.841L1210.62 377.841C1211.12 377.703 1211.63 377.563 1212.16 377.423C1214.23 376.868 1216.35 376.472 1218.45 376.078L1218.45 376.078C1219.8 375.825 1221.15 375.572 1222.48 375.279C1229.78 373.672 1237.34 372.279 1244.52 371.261C1249.51 370.554 1254.58 370.725 1259.63 370.896L1259.63 370.896L1259.63 370.896C1261.86 370.971 1264.08 371.046 1266.29 371.046C1268.98 371.046 1271.67 371.076 1274.36 371.106H1274.39C1279.78 371.165 1285.16 371.225 1290.51 371.046C1294.24 370.885 1297.11 371.261 1300.62 372.493C1302.11 373.016 1303.56 373.63 1305.01 374.247L1305.01 374.247C1306.47 374.866 1307.93 375.485 1309.43 376.014C1321.6 378.029 1333.84 378.775 1341.19 372.279C1343.17 370.512 1345.28 369.353 1347.42 368.703C1348.18 367.87 1348.93 367.067 1349.65 366.331C1350.36 365.617 1351.04 364.872 1351.73 364.128C1353.1 362.64 1354.47 361.151 1356.04 359.901C1358.11 358.218 1360.29 357.506 1362.74 356.702L1363.12 356.579C1365.02 355.972 1367.02 355.137 1368.82 354.039C1370.32 353.09 1371.7 351.948 1372.86 350.56C1374.63 348.302 1375.88 345.132 1374.67 342.54C1373.01 338.948 1369.81 337.487 1366.59 336.019C1364.43 335.035 1362.27 334.048 1360.56 332.413C1356.84 328.859 1361.76 324.122 1364.92 321.086L1364.92 321.079L1364.95 321.053C1365.27 320.749 1365.56 320.462 1365.83 320.195L1365.92 320.103L1366.04 319.982L1366.15 319.875C1373.21 312.69 1378.68 303.917 1381.38 294.282C1383.42 293.622 1385.38 293.071 1387.26 292.618C1387.23 292.745 1387.2 292.872 1387.18 292.998C1387.24 292.915 1387.3 292.831 1387.36 292.748L1387.5 292.561C1411.94 286.76 1422.95 297.424 1422.95 297.424C1423.06 297.21 1423.18 296.997 1423.29 296.786C1423.46 296.929 1423.54 297.008 1423.54 297.008C1425.11 294.063 1427.03 291.418 1429.17 289.045C1429.61 289.037 1430.06 289.03 1430.51 289.024C1430.26 288.893 1430.03 288.724 1429.81 288.529C1429.78 288.503 1429.76 288.477 1429.73 288.45C1429.73 288.448 1429.72 288.445 1429.72 288.442C1430.82 287.269 1431.98 286.164 1433.17 285.124L1433.33 285.314L1433.3 285.271L1433.28 285.24L1433.21 285.15L1433.18 285.119C1434.53 283.948 1435.93 282.859 1437.36 281.846C1438.15 281.306 1438.95 280.788 1439.75 280.292L1439.77 280.331C1440 280.811 1440.23 281.303 1440.45 281.798L1440.45 281.802L1440.45 281.803C1441.02 283.074 1441.6 284.357 1442.48 285.475C1443.6 286.814 1445.2 287.672 1446.74 288.475C1448.71 289.547 1450.73 290.565 1452.86 291.208C1456.68 292.334 1460.75 292.31 1464.74 292.286H1464.75L1465.49 292.282L1465.92 292.281L1466 292.28V292C1496.74 291.008 1501.91 288.051 1506.87 284.101C1507.11 284.401 1507.34 284.706 1507.58 285.016C1520.64 307.603 1538.74 307.874 1551.02 306.264C1559.14 316.183 1565.34 328.25 1567 339.434C1575.2 339.072 1584.43 339.097 1594.17 339.58C1627.69 341.246 1640.84 345.189 1640.52 351.503C1640.35 355.062 1633.71 357.819 1623.2 359.698C1633.15 361.099 1643.49 362.916 1653.6 365.104C1650.18 378.37 1660.84 392.325 1720.57 392.5C1720.72 392.667 1720.86 392.833 1721 393C1742.36 393 1761.18 392.759 1778.42 391.537C1879.86 388.101 1911.32 376.251 1919.82 366.869L1919.5 430H0V375.017C10.607 407.854 77.74 406.74 240.89 404.033H240.895C291.588 403.192 351.552 402.197 421.969 402.019C431.575 402.236 440.508 402.351 448.597 402.351C451.258 402.372 453.854 402.387 456.387 402.395L456.268 402.812C521.804 403.012 545.07 399.125 550.748 394.761ZM1301.74 166.254C1301.53 166.631 1301.26 166.967 1300.97 167.298C1301.19 166.914 1301.45 166.553 1301.74 166.254ZM609.231 413.644C609.299 413.637 609.366 413.632 609.433 413.626C609.309 413.691 609.231 413.705 609.231 413.644ZM552.011 366.404L552.053 366.458C553.466 366.936 554.9 367.416 556.33 367.769C555.246 367.451 554.169 367.102 553.095 366.754L553.093 366.753L552.65 366.61C552.492 366.559 552.334 366.508 552.176 366.457L552.011 366.404ZM667.625 411.934C667.098 411.823 666.572 411.706 666.046 411.586C667.339 411.705 668.631 411.85 669.921 412.026C669.159 411.975 668.393 411.945 667.625 411.934ZM865.399 406.683L865.359 406.705L865.38 406.704L865.399 406.683ZM822.613 409.637C822.425 410.512 822.16 410.281 821.781 408.923C821.828 408.965 821.875 409.007 821.922 409.048L821.991 409.108C822.039 409.15 822.086 409.191 822.134 409.232C822.171 409.264 822.209 409.296 822.246 409.328C822.368 409.432 822.49 409.535 822.613 409.637ZM807.989 280.974C807.197 280.927 806.794 280.877 806.665 280.835C807.099 280.899 807.54 280.945 807.989 280.974ZM870.065 274.17C870.994 273.764 871.318 273.949 870.178 274.29C870.141 274.25 870.103 274.21 870.065 274.17ZM867.414 256.074L867.509 256.221L867.632 256.413C867.739 256.58 867.822 256.708 867.881 256.8C867.822 256.71 867.74 256.584 867.634 256.424L867.526 256.261L867.393 256.058C867.354 255.992 867.318 255.93 867.283 255.87L867.414 256.074ZM844.398 246.628C845.165 248.471 845.638 249.572 845.798 249.931L846.341 222.013C845.087 226.34 842.754 230.525 840.478 234.608C839.406 236.53 838.348 238.429 837.42 240.309C837.997 240.546 838.566 240.812 839.128 241.109C840.06 241.602 840.952 242.32 841.762 243.148C842.223 243.248 842.349 243.382 842.139 243.547C843.022 244.515 843.794 245.597 844.398 246.628ZM846.626 251.122C846.613 251.143 846.501 251.053 846.333 250.793C846.556 250.973 846.64 251.102 846.626 251.122ZM855.405 288.138C855.389 288.124 855.375 288.112 855.363 288.101L855.388 288.122L855.403 288.135L855.405 288.138ZM855.408 288.14L855.405 288.138C855.408 288.14 855.41 288.141 855.408 288.14ZM1025.22 340.044L1025.18 339.964L1025.15 339.897L1025.11 339.804L1025.14 339.827L1025.19 339.862C1025.22 339.88 1025.24 339.897 1025.27 339.915L1025.31 339.944L1025.38 339.989L1025.44 340.022L1025.49 340.059L1025.57 340.109L1025.47 340.114L1025.38 340.119L1025.3 340.123L1025.26 340.126L1025.22 340.044ZM1039.1 344.844C1040.27 345.534 1041.28 346.151 1041.94 346.555L1041.95 346.555L1041.95 346.56L1041.96 346.563L1041.97 346.572L1042.28 346.758L1042.36 346.807L1042.47 346.877L1042.51 346.897L1042.6 346.95C1042.65 346.984 1042.7 347.01 1042.73 347.026C1042.75 347.041 1042.77 347.047 1042.77 347.045C1042.78 347.032 1042.17 346.613 1040.68 345.59L1040.67 345.589L1039.59 344.844H1039.1ZM1002.03 383.752C999.571 384.917 997.177 386.231 994.885 387.546C996.13 387.059 997.335 386.527 998.496 385.942C999.722 385.325 1000.89 384.584 1002.03 383.752ZM1200.98 241.497C1200.71 241.883 1200.46 242.281 1200.22 242.69C1200.13 242.445 1200.09 242.244 1200.13 242.127C1200.21 241.878 1200.56 241.669 1200.98 241.497ZM1397.66 316.759C1396.54 318.571 1396.63 320.576 1396.71 322.644L1396.71 322.648L1396.72 322.892L1396.73 323.095C1396.73 323.24 1396.74 323.385 1396.74 323.53C1396.75 323.794 1396.76 324.058 1396.76 324.323C1396.76 327.538 1397.08 329.895 1399.31 332.307C1401.39 334.557 1403.52 335.522 1406.5 335.522C1407.27 335.522 1408.06 335.54 1408.87 335.558L1408.87 335.558L1408.88 335.558C1411.19 335.61 1413.6 335.665 1415.81 335.307C1418.37 334.87 1420.97 333.992 1423.46 333.154L1424.22 332.896C1427.42 331.878 1430.5 330.431 1433.27 328.556C1434.56 327.665 1435.9 326.852 1437.24 326.041L1437.24 326.041L1437.24 326.039L1437.25 326.039C1438.41 325.338 1439.56 324.639 1440.67 323.894C1445.46 320.679 1448.87 314.946 1449.4 309.159C1449.72 305.676 1449.45 303.104 1446.85 300.639C1444.77 298.603 1442.11 296.514 1439.55 295.12C1437.41 293.922 1434.38 294.123 1431.67 294.304C1430.75 294.365 1429.87 294.424 1429.07 294.424C1428.5 294.435 1427.91 294.464 1427.32 294.493L1427.32 294.493C1426.61 294.528 1425.89 294.563 1425.17 294.57C1425.16 294.937 1425.14 295.3 1425.13 295.656C1424.97 298.389 1423.21 300.157 1421.24 301.925C1418.79 304.176 1415.97 306.105 1413.15 307.659C1412.22 308.173 1411.29 308.727 1410.36 309.284L1410.36 309.285L1410.36 309.287C1408.47 310.414 1406.58 311.55 1404.58 312.374L1404.48 312.415L1404.35 312.473C1404.29 312.494 1404.24 312.515 1404.19 312.537L1404.03 312.602L1403.91 312.65L1403.83 312.685L1403.67 312.748L1403.49 312.816L1403.3 312.891C1401.83 313.475 1400.35 314.058 1399.15 315.047L1399.1 315.107C1398.63 315.667 1398.16 316.227 1397.66 316.759Z" fill="url(#paint0_linear_68_254)"/>
<path fill-rule="evenodd" clip-rule="evenodd" d="M1177.35 61.3841C1177.26 62.8844 1177.3 64.48 1177.46 66.1754C1177.46 66.1754 1165.91 48.4396 1136.8 75.9274C1136.8 75.9274 1139.12 55.3744 1131.18 45.3183C1130.04 43.8818 1128.7 42.6594 1127.11 41.7418C1127.11 41.7418 1125.3 26.4708 1113.16 27.0602C1113.16 27.0602 1097.16 -14.8062 1049.68 5.6119C1047.93 6.36433 1046.14 7.20136 1044.3 8.12816C1046.1 8.40596 1047.82 9.04396 1049.53 9.68196C1050.4 10.0074 1051.28 10.3329 1052.16 10.6106C1053.05 10.8885 1053.99 11.1026 1054.94 11.3182C1057.47 11.8921 1060.04 12.4771 1061.74 14.3078C1065.95 18.8087 1063.34 26.5781 1058.87 30.0074C1057.17 31.347 1057.11 34.2404 1059.51 34.8834C1060.75 35.2216 1061.98 35.5434 1063.2 35.8626L1063.2 35.8629C1068.16 37.1619 1072.98 38.4234 1077.77 40.6167C1078.11 40.7676 1078.51 40.9117 1078.94 41.0639C1080.19 41.5059 1081.64 42.0178 1082.24 42.9744C1082.69 43.717 1082.63 44.682 1082.58 45.5514L1082.58 45.5579C1082.57 45.8153 1082.56 46.0642 1082.56 46.2965C1082.56 47.0745 1082.52 47.8173 1082.44 48.5372C1081.06 51.166 1080.32 53.947 1079.76 56.7742L1079.69 56.8822L1079.6 57.0243L1079.57 57.0642C1079.19 57.6412 1078.81 58.2105 1078.56 58.8348C1078.16 59.8772 1078.17 60.9963 1078.19 62.1273L1078.19 62.1544C1078.19 62.3054 1078.19 62.4566 1078.19 62.6078L1078.19 62.7463C1078.19 63.2526 1078.21 63.7759 1078.24 64.3053V64.3236C1078.26 64.7227 1078.27 65.1252 1078.28 65.5262C1077.92 66.7856 1077.29 67.6718 1076.63 68.6027L1076.63 68.6038L1076.63 68.6063C1076.26 69.1317 1075.88 69.6721 1075.53 70.3014L1075.36 70.6117L1075.2 70.8954C1074.33 71.5113 1073.42 71.8787 1072.39 72.284C1071.93 72.4782 1071.47 72.6631 1071.02 72.8385C1067.42 73.6938 1063.55 73.142 1059.84 72.6126L1059.84 72.6124L1059.84 72.6118C1059.17 72.5169 1058.51 72.4227 1057.86 72.3375C1054.98 71.9624 1054.61 75.9811 1056.53 77.3207C1059.45 79.3568 1061.64 84.0721 1062.12 87.4478C1062.65 91.52 1061.32 95.0565 1059.72 98.7537C1058.12 102.451 1056.63 105.827 1054.77 109.202L1054.67 109.379C1053 112.376 1051.3 115.43 1050.57 118.794C1050.42 119.466 1050.5 120.058 1050.73 120.55C1051 121.598 1051.82 122.524 1053.17 122.651L1053.23 122.598C1058.47 123.038 1063.18 126.335 1067.56 129.399L1067.56 129.4C1068.51 130.066 1069.45 130.72 1070.37 131.332C1075.26 134.547 1080.32 137.279 1085.54 139.905C1090.75 142.531 1095.97 142.959 1101.72 142.959C1106.25 142.959 1110.37 141.793 1114.58 140.599C1115.61 140.308 1116.65 140.015 1117.69 139.737C1118.08 140.493 1118.54 141.212 1119.02 141.887C1119.47 142.535 1120.01 142.967 1120.59 143.432C1120.82 143.62 1121.06 143.814 1121.31 144.03C1121.62 144.307 1121.89 144.592 1122.16 144.871L1122.16 144.872C1122.61 145.346 1123.05 145.802 1123.65 146.173C1124.1 146.444 1124.6 146.631 1125.1 146.818L1125.1 146.819L1125.1 146.819C1125.49 146.965 1125.89 147.111 1126.26 147.298C1127.32 147.834 1128.39 148.263 1129.5 148.584C1130.62 148.906 1131.74 149.12 1132.91 149.335C1133.12 149.367 1133.35 149.38 1133.6 149.388C1133.59 149.576 1133.58 149.757 1133.55 149.924C1133.55 150.728 1133.55 151.478 1133.66 152.228C1133.87 153.514 1134.51 154.639 1135.47 155.55C1136.55 156.646 1137.76 157.499 1139.04 158.258C1138.52 158.724 1137.99 159.173 1137.46 159.622C1136.54 160.399 1135.63 161.176 1134.77 162.034C1134.35 162.48 1133.97 162.957 1133.6 163.434C1133.11 164.044 1132.63 164.653 1132.06 165.195C1131.44 165.814 1130.88 166.465 1130.31 167.122L1130.31 167.123L1130.3 167.125C1129.84 167.661 1129.37 168.202 1128.87 168.731C1127.62 170.016 1128.05 171.665 1129.08 172.6C1129.27 173.44 1129.85 174.193 1130.89 174.519V174.465C1131.88 174.771 1132.57 175.677 1133.21 176.521C1133.47 176.86 1133.72 177.19 1133.98 177.466C1134.41 177.938 1134.85 178.391 1135.3 178.842L1135.3 178.847L1135.31 178.854L1135.31 178.859C1136.12 179.682 1136.93 180.501 1137.65 181.431L1138.32 182.327L1138.32 182.329L1138.32 182.33C1140.2 184.838 1142.14 187.432 1143.61 190.111C1145.42 193.38 1146.96 197.238 1147.82 200.882C1148.38 203.271 1148.05 205.408 1147.71 207.582V207.583L1147.71 207.585C1147.51 208.871 1147.3 210.171 1147.28 211.544C1147.28 214.384 1150.8 214.92 1152.23 212.884C1152.73 212.195 1153.19 211.5 1153.65 210.815C1155.86 207.505 1157.91 204.439 1162.19 203.507C1166.66 202.543 1167.14 198.953 1167.46 194.827C1167.61 193.068 1167.18 191.675 1166.73 190.192L1166.73 190.188L1166.73 190.187L1166.73 190.186L1166.73 190.184C1166.54 189.546 1166.34 188.891 1166.18 188.182C1165.65 185.825 1165.59 182.931 1166.02 180.627C1166.89 175.652 1171.42 172.736 1175.44 170.144C1176.1 169.721 1176.75 169.306 1177.36 168.893C1181.08 166.374 1181.99 163.856 1182.57 159.462C1182.84 157.319 1182.84 154.908 1181.56 153.086C1180.75 151.921 1179.54 151.042 1178.36 150.18L1178.35 150.179C1177.69 149.694 1177.03 149.214 1176.45 148.692C1174.38 146.763 1172.09 144.62 1170.28 142.316C1168.47 140.012 1168.47 137.655 1168.47 134.976C1168.47 132.297 1168.79 130.046 1170.33 127.581C1170.8 126.822 1171.49 126.157 1172.19 125.487C1173.17 124.549 1174.16 123.603 1174.54 122.383C1175.07 120.64 1174.16 118.933 1173.31 117.358C1173.15 117.045 1172.98 116.737 1172.83 116.436C1171.66 114.078 1171.02 111.72 1170.97 109.041C1170.92 107.138 1171.21 105.229 1171.72 103.35C1171.92 103.026 1172.13 102.709 1172.35 102.398L1172.35 102.395L1172.35 102.392L1172.36 102.386L1172.36 102.383C1172.6 102.024 1172.84 101.673 1173.05 101.325C1173.41 100.707 1173.62 100.064 1173.84 99.4134C1173.94 99.1052 1174.04 98.7952 1174.16 98.4852C1174.54 97.557 1174.96 96.6536 1175.38 95.7517L1175.38 95.7487L1175.38 95.7471L1175.38 95.746C1176.19 93.995 1176.99 92.249 1177.52 90.3407C1179.01 85.1968 1179.97 79.6778 1179.97 74.3196L1179.97 74.0099L1179.97 73.4736C1179.98 71.0964 1179.99 68.7908 1179.27 66.4429C1178.79 64.9546 1178.2 63.4968 1177.61 62.037C1177.52 61.8194 1177.43 61.6018 1177.35 61.3841ZM1069.25 21.3271C1069.18 21.3452 1069.11 21.3642 1069.04 21.3841L1069.04 21.3945C1069.07 21.3843 1069.1 21.3741 1069.13 21.3641C1069.17 21.3516 1069.21 21.3393 1069.25 21.3271ZM1125.25 90.7233L1125.29 90.7013L1125.29 90.6889L1125.29 90.6813L1125.29 90.6608C1125.25 90.6991 1125.21 90.7374 1125.18 90.7756L1125.19 90.7633L1125.22 90.7463C1125.23 90.7387 1125.24 90.731 1125.25 90.7233ZM1154 119.007L1153.94 119.095C1153.9 119.158 1153.86 119.222 1153.82 119.286C1153.77 118.818 1153.72 118.351 1153.66 117.884C1153.78 118.238 1153.91 118.59 1154.04 118.939L1154 119.007ZM1153.53 202.414C1153.48 201.811 1153.4 201.213 1153.28 200.608C1153.76 200.874 1154.25 201.094 1154.76 201.268C1154.33 201.629 1153.92 202.012 1153.53 202.414ZM1148.49 162.825C1148.73 162.909 1149.08 163.337 1148.83 163.855C1148.14 163 1148.26 162.741 1148.49 162.825Z" fill="url(#paint1_linear_68_254)"/>
<path d="M676.629 268.127C667.148 272.114 656.969 277.512 646.13 284.684C646.13 284.684 646.113 284.691 646.08 284.704C645.627 284.893 642.299 286.448 644.495 290.692C644.632 290.959 644.792 291.236 644.975 291.524C645.373 291.733 645.776 291.935 646.184 292.133C646.278 292.178 646.372 292.225 646.467 292.272L646.574 292.325L646.625 292.35C646.713 292.394 646.802 292.439 646.891 292.484L647.171 292.625C648.3 293.197 649.462 293.784 650.655 294.115C653.583 294.865 657.255 294.49 660.076 293.419C662.37 292.548 664.874 291.535 666.817 289.92C667.838 289.33 668.786 288.616 669.605 287.793C671.208 286.137 672.113 284.194 672.932 282.161C673.064 281.983 673.197 281.806 673.331 281.631C675.087 279.326 675.832 276.326 676.098 273.432C676.115 273.221 676.125 273.011 676.131 272.803C676.422 271.266 676.55 269.693 676.629 268.127Z" fill="url(#paint2_linear_68_254)"/>
<path d="M206.7 428.522C76.0664 469.217 -54.5669 469.217 -185.2 428.522L-185.2 591H2166.2V428.522C2035.57 387.826 1904.93 387.826 1774.3 428.522C1643.67 469.217 1513.03 469.217 1382.4 428.522C1251.77 387.826 1121.13 387.826 990.5 428.522C859.866 469.217 729.233 469.217 598.6 428.522C467.966 387.826 337.333 387.826 206.7 428.522Z" fill="#2375B9"/>
<path d="M-174.3 468.219C-262.2 508.512 -350.1 508.512 -438 468.219V641.5H2199V468.219C2111.1 427.927 2023.2 427.927 1935.3 468.219C1847.4 508.512 1759.5 508.512 1671.6 468.219C1583.7 427.927 1495.8 427.927 1407.9 468.219C1320 508.512 1232.1 508.512 1144.2 468.219C1056.3 427.927 968.4 427.927 880.5 468.219C792.6 508.512 704.7 508.512 616.8 468.219C528.9 427.927 441 427.927 353.1 468.219C265.2 508.512 177.3 508.512 89.4 468.219C1.49997 427.927 -86.4 427.927 -174.3 468.219Z" fill="#01A6C4"/>
<defs>
<linearGradient id="paint0_linear_68_254" x1="959.597" y1="0" x2="959.597" y2="429.839" gradientUnits="userSpaceOnUse">
<stop stop-color="#89F0FF"/>
<stop offset="0.305" stop-color="#7FEEFE"/>
<stop offset="0.655" stop-color="#89F0FF"/>
<stop offset="1" stop-color="#A0F4FF"/>
</linearGradient>
<linearGradient id="paint1_linear_68_254" x1="959.597" y1="0" x2="959.597" y2="429.839" gradientUnits="userSpaceOnUse">
<stop stop-color="#89F0FF"/>
<stop offset="0.305" stop-color="#7FEEFE"/>
<stop offset="0.655" stop-color="#89F0FF"/>
<stop offset="1" stop-color="#A0F4FF"/>
</linearGradient>
<linearGradient id="paint2_linear_68_254" x1="959.597" y1="0" x2="959.597" y2="429.839" gradientUnits="userSpaceOnUse">
<stop stop-color="#89F0FF"/>
<stop offset="0.305" stop-color="#7FEEFE"/>
<stop offset="0.655" stop-color="#89F0FF"/>
<stop offset="1" stop-color="#A0F4FF"/>
</linearGradient>
</defs>
</svg>
