<svg width="469" height="119" viewBox="0 0 469 119" fill="none" xmlns="http://www.w3.org/2000/svg">
<path d="M5.35795 117V109.453L39.6619 60.2514H5.16193V50.0909H54.6903V57.6378L20.419 106.839H54.8864V117H5.35795ZM87.9815 117.98C83.081 117.98 78.8338 116.902 75.2401 114.746C71.6463 112.589 68.8584 109.573 66.8764 105.696C64.9162 101.819 63.9361 97.2888 63.9361 92.1051C63.9361 86.9214 64.9162 82.3802 66.8764 78.4815C68.8584 74.5829 71.6463 71.5554 75.2401 69.3991C78.8338 67.2429 83.081 66.1648 87.9815 66.1648C92.8821 66.1648 97.1293 67.2429 100.723 69.3991C104.317 71.5554 107.094 74.5829 109.054 78.4815C111.036 82.3802 112.027 86.9214 112.027 92.1051C112.027 97.2888 111.036 101.819 109.054 105.696C107.094 109.573 104.317 112.589 100.723 114.746C97.1293 116.902 92.8821 117.98 87.9815 117.98ZM88.0469 108.506C90.7041 108.506 92.9257 107.776 94.7116 106.317C96.4976 104.836 97.8262 102.854 98.6974 100.371C99.5904 97.8878 100.037 95.1217 100.037 92.0724C100.037 89.0014 99.5904 86.2244 98.6974 83.7415C97.8262 81.2367 96.4976 79.2438 94.7116 77.7628C92.9257 76.2817 90.7041 75.5412 88.0469 75.5412C85.3243 75.5412 83.0592 76.2817 81.2514 77.7628C79.4654 79.2438 78.1259 81.2367 77.233 83.7415C76.3617 86.2244 75.9261 89.0014 75.9261 92.0724C75.9261 95.1217 76.3617 97.8878 77.233 100.371C78.1259 102.854 79.4654 104.836 81.2514 106.317C83.0592 107.776 85.3243 108.506 88.0469 108.506ZM147.123 66.8182V75.9659H118.275V66.8182H147.123ZM125.397 54.7955H137.224V101.906C137.224 103.496 137.464 104.716 137.943 105.565C138.444 106.393 139.097 106.959 139.903 107.264C140.709 107.569 141.602 107.722 142.582 107.722C143.323 107.722 143.998 107.667 144.608 107.558C145.239 107.449 145.718 107.351 146.045 107.264L148.038 116.51C147.406 116.728 146.502 116.967 145.326 117.229C144.172 117.49 142.756 117.643 141.079 117.686C138.117 117.773 135.449 117.327 133.075 116.347C130.701 115.345 128.817 113.798 127.423 111.707C126.051 109.616 125.376 107.003 125.397 103.866V54.7955ZM158.615 117V50.0909H170.736V78.4162H201.74V50.0909H213.893V117H201.74V88.5767H170.736V117H158.615ZM240.994 118.013C237.814 118.013 234.95 117.446 232.401 116.314C229.875 115.16 227.871 113.461 226.39 111.217C224.931 108.974 224.201 106.208 224.201 102.919C224.201 100.088 224.724 97.7462 225.769 95.8949C226.815 94.0436 228.241 92.5625 230.049 91.4517C231.857 90.3409 233.893 89.5024 236.158 88.9361C238.445 88.348 240.808 87.9233 243.248 87.6619C246.188 87.357 248.573 87.0848 250.403 86.8452C252.232 86.5838 253.561 86.1918 254.388 85.669C255.238 85.1245 255.663 84.286 255.663 83.1534V82.9574C255.663 80.4962 254.933 78.5904 253.474 77.2401C252.014 75.8897 249.913 75.2145 247.168 75.2145C244.272 75.2145 241.974 75.8461 240.275 77.1094C238.598 78.3726 237.465 79.8646 236.877 81.5852L225.835 80.017C226.706 76.9678 228.143 74.4195 230.147 72.3722C232.151 70.303 234.601 68.7566 237.498 67.733C240.395 66.6875 243.596 66.1648 247.103 66.1648C249.521 66.1648 251.927 66.4479 254.323 67.0142C256.719 67.5805 258.908 68.517 260.89 69.8239C262.872 71.1089 264.462 72.8622 265.66 75.0838C266.88 77.3054 267.489 80.0824 267.489 83.4148V117H256.12V110.107H255.728C255.009 111.5 253.996 112.807 252.69 114.027C251.405 115.225 249.782 116.194 247.822 116.935C245.883 117.653 243.607 118.013 240.994 118.013ZM244.065 109.322C246.439 109.322 248.497 108.854 250.239 107.918C251.982 106.959 253.321 105.696 254.258 104.128C255.216 102.56 255.695 100.85 255.695 98.9986V93.0852C255.325 93.3902 254.693 93.6733 253.8 93.9347C252.929 94.196 251.949 94.4247 250.86 94.6207C249.771 94.8168 248.693 94.991 247.626 95.1435C246.558 95.2959 245.633 95.4266 244.849 95.5355C243.085 95.7751 241.505 96.1671 240.112 96.7116C238.718 97.2562 237.618 98.0185 236.812 98.9986C236.006 99.9569 235.603 101.198 235.603 102.723C235.603 104.901 236.398 106.545 237.988 107.656C239.578 108.767 241.603 109.322 244.065 109.322ZM301.271 117.98C296.261 117.98 291.96 116.88 288.366 114.68C284.794 112.481 282.039 109.442 280.1 105.565C278.183 101.667 277.225 97.1799 277.225 92.1051C277.225 87.0085 278.205 82.5109 280.165 78.6122C282.126 74.6918 284.892 71.6425 288.464 69.4645C292.058 67.2647 296.305 66.1648 301.205 66.1648C305.278 66.1648 308.883 66.9162 312.019 68.419C315.177 69.9001 317.693 72.0019 319.566 74.7244C321.439 77.4252 322.506 80.5833 322.768 84.1989H311.464C311.006 81.7812 309.917 79.7666 308.197 78.1548C306.498 76.5213 304.222 75.7045 301.369 75.7045C298.951 75.7045 296.827 76.358 294.998 77.6648C293.168 78.9498 291.742 80.8011 290.718 83.2188C289.716 85.6364 289.215 88.5331 289.215 91.9091C289.215 95.3286 289.716 98.2689 290.718 100.73C291.72 103.17 293.125 105.054 294.933 106.382C296.762 107.689 298.907 108.342 301.369 108.342C303.111 108.342 304.668 108.016 306.04 107.362C307.434 106.687 308.6 105.718 309.536 104.455C310.473 103.191 311.115 101.656 311.464 99.848H322.768C322.485 103.398 321.439 106.545 319.631 109.29C317.824 112.012 315.362 114.147 312.248 115.693C309.133 117.218 305.474 117.98 301.271 117.98ZM343.26 101.253L343.228 86.9759H345.123L363.157 66.8182H376.976L354.793 91.517H352.343L343.26 101.253ZM332.479 117V50.0909H344.306V117H332.479ZM363.973 117L347.638 94.1634L355.61 85.8324L378.12 117H363.973ZM424.52 80.0824L413.739 81.2585C413.434 80.1695 412.9 79.1458 412.138 78.1875C411.397 77.2292 410.395 76.456 409.132 75.8679C407.869 75.2798 406.322 74.9858 404.493 74.9858C402.032 74.9858 399.963 75.5194 398.286 76.5866C396.63 77.6539 395.813 79.0369 395.835 80.7358C395.813 82.1951 396.347 83.3821 397.436 84.2969C398.547 85.2116 400.376 85.9631 402.925 86.5511L411.484 88.3807C416.232 89.4044 419.761 91.027 422.07 93.2486C424.4 95.4702 425.576 98.3778 425.598 101.972C425.576 105.13 424.651 107.918 422.821 110.335C421.013 112.731 418.498 114.604 415.274 115.955C412.051 117.305 408.348 117.98 404.166 117.98C398.024 117.98 393.08 116.695 389.334 114.125C385.588 111.533 383.355 107.929 382.636 103.311L394.169 102.2C394.692 104.465 395.803 106.175 397.501 107.33C399.2 108.484 401.411 109.061 404.134 109.061C406.943 109.061 409.197 108.484 410.896 107.33C412.617 106.175 413.477 104.749 413.477 103.05C413.477 101.612 412.922 100.425 411.811 99.4886C410.722 98.5521 409.023 97.8333 406.714 97.3324L398.155 95.5355C393.341 94.5336 389.78 92.8456 387.472 90.4716C385.163 88.0758 384.019 85.0483 384.041 81.3892C384.019 78.2964 384.858 75.6174 386.557 73.3523C388.277 71.0653 390.662 69.3011 393.712 68.0597C396.783 66.7964 400.322 66.1648 404.33 66.1648C410.21 66.1648 414.839 67.4171 418.214 69.9219C421.612 72.4266 423.714 75.8134 424.52 80.0824Z" fill="#0A0A0A"/>
<path d="M6.86932 39V9.90909H12.1392V22.2244H25.6193V9.90909H30.9034V39H25.6193V26.642H12.1392V39H6.86932ZM42.6861 39.4403C41.3035 39.4403 40.0582 39.1941 38.9503 38.7017C37.8518 38.1998 36.9806 37.4612 36.3366 36.4858C35.7022 35.5104 35.3849 34.3078 35.3849 32.8778C35.3849 31.6468 35.6122 30.6288 36.0668 29.8239C36.5213 29.0189 37.1416 28.375 37.9276 27.892C38.7135 27.4091 39.599 27.0445 40.5838 26.7983C41.5781 26.5426 42.6056 26.358 43.6662 26.2443C44.9446 26.1117 45.9815 25.9934 46.777 25.8892C47.5724 25.7756 48.1501 25.6051 48.5099 25.3778C48.8793 25.1411 49.0639 24.7765 49.0639 24.2841V24.1989C49.0639 23.1288 48.7467 22.3002 48.1122 21.7131C47.4777 21.1259 46.5639 20.8324 45.3707 20.8324C44.1113 20.8324 43.1122 21.107 42.3736 21.6562C41.6444 22.2055 41.152 22.8542 40.8963 23.6023L36.0952 22.9205C36.474 21.5947 37.099 20.4867 37.9702 19.5966C38.8414 18.697 39.9067 18.0246 41.1662 17.5795C42.4257 17.125 43.8177 16.8977 45.3423 16.8977C46.3935 16.8977 47.4399 17.0208 48.4815 17.267C49.5232 17.5133 50.4749 17.9205 51.3366 18.4886C52.1984 19.0473 52.8897 19.8097 53.4105 20.7756C53.9408 21.7415 54.206 22.9489 54.206 24.3977V39H49.2628V36.0028H49.0923C48.7798 36.6089 48.3395 37.1771 47.7713 37.7074C47.2126 38.2282 46.5071 38.6496 45.6548 38.9716C44.812 39.2841 43.8224 39.4403 42.6861 39.4403ZM44.0213 35.6619C45.0535 35.6619 45.9484 35.4583 46.706 35.0511C47.4635 34.6345 48.0459 34.0852 48.4531 33.4034C48.8698 32.7216 49.0781 31.9782 49.0781 31.1733V28.6023C48.9171 28.7348 48.6425 28.858 48.2543 28.9716C47.8755 29.0852 47.4493 29.1847 46.9759 29.2699C46.5024 29.3551 46.0336 29.4309 45.5696 29.4972C45.1056 29.5634 44.7031 29.6203 44.3622 29.6676C43.5952 29.7718 42.9086 29.9422 42.3026 30.179C41.6965 30.4157 41.2183 30.7472 40.8679 31.1733C40.5175 31.59 40.3423 32.1297 40.3423 32.7926C40.3423 33.7396 40.688 34.4545 41.3793 34.9375C42.0705 35.4205 42.9512 35.6619 44.0213 35.6619ZM68.8935 39.4261C66.7154 39.4261 64.8452 38.9479 63.2827 37.9915C61.7296 37.035 60.5317 35.714 59.6889 34.0284C58.8556 32.3333 58.4389 30.3826 58.4389 28.1761C58.4389 25.9602 58.8651 24.0047 59.7173 22.3097C60.5696 20.6051 61.7723 19.2794 63.3253 18.3324C64.8878 17.3759 66.7344 16.8977 68.8651 16.8977C70.6359 16.8977 72.2031 17.2244 73.5668 17.8778C74.9399 18.5218 76.0336 19.4356 76.848 20.6193C77.6624 21.7936 78.1264 23.1667 78.2401 24.7386H73.3253C73.1264 23.6875 72.6529 22.8116 71.9048 22.1108C71.1662 21.4006 70.1766 21.0455 68.9361 21.0455C67.8849 21.0455 66.9616 21.3295 66.1662 21.8977C65.3707 22.4564 64.7505 23.2614 64.3054 24.3125C63.8698 25.3636 63.652 26.6231 63.652 28.0909C63.652 29.5777 63.8698 30.8561 64.3054 31.9261C64.741 32.9867 65.3518 33.8059 66.1378 34.3835C66.9332 34.9517 67.866 35.2358 68.9361 35.2358C69.6937 35.2358 70.3707 35.0937 70.9673 34.8097C71.5734 34.5161 72.08 34.0947 72.4872 33.5455C72.8944 32.9962 73.1738 32.3286 73.3253 31.5426H78.2401C78.117 33.0862 77.6624 34.4545 76.8764 35.6477C76.0904 36.8314 75.0204 37.7595 73.6662 38.4318C72.312 39.0947 70.7211 39.4261 68.8935 39.4261ZM87.1499 32.1534L87.1357 25.946H87.9595L95.8004 17.1818H101.809L92.1641 27.9205H91.0987L87.1499 32.1534ZM82.4624 39V9.90909H87.6044V39H82.4624ZM96.1555 39L89.0533 29.071L92.5192 25.4489L102.306 39H96.1555ZM121.436 39.4403C120.054 39.4403 118.808 39.1941 117.7 38.7017C116.602 38.1998 115.731 37.4612 115.087 36.4858C114.452 35.5104 114.135 34.3078 114.135 32.8778C114.135 31.6468 114.362 30.6288 114.817 29.8239C115.271 29.0189 115.892 28.375 116.678 27.892C117.464 27.4091 118.349 27.0445 119.334 26.7983C120.328 26.5426 121.356 26.358 122.416 26.2443C123.695 26.1117 124.732 25.9934 125.527 25.8892C126.322 25.7756 126.9 25.6051 127.26 25.3778C127.629 25.1411 127.814 24.7765 127.814 24.2841V24.1989C127.814 23.1288 127.497 22.3002 126.862 21.7131C126.228 21.1259 125.314 20.8324 124.121 20.8324C122.861 20.8324 121.862 21.107 121.124 21.6562C120.394 22.2055 119.902 22.8542 119.646 23.6023L114.845 22.9205C115.224 21.5947 115.849 20.4867 116.72 19.5966C117.591 18.697 118.657 18.0246 119.916 17.5795C121.176 17.125 122.568 16.8977 124.092 16.8977C125.143 16.8977 126.19 17.0208 127.232 17.267C128.273 17.5133 129.225 17.9205 130.087 18.4886C130.948 19.0473 131.64 19.8097 132.161 20.7756C132.691 21.7415 132.956 22.9489 132.956 24.3977V39H128.013V36.0028H127.842C127.53 36.6089 127.089 37.1771 126.521 37.7074C125.963 38.2282 125.257 38.6496 124.405 38.9716C123.562 39.2841 122.572 39.4403 121.436 39.4403ZM122.771 35.6619C123.804 35.6619 124.698 35.4583 125.456 35.0511C126.214 34.6345 126.796 34.0852 127.203 33.4034C127.62 32.7216 127.828 31.9782 127.828 31.1733V28.6023C127.667 28.7348 127.393 28.858 127.004 28.9716C126.625 29.0852 126.199 29.1847 125.726 29.2699C125.252 29.3551 124.784 29.4309 124.32 29.4972C123.856 29.5634 123.453 29.6203 123.112 29.6676C122.345 29.7718 121.659 29.9422 121.053 30.179C120.446 30.4157 119.968 30.7472 119.618 31.1733C119.268 31.59 119.092 32.1297 119.092 32.7926C119.092 33.7396 119.438 34.4545 120.129 34.9375C120.821 35.4205 121.701 35.6619 122.771 35.6619ZM149.021 17.1818V21.1591H136.479V17.1818H149.021ZM139.575 11.9545H144.717V32.4375C144.717 33.1288 144.821 33.6591 145.03 34.0284C145.248 34.3883 145.532 34.6345 145.882 34.767C146.232 34.8996 146.621 34.9659 147.047 34.9659C147.369 34.9659 147.662 34.9422 147.928 34.8949C148.202 34.8475 148.411 34.8049 148.553 34.767L149.419 38.7869C149.144 38.8816 148.751 38.9858 148.24 39.0994C147.738 39.2131 147.123 39.2794 146.393 39.2983C145.106 39.3362 143.946 39.142 142.913 38.7159C141.881 38.2803 141.062 37.608 140.456 36.6989C139.859 35.7898 139.566 34.6534 139.575 33.2898V11.9545ZM181.809 9.90909H187.079V28.9148C187.079 30.9981 186.586 32.8305 185.602 34.4119C184.626 35.9934 183.253 37.2292 181.482 38.1193C179.711 39 177.642 39.4403 175.275 39.4403C172.898 39.4403 170.824 39 169.053 38.1193C167.282 37.2292 165.909 35.9934 164.934 34.4119C163.959 32.8305 163.471 30.9981 163.471 28.9148V9.90909H168.741V28.4744C168.741 29.6866 169.006 30.7661 169.536 31.7131C170.076 32.66 170.834 33.4034 171.809 33.9432C172.784 34.4735 173.94 34.7386 175.275 34.7386C176.61 34.7386 177.765 34.4735 178.741 33.9432C179.726 33.4034 180.483 32.66 181.013 31.7131C181.544 30.7661 181.809 29.6866 181.809 28.4744V9.90909ZM217.707 19.7244H212.395C212.243 18.8532 211.964 18.0814 211.557 17.4091C211.15 16.7273 210.643 16.1496 210.037 15.6761C209.431 15.2027 208.74 14.8475 207.963 14.6108C207.196 14.3646 206.367 14.2415 205.477 14.2415C203.896 14.2415 202.494 14.6392 201.273 15.4347C200.051 16.2206 199.095 17.3759 198.403 18.9006C197.712 20.4157 197.366 22.267 197.366 24.4545C197.366 26.6799 197.712 28.5549 198.403 30.0795C199.104 31.5947 200.061 32.7405 201.273 33.517C202.494 34.2841 203.891 34.6676 205.463 34.6676C206.334 34.6676 207.149 34.554 207.906 34.3267C208.673 34.09 209.36 33.7443 209.966 33.2898C210.581 32.8352 211.098 32.2765 211.514 31.6136C211.94 30.9508 212.234 30.1932 212.395 29.3409L217.707 29.3693C217.509 30.7519 217.078 32.0492 216.415 33.2614C215.761 34.4735 214.904 35.5436 213.844 36.4716C212.783 37.3902 211.543 38.1098 210.122 38.6307C208.702 39.142 207.125 39.3977 205.392 39.3977C202.835 39.3977 200.553 38.8059 198.545 37.6222C196.538 36.4384 194.956 34.7292 193.801 32.4943C192.646 30.2595 192.068 27.5795 192.068 24.4545C192.068 21.3201 192.651 18.6402 193.815 16.4148C194.98 14.1799 196.566 12.4706 198.574 11.2869C200.581 10.1032 202.854 9.51136 205.392 9.51136C207.011 9.51136 208.517 9.73864 209.909 10.1932C211.301 10.6477 212.542 11.3153 213.631 12.196C214.72 13.0672 215.615 14.1373 216.315 15.4062C217.026 16.6657 217.49 18.1051 217.707 19.7244ZM227.803 9.90909V39H222.533V9.90909H227.803Z" fill="#0A0A0A"/>
<path d="M418.566 56.1589V59H405.147V55.8121L410.723 52.1041C412.457 50.9481 413.621 49.9255 414.217 49.0362C414.813 48.1381 415.111 47.3156 415.111 46.5686C415.111 45.6705 414.813 44.9147 414.217 44.3011C413.621 43.6875 412.848 43.3807 411.896 43.3807C409.816 43.3807 408.62 44.6479 408.308 47.1822L405.147 46.3952C405.387 44.7768 406.103 43.3941 407.295 42.247C408.495 41.091 410.065 40.513 412.003 40.513C414.013 40.513 415.618 41.0865 416.818 42.2336C418.019 43.3719 418.619 44.8213 418.619 46.582C418.619 48.1381 418.085 49.5297 417.018 50.7569C415.951 51.9751 413.306 53.7758 409.082 56.1589H418.566ZM428.009 59.2801C425.777 59.2801 424.056 58.4176 422.847 56.6925C421.638 54.9585 421.033 52.7576 421.033 50.09C421.033 47.2089 421.664 44.8924 422.927 43.1407C424.199 41.3889 425.902 40.513 428.036 40.513C429.574 40.513 430.872 40.9265 431.931 41.7535C432.998 42.5716 433.789 43.7142 434.305 45.1814C434.829 46.6398 435.092 48.0092 435.092 49.2897C435.092 51.4327 434.847 53.1934 434.358 54.5717C433.869 55.9411 433.091 57.0704 432.024 57.9596C430.957 58.8399 429.619 59.2801 428.009 59.2801ZM427.996 56.7058C428.921 56.7058 429.668 56.4212 430.237 55.8521C430.806 55.283 431.193 54.4872 431.397 53.4646C431.602 52.442 431.704 51.0281 431.704 49.223C431.704 47.7291 431.45 46.3107 430.944 44.968C430.446 43.6253 429.485 42.9539 428.062 42.9539C425.59 42.9539 424.354 45.2392 424.354 49.8099C424.354 51.8817 424.617 53.549 425.141 54.8117C425.666 56.0744 426.617 56.7058 427.996 56.7058ZM450.631 56.1589V59H437.213V55.8121L442.788 52.1041C444.522 50.9481 445.687 49.9255 446.283 49.0362C446.878 48.1381 447.176 47.3156 447.176 46.5686C447.176 45.6705 446.878 44.9147 446.283 44.3011C445.687 43.6875 444.913 43.3807 443.962 43.3807C441.881 43.3807 440.685 44.6479 440.374 47.1822L437.213 46.3952C437.453 44.7768 438.169 43.3941 439.36 42.247C440.561 41.091 442.13 40.513 444.069 40.513C446.078 40.513 447.683 41.0865 448.884 42.2336C450.084 43.3719 450.684 44.8213 450.684 46.582C450.684 48.1381 450.151 49.5297 449.084 50.7569C448.017 51.9751 445.371 53.7758 441.147 56.1589H450.631ZM466.597 44.9413L463.823 45.4749C463.307 43.7676 462.24 42.9139 460.621 42.9139C459.074 42.9139 457.989 43.5853 457.367 44.928C456.753 46.2618 456.447 47.6713 456.447 49.1563C456.447 49.4497 456.451 49.7432 456.46 50.0366C457.367 48.2137 458.932 47.3022 461.155 47.3022C462.88 47.3022 464.321 47.8491 465.477 48.9429C466.633 50.0366 467.211 51.4149 467.211 53.0778C467.211 54.8384 466.593 56.3145 465.357 57.5061C464.121 58.6888 462.564 59.2801 460.688 59.2801C458.349 59.2801 456.509 58.4576 455.166 56.8125C453.832 55.1585 453.165 52.8955 453.165 50.0233C453.165 47.2044 453.819 44.9147 455.126 43.154C456.442 41.3933 458.203 40.513 460.408 40.513C463.725 40.513 465.788 41.9891 466.597 44.9413ZM460.568 56.8659C461.546 56.8659 462.369 56.5724 463.036 55.9855C463.712 55.3897 464.049 54.4827 464.049 53.2645C464.049 52.4375 463.729 51.6639 463.089 50.9436C462.458 50.2233 461.577 49.8632 460.448 49.8632C459.417 49.8632 458.585 50.2056 457.954 50.8903C457.322 51.575 457.007 52.4153 457.007 53.4112C457.007 54.416 457.331 55.243 457.98 55.8922C458.63 56.5413 459.492 56.8659 460.568 56.8659Z" fill="#FF310C"/>
</svg>
